%
M48
M72
T01C0.0100
%
T01
X2725Y4950
X2975Y4950
X3225Y4950
X3475Y4950
X3725Y4950
X3975Y4950
X4225Y4950
X4475Y4950
X4725Y4950
X4975Y4950
X5225Y4950
X5475Y4950
X5725Y4950
X5975Y4950
X6225Y4950
X6475Y4950
X6725Y4950
X6975Y4950
X6975Y5250
X6725Y5250
X6475Y5250
X6225Y5250
X5975Y5250
X5725Y5250
X5475Y5250
X5225Y5250
X4975Y5250
X4725Y5250
X4475Y5250
X4225Y5250
X3975Y5250
X3725Y5250
X3475Y5250
X3225Y5250
X2975Y5250
X2725Y5250
M30
