G75*
%MOIN*%
%OFA0B0*%
%FSLAX24Y24*%
%IPPOS*%
%LPD*%
%AMOC8*
5,1,8,0,0,1.08239X$1,22.5*
%
%ADD10C,0.0200*%
%ADD11R,0.0354X0.0276*%
%ADD12C,0.0080*%
D10*
X002725Y004950D03*
X002975Y004950D03*
X003225Y004950D03*
X003475Y004950D03*
X003725Y004950D03*
X003975Y004950D03*
X004225Y004950D03*
X004475Y004950D03*
X004725Y004950D03*
X004975Y004950D03*
X005225Y004950D03*
X005475Y004950D03*
X005725Y004950D03*
X005975Y004950D03*
X006225Y004950D03*
X006475Y004950D03*
X006725Y004950D03*
X006975Y004950D03*
X006975Y005250D03*
X006725Y005250D03*
X006475Y005250D03*
X006225Y005250D03*
X005975Y005250D03*
X005725Y005250D03*
X005475Y005250D03*
X005225Y005250D03*
X004975Y005250D03*
X004725Y005250D03*
X004475Y005250D03*
X004225Y005250D03*
X003975Y005250D03*
X003725Y005250D03*
X003475Y005250D03*
X003225Y005250D03*
X002975Y005250D03*
X002725Y005250D03*
D11*
X001500Y001794D03*
X001950Y001794D03*
X002400Y001794D03*
X002850Y001794D03*
X003300Y001794D03*
X003750Y001794D03*
X004200Y001794D03*
X004650Y001794D03*
X005100Y001794D03*
X005550Y001794D03*
X006000Y001794D03*
X006450Y001794D03*
X006900Y001794D03*
X007350Y001794D03*
X007800Y001794D03*
X008250Y001794D03*
X008250Y002306D03*
X008250Y002544D03*
X007800Y002544D03*
X007800Y002306D03*
X007350Y002306D03*
X007350Y002544D03*
X006900Y002544D03*
X006900Y002306D03*
X006450Y002306D03*
X006450Y002544D03*
X006000Y002544D03*
X006000Y002306D03*
X005550Y002306D03*
X005550Y002544D03*
X005100Y002544D03*
X005100Y002306D03*
X004650Y002306D03*
X004650Y002544D03*
X004200Y002544D03*
X004200Y002306D03*
X003750Y002306D03*
X003750Y002544D03*
X003300Y002544D03*
X003300Y002306D03*
X002850Y002306D03*
X002850Y002544D03*
X002400Y002544D03*
X002400Y002306D03*
X001950Y002306D03*
X001950Y002544D03*
X001500Y002544D03*
X001500Y002306D03*
X001500Y003056D03*
X001950Y003056D03*
X002400Y003056D03*
X002850Y003056D03*
X003300Y003056D03*
X003750Y003056D03*
X004200Y003056D03*
X004650Y003056D03*
X005100Y003056D03*
X005550Y003056D03*
X006000Y003056D03*
X006450Y003056D03*
X006900Y003056D03*
X007350Y003056D03*
X007800Y003056D03*
X008250Y003056D03*
X008250Y007144D03*
X007800Y007144D03*
X007350Y007144D03*
X006900Y007144D03*
X006450Y007144D03*
X006000Y007144D03*
X005550Y007144D03*
X005100Y007144D03*
X004650Y007144D03*
X004200Y007144D03*
X003750Y007144D03*
X003300Y007144D03*
X002850Y007144D03*
X002400Y007144D03*
X001950Y007144D03*
X001500Y007144D03*
X001500Y007656D03*
X001500Y007894D03*
X001950Y007894D03*
X001950Y007656D03*
X002400Y007656D03*
X002400Y007894D03*
X002850Y007894D03*
X002850Y007656D03*
X003300Y007656D03*
X003300Y007894D03*
X003750Y007894D03*
X003750Y007656D03*
X004200Y007656D03*
X004200Y007894D03*
X004650Y007894D03*
X004650Y007656D03*
X005100Y007656D03*
X005100Y007894D03*
X005550Y007894D03*
X005550Y007656D03*
X006000Y007656D03*
X006000Y007894D03*
X006450Y007894D03*
X006450Y007656D03*
X006900Y007656D03*
X006900Y007894D03*
X007350Y007894D03*
X007350Y007656D03*
X007800Y007656D03*
X007800Y007894D03*
X008250Y007894D03*
X008250Y007656D03*
X008250Y008406D03*
X007800Y008406D03*
X007350Y008406D03*
X006900Y008406D03*
X006450Y008406D03*
X006000Y008406D03*
X005550Y008406D03*
X005100Y008406D03*
X004650Y008406D03*
X004200Y008406D03*
X003750Y008406D03*
X003300Y008406D03*
X002850Y008406D03*
X002400Y008406D03*
X001950Y008406D03*
X001500Y008406D03*
D12*
X001500Y007894D02*
X001500Y007656D01*
X001950Y007656D02*
X001950Y007894D01*
X002400Y007894D02*
X002400Y007656D01*
X002850Y007656D02*
X002850Y007894D01*
X003300Y007894D02*
X003300Y007656D01*
X003750Y007656D02*
X003750Y007894D01*
X004200Y007894D02*
X004200Y007656D01*
X004650Y007656D02*
X004650Y007894D01*
X005100Y007894D02*
X005100Y007656D01*
X005550Y007656D02*
X005550Y007894D01*
X006000Y007894D02*
X006000Y007656D01*
X006450Y007656D02*
X006450Y007894D01*
X006900Y007894D02*
X006900Y007656D01*
X007350Y007656D02*
X007350Y007894D01*
X007800Y007894D02*
X007800Y007656D01*
X008250Y007656D02*
X008250Y007894D01*
X008250Y007144D02*
X008250Y006950D01*
X006725Y005425D01*
X006725Y005250D01*
X006475Y005250D02*
X006475Y005625D01*
X007800Y006950D01*
X007800Y007144D01*
X007350Y007144D02*
X007350Y006950D01*
X006225Y005825D01*
X006225Y005250D01*
X005975Y005250D02*
X005975Y006025D01*
X006900Y006950D01*
X006900Y007144D01*
X006450Y007144D02*
X006450Y006950D01*
X005725Y006225D01*
X005725Y005250D01*
X005475Y005250D02*
X005475Y006425D01*
X006000Y006950D01*
X006000Y007144D01*
X005550Y007144D02*
X005550Y006950D01*
X005225Y006625D01*
X005225Y005250D01*
X004975Y005250D02*
X004975Y006825D01*
X005100Y006950D01*
X005100Y007144D01*
X004725Y006875D02*
X004650Y006950D01*
X004650Y007144D01*
X004725Y006875D02*
X004725Y005250D01*
X004475Y005250D02*
X004475Y006675D01*
X004200Y006950D01*
X004200Y007144D01*
X003750Y007144D02*
X003750Y006950D01*
X004225Y006475D01*
X004225Y005250D01*
X003975Y005250D02*
X003975Y006275D01*
X003300Y006950D01*
X003300Y007144D01*
X002850Y007144D02*
X002850Y006950D01*
X003725Y006075D01*
X003725Y005250D01*
X003475Y005250D02*
X003475Y005875D01*
X002400Y006950D01*
X002400Y007144D01*
X001950Y007144D02*
X001950Y006950D01*
X003225Y005675D01*
X003225Y005250D01*
X002975Y005250D02*
X002975Y005475D01*
X001500Y006950D01*
X001500Y007144D01*
X002975Y004950D02*
X002975Y004725D01*
X001500Y003250D01*
X001500Y003056D01*
X001950Y003056D02*
X001950Y003250D01*
X003225Y004525D01*
X003225Y004950D01*
X003475Y004950D02*
X003475Y004325D01*
X002400Y003250D01*
X002400Y003056D01*
X002850Y003056D02*
X002850Y003250D01*
X003725Y004125D01*
X003725Y004950D01*
X003975Y004950D02*
X003975Y003925D01*
X003300Y003250D01*
X003300Y003056D01*
X003750Y003056D02*
X003750Y003250D01*
X004225Y003725D01*
X004225Y004950D01*
X004475Y004950D02*
X004475Y003525D01*
X004200Y003250D01*
X004200Y003056D01*
X004650Y003056D02*
X004650Y003250D01*
X004725Y003325D01*
X004725Y004950D01*
X004975Y004950D02*
X004975Y003375D01*
X005100Y003250D01*
X005100Y003056D01*
X005550Y003056D02*
X005550Y003250D01*
X005225Y003575D01*
X005225Y004950D01*
X005475Y004950D02*
X005475Y003775D01*
X006000Y003250D01*
X006000Y003056D01*
X006450Y003056D02*
X006450Y003250D01*
X005725Y003975D01*
X005725Y004950D01*
X005975Y004950D02*
X005975Y004175D01*
X006900Y003250D01*
X006900Y003056D01*
X007350Y003056D02*
X007350Y003250D01*
X006225Y004375D01*
X006225Y004950D01*
X006475Y004950D02*
X006475Y004575D01*
X007800Y003250D01*
X007800Y003056D01*
X008250Y003056D02*
X008250Y003250D01*
X006725Y004775D01*
X006725Y004950D01*
X006900Y002544D02*
X006900Y002306D01*
X006450Y002306D02*
X006450Y002544D01*
X006000Y002544D02*
X006000Y002306D01*
X005550Y002306D02*
X005550Y002544D01*
X005100Y002544D02*
X005100Y002306D01*
X004650Y002306D02*
X004650Y002544D01*
X004200Y002544D02*
X004200Y002306D01*
X003750Y002306D02*
X003750Y002544D01*
X003300Y002544D02*
X003300Y002306D01*
X002850Y002306D02*
X002850Y002544D01*
X002400Y002544D02*
X002400Y002306D01*
X001950Y002306D02*
X001950Y002544D01*
X001500Y002544D02*
X001500Y002306D01*
X007350Y002306D02*
X007350Y002544D01*
X007800Y002544D02*
X007800Y002306D01*
X008250Y002306D02*
X008250Y002544D01*
M02*
