G75*
%MOIN*%
%OFA0B0*%
%FSLAX24Y24*%
%IPPOS*%
%LPD*%
%AMOC8*
5,1,8,0,0,1.08239X$1,22.5*
%
%ADD10R,0.0150X0.0250*%
%ADD11C,0.0310*%
%ADD12C,0.0060*%
D10*
X000506Y001270D03*
X000756Y001270D03*
X001006Y001270D03*
X001256Y001270D03*
X001506Y001270D03*
X001756Y001270D03*
X002006Y001270D03*
X002256Y001270D03*
X002506Y001270D03*
X002756Y001270D03*
X002506Y001670D03*
X002256Y001670D03*
X002006Y001670D03*
X001756Y001670D03*
X001506Y001670D03*
X001256Y001670D03*
X001006Y001670D03*
X000756Y001670D03*
D11*
X000757Y000505D03*
X001005Y000840D03*
X001257Y000505D03*
X001505Y000840D03*
X001757Y000505D03*
X002005Y000840D03*
X002257Y000505D03*
X002505Y000840D03*
X002257Y002099D03*
X002506Y002434D03*
X002757Y002099D03*
X002005Y002434D03*
X001755Y002099D03*
X001506Y002434D03*
X001255Y002099D03*
X001006Y002434D03*
X000755Y002099D03*
X000505Y000840D03*
D12*
X000511Y000840D02*
X000511Y001290D01*
X000761Y001300D02*
X000761Y000500D01*
X001001Y000860D02*
X001001Y001310D01*
X001261Y001320D02*
X001261Y000520D01*
X001501Y000860D02*
X001501Y001310D01*
X001761Y001320D02*
X001761Y000520D01*
X002011Y000860D02*
X002011Y001310D01*
X002261Y001320D02*
X002261Y000520D01*
X002511Y000850D02*
X002511Y001300D01*
X002757Y001328D02*
X002757Y002102D01*
X002757Y002102D01*
X002510Y002427D02*
X002510Y001627D01*
X002261Y001642D02*
X002261Y002092D01*
X002012Y002431D02*
X002012Y001631D01*
X001755Y001648D02*
X001755Y002098D01*
X001506Y002431D02*
X001506Y001631D01*
X001257Y001648D02*
X001257Y002098D01*
X001012Y002427D02*
X001012Y001627D01*
X000760Y001644D02*
X000760Y002094D01*
M02*
