G75*
%MOIN*%
%OFA0B0*%
%FSLAX24Y24*%
%IPPOS*%
%LPD*%
%AMOC8*
5,1,8,0,0,1.08239X$1,22.5*
%
%ADD10C,0.0060*%
%ADD11C,0.0000*%
%ADD12C,0.0257*%
%ADD13C,0.0030*%
%ADD14C,0.0080*%
%ADD15C,0.0100*%
%ADD16C,0.0256*%
%ADD17C,0.0020*%
%ADD18R,0.0118X0.0118*%
D10*
X010753Y002160D02*
X011180Y002160D01*
X010966Y001947D02*
X010966Y002374D01*
D11*
X000160Y000120D02*
X000160Y010010D01*
X011340Y010010D01*
X011340Y000120D01*
X000160Y000120D01*
D12*
X003865Y004175D03*
D13*
X004502Y003900D02*
X004502Y003852D01*
X004695Y003658D01*
X004695Y003610D01*
X004797Y003658D02*
X004845Y003610D01*
X004942Y003610D01*
X004990Y003658D01*
X004990Y003852D01*
X004942Y003900D01*
X004845Y003900D01*
X004797Y003852D01*
X004695Y003900D02*
X004502Y003900D01*
X004570Y003495D02*
X004715Y003350D01*
X004522Y003350D01*
X004570Y003205D02*
X004570Y003495D01*
X004817Y003447D02*
X004865Y003495D01*
X004962Y003495D01*
X005010Y003447D01*
X005010Y003253D01*
X004962Y003205D01*
X004865Y003205D01*
X004817Y003253D01*
X005085Y004220D02*
X005375Y004220D01*
X005375Y004365D01*
X005327Y004413D01*
X005230Y004413D01*
X005182Y004365D01*
X005182Y004220D01*
X005182Y004317D02*
X005085Y004413D01*
X005085Y004515D02*
X005133Y004515D01*
X005327Y004708D01*
X005375Y004708D01*
X005375Y004515D01*
X006067Y005518D02*
X006067Y005808D01*
X006213Y005663D01*
X006019Y005663D01*
X006314Y005760D02*
X006362Y005808D01*
X006459Y005808D01*
X006507Y005760D01*
X006507Y005566D01*
X006459Y005518D01*
X006362Y005518D01*
X006314Y005566D01*
X006607Y005518D02*
X006704Y005518D01*
X006655Y005518D02*
X006655Y005808D01*
X006607Y005808D02*
X006704Y005808D01*
X006719Y006380D02*
X006670Y006428D01*
X006719Y006380D02*
X006816Y006380D01*
X006864Y006428D01*
X006864Y006622D01*
X006816Y006670D01*
X006719Y006670D01*
X006670Y006622D01*
X006569Y006573D02*
X006473Y006670D01*
X006473Y006380D01*
X006569Y006380D02*
X006376Y006380D01*
X006275Y006380D02*
X006275Y006428D01*
X006081Y006622D01*
X006081Y006670D01*
X006275Y006670D01*
X006204Y007205D02*
X006204Y007495D01*
X006059Y007495D01*
X006011Y007447D01*
X006011Y007350D01*
X006059Y007302D01*
X006204Y007302D01*
X006108Y007302D02*
X006011Y007205D01*
X005910Y007253D02*
X005861Y007205D01*
X005765Y007205D01*
X005716Y007253D01*
X005716Y007350D01*
X005765Y007398D01*
X005813Y007398D01*
X005910Y007350D01*
X005910Y007495D01*
X005716Y007495D01*
X004905Y007355D02*
X004905Y007259D01*
X004857Y007210D01*
X004808Y007210D01*
X004760Y007259D01*
X004760Y007355D01*
X004712Y007404D01*
X004663Y007404D01*
X004615Y007355D01*
X004615Y007259D01*
X004663Y007210D01*
X004712Y007210D01*
X004760Y007259D01*
X004760Y007355D02*
X004808Y007404D01*
X004857Y007404D01*
X004905Y007355D01*
X004857Y007109D02*
X004760Y007109D01*
X004712Y007061D01*
X004712Y006916D01*
X004712Y007012D02*
X004615Y007109D01*
X004615Y006916D02*
X004905Y006916D01*
X004905Y007061D01*
X004857Y007109D01*
X007782Y004947D02*
X007782Y004898D01*
X007831Y004850D01*
X007782Y004802D01*
X007782Y004753D01*
X007831Y004705D01*
X007927Y004705D01*
X007976Y004753D01*
X008077Y004705D02*
X008270Y004705D01*
X008077Y004898D01*
X008077Y004947D01*
X008125Y004995D01*
X008222Y004995D01*
X008270Y004947D01*
X008372Y004947D02*
X008420Y004995D01*
X008517Y004995D01*
X008565Y004947D01*
X008565Y004753D01*
X008517Y004705D01*
X008420Y004705D01*
X008372Y004753D01*
X007976Y004947D02*
X007927Y004995D01*
X007831Y004995D01*
X007782Y004947D01*
X007831Y004850D02*
X007879Y004850D01*
X008731Y005705D02*
X008925Y005705D01*
X008828Y005705D02*
X008828Y005995D01*
X008925Y005898D01*
X009123Y005995D02*
X009123Y005705D01*
X009219Y005705D02*
X009026Y005705D01*
X009219Y005898D02*
X009123Y005995D01*
X009320Y005947D02*
X009320Y005850D01*
X009369Y005802D01*
X009514Y005802D01*
X009417Y005802D02*
X009320Y005705D01*
X009514Y005705D02*
X009514Y005995D01*
X009369Y005995D01*
X009320Y005947D01*
X009415Y004045D02*
X009560Y003900D01*
X009366Y003900D01*
X009415Y003755D02*
X009415Y004045D01*
X009758Y004045D02*
X009758Y003755D01*
X009854Y003755D02*
X009661Y003755D01*
X009854Y003948D02*
X009758Y004045D01*
X009955Y003997D02*
X009955Y003900D01*
X010004Y003852D01*
X010149Y003852D01*
X010052Y003852D02*
X009955Y003755D01*
X010149Y003755D02*
X010149Y004045D01*
X010004Y004045D01*
X009955Y003997D01*
X009905Y003035D02*
X010002Y003035D01*
X010050Y002987D01*
X010050Y002793D01*
X010002Y002745D01*
X009905Y002745D01*
X009857Y002793D01*
X009755Y002793D02*
X009707Y002745D01*
X009610Y002745D01*
X009562Y002793D01*
X009562Y002842D01*
X009610Y002890D01*
X009659Y002890D01*
X009610Y002890D02*
X009562Y002938D01*
X009562Y002987D01*
X009610Y003035D01*
X009707Y003035D01*
X009755Y002987D01*
X009857Y002987D02*
X009905Y003035D01*
X009725Y001665D02*
X009580Y001665D01*
X009532Y001617D01*
X009532Y001520D01*
X009580Y001472D01*
X009725Y001472D01*
X009628Y001472D02*
X009532Y001375D01*
X009430Y001375D02*
X009237Y001375D01*
X009334Y001375D02*
X009334Y001665D01*
X009430Y001568D01*
X009725Y001665D02*
X009725Y001375D01*
X008100Y002450D02*
X007907Y002450D01*
X007805Y002450D02*
X007612Y002450D01*
X007709Y002450D02*
X007709Y002740D01*
X007805Y002643D01*
X008100Y002740D02*
X008100Y002450D01*
X007101Y002223D02*
X007005Y002223D01*
X007053Y002223D02*
X007053Y001933D01*
X007101Y001933D02*
X007005Y001933D01*
X006905Y001981D02*
X006857Y001933D01*
X006760Y001933D01*
X006712Y001981D01*
X006610Y001933D02*
X006417Y001933D01*
X006514Y001933D02*
X006514Y002223D01*
X006610Y002126D01*
X006712Y002174D02*
X006760Y002223D01*
X006857Y002223D01*
X006905Y002174D01*
X006905Y001981D01*
X003043Y003210D02*
X002946Y003210D01*
X002995Y003210D02*
X002995Y003500D01*
X003043Y003500D02*
X002946Y003500D01*
X002847Y003452D02*
X002847Y003258D01*
X002798Y003210D01*
X002701Y003210D01*
X002653Y003258D01*
X002552Y003210D02*
X002358Y003403D01*
X002358Y003452D01*
X002407Y003500D01*
X002503Y003500D01*
X002552Y003452D01*
X002653Y003452D02*
X002701Y003500D01*
X002798Y003500D01*
X002847Y003452D01*
X002552Y003210D02*
X002358Y003210D01*
X001565Y003288D02*
X001517Y003191D01*
X001420Y003094D01*
X001420Y003239D01*
X001372Y003288D01*
X001323Y003288D01*
X001275Y003239D01*
X001275Y003143D01*
X001323Y003094D01*
X001420Y003094D01*
X001275Y002993D02*
X001275Y002800D01*
X001275Y002896D02*
X001565Y002896D01*
X001468Y002800D01*
X001517Y002698D02*
X001565Y002650D01*
X001565Y002553D01*
X001517Y002505D01*
X001323Y002505D01*
X001275Y002553D01*
X001275Y002650D01*
X001323Y002698D01*
X001135Y002670D02*
X001135Y002525D01*
X000845Y002525D01*
X000942Y002525D02*
X000942Y002670D01*
X000990Y002718D01*
X001087Y002718D01*
X001135Y002670D01*
X000942Y002622D02*
X000845Y002718D01*
X000990Y002820D02*
X000990Y003013D01*
X000845Y002965D02*
X001135Y002965D01*
X000990Y002820D01*
X000777Y004855D02*
X000583Y004855D01*
X000535Y004903D01*
X000535Y005000D01*
X000583Y005048D01*
X000535Y005150D02*
X000535Y005343D01*
X000535Y005246D02*
X000825Y005246D01*
X000728Y005150D01*
X000777Y005048D02*
X000825Y005000D01*
X000825Y004903D01*
X000777Y004855D01*
X000825Y005444D02*
X000680Y005444D01*
X000728Y005541D01*
X000728Y005589D01*
X000680Y005638D01*
X000583Y005638D01*
X000535Y005589D01*
X000535Y005493D01*
X000583Y005444D01*
X000825Y005444D02*
X000825Y005638D01*
D14*
X005765Y006055D02*
X005765Y004845D01*
X006985Y004845D01*
X006985Y006055D01*
X005765Y006055D01*
X006084Y003796D02*
X006371Y003796D01*
X006959Y003796D02*
X007246Y003796D01*
X007246Y002634D02*
X006959Y002634D01*
X006371Y002634D02*
X006084Y002634D01*
D15*
X007354Y003904D02*
X007356Y003916D01*
X007361Y003927D01*
X007370Y003936D01*
X007381Y003941D01*
X007393Y003943D01*
X007405Y003941D01*
X007416Y003936D01*
X007425Y003927D01*
X007430Y003916D01*
X007432Y003904D01*
X007430Y003892D01*
X007425Y003881D01*
X007416Y003872D01*
X007405Y003867D01*
X007393Y003865D01*
X007381Y003867D01*
X007370Y003872D01*
X007361Y003881D01*
X007356Y003892D01*
X007354Y003904D01*
D16*
X006021Y005101D03*
D17*
X006779Y004780D02*
X006853Y004743D01*
X006926Y004670D01*
X006816Y004670D01*
X006779Y004633D01*
X006779Y004597D01*
X006816Y004560D01*
X006889Y004560D01*
X006926Y004597D01*
X006926Y004670D01*
X007000Y004670D02*
X007037Y004633D01*
X007147Y004633D01*
X007147Y004560D02*
X007147Y004780D01*
X007037Y004780D01*
X007000Y004743D01*
X007000Y004670D01*
X007074Y004633D02*
X007000Y004560D01*
X007024Y004465D02*
X007024Y004245D01*
X007097Y004245D02*
X006950Y004245D01*
X006876Y004282D02*
X006876Y004318D01*
X006839Y004355D01*
X006766Y004355D01*
X006729Y004318D01*
X006729Y004282D01*
X006766Y004245D01*
X006839Y004245D01*
X006876Y004282D01*
X006839Y004355D02*
X006876Y004392D01*
X006876Y004428D01*
X006839Y004465D01*
X006766Y004465D01*
X006729Y004428D01*
X006729Y004392D01*
X006766Y004355D01*
X007024Y004465D02*
X007097Y004392D01*
X007171Y004428D02*
X007208Y004465D01*
X007281Y004465D01*
X007318Y004428D01*
X007318Y004282D01*
X007281Y004245D01*
X007208Y004245D01*
X007171Y004282D01*
D18*
X010090Y001670D03*
M02*
