%
M48
M72
T01C0.0100
T02C0.0200
%
T01
X1350Y1600
X750Y3400
X1030Y4120
X1020Y4460
X1090Y4800
X740Y6210
X1650Y8580
X5060Y6390
X5060Y5760
X5070Y5200
X4640Y4870
X6300Y6190
X6420Y6860
X6410Y7250
X6135Y7725
X5780Y7750
X7010Y7220
X7020Y6890
X7420Y6780
X7550Y6310
X8110Y7180
X7240Y4930
X7510Y4440
X7810Y4140
X8390Y4220
X8930Y4240
X8860Y3530
X8700Y3200
X8420Y2640
X9450Y3600
X9550Y3270
X10050Y2410
X9710Y1890
X9990Y1410
X7080Y4070
X5650Y3060
X5100Y2860
X10650Y8660
X11050Y9740
T02
X970Y770
X1470Y770
X1970Y770
X2470Y770
X2970Y770
X3470Y770
X3970Y770
X4470Y770
X4970Y770
X5470Y770
X5970Y770
X6470Y770
X6970Y770
X7470Y770
X7970Y770
X8470Y770
X8970Y770
X9470Y770
X9970Y770
X10470Y770
X10470Y1665
X10470Y2165
X10470Y9370
X9970Y9370
X9470Y9370
X8970Y9370
X8470Y9370
X7970Y9370
X7470Y9370
X6970Y9370
X6470Y9370
X5970Y9370
X5470Y9370
X4970Y9370
X4470Y9370
X3970Y9370
X3470Y9370
X2970Y9370
X2470Y9370
X1970Y9370
X1470Y9370
X970Y9370
M30
