G75*
%MOIN*%
%OFA0B0*%
%FSLAX24Y24*%
%IPPOS*%
%LPD*%
%AMOC8*
5,1,8,0,0,1.08239X$1,22.5*
%
%ADD10C,0.0400*%
%ADD11R,0.0394X0.0106*%
%ADD12R,0.0106X0.0394*%
%ADD13R,0.0472X0.0118*%
%ADD14R,0.0394X0.0394*%
%ADD15R,0.0118X0.0256*%
%ADD16R,0.0256X0.0118*%
%ADD17R,0.0276X0.0354*%
%ADD18R,0.0354X0.0276*%
%ADD19R,0.0551X0.0472*%
%ADD20R,0.1000X0.0400*%
%ADD21C,0.0500*%
%ADD22C,0.0060*%
%ADD23C,0.0080*%
%ADD24C,0.0260*%
%ADD25C,0.0250*%
D10*
X000970Y000770D03*
X001470Y000770D03*
X001970Y000770D03*
X002470Y000770D03*
X002970Y000770D03*
X003470Y000770D03*
X003970Y000770D03*
X004470Y000770D03*
X004970Y000770D03*
X005470Y000770D03*
X005970Y000770D03*
X006470Y000770D03*
X006970Y000770D03*
X007470Y000770D03*
X007970Y000770D03*
X008470Y000770D03*
X008970Y000770D03*
X009470Y000770D03*
X009970Y000770D03*
X010470Y000770D03*
X010470Y001665D03*
X010470Y002165D03*
X010470Y009370D03*
X009970Y009370D03*
X009470Y009370D03*
X008970Y009370D03*
X008470Y009370D03*
X007970Y009370D03*
X007470Y009370D03*
X006970Y009370D03*
X006470Y009370D03*
X005970Y009370D03*
X005470Y009370D03*
X004970Y009370D03*
X004470Y009370D03*
X003970Y009370D03*
X003470Y009370D03*
X002970Y009370D03*
X002470Y009370D03*
X001970Y009370D03*
X001470Y009370D03*
X000970Y009370D03*
D11*
X001475Y007041D03*
X001475Y006845D03*
X001475Y006648D03*
X001475Y006451D03*
X001475Y006254D03*
X001475Y006057D03*
X001475Y005860D03*
X001475Y005663D03*
X001475Y005467D03*
X001475Y005270D03*
X001475Y005073D03*
X001475Y004876D03*
X001475Y004679D03*
X001475Y004482D03*
X001475Y004285D03*
X001475Y004089D03*
X005885Y004089D03*
X005885Y004285D03*
X005885Y004482D03*
X005885Y004679D03*
X005885Y004876D03*
X005885Y005073D03*
X005885Y005270D03*
X005885Y005467D03*
X005885Y005663D03*
X005885Y005860D03*
X005885Y006057D03*
X005885Y006254D03*
X005885Y006451D03*
X005885Y006648D03*
X005885Y006845D03*
X005885Y007041D03*
D12*
X005156Y007770D03*
X004960Y007770D03*
X004763Y007770D03*
X004566Y007770D03*
X004369Y007770D03*
X004172Y007770D03*
X003975Y007770D03*
X003778Y007770D03*
X003582Y007770D03*
X003385Y007770D03*
X003188Y007770D03*
X002991Y007770D03*
X002794Y007770D03*
X002597Y007770D03*
X002400Y007770D03*
X002204Y007770D03*
X002204Y003360D03*
X002400Y003360D03*
X002597Y003360D03*
X002794Y003360D03*
X002991Y003360D03*
X003188Y003360D03*
X003385Y003360D03*
X003582Y003360D03*
X003778Y003360D03*
X003975Y003360D03*
X004172Y003360D03*
X004369Y003360D03*
X004566Y003360D03*
X004763Y003360D03*
X004960Y003360D03*
X005156Y003360D03*
D13*
X008223Y003297D03*
X008223Y003553D03*
X008223Y003809D03*
X008223Y003042D03*
X009886Y003042D03*
X009886Y003297D03*
X009886Y003553D03*
X009886Y003809D03*
D14*
X008105Y007445D03*
D15*
X008105Y006697D03*
X008302Y006697D03*
X008499Y006697D03*
X007908Y006697D03*
X007711Y006697D03*
X007711Y008193D03*
X007908Y008193D03*
X008105Y008193D03*
X008302Y008193D03*
X008499Y008193D03*
D16*
X008853Y007839D03*
X008853Y007642D03*
X008853Y007445D03*
X008853Y007248D03*
X008853Y007051D03*
X007357Y007051D03*
X007357Y007248D03*
X007357Y007445D03*
X007357Y007642D03*
X007357Y007839D03*
D17*
X007374Y008560D03*
X007886Y008560D03*
X008274Y008560D03*
X008786Y008560D03*
X009484Y008170D03*
X009996Y008170D03*
X010384Y008260D03*
X010896Y008260D03*
X008666Y006300D03*
X008154Y006300D03*
X008394Y004730D03*
X008906Y004730D03*
X009614Y004235D03*
X010126Y004235D03*
X010301Y002735D03*
X009789Y002735D03*
X009281Y002585D03*
X008769Y002585D03*
X003116Y002620D03*
X002604Y002620D03*
X001056Y005680D03*
X000544Y005680D03*
X003274Y008550D03*
X003786Y008550D03*
X004614Y008580D03*
X004614Y008300D03*
X005126Y008300D03*
X005126Y008580D03*
D18*
X002810Y008756D03*
X002370Y008756D03*
X002370Y008244D03*
X002810Y008244D03*
X000710Y005306D03*
X000710Y004794D03*
X002180Y002676D03*
X002180Y002164D03*
X003260Y002116D03*
X003260Y001604D03*
X005120Y001614D03*
X005120Y002126D03*
X006430Y004824D03*
X006840Y005094D03*
X006430Y005336D03*
X006840Y005606D03*
X007280Y005826D03*
X007280Y005314D03*
X009240Y006334D03*
X009490Y006194D03*
X009920Y006354D03*
X009490Y006706D03*
X009240Y006846D03*
X009410Y007194D03*
X009870Y007214D03*
X009920Y006866D03*
X009870Y007726D03*
X009410Y007706D03*
X009430Y005686D03*
X009430Y005174D03*
X010375Y003651D03*
X010600Y003651D03*
X010600Y003139D03*
X010375Y003139D03*
D19*
X008903Y005195D03*
X008903Y005825D03*
X008077Y005825D03*
X008077Y005195D03*
X004603Y002605D03*
X004603Y001975D03*
X003777Y001975D03*
X003777Y002605D03*
D20*
X010720Y004960D03*
X010720Y007560D03*
D21*
X007040Y004510D03*
X007730Y002410D03*
X007730Y001700D03*
X007010Y001710D03*
X007010Y002400D03*
X008750Y001670D03*
X002720Y001860D03*
X001220Y007710D03*
X001220Y008310D03*
D22*
X002370Y008756D02*
X002810Y008756D01*
X002992Y007770D02*
X002991Y007770D01*
X003188Y007770D02*
X003188Y007770D01*
X004570Y008190D02*
X004570Y008460D01*
X004600Y008490D01*
X004600Y008870D01*
X004570Y008190D02*
X004763Y007997D01*
X004763Y007770D01*
X004772Y007779D01*
X004960Y007770D02*
X004968Y007779D01*
X005885Y007041D02*
X006201Y007041D01*
X006410Y007250D01*
X006640Y007530D02*
X006640Y006730D01*
X006560Y006650D01*
X005887Y006650D01*
X005885Y006648D01*
X005894Y006460D02*
X005885Y006451D01*
X005894Y006460D02*
X006620Y006460D01*
X006780Y006620D01*
X006780Y007400D01*
X006825Y007445D01*
X007357Y007445D01*
X007357Y007642D02*
X006752Y007642D01*
X006640Y007530D01*
X007150Y007050D02*
X007020Y006920D01*
X007020Y006890D01*
X007150Y007050D02*
X007356Y007050D01*
X007357Y007051D01*
X007171Y007051D01*
X007686Y006696D02*
X007710Y006696D01*
X007711Y006697D02*
X007564Y006550D01*
X007440Y006550D01*
X007250Y006360D01*
X006990Y006360D01*
X006640Y006010D01*
X006460Y006010D01*
X006370Y005920D01*
X006210Y005920D01*
X006150Y005860D01*
X005885Y005860D01*
X005885Y005860D01*
X005885Y005663D02*
X006113Y005663D01*
X006180Y005730D01*
X006390Y005730D01*
X006510Y005850D01*
X006700Y005850D01*
X007040Y006190D01*
X007430Y006190D01*
X007550Y006310D01*
X007680Y006090D02*
X007800Y006210D01*
X008064Y006210D01*
X008154Y006300D01*
X008290Y006685D02*
X008302Y006697D01*
X007680Y006090D02*
X007680Y005260D01*
X007750Y005190D01*
X008182Y005190D01*
X008077Y005195D01*
X008384Y004888D01*
X008394Y004730D01*
X009042Y005686D02*
X008903Y005825D01*
X009010Y005818D01*
X009042Y005686D02*
X009430Y005686D01*
X010480Y003730D02*
X010490Y003720D01*
X010490Y003620D01*
X010423Y003553D01*
X009886Y003553D01*
X009497Y003553D01*
X009450Y003600D01*
X009550Y003270D02*
X009859Y003270D01*
X009886Y003297D01*
X009886Y003553D02*
X010480Y003553D01*
X010418Y003197D02*
X010375Y003139D01*
X006405Y006845D02*
X006420Y006860D01*
X006405Y006845D02*
X005885Y006845D01*
X007711Y008193D02*
X007711Y008289D01*
X007630Y008370D01*
X007630Y008800D01*
X007700Y008870D01*
X008170Y008870D01*
X008270Y008770D01*
X008274Y008560D02*
X008270Y008554D01*
X008300Y008195D02*
X008302Y008193D01*
X008499Y008193D02*
X008500Y008194D01*
X007910Y008195D02*
X007908Y008193D01*
X010470Y009370D02*
X010470Y009380D01*
X010480Y009360D01*
X002600Y003358D02*
X002597Y003360D01*
D23*
X000160Y000140D02*
X000160Y010020D01*
X011300Y010020D01*
X011300Y009842D01*
X011279Y009893D01*
X011203Y009969D01*
X011104Y010010D01*
X010996Y010010D01*
X010897Y009969D01*
X010848Y009920D01*
X000625Y009920D01*
X000395Y009690D01*
X000290Y009585D01*
X000290Y006405D01*
X000475Y006220D01*
X000475Y006157D01*
X000515Y006060D01*
X000578Y005997D01*
X000573Y005997D01*
X000573Y005709D01*
X000515Y005709D01*
X000515Y005651D01*
X000266Y005651D01*
X000266Y005484D01*
X000276Y005449D01*
X000294Y005417D01*
X000320Y005391D01*
X000352Y005372D01*
X000388Y005363D01*
X000393Y005363D01*
X000393Y005110D01*
X000455Y005048D01*
X000447Y005044D01*
X000421Y005018D01*
X000402Y004986D01*
X000393Y004950D01*
X000393Y004823D01*
X000681Y004823D01*
X000681Y004765D01*
X000739Y004765D01*
X000739Y004516D01*
X000751Y004516D01*
X000160Y004516D01*
X000160Y004438D02*
X000750Y004438D01*
X000750Y004406D02*
X000791Y004307D01*
X000813Y004285D01*
X000801Y004273D01*
X000760Y004174D01*
X000760Y004066D01*
X000801Y003967D01*
X000877Y003891D01*
X000976Y003850D01*
X001084Y003850D01*
X001183Y003891D01*
X001207Y003915D01*
X001224Y003905D01*
X001260Y003895D01*
X001475Y003895D01*
X001475Y004089D01*
X001959Y004089D01*
X001960Y004090D01*
X001960Y004890D01*
X001770Y005080D01*
X001482Y005080D01*
X001475Y005073D01*
X001475Y005073D01*
X001138Y005073D01*
X001138Y005090D01*
X001007Y005090D01*
X000965Y005048D01*
X000973Y005044D01*
X000973Y005044D01*
X001036Y005070D01*
X001138Y005070D01*
X001138Y005073D01*
X001475Y005073D01*
X000989Y005073D01*
X000710Y004794D01*
X000456Y004794D01*
X000410Y004840D01*
X000410Y005546D01*
X000544Y005680D01*
X000515Y005694D02*
X000160Y005694D01*
X000160Y005772D02*
X000266Y005772D01*
X000266Y005709D02*
X000515Y005709D01*
X000515Y005997D01*
X000388Y005997D01*
X000352Y005988D01*
X000320Y005969D01*
X000294Y005943D01*
X000276Y005911D01*
X000266Y005876D01*
X000266Y005709D01*
X000266Y005615D02*
X000160Y005615D01*
X000160Y005537D02*
X000266Y005537D01*
X000273Y005458D02*
X000160Y005458D01*
X000160Y005380D02*
X000340Y005380D01*
X000393Y005301D02*
X000160Y005301D01*
X000160Y005223D02*
X000393Y005223D01*
X000393Y005144D02*
X000160Y005144D01*
X000160Y005066D02*
X000437Y005066D01*
X000403Y004987D02*
X000160Y004987D01*
X000160Y004909D02*
X000393Y004909D01*
X000393Y004830D02*
X000160Y004830D01*
X000160Y004752D02*
X000393Y004752D01*
X000393Y004765D02*
X000393Y004638D01*
X000402Y004602D01*
X000421Y004570D01*
X000447Y004544D01*
X000479Y004526D01*
X000514Y004516D01*
X000681Y004516D01*
X000681Y004765D01*
X000393Y004765D01*
X000393Y004673D02*
X000160Y004673D01*
X000160Y004595D02*
X000407Y004595D01*
X000681Y004595D02*
X000739Y004595D01*
X000739Y004673D02*
X000681Y004673D01*
X000681Y004752D02*
X000739Y004752D01*
X000751Y004516D02*
X000750Y004514D01*
X000750Y004406D01*
X000770Y004359D02*
X000160Y004359D01*
X000160Y004281D02*
X000809Y004281D01*
X000772Y004202D02*
X000160Y004202D01*
X000160Y004124D02*
X000760Y004124D01*
X000769Y004045D02*
X000160Y004045D01*
X000160Y003967D02*
X000802Y003967D01*
X000885Y003888D02*
X000160Y003888D01*
X000160Y003810D02*
X002810Y003810D01*
X002810Y003888D02*
X001175Y003888D01*
X001030Y004120D02*
X001195Y004285D01*
X001475Y004285D01*
X001475Y004089D02*
X001812Y004089D01*
X001812Y004160D01*
X001809Y004171D01*
X001812Y004174D01*
X001812Y004987D01*
X002148Y004987D01*
X002070Y005066D02*
X001812Y005066D01*
X001812Y005073D02*
X001475Y005073D01*
X001472Y005070D01*
X001475Y005073D02*
X001475Y005073D01*
X001812Y005073D01*
X001812Y005090D01*
X002046Y005090D01*
X002810Y004325D01*
X002810Y003697D01*
X002683Y003697D01*
X002680Y003694D01*
X002669Y003697D01*
X002597Y003697D01*
X002526Y003697D01*
X002499Y003690D01*
X002472Y003697D01*
X002400Y003697D01*
X002329Y003697D01*
X002318Y003694D01*
X002315Y003697D01*
X002092Y003697D01*
X002010Y003615D01*
X002010Y003105D01*
X002092Y003023D01*
X002315Y003023D01*
X002318Y003026D01*
X002329Y003023D01*
X002400Y003023D01*
X002400Y003360D01*
X002400Y003360D01*
X002402Y003358D01*
X002600Y003358D01*
X002597Y003360D02*
X002400Y003360D01*
X002400Y003120D01*
X002320Y003040D01*
X002240Y003040D01*
X002180Y002980D01*
X002180Y002676D01*
X002209Y002705D02*
X002151Y002705D01*
X002151Y002954D01*
X001984Y002954D01*
X001949Y002944D01*
X001917Y002926D01*
X001891Y002900D01*
X001872Y002868D01*
X001863Y002832D01*
X001863Y002705D01*
X002151Y002705D01*
X002151Y002647D01*
X001863Y002647D01*
X001863Y002520D01*
X001872Y002484D01*
X001891Y002452D01*
X001917Y002426D01*
X001925Y002422D01*
X001863Y002360D01*
X001863Y001968D01*
X001945Y001886D01*
X002330Y001886D01*
X002330Y001782D01*
X002389Y001639D01*
X002499Y001529D01*
X002642Y001470D01*
X002798Y001470D01*
X002941Y001529D01*
X002943Y001531D01*
X002943Y001460D01*
X001584Y001460D01*
X001620Y001546D01*
X001620Y001654D01*
X001579Y001753D01*
X001503Y001829D01*
X001404Y001870D01*
X001296Y001870D01*
X001197Y001829D01*
X001121Y001753D01*
X001080Y001654D01*
X001080Y001546D01*
X001121Y001447D01*
X001170Y001398D01*
X001170Y001295D01*
X001195Y001270D01*
X001105Y001270D01*
X000930Y001445D01*
X000930Y003198D01*
X000979Y003247D01*
X001020Y003346D01*
X001020Y003454D01*
X000979Y003553D01*
X000903Y003629D01*
X000804Y003670D01*
X000696Y003670D01*
X000597Y003629D01*
X000521Y003553D01*
X000480Y003454D01*
X000480Y003346D01*
X000521Y003247D01*
X000570Y003198D01*
X000570Y001295D01*
X000675Y001190D01*
X000798Y001067D01*
X000777Y001058D01*
X000682Y000963D01*
X000630Y000838D01*
X000630Y000702D01*
X000682Y000577D01*
X000777Y000482D01*
X000902Y000430D01*
X001038Y000430D01*
X001163Y000482D01*
X001220Y000539D01*
X001277Y000482D01*
X001402Y000430D01*
X001538Y000430D01*
X001663Y000482D01*
X001720Y000539D01*
X001777Y000482D01*
X001902Y000430D01*
X002038Y000430D01*
X002163Y000482D01*
X002220Y000539D01*
X002277Y000482D01*
X002402Y000430D01*
X002538Y000430D01*
X002663Y000482D01*
X002720Y000539D01*
X002777Y000482D01*
X002902Y000430D01*
X003038Y000430D01*
X003163Y000482D01*
X003220Y000539D01*
X003277Y000482D01*
X003402Y000430D01*
X003538Y000430D01*
X003663Y000482D01*
X003720Y000539D01*
X003777Y000482D01*
X003902Y000430D01*
X004038Y000430D01*
X004163Y000482D01*
X004220Y000539D01*
X004277Y000482D01*
X004402Y000430D01*
X004538Y000430D01*
X004663Y000482D01*
X004720Y000539D01*
X004777Y000482D01*
X004902Y000430D01*
X005038Y000430D01*
X005163Y000482D01*
X005220Y000539D01*
X005277Y000482D01*
X005402Y000430D01*
X005538Y000430D01*
X005663Y000482D01*
X005720Y000539D01*
X005777Y000482D01*
X005902Y000430D01*
X006038Y000430D01*
X006163Y000482D01*
X006220Y000539D01*
X006277Y000482D01*
X006402Y000430D01*
X006538Y000430D01*
X006663Y000482D01*
X006720Y000539D01*
X006777Y000482D01*
X006902Y000430D01*
X007038Y000430D01*
X007163Y000482D01*
X007220Y000539D01*
X007277Y000482D01*
X007402Y000430D01*
X007538Y000430D01*
X007663Y000482D01*
X007720Y000539D01*
X007777Y000482D01*
X007902Y000430D01*
X008038Y000430D01*
X008163Y000482D01*
X008220Y000539D01*
X008277Y000482D01*
X008402Y000430D01*
X008538Y000430D01*
X008663Y000482D01*
X008720Y000539D01*
X008777Y000482D01*
X008902Y000430D01*
X009038Y000430D01*
X009163Y000482D01*
X009220Y000539D01*
X009277Y000482D01*
X009402Y000430D01*
X009538Y000430D01*
X009663Y000482D01*
X009720Y000539D01*
X009777Y000482D01*
X009902Y000430D01*
X010038Y000430D01*
X010163Y000482D01*
X010220Y000539D01*
X010277Y000482D01*
X010402Y000430D01*
X010538Y000430D01*
X010663Y000482D01*
X010758Y000577D01*
X010810Y000702D01*
X010810Y000838D01*
X010758Y000963D01*
X010663Y001058D01*
X010538Y001110D01*
X010402Y001110D01*
X010304Y001069D01*
X010545Y001310D01*
X010575Y001341D01*
X010663Y001377D01*
X010758Y001472D01*
X010810Y001597D01*
X010810Y001733D01*
X010758Y001858D01*
X010701Y001915D01*
X010758Y001972D01*
X010810Y002097D01*
X010810Y002194D01*
X011019Y002414D01*
X011070Y002465D01*
X011070Y002468D01*
X011072Y002470D01*
X011070Y002542D01*
X011070Y003867D01*
X011072Y003939D01*
X011070Y003942D01*
X011070Y003945D01*
X011019Y003995D01*
X010730Y004302D01*
X010730Y004305D01*
X010679Y004355D01*
X010630Y004408D01*
X010627Y004408D01*
X010625Y004410D01*
X010553Y004410D01*
X010481Y004412D01*
X010478Y004410D01*
X010404Y004410D01*
X010404Y004470D01*
X010322Y004552D01*
X010272Y004552D01*
X010215Y004610D01*
X011320Y004610D01*
X011320Y000140D01*
X000160Y000140D01*
X000160Y000199D02*
X011320Y000199D01*
X011320Y000277D02*
X000160Y000277D01*
X000160Y000356D02*
X011320Y000356D01*
X011320Y000434D02*
X010547Y000434D01*
X010693Y000513D02*
X011320Y000513D01*
X011320Y000591D02*
X010764Y000591D01*
X010796Y000670D02*
X011320Y000670D01*
X011320Y000748D02*
X010810Y000748D01*
X010810Y000827D02*
X011320Y000827D01*
X011320Y000905D02*
X010782Y000905D01*
X010737Y000984D02*
X011320Y000984D01*
X011320Y001062D02*
X010654Y001062D01*
X010454Y001219D02*
X011320Y001219D01*
X011320Y001141D02*
X010375Y001141D01*
X010532Y001298D02*
X011320Y001298D01*
X011320Y001376D02*
X010661Y001376D01*
X010740Y001455D02*
X011320Y001455D01*
X011320Y001533D02*
X010783Y001533D01*
X010810Y001612D02*
X011320Y001612D01*
X011320Y001690D02*
X010810Y001690D01*
X010795Y001769D02*
X011320Y001769D01*
X011320Y001847D02*
X010763Y001847D01*
X010711Y001926D02*
X011320Y001926D01*
X011320Y002004D02*
X010771Y002004D01*
X010804Y002083D02*
X011320Y002083D01*
X011320Y002161D02*
X010810Y002161D01*
X010853Y002240D02*
X011320Y002240D01*
X011320Y002318D02*
X010928Y002318D01*
X011002Y002397D02*
X011320Y002397D01*
X011320Y002475D02*
X011072Y002475D01*
X011070Y002554D02*
X011320Y002554D01*
X011320Y002632D02*
X011070Y002632D01*
X011070Y002711D02*
X011320Y002711D01*
X011320Y002789D02*
X011070Y002789D01*
X011070Y002868D02*
X011320Y002868D01*
X011320Y002946D02*
X011070Y002946D01*
X011070Y003025D02*
X011320Y003025D01*
X011320Y003103D02*
X011070Y003103D01*
X011070Y003182D02*
X011320Y003182D01*
X011320Y003260D02*
X011070Y003260D01*
X011070Y003339D02*
X011320Y003339D01*
X011320Y003417D02*
X011070Y003417D01*
X011070Y003496D02*
X011320Y003496D01*
X011320Y003574D02*
X011070Y003574D01*
X011070Y003653D02*
X011320Y003653D01*
X011320Y003731D02*
X011070Y003731D01*
X011070Y003810D02*
X011320Y003810D01*
X011320Y003888D02*
X011071Y003888D01*
X011048Y003967D02*
X011320Y003967D01*
X011320Y004045D02*
X010972Y004045D01*
X010898Y004124D02*
X011320Y004124D01*
X011320Y004202D02*
X010824Y004202D01*
X010750Y004281D02*
X011320Y004281D01*
X011320Y004359D02*
X010676Y004359D01*
X010550Y004230D02*
X010131Y004230D01*
X010126Y004235D01*
X010120Y004229D01*
X010120Y004030D01*
X009900Y003810D01*
X009887Y003810D01*
X009886Y003809D01*
X009886Y003553D02*
X010277Y003553D01*
X010375Y003651D01*
X010371Y003651D01*
X010360Y003640D01*
X010589Y003640D01*
X010600Y003651D01*
X010890Y003870D02*
X010550Y004230D01*
X010404Y004438D02*
X011320Y004438D01*
X011320Y004516D02*
X010358Y004516D01*
X010230Y004595D02*
X011320Y004595D01*
X010890Y003870D02*
X010890Y002540D01*
X010535Y002165D01*
X010470Y002165D01*
X010301Y002334D01*
X010301Y002735D01*
X010050Y002410D02*
X009710Y002070D01*
X009710Y001890D01*
X009450Y001660D02*
X008770Y002340D01*
X008770Y002586D01*
X008769Y002585D01*
X008770Y002586D02*
X008770Y002790D01*
X009222Y003242D01*
X009222Y003842D01*
X009614Y004235D01*
X009336Y004212D02*
X009336Y004350D01*
X009295Y004350D01*
X009200Y004255D01*
X009200Y004186D01*
X009159Y004087D01*
X009083Y004011D01*
X008984Y003970D01*
X008876Y003970D01*
X008777Y004011D01*
X008701Y004087D01*
X008660Y004186D01*
X008660Y004294D01*
X008701Y004393D01*
X008727Y004419D01*
X008714Y004422D01*
X008682Y004441D01*
X008656Y004467D01*
X008652Y004475D01*
X008590Y004413D01*
X008579Y004413D01*
X008619Y004373D01*
X008660Y004274D01*
X008660Y004166D01*
X008619Y004067D01*
X008543Y003991D01*
X008537Y003989D01*
X008599Y003926D01*
X008599Y003692D01*
X008588Y003681D01*
X008599Y003670D01*
X008599Y003477D01*
X008677Y003477D01*
X008685Y003470D01*
X008754Y003470D01*
X008853Y003429D01*
X008929Y003353D01*
X008970Y003254D01*
X008970Y003245D01*
X009042Y003316D01*
X009042Y003917D01*
X009336Y004212D01*
X009327Y004202D02*
X009200Y004202D01*
X009225Y004281D02*
X009336Y004281D01*
X009248Y004124D02*
X009174Y004124D01*
X009170Y004045D02*
X009117Y004045D01*
X009091Y003967D02*
X008559Y003967D01*
X008597Y004045D02*
X008743Y004045D01*
X008686Y004124D02*
X008642Y004124D01*
X008650Y004090D02*
X008650Y004440D01*
X008670Y004460D01*
X008850Y004460D01*
X008850Y004470D01*
X008890Y004510D01*
X008890Y004724D01*
X008906Y004730D01*
X009320Y004730D01*
X009430Y004840D01*
X009430Y005174D01*
X009724Y005174D01*
X009820Y005270D01*
X009820Y005864D01*
X009490Y006194D01*
X009350Y006334D01*
X009240Y006334D01*
X009234Y006340D01*
X008990Y006340D01*
X008950Y006380D01*
X008950Y006600D01*
X008310Y007240D01*
X008690Y007620D01*
X008830Y007620D01*
X008853Y007642D01*
X008972Y007642D01*
X009100Y007770D01*
X009100Y008070D01*
X009210Y008180D01*
X009210Y008420D01*
X009260Y008470D01*
X010360Y008470D01*
X010370Y008460D01*
X010370Y008274D01*
X010384Y008260D01*
X010355Y008289D02*
X010355Y008480D01*
X010413Y008480D01*
X010413Y008289D01*
X010355Y008289D01*
X010355Y008363D02*
X010413Y008363D01*
X010413Y008441D02*
X010355Y008441D01*
X010650Y008660D02*
X009110Y008660D01*
X009040Y008590D01*
X009040Y008260D01*
X008900Y008120D01*
X008900Y007886D01*
X008853Y007839D01*
X008890Y007840D01*
X008853Y007839D02*
X007809Y007839D01*
X007690Y007720D01*
X007690Y007160D01*
X007910Y006940D01*
X007910Y006699D01*
X007908Y006697D01*
X007711Y006697D02*
X007710Y006696D01*
X007420Y006780D02*
X007150Y006500D01*
X006930Y006500D01*
X006620Y006190D01*
X006300Y006190D01*
X006240Y005600D02*
X006834Y005600D01*
X006840Y005606D01*
X006840Y005740D01*
X006930Y005830D01*
X007276Y005830D01*
X007280Y005826D01*
X007280Y005314D02*
X007060Y005314D01*
X006840Y005094D01*
X006598Y005336D01*
X006430Y005336D01*
X006364Y005270D01*
X005885Y005270D01*
X005878Y005080D02*
X005885Y005073D01*
X005557Y005073D01*
X005060Y005570D01*
X005060Y005760D01*
X005040Y005740D01*
X004670Y005740D01*
X004670Y005220D01*
X005060Y004830D01*
X005060Y003920D01*
X004880Y003740D01*
X004060Y003740D01*
X003975Y003655D01*
X003975Y003360D01*
X003778Y003360D02*
X003778Y003102D01*
X003890Y002990D01*
X004510Y002990D01*
X004610Y002890D01*
X004610Y002612D01*
X004603Y002605D01*
X004628Y002580D01*
X004910Y002580D01*
X005120Y002370D01*
X005120Y002126D01*
X005375Y001868D02*
X005437Y001930D01*
X005437Y002322D01*
X005355Y002404D01*
X005300Y002404D01*
X005300Y002445D01*
X005195Y002550D01*
X005090Y002655D01*
X005019Y002726D01*
X005019Y002899D01*
X004937Y002981D01*
X004773Y002981D01*
X004731Y003023D01*
X005200Y003023D01*
X005200Y002885D01*
X005305Y002780D01*
X005305Y002780D01*
X005580Y002505D01*
X005580Y001675D01*
X005437Y001532D01*
X005437Y001585D01*
X005149Y001585D01*
X005149Y001643D01*
X005437Y001643D01*
X005437Y001770D01*
X005428Y001806D01*
X005409Y001838D01*
X005383Y001864D01*
X005375Y001868D01*
X005400Y001847D02*
X005580Y001847D01*
X005580Y001769D02*
X005437Y001769D01*
X005437Y001690D02*
X005580Y001690D01*
X005520Y001640D02*
X005520Y002440D01*
X005100Y002860D01*
X005230Y002730D01*
X005296Y002789D02*
X005019Y002789D01*
X005019Y002868D02*
X005218Y002868D01*
X005200Y002946D02*
X004972Y002946D01*
X005034Y002711D02*
X005375Y002711D01*
X005453Y002632D02*
X005113Y002632D01*
X005191Y002554D02*
X005532Y002554D01*
X005580Y002475D02*
X005270Y002475D01*
X005362Y002397D02*
X005580Y002397D01*
X005580Y002318D02*
X005437Y002318D01*
X005437Y002240D02*
X005580Y002240D01*
X005580Y002161D02*
X005437Y002161D01*
X005437Y002083D02*
X005580Y002083D01*
X005580Y002004D02*
X005437Y002004D01*
X005433Y001926D02*
X005580Y001926D01*
X005520Y001640D02*
X005380Y001500D01*
X003520Y001500D01*
X003530Y001510D01*
X003430Y001510D01*
X003336Y001604D01*
X003260Y001604D01*
X003289Y001612D02*
X003430Y001612D01*
X003443Y001599D02*
X004110Y001599D01*
X004190Y001679D01*
X004270Y001599D01*
X004937Y001599D01*
X004981Y001643D01*
X005091Y001643D01*
X005091Y001585D01*
X004803Y001585D01*
X004803Y001460D01*
X003577Y001460D01*
X003577Y001575D01*
X003289Y001575D01*
X003289Y001633D01*
X003409Y001633D01*
X003443Y001599D01*
X003530Y001510D02*
X004970Y001510D01*
X005060Y001600D01*
X005106Y001600D01*
X005120Y001614D01*
X005149Y001612D02*
X005517Y001612D01*
X005438Y001533D02*
X005437Y001533D01*
X005440Y001280D02*
X005760Y001600D01*
X005760Y002580D01*
X005380Y002960D01*
X005380Y004890D01*
X005070Y005200D01*
X004727Y004909D02*
X003170Y004909D01*
X003170Y004915D02*
X003815Y005560D01*
X004490Y005560D01*
X004490Y005145D01*
X004595Y005040D01*
X004880Y004755D01*
X004880Y003995D01*
X004805Y003920D01*
X003985Y003920D01*
X003901Y003835D01*
X003901Y003835D01*
X003795Y003730D01*
X003795Y003697D01*
X003470Y003697D01*
X003467Y003694D01*
X003456Y003697D01*
X003385Y003697D01*
X003385Y003360D01*
X003380Y003365D01*
X003380Y004430D01*
X003860Y004910D01*
X004600Y004910D01*
X004640Y004870D01*
X004648Y004987D02*
X003242Y004987D01*
X003170Y004915D02*
X003170Y003697D01*
X003299Y003697D01*
X003302Y003694D01*
X003313Y003697D01*
X003385Y003697D01*
X003385Y003360D01*
X003385Y003360D01*
X003385Y003417D02*
X003385Y003417D01*
X003385Y003496D02*
X003385Y003496D01*
X003385Y003574D02*
X003385Y003574D01*
X003385Y003653D02*
X003385Y003653D01*
X003170Y003731D02*
X003796Y003731D01*
X003875Y003810D02*
X003170Y003810D01*
X003170Y003888D02*
X003953Y003888D01*
X003582Y003360D02*
X003582Y003112D01*
X003380Y002910D01*
X003380Y002236D01*
X003260Y002116D01*
X003636Y002116D01*
X003777Y001975D01*
X003753Y001998D01*
X003577Y001533D02*
X004803Y001533D01*
X004950Y001612D02*
X005091Y001612D01*
X005440Y001280D02*
X001440Y001280D01*
X001350Y001370D01*
X001350Y001600D01*
X001241Y001847D02*
X000930Y001847D01*
X000930Y001769D02*
X001137Y001769D01*
X001095Y001690D02*
X000930Y001690D01*
X000930Y001612D02*
X001080Y001612D01*
X001086Y001533D02*
X000930Y001533D01*
X000930Y001455D02*
X001118Y001455D01*
X001170Y001376D02*
X000999Y001376D01*
X001077Y001298D02*
X001170Y001298D01*
X001030Y001090D02*
X000750Y001370D01*
X000750Y003400D01*
X000760Y003410D01*
X000958Y003574D02*
X002010Y003574D01*
X002010Y003496D02*
X001003Y003496D01*
X001020Y003417D02*
X002010Y003417D01*
X002010Y003339D02*
X001017Y003339D01*
X000984Y003260D02*
X002010Y003260D01*
X002010Y003182D02*
X000930Y003182D01*
X000930Y003103D02*
X002013Y003103D01*
X002091Y003025D02*
X000930Y003025D01*
X000930Y002946D02*
X001956Y002946D01*
X001872Y002868D02*
X000930Y002868D01*
X000930Y002789D02*
X001863Y002789D01*
X001863Y002711D02*
X000930Y002711D01*
X000930Y002632D02*
X001863Y002632D01*
X001863Y002554D02*
X000930Y002554D01*
X000930Y002475D02*
X001878Y002475D01*
X001899Y002397D02*
X000930Y002397D01*
X000930Y002318D02*
X001863Y002318D01*
X001863Y002240D02*
X000930Y002240D01*
X000930Y002161D02*
X001863Y002161D01*
X001863Y002083D02*
X000930Y002083D01*
X000930Y002004D02*
X001863Y002004D01*
X001906Y001926D02*
X000930Y001926D01*
X000570Y001926D02*
X000160Y001926D01*
X000160Y002004D02*
X000570Y002004D01*
X000570Y002083D02*
X000160Y002083D01*
X000160Y002161D02*
X000570Y002161D01*
X000570Y002240D02*
X000160Y002240D01*
X000160Y002318D02*
X000570Y002318D01*
X000570Y002397D02*
X000160Y002397D01*
X000160Y002475D02*
X000570Y002475D01*
X000570Y002554D02*
X000160Y002554D01*
X000160Y002632D02*
X000570Y002632D01*
X000570Y002711D02*
X000160Y002711D01*
X000160Y002789D02*
X000570Y002789D01*
X000570Y002868D02*
X000160Y002868D01*
X000160Y002946D02*
X000570Y002946D01*
X000570Y003025D02*
X000160Y003025D01*
X000160Y003103D02*
X000570Y003103D01*
X000570Y003182D02*
X000160Y003182D01*
X000160Y003260D02*
X000516Y003260D01*
X000483Y003339D02*
X000160Y003339D01*
X000160Y003417D02*
X000480Y003417D01*
X000497Y003496D02*
X000160Y003496D01*
X000160Y003574D02*
X000542Y003574D01*
X000654Y003653D02*
X000160Y003653D01*
X000160Y003731D02*
X002810Y003731D01*
X002597Y003697D02*
X002597Y003360D01*
X002404Y003360D01*
X002400Y003360D01*
X002400Y003360D01*
X002400Y003360D01*
X002400Y003023D01*
X002472Y003023D01*
X002499Y003031D01*
X002505Y003029D01*
X002420Y002945D01*
X002420Y002939D01*
X002411Y002944D01*
X002376Y002954D01*
X002209Y002954D01*
X002209Y002705D01*
X002209Y002711D02*
X002151Y002711D01*
X002151Y002789D02*
X002209Y002789D01*
X002209Y002868D02*
X002151Y002868D01*
X002151Y002946D02*
X002209Y002946D01*
X002240Y003040D02*
X001880Y003040D01*
X001700Y002860D01*
X001700Y001820D01*
X002020Y001500D01*
X003520Y001500D01*
X004123Y001612D02*
X004257Y001612D01*
X004247Y000513D02*
X004193Y000513D01*
X004047Y000434D02*
X004393Y000434D01*
X004547Y000434D02*
X004893Y000434D01*
X004747Y000513D02*
X004693Y000513D01*
X005047Y000434D02*
X005393Y000434D01*
X005547Y000434D02*
X005893Y000434D01*
X006047Y000434D02*
X006393Y000434D01*
X006547Y000434D02*
X006893Y000434D01*
X006747Y000513D02*
X006693Y000513D01*
X007047Y000434D02*
X007393Y000434D01*
X007547Y000434D02*
X007893Y000434D01*
X008047Y000434D02*
X008393Y000434D01*
X008247Y000513D02*
X008193Y000513D01*
X008547Y000434D02*
X008893Y000434D01*
X009047Y000434D02*
X009393Y000434D01*
X009547Y000434D02*
X009893Y000434D01*
X010047Y000434D02*
X010393Y000434D01*
X010247Y000513D02*
X010193Y000513D01*
X009970Y000770D02*
X009970Y000990D01*
X010470Y001490D01*
X010470Y001665D01*
X010465Y001660D01*
X009450Y001660D01*
X009322Y001533D02*
X009115Y001533D01*
X009125Y001556D02*
X009096Y001485D01*
X009053Y001421D01*
X008999Y001367D01*
X008935Y001324D01*
X008864Y001295D01*
X008790Y001280D01*
X008790Y001630D01*
X008790Y001710D01*
X009140Y001710D01*
X009138Y001717D01*
X009375Y001480D01*
X010179Y001480D01*
X010182Y001472D01*
X010190Y001464D01*
X009895Y001170D01*
X009790Y001065D01*
X009790Y001063D01*
X009777Y001058D01*
X009720Y001001D01*
X009663Y001058D01*
X009538Y001110D01*
X009402Y001110D01*
X009277Y001058D01*
X009220Y001001D01*
X009163Y001058D01*
X009038Y001110D01*
X008902Y001110D01*
X008777Y001058D01*
X008720Y001001D01*
X008663Y001058D01*
X008538Y001110D01*
X008402Y001110D01*
X008277Y001058D01*
X008220Y001001D01*
X008163Y001058D01*
X008038Y001110D01*
X007902Y001110D01*
X007777Y001058D01*
X007720Y001001D01*
X007663Y001058D01*
X007586Y001090D01*
X007645Y001090D01*
X007805Y001250D01*
X007905Y001350D01*
X007951Y001369D01*
X008061Y001479D01*
X008120Y001622D01*
X008120Y001778D01*
X008061Y001921D01*
X007951Y002031D01*
X007892Y002055D01*
X007951Y002079D01*
X008061Y002189D01*
X008120Y002332D01*
X008120Y002488D01*
X008061Y002631D01*
X007951Y002741D01*
X007910Y002758D01*
X007910Y002861D01*
X007929Y002842D01*
X008463Y002842D01*
X008491Y002814D01*
X008491Y002350D01*
X008573Y002268D01*
X008590Y002268D01*
X008590Y002265D01*
X008797Y002058D01*
X008790Y002060D01*
X008790Y001710D01*
X008710Y001710D01*
X008710Y002060D01*
X008636Y002045D01*
X008565Y002016D01*
X008501Y001973D01*
X008447Y001919D01*
X008404Y001855D01*
X008375Y001784D01*
X008360Y001710D01*
X008710Y001710D01*
X008710Y001630D01*
X008790Y001630D01*
X009140Y001630D01*
X009125Y001556D01*
X009136Y001612D02*
X009244Y001612D01*
X009165Y001690D02*
X008790Y001690D01*
X008750Y001670D02*
X008840Y001780D01*
X008790Y001769D02*
X008710Y001769D01*
X008710Y001847D02*
X008790Y001847D01*
X008790Y001926D02*
X008710Y001926D01*
X008710Y002004D02*
X008790Y002004D01*
X008773Y002083D02*
X007954Y002083D01*
X007978Y002004D02*
X008548Y002004D01*
X008454Y001926D02*
X008056Y001926D01*
X008091Y001847D02*
X008401Y001847D01*
X008372Y001769D02*
X008120Y001769D01*
X008120Y001690D02*
X008710Y001690D01*
X008750Y001670D02*
X009010Y001410D01*
X009990Y001410D01*
X010101Y001376D02*
X009008Y001376D01*
X009075Y001455D02*
X010180Y001455D01*
X010023Y001298D02*
X008870Y001298D01*
X008790Y001298D02*
X008710Y001298D01*
X008710Y001280D02*
X008710Y001630D01*
X008360Y001630D01*
X008375Y001556D01*
X008404Y001485D01*
X008447Y001421D01*
X008501Y001367D01*
X008565Y001324D01*
X008636Y001295D01*
X008710Y001280D01*
X008630Y001298D02*
X007852Y001298D01*
X007774Y001219D02*
X009944Y001219D01*
X009866Y001141D02*
X007695Y001141D01*
X007654Y001062D02*
X007786Y001062D01*
X007570Y001270D02*
X007730Y001430D01*
X007730Y001700D01*
X008036Y001455D02*
X008425Y001455D01*
X008385Y001533D02*
X008083Y001533D01*
X008115Y001612D02*
X008364Y001612D01*
X008492Y001376D02*
X007958Y001376D01*
X008154Y001062D02*
X008286Y001062D01*
X008654Y001062D02*
X008786Y001062D01*
X008790Y001376D02*
X008710Y001376D01*
X008710Y001455D02*
X008790Y001455D01*
X008790Y001533D02*
X008710Y001533D01*
X008710Y001612D02*
X008790Y001612D01*
X008750Y001670D02*
X008420Y002000D01*
X008420Y002640D01*
X008491Y002632D02*
X008060Y002632D01*
X008093Y002554D02*
X008491Y002554D01*
X008491Y002475D02*
X008120Y002475D01*
X008120Y002397D02*
X008491Y002397D01*
X008523Y002318D02*
X008114Y002318D01*
X008082Y002240D02*
X008616Y002240D01*
X008694Y002161D02*
X008033Y002161D01*
X007730Y002410D02*
X007730Y003200D01*
X007220Y003710D01*
X006640Y003710D01*
X006330Y004020D01*
X006330Y004480D01*
X006131Y004679D01*
X005885Y004679D01*
X005885Y004482D02*
X006128Y004482D01*
X006190Y004420D01*
X006190Y003860D01*
X006550Y003500D01*
X006810Y003500D01*
X007010Y003300D01*
X007010Y002400D01*
X006440Y001930D02*
X006650Y001720D01*
X007000Y001720D01*
X007010Y001710D01*
X006440Y001930D02*
X006440Y003050D01*
X005885Y003605D01*
X005885Y004089D01*
X005885Y004285D02*
X005635Y004285D01*
X005560Y004210D01*
X005560Y003640D01*
X006230Y002970D01*
X006230Y001620D01*
X006580Y001270D01*
X007570Y001270D01*
X007693Y000513D02*
X007747Y000513D01*
X007247Y000513D02*
X007193Y000513D01*
X006247Y000513D02*
X006193Y000513D01*
X005747Y000513D02*
X005693Y000513D01*
X005247Y000513D02*
X005193Y000513D01*
X005490Y001090D02*
X005930Y001530D01*
X005930Y002780D01*
X005650Y003060D01*
X005710Y003000D01*
X004852Y003967D02*
X003170Y003967D01*
X003170Y004045D02*
X004880Y004045D01*
X004880Y004124D02*
X003170Y004124D01*
X003170Y004202D02*
X004880Y004202D01*
X004880Y004281D02*
X003170Y004281D01*
X003170Y004359D02*
X004880Y004359D01*
X004880Y004438D02*
X003170Y004438D01*
X003170Y004516D02*
X004880Y004516D01*
X004880Y004595D02*
X003170Y004595D01*
X003170Y004673D02*
X004880Y004673D01*
X004880Y004752D02*
X003170Y004752D01*
X003170Y004830D02*
X004805Y004830D01*
X004570Y005066D02*
X003320Y005066D01*
X003399Y005144D02*
X004491Y005144D01*
X004490Y005223D02*
X003477Y005223D01*
X003556Y005301D02*
X004490Y005301D01*
X004490Y005380D02*
X003634Y005380D01*
X003713Y005458D02*
X004490Y005458D01*
X004490Y005537D02*
X003791Y005537D01*
X003740Y005740D02*
X004670Y005740D01*
X005110Y006100D02*
X002480Y006100D01*
X001850Y005470D01*
X001479Y005470D01*
X001266Y005470D01*
X001056Y005680D01*
X001475Y005467D02*
X001479Y005470D01*
X001475Y005270D02*
X000746Y005270D01*
X000710Y005306D01*
X000983Y005066D02*
X001025Y005066D01*
X001090Y004800D02*
X001231Y004679D01*
X001475Y004679D01*
X001475Y004482D02*
X001042Y004482D01*
X001020Y004460D01*
X001475Y004089D02*
X002211Y004089D01*
X002400Y003900D01*
X002400Y003360D01*
X002400Y003697D01*
X002400Y003360D01*
X002400Y003360D01*
X002400Y003360D01*
X002597Y003360D01*
X002597Y003360D01*
X002597Y003697D01*
X002597Y003653D02*
X002597Y003653D01*
X002597Y003574D02*
X002597Y003574D01*
X002597Y003496D02*
X002597Y003496D01*
X002597Y003417D02*
X002597Y003417D01*
X002597Y003360D02*
X002597Y003360D01*
X002400Y003339D02*
X002400Y003339D01*
X002400Y003417D02*
X002400Y003417D01*
X002400Y003496D02*
X002400Y003496D01*
X002400Y003574D02*
X002400Y003574D01*
X002400Y003653D02*
X002400Y003653D01*
X002048Y003653D02*
X000846Y003653D01*
X001475Y003895D02*
X001691Y003895D01*
X001726Y003905D01*
X001758Y003923D01*
X001784Y003950D01*
X001803Y003981D01*
X001812Y004017D01*
X001812Y004089D01*
X001475Y004089D01*
X001475Y004089D01*
X001475Y004089D01*
X001475Y003895D01*
X001475Y003967D02*
X001475Y003967D01*
X001475Y004045D02*
X001475Y004045D01*
X001794Y003967D02*
X002810Y003967D01*
X002810Y004045D02*
X001812Y004045D01*
X001812Y004124D02*
X002810Y004124D01*
X002810Y004202D02*
X001812Y004202D01*
X001812Y004281D02*
X002810Y004281D01*
X002776Y004359D02*
X001812Y004359D01*
X001812Y004438D02*
X002698Y004438D01*
X002619Y004516D02*
X001812Y004516D01*
X001812Y004595D02*
X002541Y004595D01*
X002462Y004673D02*
X001812Y004673D01*
X001812Y004752D02*
X002384Y004752D01*
X002305Y004830D02*
X001812Y004830D01*
X001812Y004909D02*
X002227Y004909D01*
X002120Y005270D02*
X002990Y004400D01*
X002990Y004990D01*
X003740Y005740D01*
X003440Y007010D02*
X004810Y007010D01*
X005060Y006760D01*
X005060Y006390D01*
X005110Y006100D02*
X005290Y005920D01*
X005290Y005620D01*
X005443Y005467D01*
X005885Y005467D01*
X006107Y005467D01*
X006240Y005600D01*
X006181Y005073D02*
X005885Y005073D01*
X005882Y005070D01*
X006181Y005073D02*
X006430Y004824D01*
X006726Y004824D01*
X007040Y004510D01*
X007040Y004110D01*
X007080Y004070D01*
X007510Y004440D02*
X007640Y004360D01*
X007920Y004360D01*
X008190Y004090D01*
X008190Y003842D01*
X008223Y003809D01*
X008223Y003553D02*
X007937Y003553D01*
X007800Y003690D01*
X007800Y004130D01*
X007810Y004140D01*
X007780Y004520D02*
X007950Y004520D01*
X008200Y004270D01*
X008340Y004270D01*
X008390Y004220D01*
X008625Y004359D02*
X008687Y004359D01*
X008688Y004438D02*
X008615Y004438D01*
X008630Y004460D02*
X008650Y004440D01*
X008630Y004460D02*
X008220Y004460D01*
X008020Y004660D01*
X007934Y004660D01*
X007280Y005314D01*
X007240Y004930D02*
X007370Y004930D01*
X007780Y004520D01*
X008650Y004090D02*
X008860Y003880D01*
X008860Y003530D01*
X008865Y003417D02*
X009042Y003417D01*
X009042Y003339D02*
X008935Y003339D01*
X008967Y003260D02*
X008985Y003260D01*
X008700Y003200D02*
X008603Y003297D01*
X008223Y003297D01*
X008223Y003042D02*
X008518Y003042D01*
X008770Y002790D01*
X008491Y002789D02*
X007910Y002789D01*
X007981Y002711D02*
X008491Y002711D01*
X009281Y002585D02*
X009286Y002580D01*
X009490Y002580D01*
X009645Y002735D01*
X009789Y002735D01*
X009886Y002832D01*
X009886Y003042D01*
X009886Y003297D02*
X010217Y003297D01*
X010375Y003139D01*
X010600Y003139D01*
X010126Y004235D02*
X010130Y004239D01*
X010130Y004440D01*
X010040Y004530D01*
X009220Y004530D01*
X008930Y004240D01*
X008660Y004202D02*
X008660Y004202D01*
X008657Y004281D02*
X008660Y004281D01*
X008877Y004510D02*
X008877Y004701D01*
X008935Y004701D01*
X009137Y004701D01*
X009145Y004710D01*
X010050Y004710D01*
X010050Y006076D01*
X009807Y006076D01*
X009807Y006038D01*
X009798Y006002D01*
X009779Y005970D01*
X009753Y005944D01*
X009721Y005926D01*
X009707Y005922D01*
X009747Y005882D01*
X009747Y005490D01*
X009685Y005428D01*
X009693Y005424D01*
X009719Y005398D01*
X009738Y005366D01*
X009747Y005330D01*
X009747Y005203D01*
X009459Y005203D01*
X009459Y005145D01*
X009459Y004896D01*
X009626Y004896D01*
X009661Y004906D01*
X009693Y004924D01*
X009719Y004950D01*
X009738Y004982D01*
X009747Y005018D01*
X009747Y005145D01*
X009459Y005145D01*
X009401Y005145D01*
X009401Y004896D01*
X009314Y004896D01*
X009237Y004819D01*
X009184Y004819D01*
X009184Y004759D01*
X008935Y004759D01*
X008935Y004701D01*
X008935Y004510D01*
X008877Y004510D01*
X008877Y004516D02*
X008935Y004516D01*
X008935Y004595D02*
X008877Y004595D01*
X008877Y004673D02*
X008935Y004673D01*
X008935Y004752D02*
X010050Y004752D01*
X010050Y004830D02*
X009248Y004830D01*
X009401Y004909D02*
X009459Y004909D01*
X009459Y004987D02*
X009401Y004987D01*
X009401Y005066D02*
X009459Y005066D01*
X009459Y005144D02*
X009401Y005144D01*
X009747Y005144D02*
X010050Y005144D01*
X010050Y005066D02*
X009747Y005066D01*
X009739Y004987D02*
X010050Y004987D01*
X010050Y004909D02*
X009666Y004909D01*
X009747Y005223D02*
X010050Y005223D01*
X010050Y005301D02*
X009747Y005301D01*
X009730Y005380D02*
X010050Y005380D01*
X010050Y005458D02*
X009715Y005458D01*
X009747Y005537D02*
X010050Y005537D01*
X010050Y005615D02*
X009747Y005615D01*
X009747Y005694D02*
X010050Y005694D01*
X010050Y005772D02*
X009747Y005772D01*
X009747Y005851D02*
X010050Y005851D01*
X010050Y005929D02*
X009727Y005929D01*
X009799Y006008D02*
X010050Y006008D01*
X009920Y006354D02*
X009822Y006374D01*
X009490Y006706D01*
X009350Y006846D01*
X009240Y006846D01*
X009236Y006850D01*
X008900Y006850D01*
X008853Y006897D01*
X008853Y007051D01*
X008853Y007248D02*
X009356Y007248D01*
X009410Y007194D01*
X009634Y006970D01*
X009690Y006970D01*
X009774Y006886D01*
X009920Y006866D01*
X009870Y007214D02*
X009870Y007246D01*
X009410Y007706D01*
X009354Y007650D01*
X009210Y007650D01*
X009005Y007445D01*
X008853Y007445D01*
X008855Y007640D02*
X008853Y007642D01*
X008665Y007642D02*
X008665Y007642D01*
X008665Y007642D01*
X008585Y007642D01*
X008585Y007659D01*
X008442Y007659D01*
X008442Y007485D01*
X008145Y007485D01*
X008145Y007405D01*
X008442Y007405D01*
X008442Y007230D01*
X008432Y007194D01*
X008414Y007162D01*
X008388Y007136D01*
X008356Y007118D01*
X008320Y007108D01*
X008145Y007108D01*
X008145Y007405D01*
X008065Y007405D01*
X008065Y007108D01*
X007996Y007108D01*
X008090Y007015D01*
X008090Y006965D01*
X008105Y006965D01*
X008105Y006885D01*
X008105Y006885D01*
X008105Y006885D01*
X008105Y006965D01*
X008182Y006965D01*
X008184Y006964D01*
X008185Y006965D01*
X008585Y006965D01*
X008585Y007562D01*
X008586Y007563D01*
X008585Y007564D01*
X008585Y007642D01*
X008665Y007642D01*
X008585Y007656D02*
X008442Y007656D01*
X008442Y007578D02*
X008585Y007578D01*
X008585Y007499D02*
X008442Y007499D01*
X008442Y007342D02*
X008585Y007342D01*
X008585Y007264D02*
X008442Y007264D01*
X008427Y007185D02*
X008585Y007185D01*
X008585Y007107D02*
X007998Y007107D01*
X008065Y007185D02*
X008145Y007185D01*
X008110Y007180D02*
X008110Y006700D01*
X008105Y006697D01*
X008290Y006685D02*
X008290Y006436D01*
X008154Y006300D01*
X008499Y006467D02*
X008666Y006300D01*
X008666Y006062D01*
X008903Y005825D01*
X008944Y006305D02*
X008944Y006363D01*
X009176Y006363D01*
X009173Y006350D01*
X009173Y006305D01*
X008944Y006305D01*
X008944Y006322D02*
X009173Y006322D01*
X008940Y006539D02*
X008862Y006617D01*
X008698Y006617D01*
X008698Y006798D01*
X008720Y006775D01*
X008825Y006670D01*
X008923Y006670D01*
X008923Y006650D01*
X008985Y006588D01*
X008977Y006584D01*
X008951Y006558D01*
X008940Y006539D01*
X008950Y006557D02*
X008922Y006557D01*
X008937Y006636D02*
X008698Y006636D01*
X008698Y006714D02*
X008781Y006714D01*
X008703Y006793D02*
X008698Y006793D01*
X008499Y006697D02*
X008499Y006467D01*
X008105Y006950D02*
X008105Y006950D01*
X008077Y007028D02*
X008585Y007028D01*
X008310Y007240D02*
X008105Y007445D01*
X008110Y007400D01*
X008110Y007180D01*
X008145Y007264D02*
X008065Y007264D01*
X008065Y007342D02*
X008145Y007342D01*
X008145Y007421D02*
X008585Y007421D01*
X008853Y007839D02*
X008191Y007839D01*
X008100Y007930D01*
X008100Y008188D01*
X008105Y008193D01*
X008302Y008193D02*
X008302Y008522D01*
X008274Y008560D01*
X008245Y008589D02*
X008245Y008850D01*
X008303Y008850D01*
X008303Y008589D01*
X008245Y008589D01*
X008245Y008598D02*
X008303Y008598D01*
X008303Y008531D02*
X008303Y008461D01*
X008302Y008461D01*
X008302Y008381D01*
X008302Y008381D01*
X008302Y008381D01*
X008302Y008461D01*
X008245Y008461D01*
X008245Y008531D01*
X008303Y008531D01*
X008303Y008520D02*
X008245Y008520D01*
X008302Y008441D02*
X008302Y008441D01*
X008303Y008677D02*
X008245Y008677D01*
X008245Y008755D02*
X008303Y008755D01*
X008303Y008834D02*
X008245Y008834D01*
X007886Y008560D02*
X007908Y008528D01*
X007908Y008193D01*
X007711Y008193D02*
X007690Y008160D01*
X007420Y008160D01*
X007374Y008206D01*
X007374Y008560D01*
X007345Y008589D02*
X007345Y008531D01*
X007096Y008531D01*
X007096Y008364D01*
X007106Y008329D01*
X007124Y008297D01*
X007150Y008271D01*
X007182Y008252D01*
X007218Y008243D01*
X007345Y008243D01*
X007345Y008531D01*
X007403Y008531D01*
X007403Y008243D01*
X007512Y008243D01*
X007512Y008193D01*
X007512Y008047D01*
X007515Y008038D01*
X007171Y008038D01*
X007153Y008020D01*
X006565Y008020D01*
X006460Y007915D01*
X006035Y007490D01*
X005858Y007490D01*
X005933Y007521D01*
X006009Y007597D01*
X006050Y007696D01*
X006050Y007804D01*
X006009Y007903D01*
X005960Y007952D01*
X005960Y008635D01*
X006175Y008850D01*
X007152Y008850D01*
X007150Y008849D01*
X007124Y008823D01*
X007106Y008791D01*
X007096Y008756D01*
X007096Y008589D01*
X007345Y008589D01*
X007345Y008520D02*
X007403Y008520D01*
X007403Y008441D02*
X007345Y008441D01*
X007345Y008363D02*
X007403Y008363D01*
X007403Y008284D02*
X007345Y008284D01*
X007420Y008160D02*
X006570Y008160D01*
X006135Y007725D01*
X005870Y007460D01*
X005580Y007460D01*
X005420Y007620D01*
X005420Y008760D01*
X005310Y008870D01*
X004600Y008870D01*
X003360Y008870D01*
X003270Y008780D01*
X003270Y008554D01*
X003274Y008550D01*
X003270Y008546D01*
X003270Y008350D01*
X003164Y008244D01*
X002810Y008244D01*
X002991Y008013D01*
X002991Y007770D01*
X003188Y007770D02*
X003190Y007772D01*
X003190Y008040D01*
X003270Y008120D01*
X003550Y008120D01*
X003786Y008356D01*
X003786Y008550D01*
X004064Y008520D02*
X004336Y008520D01*
X004336Y008551D02*
X004336Y008429D01*
X004336Y008329D01*
X004357Y008329D01*
X004364Y008317D01*
X004390Y008291D01*
X004422Y008272D01*
X004427Y008271D01*
X004336Y008271D01*
X004336Y008107D01*
X003791Y008107D01*
X003917Y008233D01*
X003982Y008233D01*
X004064Y008315D01*
X004064Y008785D01*
X003982Y008867D01*
X003590Y008867D01*
X003528Y008805D01*
X003524Y008813D01*
X003498Y008839D01*
X003466Y008858D01*
X003430Y008867D01*
X003303Y008867D01*
X003303Y008579D01*
X003245Y008579D01*
X003245Y008867D01*
X003127Y008867D01*
X003127Y008952D01*
X003046Y009033D01*
X003163Y009082D01*
X003220Y009139D01*
X003277Y009082D01*
X003402Y009030D01*
X003538Y009030D01*
X003663Y009082D01*
X003720Y009139D01*
X003777Y009082D01*
X003902Y009030D01*
X004038Y009030D01*
X004163Y009082D01*
X004220Y009139D01*
X004277Y009082D01*
X004402Y009030D01*
X004538Y009030D01*
X004663Y009082D01*
X004720Y009139D01*
X004777Y009082D01*
X004902Y009030D01*
X005038Y009030D01*
X005163Y009082D01*
X005220Y009139D01*
X005277Y009082D01*
X005402Y009030D01*
X005538Y009030D01*
X005663Y009082D01*
X005720Y009139D01*
X005777Y009082D01*
X005862Y009047D01*
X005600Y008785D01*
X005600Y007952D01*
X005551Y007903D01*
X005510Y007804D01*
X005510Y007696D01*
X005551Y007597D01*
X005627Y007521D01*
X005702Y007490D01*
X005395Y007490D01*
X005350Y007535D01*
X005350Y008011D01*
X005404Y008065D01*
X005404Y008815D01*
X005322Y008897D01*
X004930Y008897D01*
X004868Y008835D01*
X004864Y008843D01*
X004838Y008869D01*
X004806Y008888D01*
X004770Y008897D01*
X004643Y008897D01*
X004643Y008609D01*
X004585Y008609D01*
X004585Y008897D01*
X004458Y008897D01*
X004422Y008888D01*
X004390Y008869D01*
X004364Y008843D01*
X004346Y008811D01*
X004336Y008776D01*
X004336Y008609D01*
X004427Y008609D01*
X004422Y008608D01*
X004390Y008589D01*
X004364Y008563D01*
X004357Y008551D01*
X004336Y008551D01*
X004406Y008598D02*
X004064Y008598D01*
X004064Y008677D02*
X004336Y008677D01*
X004336Y008755D02*
X004064Y008755D01*
X004015Y008834D02*
X004359Y008834D01*
X004585Y008834D02*
X004643Y008834D01*
X004643Y008755D02*
X004585Y008755D01*
X004585Y008677D02*
X004643Y008677D01*
X004614Y008580D02*
X004614Y008300D01*
X004610Y008346D01*
X004610Y008140D01*
X004772Y007978D01*
X004772Y007779D01*
X004763Y007770D02*
X004763Y007433D01*
X004800Y007433D01*
X004800Y007245D01*
X004745Y007190D01*
X003515Y007190D01*
X003368Y007336D01*
X003368Y007433D01*
X004677Y007433D01*
X004680Y007436D01*
X004691Y007433D01*
X004763Y007433D01*
X004763Y007770D01*
X004763Y007770D01*
X004763Y007735D02*
X004763Y007735D01*
X004763Y007656D02*
X004763Y007656D01*
X004763Y007578D02*
X004763Y007578D01*
X004763Y007499D02*
X004763Y007499D01*
X004800Y007421D02*
X003368Y007421D01*
X003368Y007342D02*
X004800Y007342D01*
X004800Y007264D02*
X003441Y007264D01*
X003188Y007262D02*
X003188Y007460D01*
X002110Y007460D01*
X002050Y007520D01*
X002050Y008180D01*
X001650Y008580D01*
X001630Y008310D02*
X001880Y008060D01*
X001880Y007180D01*
X001740Y007040D01*
X001477Y007040D01*
X001475Y007041D01*
X001475Y006845D02*
X001145Y006845D01*
X001020Y006970D01*
X001020Y007510D01*
X001220Y007710D01*
X001220Y008310D02*
X001630Y008310D01*
X002204Y008078D02*
X002204Y007770D01*
X002204Y008078D02*
X002370Y008244D01*
X003127Y008912D02*
X005727Y008912D01*
X005649Y008834D02*
X005385Y008834D01*
X005404Y008755D02*
X005600Y008755D01*
X005600Y008677D02*
X005404Y008677D01*
X005404Y008598D02*
X005600Y008598D01*
X005600Y008520D02*
X005404Y008520D01*
X005404Y008441D02*
X005600Y008441D01*
X005600Y008363D02*
X005404Y008363D01*
X005404Y008284D02*
X005600Y008284D01*
X005600Y008206D02*
X005404Y008206D01*
X005404Y008127D02*
X005600Y008127D01*
X005600Y008049D02*
X005387Y008049D01*
X005350Y007970D02*
X005600Y007970D01*
X005546Y007892D02*
X005350Y007892D01*
X005350Y007813D02*
X005514Y007813D01*
X005510Y007735D02*
X005350Y007735D01*
X005350Y007656D02*
X005527Y007656D01*
X005571Y007578D02*
X005350Y007578D01*
X005386Y007499D02*
X005680Y007499D01*
X005880Y007499D02*
X006044Y007499D01*
X005989Y007578D02*
X006123Y007578D01*
X006201Y007656D02*
X006033Y007656D01*
X006050Y007735D02*
X006280Y007735D01*
X006358Y007813D02*
X006046Y007813D01*
X006014Y007892D02*
X006437Y007892D01*
X006515Y007970D02*
X005960Y007970D01*
X005960Y008049D02*
X007512Y008049D01*
X007512Y008127D02*
X005960Y008127D01*
X005960Y008206D02*
X007512Y008206D01*
X007512Y008193D02*
X007709Y008193D01*
X007512Y008193D01*
X007709Y008193D02*
X007709Y008193D01*
X007356Y007840D02*
X007357Y007839D01*
X007356Y007840D02*
X006640Y007840D01*
X006110Y007310D01*
X005320Y007310D01*
X005156Y007474D01*
X005156Y007770D01*
X004980Y007749D02*
X004960Y007770D01*
X004968Y007779D02*
X004968Y007978D01*
X005130Y008140D01*
X005130Y008346D01*
X005126Y008300D01*
X005126Y008580D01*
X004643Y008551D02*
X004643Y008329D01*
X004585Y008329D01*
X004585Y008551D01*
X004643Y008551D01*
X004643Y008520D02*
X004585Y008520D01*
X004585Y008441D02*
X004643Y008441D01*
X004643Y008363D02*
X004585Y008363D01*
X004585Y008271D02*
X004643Y008271D01*
X004643Y008263D01*
X004643Y008107D01*
X004585Y008107D01*
X004585Y008271D01*
X004585Y008206D02*
X004643Y008206D01*
X004643Y008127D02*
X004585Y008127D01*
X004402Y008284D02*
X004033Y008284D01*
X004064Y008363D02*
X004336Y008363D01*
X004336Y008441D02*
X004064Y008441D01*
X003890Y008206D02*
X004336Y008206D01*
X004336Y008127D02*
X003812Y008127D01*
X003303Y008300D02*
X003303Y008521D01*
X003245Y008521D01*
X003245Y008300D01*
X003303Y008300D01*
X003303Y008363D02*
X003245Y008363D01*
X003245Y008441D02*
X003303Y008441D01*
X003303Y008520D02*
X003245Y008520D01*
X003245Y008598D02*
X003303Y008598D01*
X003303Y008677D02*
X003245Y008677D01*
X003245Y008755D02*
X003303Y008755D01*
X003303Y008834D02*
X003245Y008834D01*
X003088Y008991D02*
X005806Y008991D01*
X005808Y009069D02*
X005632Y009069D01*
X005308Y009069D02*
X005132Y009069D01*
X004808Y009069D02*
X004632Y009069D01*
X004308Y009069D02*
X004132Y009069D01*
X003808Y009069D02*
X003632Y009069D01*
X003556Y008834D02*
X003504Y008834D01*
X003308Y009069D02*
X003132Y009069D01*
X003188Y007770D02*
X003188Y007460D01*
X003188Y007262D02*
X003440Y007010D01*
X004810Y007010D02*
X004820Y007010D01*
X004980Y007170D01*
X004980Y007749D01*
X005780Y007750D02*
X005780Y008710D01*
X006100Y009030D01*
X010130Y009030D01*
X010470Y009370D01*
X010861Y009933D02*
X000160Y009933D01*
X000160Y010011D02*
X011300Y010011D01*
X011300Y009933D02*
X011239Y009933D01*
X011295Y009854D02*
X011300Y009854D01*
X011050Y009740D02*
X000700Y009740D01*
X000470Y009510D01*
X000470Y006480D01*
X000740Y006210D01*
X000568Y006008D02*
X000160Y006008D01*
X000160Y006086D02*
X000505Y006086D01*
X000475Y006165D02*
X000160Y006165D01*
X000160Y006243D02*
X000452Y006243D01*
X000374Y006322D02*
X000160Y006322D01*
X000160Y006400D02*
X000295Y006400D01*
X000290Y006479D02*
X000160Y006479D01*
X000160Y006557D02*
X000290Y006557D01*
X000290Y006636D02*
X000160Y006636D01*
X000160Y006714D02*
X000290Y006714D01*
X000290Y006793D02*
X000160Y006793D01*
X000160Y006871D02*
X000290Y006871D01*
X000290Y006950D02*
X000160Y006950D01*
X000160Y007028D02*
X000290Y007028D01*
X000290Y007107D02*
X000160Y007107D01*
X000160Y007185D02*
X000290Y007185D01*
X000290Y007264D02*
X000160Y007264D01*
X000160Y007342D02*
X000290Y007342D01*
X000290Y007421D02*
X000160Y007421D01*
X000160Y007499D02*
X000290Y007499D01*
X000290Y007578D02*
X000160Y007578D01*
X000160Y007656D02*
X000290Y007656D01*
X000290Y007735D02*
X000160Y007735D01*
X000160Y007813D02*
X000290Y007813D01*
X000290Y007892D02*
X000160Y007892D01*
X000160Y007970D02*
X000290Y007970D01*
X000290Y008049D02*
X000160Y008049D01*
X000160Y008127D02*
X000290Y008127D01*
X000290Y008206D02*
X000160Y008206D01*
X000160Y008284D02*
X000290Y008284D01*
X000290Y008363D02*
X000160Y008363D01*
X000160Y008441D02*
X000290Y008441D01*
X000290Y008520D02*
X000160Y008520D01*
X000160Y008598D02*
X000290Y008598D01*
X000290Y008677D02*
X000160Y008677D01*
X000160Y008755D02*
X000290Y008755D01*
X000290Y008834D02*
X000160Y008834D01*
X000160Y008912D02*
X000290Y008912D01*
X000290Y008991D02*
X000160Y008991D01*
X000160Y009069D02*
X000290Y009069D01*
X000290Y009148D02*
X000160Y009148D01*
X000160Y009226D02*
X000290Y009226D01*
X000290Y009305D02*
X000160Y009305D01*
X000160Y009383D02*
X000290Y009383D01*
X000290Y009462D02*
X000160Y009462D01*
X000160Y009540D02*
X000290Y009540D01*
X000324Y009619D02*
X000160Y009619D01*
X000160Y009697D02*
X000402Y009697D01*
X000481Y009776D02*
X000160Y009776D01*
X000160Y009854D02*
X000559Y009854D01*
X000515Y005929D02*
X000573Y005929D01*
X000573Y005851D02*
X000515Y005851D01*
X000515Y005772D02*
X000573Y005772D01*
X000266Y005851D02*
X000160Y005851D01*
X000160Y005929D02*
X000286Y005929D01*
X001475Y005270D02*
X002120Y005270D01*
X001812Y005073D02*
X001812Y005001D01*
X001809Y004990D01*
X001812Y004987D01*
X002990Y004400D02*
X002990Y003361D01*
X002991Y003360D01*
X002991Y002981D01*
X002940Y002930D01*
X002660Y002930D01*
X002600Y002870D01*
X002600Y002624D01*
X002604Y002620D01*
X002600Y002616D01*
X002600Y002250D01*
X002514Y002164D01*
X002180Y002164D01*
X002330Y001847D02*
X001459Y001847D01*
X001563Y001769D02*
X002336Y001769D01*
X002368Y001690D02*
X001605Y001690D01*
X001620Y001612D02*
X002417Y001612D01*
X002495Y001533D02*
X001614Y001533D01*
X001030Y001090D02*
X005490Y001090D01*
X003893Y000434D02*
X003547Y000434D01*
X003393Y000434D02*
X003047Y000434D01*
X003193Y000513D02*
X003247Y000513D01*
X002893Y000434D02*
X002547Y000434D01*
X002393Y000434D02*
X002047Y000434D01*
X001893Y000434D02*
X001547Y000434D01*
X001693Y000513D02*
X001747Y000513D01*
X001393Y000434D02*
X001047Y000434D01*
X000893Y000434D02*
X000160Y000434D01*
X000160Y000513D02*
X000747Y000513D01*
X000676Y000591D02*
X000160Y000591D01*
X000160Y000670D02*
X000644Y000670D01*
X000630Y000748D02*
X000160Y000748D01*
X000160Y000827D02*
X000630Y000827D01*
X000658Y000905D02*
X000160Y000905D01*
X000160Y000984D02*
X000703Y000984D01*
X000786Y001062D02*
X000160Y001062D01*
X000160Y001141D02*
X000725Y001141D01*
X000646Y001219D02*
X000160Y001219D01*
X000160Y001298D02*
X000570Y001298D01*
X000570Y001376D02*
X000160Y001376D01*
X000160Y001455D02*
X000570Y001455D01*
X000570Y001533D02*
X000160Y001533D01*
X000160Y001612D02*
X000570Y001612D01*
X000570Y001690D02*
X000160Y001690D01*
X000160Y001769D02*
X000570Y001769D01*
X000570Y001847D02*
X000160Y001847D01*
X001193Y000513D02*
X001247Y000513D01*
X002193Y000513D02*
X002247Y000513D01*
X002693Y000513D02*
X002747Y000513D01*
X003693Y000513D02*
X003747Y000513D01*
X002720Y001860D02*
X002720Y002020D01*
X003110Y002410D01*
X003110Y002614D01*
X003116Y002620D01*
X003188Y002692D01*
X003188Y003360D01*
X002500Y003025D02*
X002476Y003025D01*
X002400Y003025D02*
X002400Y003025D01*
X002325Y003025D02*
X002316Y003025D01*
X002400Y003103D02*
X002400Y003103D01*
X002400Y003182D02*
X002400Y003182D01*
X002400Y003260D02*
X002400Y003260D01*
X002404Y002946D02*
X002421Y002946D01*
X006836Y005090D02*
X006840Y005094D01*
X008599Y003888D02*
X009042Y003888D01*
X009042Y003810D02*
X008599Y003810D01*
X008599Y003731D02*
X009042Y003731D01*
X009042Y003653D02*
X008599Y003653D01*
X008599Y003574D02*
X009042Y003574D01*
X009042Y003496D02*
X008599Y003496D01*
X009154Y001062D02*
X009286Y001062D01*
X009654Y001062D02*
X009786Y001062D01*
X009747Y000513D02*
X009693Y000513D01*
X009247Y000513D02*
X009193Y000513D01*
X008747Y000513D02*
X008693Y000513D01*
X007357Y007248D02*
X007038Y007248D01*
X007010Y007220D01*
X007137Y008284D02*
X005960Y008284D01*
X005960Y008363D02*
X007097Y008363D01*
X007096Y008441D02*
X005960Y008441D01*
X005960Y008520D02*
X007096Y008520D01*
X007096Y008598D02*
X005960Y008598D01*
X006001Y008677D02*
X007096Y008677D01*
X007096Y008755D02*
X006080Y008755D01*
X006158Y008834D02*
X007135Y008834D01*
X008499Y008193D02*
X008673Y008193D01*
X008790Y008310D01*
X008790Y008546D01*
X008786Y008560D01*
X009220Y008480D02*
X009281Y008480D01*
X009220Y008419D01*
X009220Y008480D01*
X009220Y008441D02*
X009242Y008441D01*
X009484Y008170D02*
X009484Y008112D01*
X009870Y007726D01*
X010200Y007930D02*
X010550Y007930D01*
X010630Y007850D01*
X010896Y008116D01*
X010896Y008260D01*
X010630Y007850D02*
X010630Y007570D01*
X010720Y007560D01*
X010200Y007930D02*
X009996Y008134D01*
X009996Y008170D01*
D24*
X010650Y008660D03*
X011050Y009740D03*
X008110Y007180D03*
X007420Y006780D03*
X007020Y006890D03*
X007010Y007220D03*
X006410Y007250D03*
X006420Y006860D03*
X006300Y006190D03*
X005060Y006390D03*
X005060Y005760D03*
X005070Y005200D03*
X004640Y004870D03*
X005650Y003060D03*
X005100Y002860D03*
X007080Y004070D03*
X007510Y004440D03*
X007810Y004140D03*
X008390Y004220D03*
X008930Y004240D03*
X008860Y003530D03*
X008700Y003200D03*
X008420Y002640D03*
X009450Y003600D03*
X009550Y003270D03*
X010050Y002410D03*
X009710Y001890D03*
X009990Y001410D03*
X007240Y004930D03*
X007550Y006310D03*
X006135Y007725D03*
X005780Y007750D03*
X001650Y008580D03*
X001090Y004800D03*
X001020Y004460D03*
X001030Y004120D03*
X000750Y003400D03*
X001350Y001600D03*
D25*
X000740Y006210D03*
M02*
