G75*
%MOIN*%
%OFA0B0*%
%FSLAX24Y24*%
%IPPOS*%
%LPD*%
%AMOC8*
5,1,8,0,0,1.08239X$1,22.5*
%
%ADD10C,0.0000*%
%ADD11C,0.0050*%
%ADD12C,0.0039*%
%ADD13C,0.0040*%
%ADD14C,0.0060*%
%ADD15C,0.0020*%
%ADD16C,0.0030*%
%ADD17C,0.0080*%
%ADD18C,0.0010*%
%ADD19R,0.0118X0.0118*%
D10*
X000818Y000837D02*
X000818Y010737D01*
X011318Y010737D01*
X011318Y000837D01*
X000818Y000837D01*
D11*
X001130Y001174D02*
X001005Y001299D01*
X001005Y001674D01*
X001130Y001799D01*
X001443Y001799D01*
X001568Y001674D01*
X001693Y001799D01*
X001943Y001799D01*
X002068Y001674D01*
X002193Y001799D01*
X002443Y001799D01*
X002568Y001674D01*
X002693Y001799D01*
X002943Y001799D01*
X003068Y001674D01*
X003193Y001799D01*
X003443Y001799D01*
X003568Y001674D01*
X003693Y001799D01*
X003943Y001799D01*
X004068Y001674D01*
X004193Y001799D01*
X004443Y001799D01*
X004568Y001674D01*
X004693Y001799D01*
X004943Y001799D01*
X005068Y001674D01*
X005193Y001799D01*
X005443Y001799D01*
X005568Y001674D01*
X005693Y001799D01*
X005943Y001799D01*
X006068Y001674D01*
X006193Y001799D01*
X006443Y001799D01*
X006568Y001674D01*
X006693Y001799D01*
X006943Y001799D01*
X007068Y001674D01*
X007193Y001799D01*
X007443Y001799D01*
X007568Y001674D01*
X007693Y001799D01*
X007943Y001799D01*
X008068Y001674D01*
X008193Y001799D01*
X008443Y001799D01*
X008568Y001674D01*
X008693Y001799D01*
X008943Y001799D01*
X009068Y001674D01*
X009193Y001799D01*
X009443Y001799D01*
X009568Y001674D01*
X009693Y001799D01*
X009943Y001799D01*
X010068Y001674D01*
X010193Y001799D01*
X010443Y001799D01*
X010568Y001674D01*
X010693Y001799D01*
X010943Y001799D01*
X011130Y001612D01*
X011130Y001299D01*
X011005Y001174D01*
X010693Y001174D01*
X010568Y001299D01*
X010443Y001174D01*
X010193Y001174D01*
X010068Y001299D01*
X009943Y001174D01*
X009693Y001174D01*
X009568Y001299D01*
X009443Y001174D01*
X009193Y001174D01*
X009068Y001299D01*
X008943Y001174D01*
X008693Y001174D01*
X008568Y001299D01*
X008443Y001174D01*
X008193Y001174D01*
X008068Y001299D01*
X007943Y001174D01*
X007693Y001174D01*
X007568Y001299D01*
X007443Y001174D01*
X007193Y001174D01*
X007068Y001299D01*
X006943Y001174D01*
X006693Y001174D01*
X006568Y001299D01*
X006443Y001174D01*
X006193Y001174D01*
X006068Y001299D01*
X005943Y001174D01*
X005693Y001174D01*
X005568Y001299D01*
X005443Y001174D01*
X005193Y001174D01*
X005068Y001299D01*
X004943Y001174D01*
X004693Y001174D01*
X004568Y001299D01*
X004443Y001174D01*
X004193Y001174D01*
X004068Y001299D01*
X003943Y001174D01*
X003693Y001174D01*
X003568Y001299D01*
X003443Y001174D01*
X003193Y001174D01*
X003068Y001299D01*
X002943Y001174D01*
X002693Y001174D01*
X002568Y001299D01*
X002443Y001174D01*
X002193Y001174D01*
X002068Y001299D01*
X001943Y001174D01*
X001693Y001174D01*
X001568Y001299D01*
X001443Y001174D01*
X001130Y001174D01*
X002863Y003332D02*
X002863Y003782D01*
X002713Y003782D02*
X003013Y003782D01*
X003173Y003782D02*
X003398Y003782D01*
X003473Y003707D01*
X003473Y003557D01*
X003398Y003482D01*
X003173Y003482D01*
X003173Y003332D02*
X003173Y003782D01*
X003634Y003782D02*
X003934Y003782D01*
X003934Y003707D01*
X003634Y003407D01*
X003634Y003332D01*
X007133Y003302D02*
X007433Y003302D01*
X007283Y003302D02*
X007283Y002852D01*
X007593Y002852D02*
X007593Y003302D01*
X007818Y003302D01*
X007893Y003227D01*
X007893Y003077D01*
X007818Y003002D01*
X007593Y003002D01*
X007853Y003292D02*
X008153Y003292D01*
X008204Y003227D02*
X008054Y003077D01*
X008279Y003077D01*
X008354Y003002D01*
X008354Y002927D01*
X008279Y002852D01*
X008129Y002852D01*
X008054Y002927D01*
X008054Y003077D01*
X008204Y003227D02*
X008354Y003302D01*
X008313Y003292D02*
X008538Y003292D01*
X008613Y003217D01*
X008613Y003067D01*
X008538Y002992D01*
X008313Y002992D01*
X008313Y002842D02*
X008313Y003292D01*
X008279Y003542D02*
X008279Y003992D01*
X008054Y003767D01*
X008354Y003767D01*
X008313Y003702D02*
X008538Y003702D01*
X008613Y003777D01*
X008613Y003927D01*
X008538Y004002D01*
X008313Y004002D01*
X008313Y003552D01*
X008003Y003552D02*
X008003Y004002D01*
X007893Y003917D02*
X007893Y003767D01*
X007818Y003692D01*
X007593Y003692D01*
X007593Y003542D02*
X007593Y003992D01*
X007818Y003992D01*
X007893Y003917D01*
X007853Y004002D02*
X008153Y004002D01*
X008774Y003927D02*
X008849Y004002D01*
X008999Y004002D01*
X009074Y003927D01*
X009074Y003852D01*
X008999Y003777D01*
X009074Y003702D01*
X009074Y003627D01*
X008999Y003552D01*
X008849Y003552D01*
X008774Y003627D01*
X008924Y003777D02*
X008999Y003777D01*
X008953Y003372D02*
X009253Y003372D01*
X009413Y003372D02*
X009638Y003372D01*
X009713Y003297D01*
X009713Y003147D01*
X009638Y003072D01*
X009413Y003072D01*
X009413Y002922D02*
X009413Y003372D01*
X009103Y003372D02*
X009103Y002922D01*
X009074Y002917D02*
X008999Y002842D01*
X008849Y002842D01*
X008774Y002917D01*
X008774Y003067D02*
X008924Y003142D01*
X008999Y003142D01*
X009074Y003067D01*
X009074Y002917D01*
X008774Y003067D02*
X008774Y003292D01*
X009074Y003292D01*
X009874Y003297D02*
X009874Y003222D01*
X009949Y003147D01*
X010174Y003147D01*
X010174Y003297D02*
X010099Y003372D01*
X009949Y003372D01*
X009874Y003297D01*
X010174Y003297D02*
X010174Y002997D01*
X010099Y002922D01*
X009949Y002922D01*
X009874Y002997D01*
X010505Y003007D02*
X010505Y002757D01*
X010630Y002632D01*
X010505Y002507D01*
X010505Y002307D01*
X010505Y002257D01*
X010505Y002244D01*
X010680Y002069D01*
X010955Y002069D01*
X011130Y002244D01*
X011130Y002257D02*
X011130Y002507D01*
X011005Y002632D01*
X011130Y002757D01*
X011130Y003007D01*
X010943Y003194D01*
X010693Y003194D01*
X010505Y003007D01*
X011562Y002626D02*
X012013Y002626D01*
X012013Y002476D02*
X012013Y002777D01*
X011713Y002476D02*
X011562Y002626D01*
X011638Y002316D02*
X011562Y002241D01*
X011562Y002016D01*
X012013Y002016D01*
X011863Y002016D02*
X011863Y002241D01*
X011788Y002316D01*
X011638Y002316D01*
X011562Y001856D02*
X011562Y001706D01*
X011562Y001781D02*
X011938Y001781D01*
X012013Y001706D01*
X012013Y001631D01*
X011938Y001555D01*
X011138Y000742D02*
X010988Y000742D01*
X010912Y000667D01*
X010752Y000667D02*
X010752Y000517D01*
X010677Y000442D01*
X010452Y000442D01*
X010452Y000292D02*
X010452Y000742D01*
X010677Y000742D01*
X010752Y000667D01*
X011138Y000742D02*
X011213Y000667D01*
X011213Y000592D01*
X010912Y000292D01*
X011213Y000292D01*
X010217Y000367D02*
X010217Y000742D01*
X010142Y000742D02*
X010292Y000742D01*
X010217Y000367D02*
X010142Y000292D01*
X010067Y000292D01*
X009992Y000367D01*
X008003Y002842D02*
X008003Y003292D01*
X007283Y003542D02*
X007283Y003992D01*
X007133Y003992D02*
X007433Y003992D01*
X007313Y005652D02*
X007313Y006102D01*
X007163Y006102D02*
X007463Y006102D01*
X007623Y006102D02*
X007848Y006102D01*
X007923Y006027D01*
X007923Y005877D01*
X007848Y005802D01*
X007623Y005802D01*
X007623Y005652D02*
X007623Y006102D01*
X008084Y006027D02*
X008084Y005952D01*
X008159Y005877D01*
X008309Y005877D01*
X008384Y005802D01*
X008384Y005727D01*
X008309Y005652D01*
X008159Y005652D01*
X008084Y005727D01*
X008084Y005802D01*
X008159Y005877D01*
X008309Y005877D02*
X008384Y005952D01*
X008384Y006027D01*
X008309Y006102D01*
X008159Y006102D01*
X008084Y006027D01*
X010067Y008892D02*
X010142Y008892D01*
X010217Y008967D01*
X010217Y009342D01*
X010142Y009342D02*
X010292Y009342D01*
X010452Y009342D02*
X010677Y009342D01*
X010752Y009267D01*
X010752Y009117D01*
X010677Y009042D01*
X010452Y009042D01*
X010452Y008892D02*
X010452Y009342D01*
X010443Y009774D02*
X010193Y009774D01*
X010068Y009899D01*
X009943Y009774D01*
X009693Y009774D01*
X009568Y009899D01*
X009443Y009774D01*
X009193Y009774D01*
X009068Y009899D01*
X008943Y009774D01*
X008693Y009774D01*
X008568Y009899D01*
X008443Y009774D01*
X008193Y009774D01*
X008068Y009899D01*
X007943Y009774D01*
X007693Y009774D01*
X007568Y009899D01*
X007443Y009774D01*
X007193Y009774D01*
X007068Y009899D01*
X006943Y009774D01*
X006693Y009774D01*
X006568Y009899D01*
X006443Y009774D01*
X006193Y009774D01*
X006068Y009899D01*
X005943Y009774D01*
X005693Y009774D01*
X005568Y009899D01*
X005443Y009774D01*
X005193Y009774D01*
X005068Y009899D01*
X004943Y009774D01*
X004693Y009774D01*
X004568Y009899D01*
X004443Y009774D01*
X004193Y009774D01*
X004068Y009899D01*
X003943Y009774D01*
X003693Y009774D01*
X003568Y009899D01*
X003443Y009774D01*
X003193Y009774D01*
X003068Y009899D01*
X002943Y009774D01*
X002693Y009774D01*
X002568Y009899D01*
X002443Y009774D01*
X002193Y009774D01*
X002068Y009899D01*
X001943Y009774D01*
X001693Y009774D01*
X001568Y009899D01*
X001443Y009774D01*
X001130Y009774D01*
X001005Y009899D01*
X001005Y010274D01*
X001130Y010399D01*
X001443Y010399D01*
X001568Y010274D01*
X001693Y010399D01*
X001943Y010399D01*
X002068Y010274D01*
X002193Y010399D01*
X002443Y010399D01*
X002568Y010274D01*
X002693Y010399D01*
X002943Y010399D01*
X003068Y010274D01*
X003193Y010399D01*
X003443Y010399D01*
X003568Y010274D01*
X003693Y010399D01*
X003943Y010399D01*
X004068Y010274D01*
X004193Y010399D01*
X004443Y010399D01*
X004568Y010274D01*
X004693Y010399D01*
X004943Y010399D01*
X005068Y010274D01*
X005193Y010399D01*
X005443Y010399D01*
X005568Y010274D01*
X005693Y010399D01*
X005943Y010399D01*
X006068Y010274D01*
X006193Y010399D01*
X006443Y010399D01*
X006568Y010274D01*
X006693Y010399D01*
X006943Y010399D01*
X007068Y010274D01*
X007193Y010399D01*
X007443Y010399D01*
X007568Y010274D01*
X007693Y010399D01*
X007943Y010399D01*
X008068Y010274D01*
X008193Y010399D01*
X008443Y010399D01*
X008568Y010274D01*
X008693Y010399D01*
X008943Y010399D01*
X009068Y010274D01*
X009193Y010399D01*
X009443Y010399D01*
X009568Y010274D01*
X009693Y010399D01*
X009943Y010399D01*
X010068Y010274D01*
X010193Y010399D01*
X010443Y010399D01*
X010568Y010274D01*
X010693Y010399D01*
X010943Y010399D01*
X011130Y010212D01*
X011130Y009899D01*
X011005Y009774D01*
X010693Y009774D01*
X010568Y009899D01*
X010443Y009774D01*
X010912Y009267D02*
X010988Y009342D01*
X011138Y009342D01*
X011213Y009267D01*
X011213Y009192D01*
X011138Y009117D01*
X011213Y009042D01*
X011213Y008967D01*
X011138Y008892D01*
X010988Y008892D01*
X010912Y008967D01*
X011063Y009117D02*
X011138Y009117D01*
X010067Y008892D02*
X009992Y008967D01*
X002564Y008852D02*
X002264Y008852D01*
X002414Y008852D02*
X002414Y009302D01*
X002264Y009152D01*
X002103Y009227D02*
X002103Y009077D01*
X002028Y009002D01*
X001803Y009002D01*
X001803Y008852D02*
X001803Y009302D01*
X002028Y009302D01*
X002103Y009227D01*
X002264Y009452D02*
X002564Y009752D01*
X002564Y009827D01*
X002489Y009902D01*
X002339Y009902D01*
X002264Y009827D01*
X002103Y009827D02*
X002103Y009677D01*
X002028Y009602D01*
X001803Y009602D01*
X001803Y009452D02*
X001803Y009902D01*
X002028Y009902D01*
X002103Y009827D01*
X002264Y009452D02*
X002564Y009452D01*
X001643Y009302D02*
X001343Y009302D01*
X001493Y009302D02*
X001493Y008852D01*
X001493Y009452D02*
X001493Y009902D01*
X001343Y009902D02*
X001643Y009902D01*
D12*
X002217Y008250D02*
X005799Y008250D01*
X005996Y008053D01*
X005996Y004510D01*
X005799Y004313D01*
X002217Y004313D01*
X002059Y004471D01*
X002059Y008093D01*
X002217Y008250D01*
X005421Y007817D02*
X005423Y007840D01*
X005429Y007863D01*
X005438Y007885D01*
X005451Y007904D01*
X005467Y007921D01*
X005485Y007936D01*
X005506Y007947D01*
X005528Y007955D01*
X005551Y007959D01*
X005575Y007959D01*
X005598Y007955D01*
X005620Y007947D01*
X005641Y007936D01*
X005659Y007921D01*
X005675Y007904D01*
X005688Y007885D01*
X005697Y007863D01*
X005703Y007840D01*
X005705Y007817D01*
X005703Y007794D01*
X005697Y007771D01*
X005688Y007749D01*
X005675Y007730D01*
X005659Y007713D01*
X005641Y007698D01*
X005620Y007687D01*
X005598Y007679D01*
X005575Y007675D01*
X005551Y007675D01*
X005528Y007679D01*
X005506Y007687D01*
X005485Y007698D01*
X005467Y007713D01*
X005451Y007730D01*
X005438Y007749D01*
X005429Y007771D01*
X005423Y007794D01*
X005421Y007817D01*
D13*
X005334Y008197D02*
X005027Y008197D01*
X005334Y008504D01*
X005334Y008580D01*
X005258Y008657D01*
X005104Y008657D01*
X005027Y008580D01*
X005027Y008607D02*
X005334Y008607D01*
X005258Y008377D02*
X005258Y008837D01*
X005027Y008607D01*
X004874Y008580D02*
X004797Y008657D01*
X004644Y008657D01*
X004567Y008580D01*
X004414Y008580D02*
X004337Y008657D01*
X004183Y008657D01*
X004107Y008580D01*
X004107Y008273D01*
X004183Y008197D01*
X004337Y008197D01*
X004414Y008273D01*
X004337Y008377D02*
X004414Y008453D01*
X004337Y008377D02*
X004183Y008377D01*
X004107Y008453D01*
X004107Y008760D01*
X004183Y008837D01*
X004337Y008837D01*
X004414Y008760D01*
X004567Y008760D02*
X004644Y008837D01*
X004797Y008837D01*
X004874Y008760D01*
X004874Y008684D01*
X004567Y008377D01*
X004874Y008377D01*
X004874Y008197D02*
X004567Y008197D01*
X004874Y008504D01*
X004874Y008580D01*
X004549Y007369D02*
X004396Y007369D01*
X004319Y007292D01*
X004319Y007215D01*
X004396Y007062D01*
X004166Y007062D01*
X004166Y007369D01*
X004549Y007369D02*
X004626Y007292D01*
X004626Y007138D01*
X004549Y007062D01*
X004549Y006908D02*
X004626Y006832D01*
X004626Y006678D01*
X004549Y006601D01*
X004242Y006601D01*
X004166Y006678D01*
X004166Y006832D01*
X004242Y006908D01*
X004166Y006448D02*
X004166Y006294D01*
X004166Y006371D02*
X004626Y006371D01*
X004626Y006294D02*
X004626Y006448D01*
X005897Y006347D02*
X005897Y006194D01*
X005974Y006117D01*
X005974Y005964D02*
X005897Y005887D01*
X005897Y005733D01*
X005974Y005657D01*
X006281Y005657D01*
X006358Y005733D01*
X006358Y005887D01*
X006281Y005964D01*
X006358Y006117D02*
X006051Y006424D01*
X005974Y006424D01*
X005897Y006347D01*
X005897Y006577D02*
X006128Y006577D01*
X006051Y006731D01*
X006051Y006808D01*
X006128Y006884D01*
X006281Y006884D01*
X006358Y006808D01*
X006358Y006654D01*
X006281Y006577D01*
X006358Y006424D02*
X006358Y006117D01*
X005897Y006577D02*
X005897Y006884D01*
X007457Y005950D02*
X007918Y005950D01*
X007941Y005856D02*
X007864Y005856D01*
X007787Y005933D01*
X007787Y006086D01*
X007864Y006163D01*
X008171Y006163D01*
X008248Y006086D01*
X008248Y005933D01*
X008171Y005856D01*
X008248Y005703D02*
X008248Y005396D01*
X008248Y005549D02*
X007787Y005549D01*
X007941Y005396D01*
X007918Y005336D02*
X007611Y005643D01*
X007534Y005643D01*
X007457Y005566D01*
X007457Y005413D01*
X007534Y005336D01*
X007534Y005182D02*
X007457Y005106D01*
X007457Y004952D01*
X007534Y004875D01*
X007841Y004875D01*
X007918Y004952D01*
X007918Y005106D01*
X007841Y005182D01*
X007787Y005166D02*
X007787Y005012D01*
X007864Y004935D01*
X008171Y004935D01*
X008248Y005012D01*
X008248Y005166D01*
X008171Y005242D01*
X007918Y005336D02*
X007918Y005643D01*
X007918Y005796D02*
X007918Y006103D01*
X008018Y006163D02*
X008018Y005933D01*
X007941Y005856D01*
X007611Y005796D02*
X007457Y005950D01*
X007864Y005242D02*
X007787Y005166D01*
X008807Y004979D02*
X009268Y004979D01*
X009268Y004826D02*
X009268Y005133D01*
X009268Y005286D02*
X009268Y005593D01*
X009268Y005440D02*
X008807Y005440D01*
X008961Y005286D01*
X008807Y004979D02*
X008961Y004826D01*
X008884Y004672D02*
X008807Y004596D01*
X008807Y004442D01*
X008884Y004365D01*
X009191Y004365D01*
X009268Y004442D01*
X009268Y004596D01*
X009191Y004672D01*
X009547Y004516D02*
X009547Y004362D01*
X009624Y004285D01*
X009931Y004285D01*
X010008Y004362D01*
X010008Y004516D01*
X009931Y004592D01*
X010008Y004746D02*
X010008Y005053D01*
X010008Y005206D02*
X009701Y005513D01*
X009624Y005513D01*
X009547Y005436D01*
X009547Y005283D01*
X009624Y005206D01*
X009547Y004899D02*
X010008Y004899D01*
X010008Y005206D02*
X010008Y005513D01*
X009547Y004899D02*
X009701Y004746D01*
X009624Y004592D02*
X009547Y004516D01*
X009298Y006227D02*
X009144Y006227D01*
X009067Y006303D01*
X008914Y006227D02*
X008761Y006380D01*
X008837Y006380D02*
X008607Y006380D01*
X008607Y006227D02*
X008607Y006687D01*
X008837Y006687D01*
X008914Y006610D01*
X008914Y006457D01*
X008837Y006380D01*
X009067Y006534D02*
X009144Y006457D01*
X009374Y006457D01*
X009374Y006610D02*
X009374Y006303D01*
X009298Y006227D01*
X009067Y006534D02*
X009067Y006610D01*
X009144Y006687D01*
X009298Y006687D01*
X009374Y006610D01*
X009737Y006456D02*
X009737Y006302D01*
X009814Y006225D01*
X010121Y006225D01*
X010198Y006302D01*
X010198Y006456D01*
X010121Y006532D01*
X010004Y006532D02*
X009927Y006456D01*
X009927Y006302D01*
X010004Y006225D01*
X010311Y006225D01*
X010388Y006302D01*
X010388Y006456D01*
X010311Y006532D01*
X010388Y006686D02*
X010388Y006993D01*
X010311Y007146D02*
X010388Y007223D01*
X010388Y007376D01*
X010311Y007453D01*
X010158Y007453D01*
X010081Y007376D01*
X010081Y007300D01*
X010158Y007146D01*
X009927Y007146D01*
X009927Y007453D01*
X009968Y007376D02*
X009968Y007146D01*
X010121Y007146D01*
X010198Y007223D01*
X010198Y007376D01*
X010121Y007453D01*
X010044Y007453D01*
X009968Y007376D01*
X010097Y007372D02*
X010174Y007295D01*
X010481Y007295D01*
X010558Y007372D01*
X010558Y007526D01*
X010481Y007602D01*
X010558Y007756D02*
X010558Y008063D01*
X010481Y008216D02*
X010558Y008293D01*
X010558Y008446D01*
X010481Y008523D01*
X010404Y008523D01*
X010328Y008446D01*
X010328Y008370D01*
X010328Y008446D02*
X010251Y008523D01*
X010174Y008523D01*
X010097Y008446D01*
X010097Y008293D01*
X010174Y008216D01*
X010255Y008397D02*
X009948Y008397D01*
X010255Y008704D01*
X010255Y008780D01*
X010178Y008857D01*
X010025Y008857D01*
X009948Y008780D01*
X009795Y008397D02*
X009488Y008397D01*
X009488Y008857D01*
X009188Y008477D02*
X008727Y008477D01*
X008958Y008247D01*
X008958Y008554D01*
X008988Y008586D02*
X008988Y008893D01*
X008988Y008739D02*
X008527Y008739D01*
X008681Y008586D01*
X008604Y008432D02*
X008527Y008356D01*
X008527Y008202D01*
X008604Y008125D01*
X008911Y008125D01*
X008988Y008202D01*
X008988Y008356D01*
X008911Y008432D01*
X009051Y008227D02*
X009051Y007767D01*
X009188Y007787D02*
X009188Y008094D01*
X009051Y008227D02*
X008897Y008074D01*
X008744Y008150D02*
X008667Y008227D01*
X008513Y008227D01*
X008437Y008150D01*
X008437Y007843D01*
X008513Y007767D01*
X008667Y007767D01*
X008744Y007843D01*
X008727Y007787D02*
X009188Y007787D01*
X009204Y007767D02*
X008897Y007767D01*
X008637Y007445D02*
X008637Y006985D01*
X008790Y006985D02*
X008483Y006985D01*
X008176Y006985D02*
X008176Y007215D01*
X008330Y007368D01*
X008330Y007445D01*
X008483Y007292D02*
X008637Y007445D01*
X008176Y007215D02*
X008023Y007368D01*
X008023Y007445D01*
X009357Y007997D02*
X009664Y007997D01*
X009588Y007767D02*
X009588Y008227D01*
X009357Y007997D01*
X009727Y007716D02*
X009804Y007793D01*
X009881Y007793D01*
X009958Y007716D01*
X010034Y007793D01*
X010111Y007793D01*
X010188Y007716D01*
X010188Y007563D01*
X010111Y007486D01*
X010097Y007526D02*
X010097Y007372D01*
X010188Y007333D02*
X010188Y007026D01*
X009727Y007026D01*
X009737Y006839D02*
X010198Y006839D01*
X010198Y006686D02*
X010198Y006993D01*
X009968Y007146D02*
X009814Y007300D01*
X009737Y007453D01*
X009804Y007486D02*
X009727Y007563D01*
X009727Y007716D01*
X009958Y007716D02*
X009958Y007640D01*
X010097Y007526D02*
X010174Y007602D01*
X010251Y007756D02*
X010097Y007909D01*
X010558Y007909D01*
X010388Y006839D02*
X009927Y006839D01*
X010081Y006686D01*
X009891Y006686D02*
X009737Y006839D01*
X009814Y006532D02*
X009737Y006456D01*
X008911Y009046D02*
X008604Y009046D01*
X008527Y009123D01*
X008527Y009276D01*
X008604Y009353D01*
X008911Y009046D01*
X008988Y009123D01*
X008988Y009276D01*
X008911Y009353D01*
X008604Y009353D01*
X008675Y009567D02*
X008521Y009720D01*
X008598Y009720D02*
X008368Y009720D01*
X008368Y009567D02*
X008368Y010027D01*
X008598Y010027D01*
X008675Y009950D01*
X008675Y009797D01*
X008598Y009720D01*
X008828Y009720D02*
X008828Y009643D01*
X008905Y009567D01*
X009058Y009567D01*
X009135Y009643D01*
X009135Y009720D01*
X009058Y009797D01*
X008905Y009797D01*
X008828Y009874D01*
X008828Y009950D01*
X008905Y010027D01*
X009058Y010027D01*
X009135Y009950D01*
X009135Y009874D01*
X009058Y009797D01*
X008905Y009797D02*
X008828Y009720D01*
X003554Y008737D02*
X003554Y008660D01*
X003247Y008353D01*
X003247Y008277D01*
X003094Y008277D02*
X002787Y008277D01*
X003094Y008584D01*
X003094Y008660D01*
X003017Y008737D01*
X002864Y008737D01*
X002787Y008660D01*
X002634Y008660D02*
X002557Y008737D01*
X002403Y008737D01*
X002327Y008660D01*
X002327Y008353D01*
X002403Y008277D01*
X002557Y008277D01*
X002634Y008353D01*
X003247Y008737D02*
X003554Y008737D01*
X002778Y009187D02*
X002317Y009187D01*
X002317Y009417D01*
X002394Y009494D01*
X002548Y009494D01*
X002624Y009417D01*
X002624Y009187D01*
X002624Y009340D02*
X002778Y009494D01*
X002778Y009647D02*
X002778Y009954D01*
X002778Y009801D02*
X002317Y009801D01*
X002471Y009647D01*
X002448Y009754D02*
X002448Y009447D01*
X001987Y009447D01*
X001987Y009754D01*
X001987Y009907D02*
X001987Y010138D01*
X002064Y010214D01*
X002371Y010214D01*
X002448Y010138D01*
X002448Y009907D01*
X001987Y009907D01*
X002317Y010107D02*
X002548Y010107D01*
X002471Y010261D01*
X002471Y010338D01*
X002548Y010414D01*
X002701Y010414D01*
X002778Y010338D01*
X002778Y010184D01*
X002701Y010107D01*
X002448Y010368D02*
X002448Y010675D01*
X002448Y010521D02*
X001987Y010521D01*
X002141Y010368D01*
X002317Y010414D02*
X002317Y010107D01*
X002218Y009601D02*
X002218Y009447D01*
X002448Y009294D02*
X002448Y008987D01*
X001987Y008987D01*
X002011Y005973D02*
X001934Y005973D01*
X001858Y005896D01*
X001858Y005743D01*
X001781Y005666D01*
X001474Y005973D01*
X001781Y005973D01*
X001858Y005896D01*
X001858Y005666D01*
X002011Y005666D01*
X002088Y005743D01*
X002088Y005896D01*
X002011Y005973D01*
X001704Y005820D02*
X001858Y005666D01*
X001781Y005666D02*
X001474Y005666D01*
X001397Y005743D01*
X001397Y005896D01*
X001474Y005973D01*
X001627Y005973D02*
X001704Y005820D01*
X001704Y005513D02*
X001627Y005436D01*
X001627Y005283D01*
X001704Y005206D01*
X001704Y005052D02*
X001627Y004976D01*
X001627Y004822D01*
X001704Y004745D01*
X002011Y004745D01*
X002088Y004822D01*
X002088Y004976D01*
X002011Y005052D01*
X001858Y004976D02*
X001781Y005052D01*
X001858Y004976D02*
X001858Y004822D01*
X001781Y004745D01*
X001474Y004745D01*
X001397Y004822D01*
X001397Y004976D01*
X001474Y005052D01*
X001474Y005206D02*
X001397Y005283D01*
X001397Y005436D01*
X001474Y005513D01*
X001551Y005513D01*
X001858Y005206D01*
X001858Y005513D01*
X001781Y005513D02*
X001704Y005513D01*
X001781Y005513D02*
X002088Y005206D01*
X002088Y005513D01*
X000838Y005554D02*
X000761Y005477D01*
X000838Y005554D02*
X000838Y005707D01*
X000761Y005784D01*
X000684Y005784D01*
X000608Y005707D01*
X000608Y005631D01*
X000608Y005707D02*
X000531Y005784D01*
X000454Y005784D01*
X000377Y005707D01*
X000377Y005554D01*
X000454Y005477D01*
X000454Y005324D02*
X000377Y005247D01*
X000377Y005093D01*
X000454Y005017D01*
X000761Y005017D01*
X000838Y005093D01*
X000838Y005247D01*
X000761Y005324D01*
X002063Y003427D02*
X001987Y003350D01*
X001987Y003043D01*
X002063Y002967D01*
X002217Y002967D01*
X002294Y003043D01*
X002447Y002967D02*
X002754Y003274D01*
X002754Y003350D01*
X002677Y003427D01*
X002524Y003427D01*
X002447Y003350D01*
X002294Y003350D02*
X002217Y003427D01*
X002063Y003427D01*
X002447Y002967D02*
X002754Y002967D01*
X002907Y003043D02*
X002984Y002967D01*
X003138Y002967D01*
X003214Y003043D01*
X003214Y003120D01*
X003138Y003197D01*
X003061Y003197D01*
X003138Y003197D02*
X003214Y003274D01*
X003214Y003350D01*
X003138Y003427D01*
X002984Y003427D01*
X002907Y003350D01*
X003228Y003967D02*
X003228Y004427D01*
X003458Y004427D01*
X003535Y004350D01*
X003535Y004197D01*
X003458Y004120D01*
X003228Y004120D01*
X003381Y004120D02*
X003535Y003967D01*
X003688Y003967D02*
X003995Y003967D01*
X003842Y003967D02*
X003842Y004427D01*
X003688Y004274D01*
X003613Y004235D02*
X003613Y004158D01*
X003766Y004005D01*
X003766Y003775D01*
X003766Y004005D02*
X003920Y004158D01*
X003920Y004235D01*
X004073Y004158D02*
X004150Y004235D01*
X004304Y004235D01*
X004380Y004158D01*
X004380Y004082D01*
X004073Y003775D01*
X004380Y003775D01*
X004379Y003967D02*
X004225Y003967D01*
X004149Y004043D01*
X004456Y004350D01*
X004456Y004043D01*
X004379Y003967D01*
X004149Y004043D02*
X004149Y004350D01*
X004225Y004427D01*
X004379Y004427D01*
X004456Y004350D01*
X004341Y002733D02*
X004264Y002733D01*
X004188Y002656D01*
X004188Y002503D01*
X004111Y002426D01*
X004034Y002426D01*
X003957Y002503D01*
X003957Y002656D01*
X004034Y002733D01*
X004111Y002733D01*
X004188Y002656D01*
X004188Y002503D02*
X004264Y002426D01*
X004341Y002426D01*
X004418Y002503D01*
X004418Y002656D01*
X004341Y002733D01*
X004418Y002273D02*
X004418Y001966D01*
X004341Y001812D02*
X004418Y001736D01*
X004418Y001582D01*
X004341Y001505D01*
X004034Y001505D01*
X003957Y001582D01*
X003957Y001736D01*
X004034Y001812D01*
X004111Y001966D02*
X003957Y002119D01*
X004418Y002119D01*
X005677Y002129D02*
X006138Y002129D01*
X006138Y001976D02*
X006138Y002283D01*
X006138Y002436D02*
X006061Y002436D01*
X005754Y002743D01*
X005677Y002743D01*
X005677Y002436D01*
X005677Y002129D02*
X005831Y001976D01*
X005754Y001822D02*
X005677Y001746D01*
X005677Y001592D01*
X005754Y001515D01*
X006061Y001515D01*
X006138Y001592D01*
X006138Y001746D01*
X006061Y001822D01*
D14*
X008953Y003530D02*
X008953Y003568D01*
X008953Y003530D02*
X008955Y003510D01*
X008959Y003490D01*
X008967Y003472D01*
X008977Y003455D01*
X008990Y003439D01*
X009006Y003426D01*
X009023Y003416D01*
X009041Y003408D01*
X009061Y003404D01*
X009081Y003402D01*
X010104Y003402D01*
X010124Y003404D01*
X010144Y003408D01*
X010162Y003416D01*
X010179Y003426D01*
X010195Y003439D01*
X010208Y003455D01*
X010218Y003472D01*
X010226Y003490D01*
X010230Y003510D01*
X010232Y003530D01*
X010232Y003568D01*
X010232Y003748D02*
X010232Y003824D01*
X010232Y004004D02*
X010232Y004080D01*
X010232Y004260D02*
X010232Y004336D01*
X010232Y004516D02*
X010232Y004554D01*
X010230Y004574D01*
X010226Y004594D01*
X010218Y004612D01*
X010208Y004629D01*
X010195Y004645D01*
X010179Y004658D01*
X010162Y004668D01*
X010144Y004676D01*
X010124Y004680D01*
X010104Y004682D01*
X009081Y004682D01*
X009061Y004680D01*
X009041Y004676D01*
X009023Y004668D01*
X009006Y004658D01*
X008990Y004645D01*
X008977Y004629D01*
X008967Y004612D01*
X008959Y004594D01*
X008955Y004574D01*
X008953Y004554D01*
X008953Y004570D02*
X008953Y004516D01*
X008953Y004336D02*
X008953Y004260D01*
X008953Y004080D02*
X008953Y004004D01*
X008953Y003824D02*
X008953Y003748D01*
D15*
X009085Y004414D02*
X009087Y004441D01*
X009093Y004468D01*
X009102Y004494D01*
X009115Y004518D01*
X009131Y004541D01*
X009150Y004560D01*
X009172Y004577D01*
X009196Y004591D01*
X009221Y004601D01*
X009248Y004608D01*
X009275Y004611D01*
X009303Y004610D01*
X009330Y004605D01*
X009356Y004597D01*
X009380Y004585D01*
X009403Y004569D01*
X009424Y004551D01*
X009441Y004530D01*
X009456Y004506D01*
X009467Y004481D01*
X009475Y004455D01*
X009479Y004428D01*
X009479Y004400D01*
X009475Y004373D01*
X009467Y004347D01*
X009456Y004322D01*
X009441Y004298D01*
X009424Y004277D01*
X009403Y004259D01*
X009381Y004243D01*
X009356Y004231D01*
X009330Y004223D01*
X009303Y004218D01*
X009275Y004217D01*
X009248Y004220D01*
X009221Y004227D01*
X009196Y004237D01*
X009172Y004251D01*
X009150Y004268D01*
X009131Y004287D01*
X009115Y004310D01*
X009102Y004334D01*
X009093Y004360D01*
X009087Y004387D01*
X009085Y004414D01*
D16*
X009323Y004299D02*
X009323Y004105D01*
X009371Y004057D01*
X009468Y004057D01*
X009516Y004105D01*
X009617Y004105D02*
X009666Y004057D01*
X009763Y004057D01*
X009811Y004105D01*
X009811Y004153D01*
X009763Y004202D01*
X009666Y004202D01*
X009617Y004250D01*
X009617Y004299D01*
X009666Y004347D01*
X009763Y004347D01*
X009811Y004299D01*
X009811Y004250D01*
X009763Y004202D01*
X009666Y004202D02*
X009617Y004153D01*
X009617Y004105D01*
X009694Y004067D02*
X009549Y003922D01*
X009742Y003922D01*
X009769Y004007D02*
X009914Y004007D01*
X009962Y003959D01*
X009962Y003862D01*
X009914Y003813D01*
X009769Y003813D01*
X009694Y003777D02*
X009694Y004067D01*
X009769Y004007D02*
X009769Y003717D01*
X009865Y003813D02*
X009962Y003717D01*
X010063Y003717D02*
X010063Y003765D01*
X010257Y003959D01*
X010257Y004007D01*
X010063Y004007D01*
X010128Y003596D02*
X010128Y003402D01*
X010273Y003402D01*
X010224Y003499D01*
X010224Y003547D01*
X010273Y003596D01*
X010369Y003596D01*
X010418Y003547D01*
X010418Y003450D01*
X010369Y003402D01*
X010418Y003301D02*
X010321Y003204D01*
X010321Y003252D02*
X010321Y003107D01*
X010418Y003107D02*
X010128Y003107D01*
X010128Y003252D01*
X010176Y003301D01*
X010273Y003301D01*
X010321Y003252D01*
X010738Y003202D02*
X010738Y003057D01*
X011028Y003057D01*
X011093Y003116D02*
X011093Y003212D01*
X011141Y003261D01*
X011141Y003362D02*
X011189Y003362D01*
X011238Y003410D01*
X011238Y003556D01*
X011334Y003556D02*
X011141Y003556D01*
X011093Y003507D01*
X011093Y003410D01*
X011141Y003362D01*
X011028Y003251D02*
X010931Y003154D01*
X010931Y003202D02*
X010931Y003057D01*
X010931Y003202D02*
X010883Y003251D01*
X010786Y003251D01*
X010738Y003202D01*
X010883Y003352D02*
X010883Y003546D01*
X011028Y003497D02*
X010738Y003497D01*
X010883Y003352D01*
X011093Y003116D02*
X011141Y003067D01*
X011334Y003067D01*
X011383Y003116D01*
X011383Y003212D01*
X011334Y003261D01*
X011334Y003362D02*
X011383Y003410D01*
X011383Y003507D01*
X011334Y003556D01*
X009516Y004299D02*
X009468Y004347D01*
X009371Y004347D01*
X009323Y004299D01*
X009303Y004067D02*
X009254Y004019D01*
X009254Y003825D01*
X009303Y003777D01*
X009399Y003777D01*
X009448Y003825D01*
X009448Y004019D02*
X009399Y004067D01*
X009303Y004067D01*
X009155Y004067D02*
X009058Y004067D01*
X009106Y004067D02*
X009106Y003777D01*
X009058Y003777D02*
X009155Y003777D01*
D17*
X010288Y005957D02*
X010288Y007857D01*
X011188Y007857D02*
X011188Y005957D01*
X010888Y006207D02*
X010738Y006057D01*
X010588Y006207D01*
X010738Y006057D02*
X010738Y006407D01*
X007862Y008949D02*
X007665Y008752D01*
D18*
X007958Y008667D02*
X008008Y008667D01*
X007983Y008667D02*
X007983Y008517D01*
X007958Y008517D02*
X008008Y008517D01*
X008056Y008542D02*
X008081Y008517D01*
X008131Y008517D01*
X008156Y008542D01*
X008203Y008542D02*
X008228Y008517D01*
X008278Y008517D01*
X008303Y008542D01*
X008303Y008567D01*
X008278Y008592D01*
X008203Y008592D01*
X008203Y008542D01*
X008203Y008592D02*
X008253Y008642D01*
X008303Y008667D01*
X008156Y008642D02*
X008131Y008667D01*
X008081Y008667D01*
X008056Y008642D01*
X008056Y008542D01*
X010893Y007814D02*
X010943Y007764D01*
X010918Y007717D02*
X010893Y007692D01*
X010893Y007642D01*
X010918Y007617D01*
X010943Y007617D01*
X010968Y007642D01*
X010968Y007692D01*
X010993Y007717D01*
X011018Y007717D01*
X011043Y007692D01*
X011043Y007642D01*
X011018Y007617D01*
X011018Y007570D02*
X010893Y007570D01*
X010868Y007667D02*
X011068Y007667D01*
X011043Y007764D02*
X011043Y007864D01*
X011043Y007814D02*
X010893Y007814D01*
X011018Y007570D02*
X011043Y007545D01*
X011043Y007495D01*
X011018Y007470D01*
X010893Y007470D01*
D19*
X009258Y006957D03*
X008598Y009297D03*
X003048Y009417D03*
X003458Y003697D03*
X009663Y003302D03*
X010073Y003422D03*
X010793Y004042D03*
M02*
