%
M48
M72
T01C0.0100
T02C0.0200
%
T01
X1698Y2317
X1098Y4117
X1378Y4837
X1368Y5177
X1438Y5517
X1088Y6927
X1998Y9297
X5408Y7107
X5408Y6477
X5468Y5737
X5018Y5637
X6648Y6907
X6768Y7577
X6758Y7967
X6483Y8442
X6128Y8467
X7358Y7937
X7368Y7607
X7568Y7217
X8458Y7897
X10068Y9757
X10648Y9207
X7588Y5647
X7858Y5157
X8158Y4857
X8698Y5047
X9268Y5047
X9208Y4247
X9048Y3917
X8768Y3287
X10068Y3077
X10058Y2607
X10338Y2127
X10068Y3907
X7428Y4787
X5998Y3777
X5448Y3577
T02
X1318Y1487
X1818Y1487
X2318Y1487
X2818Y1487
X3318Y1487
X3818Y1487
X4318Y1487
X4818Y1487
X5318Y1487
X5818Y1487
X6318Y1487
X6818Y1487
X7318Y1487
X7818Y1487
X8318Y1487
X8818Y1487
X9318Y1487
X9818Y1487
X10318Y1487
X10818Y1487
X10818Y2382
X10818Y2882
X10818Y10087
X10318Y10087
X9818Y10087
X9318Y10087
X8818Y10087
X8318Y10087
X7818Y10087
X7318Y10087
X6818Y10087
X6318Y10087
X5818Y10087
X5318Y10087
X4818Y10087
X4318Y10087
X3818Y10087
X3318Y10087
X2818Y10087
X2318Y10087
X1818Y10087
X1318Y10087
M30
