%
M48
M72
T01C0.0100
T02C0.0200
%
T01
X1487Y2317
X887Y4117
X1167Y4837
X1157Y5177
X1227Y5517
X877Y6927
X1787Y9297
X5197Y7107
X5197Y6477
X5207Y5917
X4777Y5587
X6437Y6907
X6557Y7577
X6547Y7967
X6272Y8442
X5917Y8467
X7147Y7937
X7157Y7607
X7527Y7457
X8247Y7897
X7377Y5647
X7647Y5157
X7947Y4857
X8527Y4937
X9067Y4957
X8997Y4247
X8837Y3917
X8557Y3357
X9687Y3987
X9857Y3077
X9847Y2607
X10127Y2127
X7217Y4787
X5787Y3777
X5237Y3577
X10657Y9377
X9877Y10457
T02
X1107Y1487
X1607Y1487
X2107Y1487
X2607Y1487
X3107Y1487
X3607Y1487
X4107Y1487
X4607Y1487
X5107Y1487
X5607Y1487
X6107Y1487
X6607Y1487
X7107Y1487
X7607Y1487
X8107Y1487
X8607Y1487
X9107Y1487
X9607Y1487
X10107Y1487
X10607Y1487
X10607Y2382
X10607Y2882
X10607Y10087
X10107Y10087
X9607Y10087
X9107Y10087
X8607Y10087
X8107Y10087
X7607Y10087
X7107Y10087
X6607Y10087
X6107Y10087
X5607Y10087
X5107Y10087
X4607Y10087
X4107Y10087
X3607Y10087
X3107Y10087
X2607Y10087
X2107Y10087
X1607Y10087
X1107Y10087
M30
