G75*
%MOIN*%
%OFA0B0*%
%FSLAX24Y24*%
%IPPOS*%
%LPD*%
%AMOC8*
5,1,8,0,0,1.08239X$1,22.5*
%
%ADD10C,0.0480*%
%ADD11R,0.0474X0.0186*%
%ADD12R,0.0186X0.0474*%
%ADD13R,0.0552X0.0198*%
%ADD14R,0.0474X0.0474*%
%ADD15R,0.0198X0.0336*%
%ADD16R,0.0336X0.0198*%
%ADD17R,0.0356X0.0434*%
%ADD18R,0.0434X0.0356*%
%ADD19R,0.0631X0.0552*%
%ADD20R,0.1080X0.0480*%
%ADD21C,0.0580*%
%ADD22C,0.0340*%
%ADD23C,0.0330*%
D10*
X001107Y001487D03*
X001607Y001487D03*
X002107Y001487D03*
X002607Y001487D03*
X003107Y001487D03*
X003607Y001487D03*
X004107Y001487D03*
X004607Y001487D03*
X005107Y001487D03*
X005607Y001487D03*
X006107Y001487D03*
X006607Y001487D03*
X007107Y001487D03*
X007607Y001487D03*
X008107Y001487D03*
X008607Y001487D03*
X009107Y001487D03*
X009607Y001487D03*
X010107Y001487D03*
X010607Y001487D03*
X010607Y002382D03*
X010607Y002882D03*
X010607Y010087D03*
X010107Y010087D03*
X009607Y010087D03*
X009107Y010087D03*
X008607Y010087D03*
X008107Y010087D03*
X007607Y010087D03*
X007107Y010087D03*
X006607Y010087D03*
X006107Y010087D03*
X005607Y010087D03*
X005107Y010087D03*
X004607Y010087D03*
X004107Y010087D03*
X003607Y010087D03*
X003107Y010087D03*
X002607Y010087D03*
X002107Y010087D03*
X001607Y010087D03*
X001107Y010087D03*
D11*
X001613Y007758D03*
X001613Y007561D03*
X001613Y007364D03*
X001613Y007167D03*
X001613Y006971D03*
X001613Y006774D03*
X001613Y006577D03*
X001613Y006380D03*
X001613Y006183D03*
X001613Y005986D03*
X001613Y005790D03*
X001613Y005593D03*
X001613Y005396D03*
X001613Y005199D03*
X001613Y005002D03*
X001613Y004805D03*
X006022Y004805D03*
X006022Y005002D03*
X006022Y005199D03*
X006022Y005396D03*
X006022Y005593D03*
X006022Y005790D03*
X006022Y005986D03*
X006022Y006183D03*
X006022Y006380D03*
X006022Y006577D03*
X006022Y006774D03*
X006022Y006971D03*
X006022Y007167D03*
X006022Y007364D03*
X006022Y007561D03*
X006022Y007758D03*
D12*
X005294Y008486D03*
X005097Y008486D03*
X004900Y008486D03*
X004703Y008486D03*
X004506Y008486D03*
X004310Y008486D03*
X004113Y008486D03*
X003916Y008486D03*
X003719Y008486D03*
X003522Y008486D03*
X003325Y008486D03*
X003128Y008486D03*
X002932Y008486D03*
X002735Y008486D03*
X002538Y008486D03*
X002341Y008486D03*
X002341Y004077D03*
X002538Y004077D03*
X002735Y004077D03*
X002932Y004077D03*
X003128Y004077D03*
X003325Y004077D03*
X003522Y004077D03*
X003719Y004077D03*
X003916Y004077D03*
X004113Y004077D03*
X004310Y004077D03*
X004506Y004077D03*
X004703Y004077D03*
X004900Y004077D03*
X005097Y004077D03*
X005294Y004077D03*
D13*
X008361Y004014D03*
X008361Y003758D03*
X008361Y004270D03*
X008361Y004526D03*
X010024Y004526D03*
X010024Y004270D03*
X010024Y004014D03*
X010024Y003758D03*
D14*
X008242Y008162D03*
D15*
X008242Y008910D03*
X008439Y008910D03*
X008636Y008910D03*
X008046Y008910D03*
X007849Y008910D03*
X007849Y007414D03*
X008046Y007414D03*
X008242Y007414D03*
X008439Y007414D03*
X008636Y007414D03*
D16*
X008990Y007768D03*
X008990Y007965D03*
X008990Y008162D03*
X008990Y008359D03*
X008990Y008555D03*
X007494Y008555D03*
X007494Y008359D03*
X007494Y008162D03*
X007494Y007965D03*
X007494Y007768D03*
D17*
<<<<<<< HEAD
X008292Y007017D03*
X008803Y007017D03*
X009043Y005447D03*
X008532Y005447D03*
X009752Y004952D03*
X010263Y004952D03*
X010438Y003452D03*
X009927Y003452D03*
X009418Y003302D03*
X008907Y003302D03*
X003253Y003337D03*
X002742Y003337D03*
X001193Y006397D03*
X000682Y006397D03*
X003412Y009267D03*
X003923Y009267D03*
X004752Y009297D03*
X004752Y009017D03*
X005263Y009017D03*
X005263Y009297D03*
X007512Y009277D03*
X008023Y009277D03*
X008412Y009277D03*
X008923Y009277D03*
X009622Y008887D03*
X010133Y008887D03*
X010522Y008977D03*
X011033Y008977D03*
D18*
X010007Y008443D03*
X009547Y008423D03*
X010007Y007931D03*
X010057Y007583D03*
X009627Y007423D03*
X009377Y007563D03*
X009547Y007911D03*
X009377Y007051D03*
X009627Y006911D03*
X010057Y007071D03*
X009567Y006403D03*
X009567Y005891D03*
X010512Y004368D03*
X010737Y004368D03*
X010737Y003856D03*
X010512Y003856D03*
X007417Y006031D03*
X006977Y005811D03*
X006567Y006053D03*
X006977Y006323D03*
X007417Y006543D03*
X006567Y005541D03*
X005257Y002843D03*
X005257Y002331D03*
X003397Y002321D03*
X003397Y002833D03*
X002317Y002881D03*
X002317Y003393D03*
X000847Y005511D03*
X000847Y006023D03*
X002507Y008961D03*
X002947Y008961D03*
X002947Y009473D03*
X002507Y009473D03*
=======
X009610Y008127D03*
X009826Y008127D03*
X009646Y008497D03*
X009449Y008497D03*
X005316Y008927D03*
X005316Y009107D03*
X005119Y009107D03*
X005119Y008927D03*
X003536Y009007D03*
X003339Y009007D03*
X003196Y003697D03*
X002999Y003697D03*
X009569Y004622D03*
X009766Y004622D03*
D18*
X010793Y004142D03*
X010793Y003941D03*
X003048Y009316D03*
X003048Y009517D03*
>>>>>>> parent of c675796... Revert "fixed analog input connection"
D19*
X008214Y006542D03*
X008214Y005912D03*
X009041Y005912D03*
X009041Y006542D03*
X004741Y003322D03*
X004741Y002692D03*
X003914Y002692D03*
X003914Y003322D03*
D20*
<<<<<<< HEAD
X010857Y005677D03*
X010857Y008277D03*
=======
X008497Y009297D03*
X008698Y009297D03*
X009157Y006957D03*
X009358Y006957D03*
X009972Y003422D03*
X010173Y003422D03*
X009763Y003302D03*
X009562Y003302D03*
X003558Y003697D03*
X003357Y003697D03*
>>>>>>> parent of c675796... Revert "fixed analog input connection"
D21*
X007177Y005227D03*
X007147Y003117D03*
X007147Y002427D03*
X007867Y002417D03*
X007867Y003127D03*
X008887Y002387D03*
X002857Y002577D03*
X001357Y008427D03*
X001357Y009027D03*
D22*
X001787Y009297D03*
X005197Y007107D03*
X005197Y006477D03*
X005207Y005917D03*
X004777Y005587D03*
X006437Y006907D03*
X006557Y007577D03*
X006547Y007967D03*
X006272Y008442D03*
X005917Y008467D03*
X007147Y007937D03*
X007157Y007607D03*
X007527Y007457D03*
X008247Y007897D03*
X007377Y005647D03*
X007647Y005157D03*
X007947Y004857D03*
X008527Y004937D03*
X009067Y004957D03*
X008997Y004247D03*
X008837Y003917D03*
X008557Y003357D03*
X009687Y003987D03*
X010187Y003127D03*
X009847Y002607D03*
X010127Y002127D03*
X007217Y004787D03*
X005787Y003777D03*
X005237Y003577D03*
X001487Y002317D03*
X000887Y004117D03*
X001167Y004837D03*
X001157Y005177D03*
X001227Y005517D03*
X009877Y010457D03*
X010657Y009377D03*
D23*
<<<<<<< HEAD
X000877Y006927D03*
=======
X007188Y006243D03*
X007188Y005731D03*
X002718Y008961D03*
X002718Y009473D03*
D24*
X001568Y009027D03*
X001568Y008427D03*
X007358Y003117D03*
X007358Y002427D03*
X008078Y002417D03*
X008078Y003127D03*
X009178Y002497D03*
X007388Y005227D03*
X002938Y002907D03*
D25*
X001698Y002317D03*
X001098Y004117D03*
X001378Y004837D03*
X001368Y005177D03*
X001438Y005517D03*
X005018Y005637D03*
X005468Y005737D03*
X005408Y006477D03*
X005408Y007107D03*
X006648Y006947D03*
X006768Y007577D03*
X006758Y007967D03*
X006483Y008442D03*
X006128Y008467D03*
X007358Y007937D03*
X007368Y007607D03*
X007568Y007217D03*
X008488Y007097D03*
X008458Y007897D03*
X010068Y009757D03*
X010648Y009207D03*
X007588Y005647D03*
X007858Y005157D03*
X008158Y004857D03*
X008698Y005047D03*
X009268Y005047D03*
X009208Y004247D03*
X009048Y003917D03*
X008768Y003287D03*
X010068Y003077D03*
X010058Y002607D03*
X010338Y002127D03*
X010068Y003907D03*
X010778Y004187D03*
X007428Y004787D03*
X005998Y003777D03*
X005448Y003577D03*
X001998Y009297D03*
D26*
X001088Y006927D03*
>>>>>>> parent of c675796... Revert "fixed analog input connection"
M02*
