%
M48
M72
T01C0.0100
T02C0.0200
%
T01
<<<<<<< HEAD
X1487Y2317
X887Y4117
X1167Y4837
X1157Y5177
X1227Y5517
X877Y6927
X1787Y9297
X5197Y7107
X5197Y6477
X5207Y5917
X4777Y5587
X6437Y6907
X6557Y7577
X6547Y7967
X6272Y8442
X5917Y8467
X7147Y7937
X7157Y7607
X7527Y7457
X8247Y7897
X7377Y5647
X7647Y5157
X7947Y4857
X8527Y4937
X9067Y4957
X8997Y4247
X8837Y3917
X8557Y3357
X9687Y3987
X10187Y3127
X9847Y2607
X10127Y2127
X7217Y4787
X5787Y3777
X5237Y3577
X10657Y9377
X9877Y10457
=======
X1698Y2317
X1098Y4117
X1378Y4837
X1368Y5177
X1438Y5517
X1088Y6927
X1998Y9297
X5408Y7107
X5408Y6477
X5468Y5737
X5018Y5637
X6648Y6947
X6768Y7577
X6758Y7967
X6483Y8442
X6128Y8467
X7358Y7937
X7368Y7607
X7568Y7217
X8488Y7097
X8458Y7897
X10068Y9757
X10648Y9207
X7588Y5647
X7858Y5157
X8158Y4857
X8698Y5047
X9268Y5047
X9208Y4247
X9048Y3917
X8768Y3287
X10068Y3077
X10058Y2607
X10338Y2127
X10068Y3907
X10778Y4187
X7428Y4787
X5998Y3777
X5448Y3577
>>>>>>> parent of c675796... Revert "fixed analog input connection"
T02
X1107Y1487
X1607Y1487
X2107Y1487
X2607Y1487
X3107Y1487
X3607Y1487
X4107Y1487
X4607Y1487
X5107Y1487
X5607Y1487
X6107Y1487
X6607Y1487
X7107Y1487
X7607Y1487
X8107Y1487
X8607Y1487
X9107Y1487
X9607Y1487
X10107Y1487
X10607Y1487
X10607Y2382
X10607Y2882
X10607Y10087
X10107Y10087
X9607Y10087
X9107Y10087
X8607Y10087
X8107Y10087
X7607Y10087
X7107Y10087
X6607Y10087
X6107Y10087
X5607Y10087
X5107Y10087
X4607Y10087
X4107Y10087
X3607Y10087
X3107Y10087
X2607Y10087
X2107Y10087
X1607Y10087
X1107Y10087
M30
