G75*
%MOIN*%
%OFA0B0*%
%FSLAX24Y24*%
%IPPOS*%
%LPD*%
%AMOC8*
5,1,8,0,0,1.08239X$1,22.5*
%
%ADD10C,0.0400*%
%ADD11C,0.0063*%
%ADD12R,0.2008X0.2008*%
%ADD13R,0.0110X0.1496*%
%ADD14R,0.0650X0.0945*%
%ADD15C,0.0055*%
%ADD16R,0.0787X0.0335*%
%ADD17R,0.0276X0.0354*%
%ADD18R,0.0138X0.0098*%
%ADD19R,0.0394X0.0157*%
%ADD20R,0.0354X0.0276*%
%ADD21R,0.0110X0.0169*%
%ADD22C,0.0060*%
%ADD23C,0.0080*%
%ADD24C,0.0260*%
%ADD25C,0.0250*%
D10*
X001107Y001487D03*
X001607Y001487D03*
X002107Y001487D03*
X002607Y001487D03*
X003107Y001487D03*
X003607Y001487D03*
X004107Y001487D03*
X004607Y001487D03*
X005107Y001487D03*
X005607Y001487D03*
X006107Y001487D03*
X006607Y001487D03*
X007107Y001487D03*
X007607Y001487D03*
X008107Y001487D03*
X008607Y001487D03*
X009107Y001487D03*
X009607Y001487D03*
X010107Y001487D03*
X010607Y001487D03*
X010607Y002382D03*
X010607Y002882D03*
X010607Y010087D03*
X010107Y010087D03*
X009607Y010087D03*
X009107Y010087D03*
X008607Y010087D03*
X008107Y010087D03*
X007607Y010087D03*
X007107Y010087D03*
X006607Y010087D03*
X006107Y010087D03*
X005607Y010087D03*
X005107Y010087D03*
X004607Y010087D03*
X004107Y010087D03*
X003607Y010087D03*
X003107Y010087D03*
X002607Y010087D03*
X002107Y010087D03*
X001607Y010087D03*
X001107Y010087D03*
D11*
X001943Y007233D02*
X001943Y007059D01*
X001943Y007233D02*
X002007Y007233D01*
X002007Y007059D01*
X001943Y007059D01*
X001943Y007121D02*
X002007Y007121D01*
X002007Y007183D02*
X001943Y007183D01*
X002140Y007243D02*
X002140Y007029D01*
X002140Y007243D02*
X002204Y007243D01*
X002204Y007029D01*
X002140Y007029D01*
X002140Y007091D02*
X002204Y007091D01*
X002204Y007153D02*
X002140Y007153D01*
X002140Y007215D02*
X002204Y007215D01*
X002336Y007243D02*
X002336Y007029D01*
X002336Y007243D02*
X002400Y007243D01*
X002400Y007029D01*
X002336Y007029D01*
X002336Y007091D02*
X002400Y007091D01*
X002400Y007153D02*
X002336Y007153D01*
X002336Y007215D02*
X002400Y007215D01*
X002533Y007243D02*
X002533Y007029D01*
X002533Y007243D02*
X002597Y007243D01*
X002597Y007029D01*
X002533Y007029D01*
X002533Y007091D02*
X002597Y007091D01*
X002597Y007153D02*
X002533Y007153D01*
X002533Y007215D02*
X002597Y007215D01*
X002730Y007243D02*
X002730Y007029D01*
X002730Y007243D02*
X002794Y007243D01*
X002794Y007029D01*
X002730Y007029D01*
X002730Y007091D02*
X002794Y007091D01*
X002794Y007153D02*
X002730Y007153D01*
X002730Y007215D02*
X002794Y007215D01*
X002927Y007243D02*
X002927Y007029D01*
X002927Y007243D02*
X002991Y007243D01*
X002991Y007029D01*
X002927Y007029D01*
X002927Y007091D02*
X002991Y007091D01*
X002991Y007153D02*
X002927Y007153D01*
X002927Y007215D02*
X002991Y007215D01*
X003124Y007243D02*
X003124Y007029D01*
X003124Y007243D02*
X003188Y007243D01*
X003188Y007029D01*
X003124Y007029D01*
X003124Y007091D02*
X003188Y007091D01*
X003188Y007153D02*
X003124Y007153D01*
X003124Y007215D02*
X003188Y007215D01*
X003321Y007243D02*
X003321Y007029D01*
X003321Y007243D02*
X003385Y007243D01*
X003385Y007029D01*
X003321Y007029D01*
X003321Y007091D02*
X003385Y007091D01*
X003385Y007153D02*
X003321Y007153D01*
X003321Y007215D02*
X003385Y007215D01*
X003518Y007243D02*
X003518Y007029D01*
X003518Y007243D02*
X003582Y007243D01*
X003582Y007029D01*
X003518Y007029D01*
X003518Y007091D02*
X003582Y007091D01*
X003582Y007153D02*
X003518Y007153D01*
X003518Y007215D02*
X003582Y007215D01*
X003714Y007243D02*
X003714Y007029D01*
X003714Y007243D02*
X003778Y007243D01*
X003778Y007029D01*
X003714Y007029D01*
X003714Y007091D02*
X003778Y007091D01*
X003778Y007153D02*
X003714Y007153D01*
X003714Y007215D02*
X003778Y007215D01*
X003911Y007243D02*
X003911Y007029D01*
X003911Y007243D02*
X003975Y007243D01*
X003975Y007029D01*
X003911Y007029D01*
X003911Y007091D02*
X003975Y007091D01*
X003975Y007153D02*
X003911Y007153D01*
X003911Y007215D02*
X003975Y007215D01*
X004108Y007233D02*
X004108Y007059D01*
X004108Y007233D02*
X004172Y007233D01*
X004172Y007059D01*
X004108Y007059D01*
X004108Y007121D02*
X004172Y007121D01*
X004172Y007183D02*
X004108Y007183D01*
X004280Y006951D02*
X004454Y006951D01*
X004454Y006887D01*
X004280Y006887D01*
X004280Y006951D01*
X004280Y006949D02*
X004454Y006949D01*
X004464Y006754D02*
X004250Y006754D01*
X004464Y006754D02*
X004464Y006690D01*
X004250Y006690D01*
X004250Y006754D01*
X004250Y006752D02*
X004464Y006752D01*
X004464Y006558D02*
X004250Y006558D01*
X004464Y006558D02*
X004464Y006494D01*
X004250Y006494D01*
X004250Y006558D01*
X004250Y006556D02*
X004464Y006556D01*
X004464Y006361D02*
X004250Y006361D01*
X004464Y006361D02*
X004464Y006297D01*
X004250Y006297D01*
X004250Y006361D01*
X004250Y006359D02*
X004464Y006359D01*
X004464Y006164D02*
X004250Y006164D01*
X004464Y006164D02*
X004464Y006100D01*
X004250Y006100D01*
X004250Y006164D01*
X004250Y006162D02*
X004464Y006162D01*
X004464Y005967D02*
X004250Y005967D01*
X004464Y005967D02*
X004464Y005903D01*
X004250Y005903D01*
X004250Y005967D01*
X004250Y005965D02*
X004464Y005965D01*
X004464Y005770D02*
X004250Y005770D01*
X004464Y005770D02*
X004464Y005706D01*
X004250Y005706D01*
X004250Y005770D01*
X004250Y005768D02*
X004464Y005768D01*
X004464Y005573D02*
X004250Y005573D01*
X004464Y005573D02*
X004464Y005509D01*
X004250Y005509D01*
X004250Y005573D01*
X004250Y005571D02*
X004464Y005571D01*
X004464Y005377D02*
X004250Y005377D01*
X004464Y005377D02*
X004464Y005313D01*
X004250Y005313D01*
X004250Y005377D01*
X004250Y005375D02*
X004464Y005375D01*
X004464Y005180D02*
X004250Y005180D01*
X004464Y005180D02*
X004464Y005116D01*
X004250Y005116D01*
X004250Y005180D01*
X004250Y005178D02*
X004464Y005178D01*
X004464Y004983D02*
X004250Y004983D01*
X004464Y004983D02*
X004464Y004919D01*
X004250Y004919D01*
X004250Y004983D01*
X004250Y004981D02*
X004464Y004981D01*
X004454Y004786D02*
X004280Y004786D01*
X004454Y004786D02*
X004454Y004722D01*
X004280Y004722D01*
X004280Y004786D01*
X004280Y004784D02*
X004454Y004784D01*
X004172Y004615D02*
X004172Y004441D01*
X004108Y004441D01*
X004108Y004615D01*
X004172Y004615D01*
X004172Y004503D02*
X004108Y004503D01*
X004108Y004565D02*
X004172Y004565D01*
X003975Y004644D02*
X003975Y004430D01*
X003911Y004430D01*
X003911Y004644D01*
X003975Y004644D01*
X003975Y004492D02*
X003911Y004492D01*
X003911Y004554D02*
X003975Y004554D01*
X003975Y004616D02*
X003911Y004616D01*
X003778Y004644D02*
X003778Y004430D01*
X003714Y004430D01*
X003714Y004644D01*
X003778Y004644D01*
X003778Y004492D02*
X003714Y004492D01*
X003714Y004554D02*
X003778Y004554D01*
X003778Y004616D02*
X003714Y004616D01*
X003582Y004644D02*
X003582Y004430D01*
X003518Y004430D01*
X003518Y004644D01*
X003582Y004644D01*
X003582Y004492D02*
X003518Y004492D01*
X003518Y004554D02*
X003582Y004554D01*
X003582Y004616D02*
X003518Y004616D01*
X003385Y004644D02*
X003385Y004430D01*
X003321Y004430D01*
X003321Y004644D01*
X003385Y004644D01*
X003385Y004492D02*
X003321Y004492D01*
X003321Y004554D02*
X003385Y004554D01*
X003385Y004616D02*
X003321Y004616D01*
X003188Y004644D02*
X003188Y004430D01*
X003124Y004430D01*
X003124Y004644D01*
X003188Y004644D01*
X003188Y004492D02*
X003124Y004492D01*
X003124Y004554D02*
X003188Y004554D01*
X003188Y004616D02*
X003124Y004616D01*
X002991Y004644D02*
X002991Y004430D01*
X002927Y004430D01*
X002927Y004644D01*
X002991Y004644D01*
X002991Y004492D02*
X002927Y004492D01*
X002927Y004554D02*
X002991Y004554D01*
X002991Y004616D02*
X002927Y004616D01*
X002794Y004644D02*
X002794Y004430D01*
X002730Y004430D01*
X002730Y004644D01*
X002794Y004644D01*
X002794Y004492D02*
X002730Y004492D01*
X002730Y004554D02*
X002794Y004554D01*
X002794Y004616D02*
X002730Y004616D01*
X002597Y004644D02*
X002597Y004430D01*
X002533Y004430D01*
X002533Y004644D01*
X002597Y004644D01*
X002597Y004492D02*
X002533Y004492D01*
X002533Y004554D02*
X002597Y004554D01*
X002597Y004616D02*
X002533Y004616D01*
X002400Y004644D02*
X002400Y004430D01*
X002336Y004430D01*
X002336Y004644D01*
X002400Y004644D01*
X002400Y004492D02*
X002336Y004492D01*
X002336Y004554D02*
X002400Y004554D01*
X002400Y004616D02*
X002336Y004616D01*
X002204Y004644D02*
X002204Y004430D01*
X002140Y004430D01*
X002140Y004644D01*
X002204Y004644D01*
X002204Y004492D02*
X002140Y004492D01*
X002140Y004554D02*
X002204Y004554D01*
X002204Y004616D02*
X002140Y004616D01*
X002007Y004615D02*
X002007Y004441D01*
X001943Y004441D01*
X001943Y004615D01*
X002007Y004615D01*
X002007Y004503D02*
X001943Y004503D01*
X001943Y004565D02*
X002007Y004565D01*
X001835Y004722D02*
X001661Y004722D01*
X001661Y004786D01*
X001835Y004786D01*
X001835Y004722D01*
X001835Y004784D02*
X001661Y004784D01*
X001651Y004919D02*
X001865Y004919D01*
X001651Y004919D02*
X001651Y004983D01*
X001865Y004983D01*
X001865Y004919D01*
X001865Y004981D02*
X001651Y004981D01*
X001651Y005116D02*
X001865Y005116D01*
X001651Y005116D02*
X001651Y005180D01*
X001865Y005180D01*
X001865Y005116D01*
X001865Y005178D02*
X001651Y005178D01*
X001651Y005313D02*
X001865Y005313D01*
X001651Y005313D02*
X001651Y005377D01*
X001865Y005377D01*
X001865Y005313D01*
X001865Y005375D02*
X001651Y005375D01*
X001651Y005509D02*
X001865Y005509D01*
X001651Y005509D02*
X001651Y005573D01*
X001865Y005573D01*
X001865Y005509D01*
X001865Y005571D02*
X001651Y005571D01*
X001651Y005706D02*
X001865Y005706D01*
X001651Y005706D02*
X001651Y005770D01*
X001865Y005770D01*
X001865Y005706D01*
X001865Y005768D02*
X001651Y005768D01*
X001651Y005903D02*
X001865Y005903D01*
X001651Y005903D02*
X001651Y005967D01*
X001865Y005967D01*
X001865Y005903D01*
X001865Y005965D02*
X001651Y005965D01*
X001651Y006100D02*
X001865Y006100D01*
X001651Y006100D02*
X001651Y006164D01*
X001865Y006164D01*
X001865Y006100D01*
X001865Y006162D02*
X001651Y006162D01*
X001651Y006297D02*
X001865Y006297D01*
X001651Y006297D02*
X001651Y006361D01*
X001865Y006361D01*
X001865Y006297D01*
X001865Y006359D02*
X001651Y006359D01*
X001651Y006494D02*
X001865Y006494D01*
X001651Y006494D02*
X001651Y006558D01*
X001865Y006558D01*
X001865Y006494D01*
X001865Y006556D02*
X001651Y006556D01*
X001651Y006690D02*
X001865Y006690D01*
X001651Y006690D02*
X001651Y006754D01*
X001865Y006754D01*
X001865Y006690D01*
X001865Y006752D02*
X001651Y006752D01*
X001661Y006887D02*
X001835Y006887D01*
X001661Y006887D02*
X001661Y006951D01*
X001835Y006951D01*
X001835Y006887D01*
X001835Y006949D02*
X001661Y006949D01*
D12*
X003057Y005837D03*
D13*
X006694Y003932D03*
X006911Y003932D03*
D14*
X006802Y003932D03*
D15*
X006362Y003904D02*
X006082Y003904D01*
X006082Y003960D01*
X006362Y003960D01*
X006362Y003904D01*
X006362Y003958D02*
X006082Y003958D01*
X006082Y004101D02*
X006362Y004101D01*
X006082Y004101D02*
X006082Y004157D01*
X006362Y004157D01*
X006362Y004101D01*
X006362Y004155D02*
X006082Y004155D01*
X006082Y004297D02*
X006362Y004297D01*
X006082Y004297D02*
X006082Y004353D01*
X006362Y004353D01*
X006362Y004297D01*
X006362Y004351D02*
X006082Y004351D01*
X006082Y003707D02*
X006362Y003707D01*
X006082Y003707D02*
X006082Y003763D01*
X006362Y003763D01*
X006362Y003707D01*
X006362Y003761D02*
X006082Y003761D01*
X006082Y003510D02*
X006362Y003510D01*
X006082Y003510D02*
X006082Y003566D01*
X006362Y003566D01*
X006362Y003510D01*
X006362Y003564D02*
X006082Y003564D01*
X007243Y003566D02*
X007523Y003566D01*
X007523Y003510D01*
X007243Y003510D01*
X007243Y003566D01*
X007243Y003564D02*
X007523Y003564D01*
X007523Y003763D02*
X007243Y003763D01*
X007523Y003763D02*
X007523Y003707D01*
X007243Y003707D01*
X007243Y003763D01*
X007243Y003761D02*
X007523Y003761D01*
X007523Y003960D02*
X007243Y003960D01*
X007523Y003960D02*
X007523Y003904D01*
X007243Y003904D01*
X007243Y003960D01*
X007243Y003958D02*
X007523Y003958D01*
X007523Y004157D02*
X007243Y004157D01*
X007523Y004157D02*
X007523Y004101D01*
X007243Y004101D01*
X007243Y004157D01*
X007243Y004155D02*
X007523Y004155D01*
X007523Y004353D02*
X007243Y004353D01*
X007523Y004353D02*
X007523Y004297D01*
X007243Y004297D01*
X007243Y004353D01*
X007243Y004351D02*
X007523Y004351D01*
D16*
X008052Y004347D03*
X008052Y003717D03*
D17*
X008927Y003357D03*
X009438Y003357D03*
X009253Y004587D03*
X008742Y004587D03*
X008403Y006437D03*
X007892Y006437D03*
X007928Y006887D03*
X007417Y006887D03*
X006698Y005367D03*
X006698Y005112D03*
X006187Y005112D03*
X006187Y005367D03*
D18*
X005887Y004320D03*
X005742Y004320D03*
X005742Y004123D03*
X005887Y004123D03*
D19*
X005646Y005788D03*
X005646Y006044D03*
X005646Y006300D03*
X005646Y006556D03*
X007379Y006556D03*
X007379Y006300D03*
X007379Y006044D03*
X007379Y005788D03*
D20*
X006002Y007116D03*
X006002Y007628D03*
X005617Y007631D03*
X005307Y007631D03*
X005307Y008143D03*
X005617Y008143D03*
X005777Y005358D03*
X005777Y004846D03*
X001547Y003013D03*
X001117Y003013D03*
X001117Y002501D03*
X001547Y002501D03*
X000637Y004811D03*
X000637Y005323D03*
D21*
X010127Y002387D03*
X010328Y002387D03*
D22*
X009607Y002757D02*
X009427Y002937D01*
X005057Y002937D01*
X004957Y003037D01*
X004957Y005257D01*
X004870Y005345D01*
X004357Y005345D01*
X004357Y005148D02*
X004786Y005148D01*
X004837Y005097D01*
X004837Y002987D01*
X004997Y002827D01*
X008997Y002827D01*
X009107Y002717D01*
X009107Y001487D01*
X008607Y001487D02*
X008607Y002597D01*
X008487Y002717D01*
X004937Y002717D01*
X004717Y002937D01*
X004717Y004907D01*
X004673Y004951D01*
X004357Y004951D01*
X004367Y004754D02*
X004540Y004754D01*
X004597Y004697D01*
X004597Y002887D01*
X004877Y002607D01*
X007997Y002607D01*
X008107Y002497D01*
X008107Y001487D01*
X007607Y001487D02*
X007607Y002367D01*
X007477Y002497D01*
X004577Y002497D01*
X004140Y002934D01*
X004140Y004528D01*
X003943Y004537D02*
X003943Y002961D01*
X004517Y002387D01*
X006987Y002387D01*
X007107Y002267D01*
X007107Y001487D01*
X006607Y001487D02*
X006607Y002177D01*
X006507Y002277D01*
X004457Y002277D01*
X003746Y002988D01*
X003746Y004537D01*
X003550Y004537D02*
X003550Y003025D01*
X004407Y002167D01*
X005987Y002167D01*
X006107Y002047D01*
X006107Y001487D01*
X005607Y001487D02*
X005607Y001977D01*
X005527Y002057D01*
X004357Y002057D01*
X003353Y003061D01*
X003353Y004537D01*
X003156Y004537D02*
X003156Y003098D01*
X004307Y001947D01*
X005027Y001947D01*
X005107Y001867D01*
X005107Y001487D01*
X004607Y001487D02*
X004607Y001767D01*
X004537Y001837D01*
X004257Y001837D01*
X002959Y003135D01*
X002959Y004537D01*
X002762Y004537D02*
X002762Y003042D01*
X004107Y001697D01*
X004107Y001487D01*
X003607Y001487D02*
X003607Y001997D01*
X002565Y003039D01*
X002565Y004537D01*
X002368Y004537D02*
X002368Y002926D01*
X003107Y002187D01*
X003107Y001487D01*
X002607Y001487D02*
X002597Y001497D01*
X002597Y002327D01*
X002172Y002752D01*
X002172Y004537D01*
X001975Y004528D02*
X001975Y002639D01*
X002117Y002497D01*
X002117Y001497D01*
X002107Y001487D01*
X001748Y004754D02*
X001758Y004764D01*
X001758Y004951D01*
X001975Y007146D02*
X001975Y008894D01*
X002107Y009027D01*
X002107Y010087D01*
X002607Y010087D02*
X002607Y009207D01*
X002172Y008771D01*
X002172Y007136D01*
X002368Y007136D02*
X002368Y008668D01*
X003107Y009407D01*
X003107Y010087D01*
X003607Y010087D02*
X003617Y010077D01*
X003617Y009627D01*
X002565Y008575D01*
X002565Y007136D01*
X002762Y007136D02*
X002762Y008541D01*
X004067Y009847D01*
X004067Y010047D01*
X004107Y010087D01*
X004187Y009797D02*
X004537Y009797D01*
X004607Y009867D01*
X004607Y010087D01*
X004247Y009687D02*
X005037Y009687D01*
X005107Y009757D01*
X005107Y010087D01*
X005607Y010087D02*
X005617Y010077D01*
X005617Y009637D01*
X005557Y009577D01*
X004297Y009577D01*
X003353Y008632D01*
X003353Y007136D01*
X003156Y007136D02*
X003156Y008595D01*
X004247Y009687D01*
X004187Y009797D02*
X002959Y008568D01*
X002959Y007136D01*
X003550Y007136D02*
X003550Y008669D01*
X004347Y009467D01*
X006047Y009467D01*
X006107Y009527D01*
X006107Y010087D01*
X006607Y010087D02*
X006607Y009417D01*
X006547Y009357D01*
X004397Y009357D01*
X003746Y008706D01*
X003746Y007136D01*
X003943Y007136D02*
X003943Y008732D01*
X004457Y009247D01*
X006977Y009247D01*
X007107Y009377D01*
X007107Y010087D01*
X007607Y010087D02*
X007607Y009247D01*
X007497Y009137D01*
X004517Y009137D01*
X004140Y008759D01*
X004140Y007146D01*
X004367Y006919D02*
X004560Y006919D01*
X004597Y006957D01*
X004597Y008727D01*
X004897Y009027D01*
X007977Y009027D01*
X008107Y009157D01*
X008107Y010087D01*
X008607Y010087D02*
X008607Y009017D01*
X008507Y008917D01*
X004957Y008917D01*
X004717Y008677D01*
X004717Y006777D01*
X004663Y006722D01*
X004357Y006722D01*
X004357Y006526D02*
X004766Y006526D01*
X004837Y006597D01*
X004837Y008637D01*
X005007Y008807D01*
X009007Y008807D01*
X009107Y008907D01*
X009107Y010087D01*
X009607Y010087D02*
X009617Y010077D01*
X009617Y008847D01*
X009467Y008697D01*
X005057Y008697D01*
X004957Y008597D01*
X004957Y006397D01*
X004890Y006329D01*
X004357Y006329D01*
X006557Y007577D02*
X006587Y007607D01*
X007157Y007607D01*
X007147Y007937D02*
X007117Y007967D01*
X006547Y007967D01*
X008747Y004247D02*
X008997Y004247D01*
X008747Y004247D02*
X008497Y003997D01*
X008477Y003997D01*
X009607Y002757D02*
X009607Y001487D01*
D23*
X000437Y000977D02*
X000437Y004533D01*
X000457Y004533D01*
X000457Y004292D01*
X000617Y004132D01*
X000617Y004063D01*
X000659Y003964D01*
X000735Y003888D01*
X000834Y003847D01*
X000941Y003847D01*
X001040Y003888D01*
X001089Y003937D01*
X001472Y003937D01*
X001805Y004269D01*
X001805Y003268D01*
X001783Y003290D01*
X000882Y003290D01*
X000800Y003208D01*
X000800Y003193D01*
X000779Y003193D01*
X000713Y003127D01*
X000607Y003021D01*
X000607Y002122D01*
X000927Y001802D01*
X000927Y001780D01*
X000915Y001775D01*
X000819Y001679D01*
X000767Y001554D01*
X000767Y001419D01*
X000819Y001294D01*
X000915Y001198D01*
X001040Y001147D01*
X001175Y001147D01*
X001300Y001198D01*
X001357Y001256D01*
X001415Y001198D01*
X001540Y001147D01*
X001675Y001147D01*
X001800Y001198D01*
X001857Y001256D01*
X001915Y001198D01*
X002040Y001147D01*
X002175Y001147D01*
X002300Y001198D01*
X002357Y001256D01*
X002415Y001198D01*
X002540Y001147D01*
X002675Y001147D01*
X002800Y001198D01*
X002857Y001256D01*
X002915Y001198D01*
X003040Y001147D01*
X003175Y001147D01*
X003300Y001198D01*
X003357Y001256D01*
X003415Y001198D01*
X003540Y001147D01*
X003675Y001147D01*
X003800Y001198D01*
X003857Y001256D01*
X003915Y001198D01*
X004040Y001147D01*
X004175Y001147D01*
X004300Y001198D01*
X004357Y001256D01*
X004415Y001198D01*
X004540Y001147D01*
X004675Y001147D01*
X004800Y001198D01*
X004857Y001256D01*
X004915Y001198D01*
X005040Y001147D01*
X005175Y001147D01*
X005300Y001198D01*
X005357Y001256D01*
X005415Y001198D01*
X005540Y001147D01*
X005675Y001147D01*
X005800Y001198D01*
X005857Y001256D01*
X005915Y001198D01*
X006040Y001147D01*
X006175Y001147D01*
X006300Y001198D01*
X006357Y001256D01*
X006415Y001198D01*
X006540Y001147D01*
X006675Y001147D01*
X006800Y001198D01*
X006857Y001256D01*
X006915Y001198D01*
X007040Y001147D01*
X007175Y001147D01*
X007300Y001198D01*
X007357Y001256D01*
X007415Y001198D01*
X007540Y001147D01*
X007675Y001147D01*
X007800Y001198D01*
X007857Y001256D01*
X007915Y001198D01*
X008040Y001147D01*
X008175Y001147D01*
X008300Y001198D01*
X008357Y001256D01*
X008415Y001198D01*
X008540Y001147D01*
X008675Y001147D01*
X008800Y001198D01*
X008857Y001256D01*
X008915Y001198D01*
X009040Y001147D01*
X009175Y001147D01*
X009300Y001198D01*
X009357Y001256D01*
X009415Y001198D01*
X009540Y001147D01*
X009675Y001147D01*
X009800Y001198D01*
X009857Y001256D01*
X009891Y001223D01*
X009946Y001185D01*
X010008Y001160D01*
X010074Y001147D01*
X010097Y001147D01*
X010097Y001477D01*
X010117Y001477D01*
X010117Y001147D01*
X010141Y001147D01*
X010207Y001160D01*
X010269Y001185D01*
X010324Y001223D01*
X010357Y001256D01*
X010415Y001198D01*
X010540Y001147D01*
X010675Y001147D01*
X010800Y001198D01*
X010896Y001294D01*
X010947Y001419D01*
X010947Y001554D01*
X010896Y001679D01*
X010800Y001775D01*
X010787Y001780D01*
X010787Y001791D01*
X010637Y001941D01*
X010532Y002047D01*
X010387Y002047D01*
X010397Y002073D01*
X010397Y002113D01*
X010446Y002080D01*
X010508Y002055D01*
X010574Y002042D01*
X010597Y002042D01*
X010597Y002372D01*
X010523Y002372D01*
X010523Y002387D01*
X010328Y002387D01*
X010328Y002387D01*
X010333Y002382D01*
X010607Y002382D01*
X010612Y002387D01*
X010847Y002387D01*
X010987Y002527D01*
X010987Y004147D01*
X010917Y004217D01*
X010177Y004217D01*
X009317Y005077D01*
X009317Y007067D01*
X008927Y007457D01*
X008927Y007957D01*
X009787Y008817D01*
X009787Y008827D01*
X009897Y008937D01*
X009897Y010457D01*
X009877Y010457D01*
X009857Y009856D02*
X009915Y009798D01*
X010040Y009747D01*
X010175Y009747D01*
X010300Y009798D01*
X010357Y009856D01*
X010415Y009798D01*
X010540Y009747D01*
X010675Y009747D01*
X010757Y009781D01*
X010757Y009731D01*
X010673Y009647D01*
X010604Y009647D01*
X010505Y009606D01*
X010429Y009530D01*
X010387Y009430D01*
X010387Y009323D01*
X010429Y009224D01*
X010505Y009148D01*
X010604Y009107D01*
X010711Y009107D01*
X010810Y009148D01*
X010886Y009224D01*
X010927Y009323D01*
X010927Y009392D01*
X011117Y009582D01*
X011117Y010301D01*
X010831Y010587D01*
X011337Y010587D01*
X011337Y008687D01*
X009698Y008687D01*
X009688Y008677D02*
X009787Y008776D01*
X009787Y009793D01*
X009800Y009798D01*
X009857Y009856D01*
X009787Y009786D02*
X009946Y009786D01*
X009787Y009707D02*
X010733Y009707D01*
X010560Y009629D02*
X009787Y009629D01*
X009787Y009550D02*
X010449Y009550D01*
X010405Y009472D02*
X009787Y009472D01*
X009787Y009393D02*
X010387Y009393D01*
X010391Y009315D02*
X009787Y009315D01*
X009787Y009236D02*
X010423Y009236D01*
X010495Y009158D02*
X009787Y009158D01*
X009787Y009079D02*
X011337Y009079D01*
X011337Y009001D02*
X009787Y009001D01*
X009787Y008922D02*
X011337Y008922D01*
X011337Y008844D02*
X009787Y008844D01*
X009776Y008765D02*
X011337Y008765D01*
X011337Y008687D02*
X010187Y008687D01*
X010187Y005317D01*
X011337Y005317D01*
X011337Y000967D01*
X000437Y000977D01*
X000437Y000994D02*
X011337Y000994D01*
X011337Y001072D02*
X000437Y001072D01*
X000437Y001151D02*
X001030Y001151D01*
X001185Y001151D02*
X001530Y001151D01*
X001685Y001151D02*
X002030Y001151D01*
X001884Y001229D02*
X001831Y001229D01*
X001607Y001487D02*
X001607Y001837D01*
X001837Y002067D01*
X001837Y002967D01*
X001792Y003013D01*
X001547Y003013D01*
X001803Y003270D02*
X001805Y003270D01*
X001805Y003349D02*
X000437Y003349D01*
X000437Y003427D02*
X001805Y003427D01*
X001805Y003506D02*
X000437Y003506D01*
X000437Y003584D02*
X001805Y003584D01*
X001805Y003663D02*
X000437Y003663D01*
X000437Y003741D02*
X001805Y003741D01*
X001805Y003820D02*
X000437Y003820D01*
X000437Y003898D02*
X000724Y003898D01*
X000653Y003977D02*
X000437Y003977D01*
X000437Y004055D02*
X000621Y004055D01*
X000616Y004134D02*
X000437Y004134D01*
X000437Y004212D02*
X000537Y004212D01*
X000459Y004291D02*
X000437Y004291D01*
X000437Y004369D02*
X000457Y004369D01*
X000457Y004448D02*
X000437Y004448D01*
X000437Y004526D02*
X000457Y004526D01*
X000637Y004367D02*
X000887Y004117D01*
X000767Y004237D01*
X000887Y004117D02*
X001397Y004117D01*
X001747Y004467D01*
X001747Y004753D01*
X001748Y004754D01*
X001437Y005107D02*
X001167Y004837D01*
X001437Y005107D02*
X001437Y005437D01*
X001547Y005547D01*
X001753Y005547D01*
X001758Y005541D01*
X001757Y005737D02*
X001758Y005738D01*
X001757Y005737D02*
X001347Y005737D01*
X001237Y005627D01*
X001227Y005517D01*
X000997Y005337D02*
X001157Y005177D01*
X000997Y005337D02*
X000997Y005757D01*
X001187Y005947D01*
X001747Y005947D01*
X001758Y005935D01*
X001480Y006127D02*
X001113Y006127D01*
X001007Y006021D01*
X000817Y005831D01*
X000817Y005600D01*
X000666Y005600D01*
X000666Y005351D01*
X000609Y005351D01*
X000609Y005600D01*
X000442Y005600D01*
X000437Y005599D01*
X000437Y010597D01*
X000862Y010596D01*
X000837Y010571D01*
X000437Y010571D01*
X000437Y010492D02*
X000758Y010492D01*
X000680Y010414D02*
X000437Y010414D01*
X000437Y010335D02*
X000607Y010335D01*
X000607Y010341D02*
X000607Y010192D01*
X000607Y009762D01*
X000713Y009657D01*
X001043Y009327D01*
X001513Y009327D01*
X001517Y009322D01*
X001517Y009243D01*
X001559Y009144D01*
X001635Y009068D01*
X001734Y009027D01*
X001841Y009027D01*
X001885Y009045D01*
X001805Y008964D01*
X001805Y007336D01*
X001772Y007303D01*
X001772Y007122D01*
X001748Y007122D01*
X001639Y007122D01*
X001596Y007111D01*
X001556Y007088D01*
X001525Y007056D01*
X001502Y007017D01*
X001490Y006973D01*
X001490Y006919D01*
X001490Y006865D01*
X001499Y006832D01*
X001492Y006820D01*
X001480Y006777D01*
X001480Y006722D01*
X001480Y006668D01*
X001489Y006637D01*
X001480Y006628D01*
X001480Y006127D01*
X001480Y006175D02*
X000437Y006175D01*
X000437Y006253D02*
X001480Y006253D01*
X001480Y006332D02*
X000437Y006332D01*
X000437Y006410D02*
X001480Y006410D01*
X001480Y006489D02*
X000437Y006489D01*
X000437Y006567D02*
X001480Y006567D01*
X001487Y006646D02*
X000437Y006646D01*
X000437Y006724D02*
X001480Y006724D01*
X001480Y006722D02*
X001575Y006722D01*
X001480Y006722D01*
X001487Y006803D02*
X000437Y006803D01*
X000437Y006881D02*
X001490Y006881D01*
X001490Y006919D02*
X001606Y006919D01*
X001606Y006919D01*
X001490Y006919D01*
X001490Y006960D02*
X000437Y006960D01*
X000437Y007038D02*
X001514Y007038D01*
X001618Y007117D02*
X000437Y007117D01*
X000437Y007195D02*
X001772Y007195D01*
X001748Y007122D02*
X001748Y006925D01*
X001748Y007122D01*
X001748Y007117D02*
X001748Y007117D01*
X001748Y007038D02*
X001748Y007038D01*
X001748Y006960D02*
X001748Y006960D01*
X001741Y006927D02*
X001748Y006919D01*
X001748Y006732D01*
X001758Y006722D01*
X001575Y006722D02*
X001575Y006722D01*
X001741Y006927D02*
X000877Y006927D01*
X000817Y006927D01*
X000637Y006747D01*
X000637Y005323D01*
X000609Y005390D02*
X000666Y005390D01*
X000666Y005468D02*
X000609Y005468D01*
X000609Y005547D02*
X000666Y005547D01*
X000817Y005625D02*
X000437Y005625D01*
X000437Y005704D02*
X000817Y005704D01*
X000817Y005782D02*
X000437Y005782D01*
X000437Y005861D02*
X000847Y005861D01*
X000925Y005939D02*
X000437Y005939D01*
X000437Y006018D02*
X001004Y006018D01*
X001082Y006096D02*
X000437Y006096D01*
X000437Y007274D02*
X001772Y007274D01*
X001805Y007352D02*
X000437Y007352D01*
X000437Y007431D02*
X001805Y007431D01*
X001805Y007509D02*
X000437Y007509D01*
X000437Y007588D02*
X001805Y007588D01*
X001805Y007666D02*
X000437Y007666D01*
X000437Y007745D02*
X001805Y007745D01*
X001805Y007823D02*
X000437Y007823D01*
X000437Y007902D02*
X001805Y007902D01*
X001805Y007980D02*
X000437Y007980D01*
X000437Y008059D02*
X001805Y008059D01*
X001805Y008137D02*
X000437Y008137D01*
X000437Y008216D02*
X001805Y008216D01*
X001805Y008294D02*
X000437Y008294D01*
X000437Y008373D02*
X001805Y008373D01*
X001805Y008451D02*
X000437Y008451D01*
X000437Y008530D02*
X001805Y008530D01*
X001805Y008608D02*
X000437Y008608D01*
X000437Y008687D02*
X001805Y008687D01*
X001805Y008765D02*
X000437Y008765D01*
X000437Y008844D02*
X001805Y008844D01*
X001805Y008922D02*
X000437Y008922D01*
X000437Y009001D02*
X001841Y009001D01*
X001623Y009079D02*
X000437Y009079D01*
X000437Y009158D02*
X001553Y009158D01*
X001520Y009236D02*
X000437Y009236D01*
X000437Y009315D02*
X001517Y009315D01*
X001587Y009507D02*
X001117Y009507D01*
X000787Y009837D01*
X000787Y010267D01*
X001017Y010497D01*
X010667Y010497D01*
X010937Y010227D01*
X010937Y009657D01*
X010657Y009377D01*
X010929Y009393D02*
X011337Y009393D01*
X011337Y009315D02*
X010924Y009315D01*
X010892Y009236D02*
X011337Y009236D01*
X011337Y009158D02*
X010820Y009158D01*
X011007Y009472D02*
X011337Y009472D01*
X011337Y009550D02*
X011086Y009550D01*
X011117Y009629D02*
X011337Y009629D01*
X011337Y009707D02*
X011117Y009707D01*
X011117Y009786D02*
X011337Y009786D01*
X011337Y009864D02*
X011117Y009864D01*
X011117Y009943D02*
X011337Y009943D01*
X011337Y010021D02*
X011117Y010021D01*
X011117Y010100D02*
X011337Y010100D01*
X011337Y010178D02*
X011117Y010178D01*
X011117Y010257D02*
X011337Y010257D01*
X011337Y010335D02*
X011083Y010335D01*
X011005Y010414D02*
X011337Y010414D01*
X011337Y010492D02*
X010926Y010492D01*
X010848Y010571D02*
X011337Y010571D01*
X010446Y009786D02*
X010269Y009786D01*
X009688Y008677D02*
X009538Y008527D01*
X007872Y008527D01*
X008232Y008167D01*
X008301Y008167D01*
X008400Y008126D01*
X008476Y008050D01*
X008517Y007950D01*
X008517Y007843D01*
X008476Y007744D01*
X008400Y007668D01*
X008301Y007627D01*
X008194Y007627D01*
X008095Y007668D01*
X008019Y007744D01*
X007977Y007843D01*
X007977Y007912D01*
X007553Y008337D01*
X006521Y008337D01*
X006501Y008289D01*
X006425Y008213D01*
X006326Y008172D01*
X006219Y008172D01*
X006120Y008213D01*
X006097Y008235D01*
X006097Y008132D01*
X006037Y008072D01*
X005935Y007969D01*
X005935Y007947D01*
X005893Y007905D01*
X006238Y007905D01*
X006311Y007832D01*
X006277Y007913D01*
X006277Y008020D01*
X006319Y008120D01*
X006395Y008196D01*
X006494Y008237D01*
X006601Y008237D01*
X006700Y008196D01*
X006759Y008137D01*
X006966Y008137D01*
X006759Y008137D01*
X006652Y008216D02*
X007674Y008216D01*
X007595Y008294D02*
X006504Y008294D01*
X006443Y008216D02*
X006428Y008216D01*
X006336Y008137D02*
X006097Y008137D01*
X006097Y008216D02*
X006117Y008216D01*
X006024Y008059D02*
X006293Y008059D01*
X006277Y007980D02*
X005946Y007980D01*
X005857Y008147D02*
X005622Y008147D01*
X005617Y008143D01*
X005307Y008143D01*
X005307Y007631D02*
X005307Y007587D01*
X005767Y007127D01*
X005992Y007127D01*
X006002Y007116D01*
X006228Y007116D01*
X006437Y006907D01*
X006507Y006881D02*
X006281Y006881D01*
X006292Y006892D02*
X006266Y006866D01*
X006234Y006848D01*
X006198Y006838D01*
X006031Y006838D01*
X006031Y007087D01*
X005974Y007087D01*
X005974Y006838D01*
X005807Y006838D01*
X005771Y006848D01*
X005739Y006866D01*
X005713Y006892D01*
X005695Y006924D01*
X005685Y006960D01*
X005429Y006960D01*
X005426Y006954D02*
X005467Y007053D01*
X005467Y007160D01*
X005426Y007260D01*
X005350Y007336D01*
X005279Y007365D01*
X005279Y007602D01*
X005300Y007602D01*
X005300Y007435D01*
X005336Y007399D01*
X005336Y007353D01*
X005503Y007353D01*
X005727Y007353D01*
X005713Y007340D01*
X005695Y007308D01*
X005685Y007272D01*
X005685Y007145D01*
X005974Y007145D01*
X005974Y007087D01*
X005685Y007087D01*
X005685Y006960D01*
X005647Y007007D02*
X005767Y007127D01*
X005685Y007195D02*
X005453Y007195D01*
X005467Y007117D02*
X005974Y007117D01*
X006031Y007117D02*
X006373Y007117D01*
X006320Y007145D02*
X006320Y007170D01*
X006507Y006982D01*
X006507Y006132D01*
X006613Y006027D01*
X006753Y005887D01*
X005983Y005887D01*
X005983Y005907D01*
X005983Y006436D01*
X005979Y006441D01*
X005983Y006458D01*
X005983Y006556D01*
X005983Y006653D01*
X005974Y006688D01*
X005955Y006720D01*
X005929Y006746D01*
X005897Y006765D01*
X005862Y006774D01*
X005646Y006774D01*
X005431Y006774D01*
X005395Y006765D01*
X005377Y006754D01*
X005377Y006905D01*
X005426Y006954D01*
X005377Y006881D02*
X005724Y006881D01*
X005646Y006774D02*
X005646Y006556D01*
X005646Y006774D01*
X005646Y006724D02*
X005646Y006724D01*
X005646Y006646D02*
X005646Y006646D01*
X005646Y006567D02*
X005646Y006567D01*
X005647Y006557D02*
X005646Y006556D01*
X005646Y006556D01*
X005983Y006556D01*
X005646Y006556D01*
X005646Y006556D01*
X005647Y006557D02*
X005647Y007007D01*
X005685Y007038D02*
X005461Y007038D01*
X005412Y007274D02*
X005686Y007274D01*
X005726Y007352D02*
X005310Y007352D01*
X005305Y007431D02*
X005279Y007431D01*
X005279Y007509D02*
X005300Y007509D01*
X005300Y007588D02*
X005279Y007588D01*
X005617Y007631D02*
X005999Y007631D01*
X006002Y007628D01*
X006117Y007628D01*
X006687Y007057D01*
X006687Y006207D01*
X006850Y006044D01*
X007379Y006044D01*
X007379Y005788D01*
X007379Y005648D01*
X007377Y005647D01*
X007417Y005387D02*
X007207Y005387D01*
X006887Y005707D01*
X006017Y005707D01*
X005777Y005467D01*
X005777Y005358D01*
X005447Y005517D02*
X005646Y005716D01*
X005646Y005788D01*
X005646Y006044D02*
X005384Y006044D01*
X005257Y005917D01*
X005207Y005917D01*
X005247Y006177D02*
X005370Y006300D01*
X005646Y006300D01*
X005643Y006297D01*
X005983Y006332D02*
X006507Y006332D01*
X006507Y006410D02*
X005983Y006410D01*
X005983Y006489D02*
X006507Y006489D01*
X006507Y006567D02*
X005983Y006567D01*
X005983Y006646D02*
X006507Y006646D01*
X006507Y006724D02*
X005951Y006724D01*
X005974Y006881D02*
X006031Y006881D01*
X006031Y006960D02*
X005974Y006960D01*
X005974Y007038D02*
X006031Y007038D01*
X006031Y007087D02*
X006031Y007145D01*
X006320Y007145D01*
X006320Y007087D02*
X006031Y007087D01*
X006320Y007087D02*
X006320Y006960D01*
X006507Y006960D01*
X006451Y007038D02*
X006320Y007038D01*
X006320Y006960D02*
X006310Y006924D01*
X006292Y006892D01*
X006507Y006803D02*
X005377Y006803D01*
X005197Y007107D02*
X005197Y006477D01*
X005247Y006177D02*
X004797Y006177D01*
X004677Y006057D01*
X004677Y005857D01*
X004557Y005737D01*
X004358Y005737D01*
X004357Y005738D01*
X004777Y005587D02*
X004857Y005587D01*
X005217Y005227D01*
X005217Y004237D01*
X005287Y004167D01*
X005237Y004117D01*
X005237Y003577D01*
X005787Y003777D02*
X005932Y003932D01*
X006222Y003932D01*
X006222Y003735D01*
X006222Y003538D01*
X006227Y003532D01*
X006227Y003257D01*
X006417Y003067D01*
X007257Y003067D01*
X009487Y003067D01*
X009497Y003057D01*
X009837Y003057D01*
X010077Y002817D01*
X010237Y002817D01*
X010302Y002882D01*
X010607Y002882D01*
X010857Y003113D02*
X011337Y003113D01*
X011337Y003035D02*
X010912Y003035D01*
X010896Y003074D02*
X010800Y003170D01*
X010675Y003222D01*
X010540Y003222D01*
X010455Y003186D01*
X010416Y003280D01*
X010340Y003356D01*
X010241Y003397D01*
X010176Y003397D01*
X010037Y003540D01*
X010037Y003541D01*
X009986Y003593D01*
X009935Y003646D01*
X009933Y003646D01*
X009827Y003752D01*
X009840Y003758D01*
X009916Y003834D01*
X009957Y003933D01*
X009957Y004040D01*
X009916Y004140D01*
X009867Y004189D01*
X009867Y004491D01*
X009762Y004597D01*
X009592Y004767D01*
X009531Y004767D01*
X009531Y004822D01*
X009449Y004904D01*
X009337Y004904D01*
X009337Y005010D01*
X009296Y005110D01*
X009220Y005186D01*
X009121Y005227D01*
X009014Y005227D01*
X008915Y005186D01*
X008866Y005137D01*
X008709Y005137D01*
X008680Y005166D01*
X008581Y005207D01*
X008474Y005207D01*
X008427Y005187D01*
X008427Y005432D01*
X008967Y005972D01*
X008967Y006871D01*
X008587Y007251D01*
X008482Y007357D01*
X007403Y007357D01*
X007297Y007251D01*
X007250Y007204D01*
X007221Y007204D01*
X007139Y007122D01*
X007139Y007067D01*
X006963Y007067D01*
X006867Y006971D01*
X006867Y007131D01*
X006762Y007237D01*
X006668Y007330D01*
X006710Y007348D01*
X006786Y007424D01*
X006792Y007437D01*
X006946Y007437D01*
X007005Y007378D01*
X007104Y007337D01*
X007211Y007337D01*
X007310Y007378D01*
X007386Y007454D01*
X007427Y007553D01*
X007427Y007660D01*
X007386Y007760D01*
X007369Y007777D01*
X007376Y007784D01*
X007417Y007883D01*
X007417Y007990D01*
X007376Y008090D01*
X007300Y008166D01*
X007201Y008207D01*
X007094Y008207D01*
X006995Y008166D01*
X006966Y008137D01*
X007329Y008137D02*
X007752Y008137D01*
X007831Y008059D02*
X007389Y008059D01*
X007417Y007980D02*
X007909Y007980D01*
X007977Y007902D02*
X007417Y007902D01*
X007393Y007823D02*
X007986Y007823D01*
X008018Y007745D02*
X007393Y007745D01*
X007425Y007666D02*
X008098Y007666D01*
X008247Y007897D02*
X007627Y008517D01*
X006347Y008517D01*
X006272Y008442D01*
X005917Y008467D02*
X005917Y008207D01*
X005857Y008147D01*
X006241Y007902D02*
X006282Y007902D01*
X006715Y007352D02*
X007066Y007352D01*
X006952Y007431D02*
X006789Y007431D01*
X006725Y007274D02*
X007320Y007274D01*
X007249Y007352D02*
X007398Y007352D01*
X007363Y007431D02*
X010187Y007431D01*
X010187Y007509D02*
X007409Y007509D01*
X007427Y007588D02*
X010187Y007588D01*
X010187Y007666D02*
X008397Y007666D01*
X008477Y007745D02*
X010187Y007745D01*
X010187Y007823D02*
X008509Y007823D01*
X008517Y007902D02*
X010187Y007902D01*
X010187Y007980D02*
X008505Y007980D01*
X008467Y008059D02*
X010187Y008059D01*
X010187Y008137D02*
X008372Y008137D01*
X008183Y008216D02*
X010187Y008216D01*
X010187Y008294D02*
X008104Y008294D01*
X008026Y008373D02*
X010187Y008373D01*
X010187Y008451D02*
X007947Y008451D01*
X007527Y007457D02*
X008927Y007457D01*
X008587Y007251D02*
X008587Y007251D01*
X008565Y007274D02*
X010187Y007274D01*
X010187Y007352D02*
X008486Y007352D01*
X008407Y007177D02*
X007477Y007177D01*
X007417Y007117D01*
X007417Y006877D01*
X007407Y006887D01*
X007037Y006887D01*
X006897Y006747D01*
X006897Y006427D01*
X007027Y006297D01*
X007376Y006297D01*
X007379Y006300D01*
X007379Y006556D02*
X007773Y006556D01*
X007892Y006437D01*
X007897Y006431D01*
X007897Y005687D01*
X007647Y005437D01*
X007647Y005157D01*
X007417Y005387D01*
X007292Y005112D02*
X006698Y005112D01*
X006698Y005367D01*
X006187Y005367D02*
X006187Y005112D01*
X006177Y005103D01*
X006177Y004907D01*
X006117Y004846D01*
X005777Y004846D01*
X005498Y004846D01*
X005447Y004897D01*
X005447Y005517D01*
X005983Y005939D02*
X006700Y005939D01*
X006622Y006018D02*
X005983Y006018D01*
X005983Y006096D02*
X006543Y006096D01*
X006507Y006175D02*
X005983Y006175D01*
X005983Y006253D02*
X006507Y006253D01*
X006613Y006027D02*
X006613Y006027D01*
X007379Y006556D02*
X007380Y006557D01*
X007407Y006887D02*
X007417Y006887D01*
X007139Y007117D02*
X006867Y007117D01*
X006867Y007038D02*
X006934Y007038D01*
X006803Y007195D02*
X007212Y007195D01*
X007928Y006887D02*
X008257Y006887D01*
X008407Y006737D01*
X008407Y006441D01*
X008403Y006437D01*
X008403Y005903D01*
X008047Y005547D01*
X008047Y004957D01*
X007947Y004857D01*
X007936Y004898D01*
X007767Y004637D02*
X007292Y005112D01*
X007217Y004787D02*
X007367Y004637D01*
X007367Y004341D01*
X007383Y004325D01*
X007383Y004129D02*
X007589Y004129D01*
X007807Y004347D01*
X008052Y004347D01*
X008052Y004347D01*
X008167Y004637D02*
X007767Y004637D01*
X008167Y004637D02*
X008247Y004717D01*
X008247Y005507D01*
X008787Y006047D01*
X008787Y006797D01*
X008407Y007177D01*
X008643Y007195D02*
X010187Y007195D01*
X010187Y007117D02*
X008722Y007117D01*
X008800Y007038D02*
X010187Y007038D01*
X010187Y006960D02*
X008879Y006960D01*
X008957Y006881D02*
X010187Y006881D01*
X010187Y006803D02*
X008967Y006803D01*
X008967Y006724D02*
X010187Y006724D01*
X010187Y006646D02*
X008967Y006646D01*
X008967Y006567D02*
X010187Y006567D01*
X010187Y006489D02*
X008967Y006489D01*
X008967Y006410D02*
X010187Y006410D01*
X010187Y006332D02*
X008967Y006332D01*
X008967Y006253D02*
X010187Y006253D01*
X010187Y006175D02*
X008967Y006175D01*
X008967Y006096D02*
X010187Y006096D01*
X010187Y006018D02*
X008967Y006018D01*
X008935Y005939D02*
X010187Y005939D01*
X010187Y005861D02*
X008856Y005861D01*
X008778Y005782D02*
X010187Y005782D01*
X010187Y005704D02*
X008699Y005704D01*
X008621Y005625D02*
X010187Y005625D01*
X010187Y005547D02*
X008542Y005547D01*
X008464Y005468D02*
X010187Y005468D01*
X010187Y005390D02*
X008427Y005390D01*
X008427Y005311D02*
X011337Y005311D01*
X011337Y005233D02*
X008427Y005233D01*
X008692Y005154D02*
X008883Y005154D01*
X009067Y004957D02*
X008547Y004957D01*
X008527Y004937D01*
X008487Y004697D02*
X008267Y004697D01*
X008247Y004717D01*
X008487Y004697D02*
X008597Y004587D01*
X008742Y004587D01*
X009253Y004587D02*
X009517Y004587D01*
X009687Y004417D01*
X009687Y003987D01*
X009957Y003977D02*
X011337Y003977D01*
X011337Y004055D02*
X009951Y004055D01*
X009919Y004134D02*
X011337Y004134D01*
X011337Y004212D02*
X009867Y004212D01*
X009867Y004291D02*
X011337Y004291D01*
X011337Y004369D02*
X009867Y004369D01*
X009867Y004448D02*
X011337Y004448D01*
X011337Y004526D02*
X009832Y004526D01*
X009754Y004605D02*
X011337Y004605D01*
X011337Y004683D02*
X009675Y004683D01*
X009597Y004762D02*
X011337Y004762D01*
X011337Y004840D02*
X009513Y004840D01*
X009337Y004919D02*
X011337Y004919D01*
X011337Y004997D02*
X009337Y004997D01*
X009310Y005076D02*
X011337Y005076D01*
X011337Y005154D02*
X009252Y005154D01*
X009357Y003967D02*
X008887Y003967D01*
X008837Y003917D01*
X008557Y003917D02*
X008557Y003357D01*
X008927Y003357D01*
X009438Y003357D02*
X009497Y003298D01*
X009497Y003057D01*
X009857Y003467D02*
X009357Y003967D01*
X009838Y003741D02*
X011337Y003741D01*
X011337Y003663D02*
X009916Y003663D01*
X009995Y003584D02*
X011337Y003584D01*
X011337Y003506D02*
X010070Y003506D01*
X010147Y003427D02*
X011337Y003427D01*
X011337Y003349D02*
X010347Y003349D01*
X010420Y003270D02*
X011337Y003270D01*
X011337Y003192D02*
X010747Y003192D01*
X010896Y003074D02*
X010947Y002949D01*
X010947Y002814D01*
X010896Y002689D01*
X010838Y002632D01*
X010872Y002598D01*
X010909Y002543D01*
X010934Y002481D01*
X010947Y002415D01*
X010947Y002392D01*
X010617Y002392D01*
X010617Y002372D01*
X010617Y002042D01*
X010641Y002042D01*
X010707Y002055D01*
X010769Y002080D01*
X010824Y002118D01*
X010872Y002165D01*
X010909Y002221D01*
X010934Y002282D01*
X010947Y002348D01*
X010947Y002372D01*
X010617Y002372D01*
X010597Y002372D01*
X010597Y002392D01*
X010523Y002392D01*
X010523Y002387D01*
X010328Y002387D01*
X010127Y002386D02*
X010127Y002127D01*
X010127Y002386D02*
X010127Y002387D01*
X009847Y002607D02*
X009847Y002657D01*
X009847Y002607D02*
X009847Y001987D01*
X009967Y001867D01*
X010457Y001867D01*
X010607Y001717D01*
X010607Y001487D01*
X010384Y001229D02*
X010331Y001229D01*
X010161Y001151D02*
X010530Y001151D01*
X010685Y001151D02*
X011337Y001151D01*
X011337Y001229D02*
X010831Y001229D01*
X010901Y001308D02*
X011337Y001308D01*
X011337Y001386D02*
X010934Y001386D01*
X010947Y001465D02*
X011337Y001465D01*
X011337Y001543D02*
X010947Y001543D01*
X010920Y001622D02*
X011337Y001622D01*
X011337Y001700D02*
X010875Y001700D01*
X010791Y001779D02*
X011337Y001779D01*
X011337Y001857D02*
X010722Y001857D01*
X010643Y001936D02*
X011337Y001936D01*
X011337Y002014D02*
X010565Y002014D01*
X010597Y002093D02*
X010617Y002093D01*
X010617Y002171D02*
X010597Y002171D01*
X010597Y002250D02*
X010617Y002250D01*
X010617Y002328D02*
X010597Y002328D01*
X010876Y002171D02*
X011337Y002171D01*
X011337Y002093D02*
X010787Y002093D01*
X010921Y002250D02*
X011337Y002250D01*
X011337Y002328D02*
X010943Y002328D01*
X010947Y002407D02*
X011337Y002407D01*
X011337Y002485D02*
X010933Y002485D01*
X010895Y002564D02*
X011337Y002564D01*
X011337Y002642D02*
X010849Y002642D01*
X010909Y002721D02*
X011337Y002721D01*
X011337Y002799D02*
X010941Y002799D01*
X010947Y002878D02*
X011337Y002878D01*
X011337Y002956D02*
X010945Y002956D01*
X010467Y003192D02*
X010453Y003192D01*
X010187Y003127D02*
X009857Y003467D01*
X009902Y003820D02*
X011337Y003820D01*
X011337Y003898D02*
X009943Y003898D01*
X008557Y003917D02*
X008477Y003997D01*
X007617Y003997D01*
X007552Y003932D01*
X007383Y003932D01*
X006912Y003932D01*
X006717Y004127D01*
X006224Y004127D01*
X006222Y004129D01*
X005893Y004129D01*
X005887Y004123D01*
X005742Y004123D01*
X005331Y004123D01*
X005287Y004167D01*
X005742Y004320D02*
X005887Y004320D01*
X006216Y004320D01*
X006216Y004636D01*
X006367Y004787D01*
X007217Y004787D01*
X006222Y004325D02*
X006216Y004320D01*
X007383Y003735D02*
X008034Y003735D01*
X008052Y003717D01*
X007383Y003538D02*
X007383Y003192D01*
X007257Y003067D01*
X007331Y001229D02*
X007384Y001229D01*
X007530Y001151D02*
X007185Y001151D01*
X007030Y001151D02*
X006685Y001151D01*
X006831Y001229D02*
X006884Y001229D01*
X006530Y001151D02*
X006185Y001151D01*
X006331Y001229D02*
X006384Y001229D01*
X006030Y001151D02*
X005685Y001151D01*
X005831Y001229D02*
X005884Y001229D01*
X005530Y001151D02*
X005185Y001151D01*
X005030Y001151D02*
X004685Y001151D01*
X004530Y001151D02*
X004185Y001151D01*
X004030Y001151D02*
X003685Y001151D01*
X003530Y001151D02*
X003185Y001151D01*
X003030Y001151D02*
X002685Y001151D01*
X002831Y001229D02*
X002884Y001229D01*
X002530Y001151D02*
X002185Y001151D01*
X002331Y001229D02*
X002384Y001229D01*
X003331Y001229D02*
X003384Y001229D01*
X003831Y001229D02*
X003884Y001229D01*
X004331Y001229D02*
X004384Y001229D01*
X004831Y001229D02*
X004884Y001229D01*
X005331Y001229D02*
X005384Y001229D01*
X007685Y001151D02*
X008030Y001151D01*
X008185Y001151D02*
X008530Y001151D01*
X008685Y001151D02*
X009030Y001151D01*
X009185Y001151D02*
X009530Y001151D01*
X009384Y001229D02*
X009331Y001229D01*
X009685Y001151D02*
X010054Y001151D01*
X010097Y001151D02*
X010117Y001151D01*
X010117Y001229D02*
X010097Y001229D01*
X010097Y001308D02*
X010117Y001308D01*
X010117Y001386D02*
X010097Y001386D01*
X010097Y001465D02*
X010117Y001465D01*
X009884Y001229D02*
X009831Y001229D01*
X010397Y002093D02*
X010428Y002093D01*
X008884Y001229D02*
X008831Y001229D01*
X008384Y001229D02*
X008331Y001229D01*
X007884Y001229D02*
X007831Y001229D01*
X001805Y003898D02*
X001051Y003898D01*
X001512Y003977D02*
X001805Y003977D01*
X001805Y004055D02*
X001591Y004055D01*
X001669Y004134D02*
X001805Y004134D01*
X001805Y004212D02*
X001748Y004212D01*
X000862Y003270D02*
X000437Y003270D01*
X000437Y003192D02*
X000778Y003192D01*
X000699Y003113D02*
X000437Y003113D01*
X000437Y003035D02*
X000621Y003035D01*
X000607Y002956D02*
X000437Y002956D01*
X000437Y002878D02*
X000607Y002878D01*
X000607Y002799D02*
X000437Y002799D01*
X000437Y002721D02*
X000607Y002721D01*
X000607Y002642D02*
X000437Y002642D01*
X000437Y002564D02*
X000607Y002564D01*
X000607Y002485D02*
X000437Y002485D01*
X000437Y002407D02*
X000607Y002407D01*
X000607Y002328D02*
X000437Y002328D01*
X000437Y002250D02*
X000607Y002250D01*
X000607Y002171D02*
X000437Y002171D01*
X000437Y002093D02*
X000637Y002093D01*
X000715Y002014D02*
X000437Y002014D01*
X000437Y001936D02*
X000794Y001936D01*
X000872Y001857D02*
X000437Y001857D01*
X000437Y001779D02*
X000924Y001779D01*
X000840Y001700D02*
X000437Y001700D01*
X000437Y001622D02*
X000795Y001622D01*
X000767Y001543D02*
X000437Y001543D01*
X000437Y001465D02*
X000767Y001465D01*
X000781Y001386D02*
X000437Y001386D01*
X000437Y001308D02*
X000814Y001308D01*
X000884Y001229D02*
X000437Y001229D01*
X001107Y001487D02*
X001107Y001877D01*
X000787Y002197D01*
X000787Y002947D01*
X000853Y003013D01*
X001117Y003013D01*
X001117Y002501D02*
X001547Y002501D01*
X001577Y002407D01*
X001487Y002317D01*
X001384Y001229D02*
X001331Y001229D01*
X000637Y004367D02*
X000637Y004811D01*
X001748Y006925D02*
X001748Y006925D01*
X001787Y009297D02*
X001787Y009307D01*
X001587Y009507D01*
X000976Y009393D02*
X000437Y009393D01*
X000437Y009472D02*
X000898Y009472D01*
X000819Y009550D02*
X000437Y009550D01*
X000437Y009629D02*
X000741Y009629D01*
X000662Y009707D02*
X000437Y009707D01*
X000437Y009786D02*
X000607Y009786D01*
X000607Y009864D02*
X000437Y009864D01*
X000437Y009943D02*
X000607Y009943D01*
X000607Y010021D02*
X000437Y010021D01*
X000437Y010100D02*
X000607Y010100D01*
X000607Y010178D02*
X000437Y010178D01*
X000437Y010257D02*
X000607Y010257D01*
X000607Y010341D02*
X000837Y010571D01*
X009541Y008530D02*
X010187Y008530D01*
X010187Y008608D02*
X009619Y008608D01*
D24*
X010657Y009377D03*
X009877Y010457D03*
X008247Y007897D03*
X007527Y007457D03*
X007157Y007607D03*
X007147Y007937D03*
X006547Y007967D03*
X006557Y007577D03*
X006437Y006907D03*
X005207Y005917D03*
X004777Y005587D03*
X005197Y006477D03*
X005197Y007107D03*
X005917Y008467D03*
X006272Y008442D03*
X007377Y005647D03*
X007647Y005157D03*
X007947Y004857D03*
X008527Y004937D03*
X009067Y004957D03*
X008997Y004247D03*
X008837Y003917D03*
X008557Y003357D03*
X009687Y003987D03*
X010187Y003127D03*
X009847Y002607D03*
X010127Y002127D03*
X007217Y004787D03*
X005787Y003777D03*
X005237Y003577D03*
X001487Y002317D03*
X000887Y004117D03*
X001167Y004837D03*
X001157Y005177D03*
X001227Y005517D03*
X001787Y009297D03*
D25*
X000877Y006927D03*
M02*
