G75*
%MOIN*%
%OFA0B0*%
%FSLAX24Y24*%
%IPPOS*%
%LPD*%
%AMOC8*
5,1,8,0,0,1.08239X$1,22.5*
%
%ADD10C,0.0480*%
%ADD11R,0.0474X0.0186*%
%ADD12R,0.0186X0.0474*%
%ADD13R,0.0552X0.0198*%
%ADD14R,0.0474X0.0474*%
%ADD15R,0.0198X0.0336*%
%ADD16R,0.0336X0.0198*%
%ADD17R,0.0178X0.0218*%
%ADD18R,0.0249X0.0190*%
%ADD19R,0.0218X0.0178*%
%ADD20R,0.0190X0.0249*%
%ADD21R,0.0631X0.0552*%
%ADD22R,0.1080X0.0480*%
%ADD23R,0.0434X0.0356*%
%ADD24C,0.0580*%
%ADD25C,0.0340*%
%ADD26C,0.0330*%
D10*
X001318Y001487D03*
X001818Y001487D03*
X002318Y001487D03*
X002818Y001487D03*
X003318Y001487D03*
X003818Y001487D03*
X004318Y001487D03*
X004818Y001487D03*
X005318Y001487D03*
X005818Y001487D03*
X006318Y001487D03*
X006818Y001487D03*
X007318Y001487D03*
X007818Y001487D03*
X008318Y001487D03*
X008818Y001487D03*
X009318Y001487D03*
X009818Y001487D03*
X010318Y001487D03*
X010818Y001487D03*
X010818Y002382D03*
X010818Y002882D03*
X010818Y010087D03*
X010318Y010087D03*
X009818Y010087D03*
X009318Y010087D03*
X008818Y010087D03*
X008318Y010087D03*
X007818Y010087D03*
X007318Y010087D03*
X006818Y010087D03*
X006318Y010087D03*
X005818Y010087D03*
X005318Y010087D03*
X004818Y010087D03*
X004318Y010087D03*
X003818Y010087D03*
X003318Y010087D03*
X002818Y010087D03*
X002318Y010087D03*
X001818Y010087D03*
X001318Y010087D03*
D11*
X001823Y007758D03*
X001823Y007561D03*
X001823Y007364D03*
X001823Y007167D03*
X001823Y006971D03*
X001823Y006774D03*
X001823Y006577D03*
X001823Y006380D03*
X001823Y006183D03*
X001823Y005986D03*
X001823Y005790D03*
X001823Y005593D03*
X001823Y005396D03*
X001823Y005199D03*
X001823Y005002D03*
X001823Y004805D03*
X006233Y004805D03*
X006233Y005002D03*
X006233Y005199D03*
X006233Y005396D03*
X006233Y005593D03*
X006233Y005790D03*
X006233Y005986D03*
X006233Y006183D03*
X006233Y006380D03*
X006233Y006577D03*
X006233Y006774D03*
X006233Y006971D03*
X006233Y007167D03*
X006233Y007364D03*
X006233Y007561D03*
X006233Y007758D03*
D12*
X005504Y008486D03*
X005307Y008486D03*
X005111Y008486D03*
X004914Y008486D03*
X004717Y008486D03*
X004520Y008486D03*
X004323Y008486D03*
X004126Y008486D03*
X003929Y008486D03*
X003733Y008486D03*
X003536Y008486D03*
X003339Y008486D03*
X003142Y008486D03*
X002945Y008486D03*
X002748Y008486D03*
X002551Y008486D03*
X002551Y004077D03*
X002748Y004077D03*
X002945Y004077D03*
X003142Y004077D03*
X003339Y004077D03*
X003536Y004077D03*
X003733Y004077D03*
X003929Y004077D03*
X004126Y004077D03*
X004323Y004077D03*
X004520Y004077D03*
X004717Y004077D03*
X004914Y004077D03*
X005111Y004077D03*
X005307Y004077D03*
X005504Y004077D03*
D13*
X008761Y004170D03*
X008761Y003914D03*
X008761Y003658D03*
X008761Y004426D03*
X010424Y004426D03*
X010424Y004170D03*
X010424Y003914D03*
X010424Y003658D03*
D14*
X008453Y008162D03*
D15*
X008453Y008910D03*
X008256Y008910D03*
X008059Y008910D03*
X008650Y008910D03*
X008847Y008910D03*
X008847Y007414D03*
X008650Y007414D03*
X008453Y007414D03*
X008256Y007414D03*
X008059Y007414D03*
D16*
X007705Y007768D03*
X007705Y007965D03*
X007705Y008162D03*
X007705Y008359D03*
X007705Y008555D03*
X009201Y008555D03*
X009201Y008359D03*
X009201Y008162D03*
X009201Y007965D03*
X009201Y007768D03*
D17*
X009610Y008127D03*
X009826Y008127D03*
X009646Y008497D03*
X009449Y008497D03*
X005316Y008927D03*
X005316Y009107D03*
X005119Y009107D03*
X005119Y008927D03*
X003536Y009007D03*
X003339Y009007D03*
X003196Y003697D03*
X002999Y003697D03*
X009569Y004622D03*
X009766Y004622D03*
D18*
X010793Y004142D03*
X010793Y003941D03*
X003048Y009316D03*
X003048Y009517D03*
D19*
X001358Y005955D03*
X001358Y005758D03*
X001128Y005758D03*
X001128Y005955D03*
X001108Y005345D03*
X001108Y005148D03*
X003688Y002715D03*
X003688Y002518D03*
X005408Y002528D03*
X005408Y002725D03*
X006628Y005788D03*
X006628Y005985D03*
X007518Y005948D03*
X007518Y006145D03*
X008538Y005575D03*
X008538Y005378D03*
X009278Y005298D03*
X009278Y005495D03*
X010988Y004140D03*
X010988Y003943D03*
X009658Y007238D03*
X009658Y007435D03*
X009468Y007435D03*
X009468Y007238D03*
X009458Y007568D03*
X009458Y007785D03*
X009458Y007908D03*
X009458Y008125D03*
X009828Y008308D03*
X009828Y008505D03*
X008258Y009138D03*
X008258Y009335D03*
D20*
X008497Y009297D03*
X008698Y009297D03*
X009157Y006957D03*
X009358Y006957D03*
X009972Y003422D03*
X010173Y003422D03*
X009763Y003302D03*
X009562Y003302D03*
X003558Y003697D03*
X003357Y003697D03*
D21*
X004124Y003322D03*
X004124Y002692D03*
X004951Y002692D03*
X004951Y003322D03*
X008534Y005902D03*
X008534Y006532D03*
X009361Y006532D03*
X009361Y005902D03*
D22*
X010738Y005607D03*
X010738Y008207D03*
D23*
X007188Y006243D03*
X007188Y005731D03*
X002718Y008961D03*
X002718Y009473D03*
D24*
X001568Y009027D03*
X001568Y008427D03*
X007358Y003117D03*
X007358Y002427D03*
X008078Y002417D03*
X008078Y003127D03*
X009178Y002497D03*
X007388Y005227D03*
X002938Y002907D03*
D25*
X001698Y002317D03*
X001098Y004117D03*
X001378Y004837D03*
X001368Y005177D03*
X001438Y005517D03*
X005018Y005637D03*
X005468Y005737D03*
X005408Y006477D03*
X005408Y007107D03*
X006648Y006947D03*
X006768Y007577D03*
X006758Y007967D03*
X006483Y008442D03*
X006128Y008467D03*
X007358Y007937D03*
X007368Y007607D03*
X007568Y007217D03*
X008488Y007097D03*
X008458Y007897D03*
X010068Y009757D03*
X010648Y009207D03*
X007588Y005647D03*
X007858Y005157D03*
X008158Y004857D03*
X008698Y005047D03*
X009268Y005047D03*
X009208Y004247D03*
X009048Y003917D03*
X008768Y003287D03*
X010068Y003077D03*
X010058Y002607D03*
X010338Y002127D03*
X010068Y003907D03*
X010778Y004187D03*
X007428Y004787D03*
X005998Y003777D03*
X005448Y003577D03*
X001998Y009297D03*
D26*
X001088Y006927D03*
M02*
