G75*
%MOIN*%
%OFA0B0*%
%FSLAX24Y24*%
%IPPOS*%
%LPD*%
%AMOC8*
5,1,8,0,0,1.08239X$1,22.5*
%
%ADD10C,0.0400*%
%ADD11R,0.0394X0.0106*%
%ADD12R,0.0106X0.0394*%
%ADD13R,0.0472X0.0118*%
%ADD14R,0.0394X0.0394*%
%ADD15R,0.0118X0.0256*%
%ADD16R,0.0256X0.0118*%
%ADD17R,0.0276X0.0354*%
%ADD18R,0.0354X0.0276*%
%ADD19R,0.0551X0.0472*%
%ADD20R,0.1000X0.0400*%
%ADD21C,0.0500*%
%ADD22C,0.0060*%
%ADD23C,0.0080*%
%ADD24C,0.0260*%
%ADD25C,0.0250*%
D10*
X001107Y001487D03*
X001607Y001487D03*
X002107Y001487D03*
X002607Y001487D03*
X003107Y001487D03*
X003607Y001487D03*
X004107Y001487D03*
X004607Y001487D03*
X005107Y001487D03*
X005607Y001487D03*
X006107Y001487D03*
X006607Y001487D03*
X007107Y001487D03*
X007607Y001487D03*
X008107Y001487D03*
X008607Y001487D03*
X009107Y001487D03*
X009607Y001487D03*
X010107Y001487D03*
X010607Y001487D03*
X010607Y002382D03*
X010607Y002882D03*
X010607Y010087D03*
X010107Y010087D03*
X009607Y010087D03*
X009107Y010087D03*
X008607Y010087D03*
X008107Y010087D03*
X007607Y010087D03*
X007107Y010087D03*
X006607Y010087D03*
X006107Y010087D03*
X005607Y010087D03*
X005107Y010087D03*
X004607Y010087D03*
X004107Y010087D03*
X003607Y010087D03*
X003107Y010087D03*
X002607Y010087D03*
X002107Y010087D03*
X001607Y010087D03*
X001107Y010087D03*
D11*
X001613Y007758D03*
X001613Y007561D03*
X001613Y007364D03*
X001613Y007167D03*
X001613Y006971D03*
X001613Y006774D03*
X001613Y006577D03*
X001613Y006380D03*
X001613Y006183D03*
X001613Y005986D03*
X001613Y005790D03*
X001613Y005593D03*
X001613Y005396D03*
X001613Y005199D03*
X001613Y005002D03*
X001613Y004805D03*
X006022Y004805D03*
X006022Y005002D03*
X006022Y005199D03*
X006022Y005396D03*
X006022Y005593D03*
X006022Y005790D03*
X006022Y005986D03*
X006022Y006183D03*
X006022Y006380D03*
X006022Y006577D03*
X006022Y006774D03*
X006022Y006971D03*
X006022Y007167D03*
X006022Y007364D03*
X006022Y007561D03*
X006022Y007758D03*
D12*
X005294Y008486D03*
X005097Y008486D03*
X004900Y008486D03*
X004703Y008486D03*
X004506Y008486D03*
X004310Y008486D03*
X004113Y008486D03*
X003916Y008486D03*
X003719Y008486D03*
X003522Y008486D03*
X003325Y008486D03*
X003128Y008486D03*
X002932Y008486D03*
X002735Y008486D03*
X002538Y008486D03*
X002341Y008486D03*
X002341Y004077D03*
X002538Y004077D03*
X002735Y004077D03*
X002932Y004077D03*
X003128Y004077D03*
X003325Y004077D03*
X003522Y004077D03*
X003719Y004077D03*
X003916Y004077D03*
X004113Y004077D03*
X004310Y004077D03*
X004506Y004077D03*
X004703Y004077D03*
X004900Y004077D03*
X005097Y004077D03*
X005294Y004077D03*
D13*
X008361Y004014D03*
X008361Y003758D03*
X008361Y004270D03*
X008361Y004526D03*
X010024Y004526D03*
X010024Y004270D03*
X010024Y004014D03*
X010024Y003758D03*
D14*
X008242Y008162D03*
D15*
X008242Y008910D03*
X008439Y008910D03*
X008636Y008910D03*
X008046Y008910D03*
X007849Y008910D03*
X007849Y007414D03*
X008046Y007414D03*
X008242Y007414D03*
X008439Y007414D03*
X008636Y007414D03*
D16*
X008990Y007768D03*
X008990Y007965D03*
X008990Y008162D03*
X008990Y008359D03*
X008990Y008555D03*
X007494Y008555D03*
X007494Y008359D03*
X007494Y008162D03*
X007494Y007965D03*
X007494Y007768D03*
D17*
<<<<<<< HEAD
X008292Y007017D03*
X008803Y007017D03*
X009043Y005447D03*
X008532Y005447D03*
X009752Y004952D03*
X010263Y004952D03*
X010438Y003452D03*
X009927Y003452D03*
X009418Y003302D03*
X008907Y003302D03*
X003253Y003337D03*
X002742Y003337D03*
X001193Y006397D03*
X000682Y006397D03*
X003412Y009267D03*
X003923Y009267D03*
X004752Y009297D03*
X004752Y009017D03*
X005263Y009017D03*
X005263Y009297D03*
X007512Y009277D03*
X008023Y009277D03*
X008412Y009277D03*
X008923Y009277D03*
X009622Y008887D03*
X010133Y008887D03*
X010522Y008977D03*
X011033Y008977D03*
D18*
X010007Y008443D03*
X009547Y008423D03*
X010007Y007931D03*
X010057Y007583D03*
X009627Y007423D03*
X009377Y007563D03*
X009547Y007911D03*
X009377Y007051D03*
X009627Y006911D03*
X010057Y007071D03*
X009567Y006403D03*
X009567Y005891D03*
X010512Y004368D03*
X010737Y004368D03*
X010737Y003856D03*
X010512Y003856D03*
X007417Y006031D03*
X006977Y005811D03*
X006567Y006053D03*
X006977Y006323D03*
X007417Y006543D03*
X006567Y005541D03*
X005257Y002843D03*
X005257Y002331D03*
X003397Y002321D03*
X003397Y002833D03*
X002317Y002881D03*
X002317Y003393D03*
X000847Y005511D03*
X000847Y006023D03*
X002507Y008961D03*
X002947Y008961D03*
X002947Y009473D03*
X002507Y009473D03*
=======
X009610Y008127D03*
X009826Y008127D03*
X009646Y008497D03*
X009449Y008497D03*
X005316Y008927D03*
X005316Y009107D03*
X005119Y009107D03*
X005119Y008927D03*
X003536Y009007D03*
X003339Y009007D03*
X003196Y003697D03*
X002999Y003697D03*
X009569Y004622D03*
X009766Y004622D03*
D18*
X010793Y004142D03*
X010793Y003941D03*
X003048Y009316D03*
X003048Y009517D03*
>>>>>>> parent of c675796... Revert "fixed analog input connection"
D19*
X008214Y006542D03*
X008214Y005912D03*
X009041Y005912D03*
X009041Y006542D03*
X004741Y003322D03*
X004741Y002692D03*
X003914Y002692D03*
X003914Y003322D03*
D20*
<<<<<<< HEAD
X010857Y005677D03*
X010857Y008277D03*
=======
X008497Y009297D03*
X008698Y009297D03*
X009157Y006957D03*
X009358Y006957D03*
X009972Y003422D03*
X010173Y003422D03*
X009763Y003302D03*
X009562Y003302D03*
X003558Y003697D03*
X003357Y003697D03*
>>>>>>> parent of c675796... Revert "fixed analog input connection"
D21*
X007177Y005227D03*
X007147Y003117D03*
X007147Y002427D03*
X007867Y002417D03*
X007867Y003127D03*
X008887Y002387D03*
X002857Y002577D03*
X001357Y008427D03*
X001357Y009027D03*
D22*
X002507Y009473D02*
X002947Y009473D01*
X003129Y008487D02*
X003128Y008486D01*
X003325Y008486D02*
X003326Y008487D01*
X004707Y008907D02*
X004707Y009177D01*
X004737Y009207D01*
X004737Y009587D01*
X004707Y008907D02*
X004900Y008714D01*
X004900Y008486D01*
X004909Y008495D01*
X005097Y008486D02*
X005106Y008495D01*
X006022Y007758D02*
X006339Y007758D01*
X006547Y007967D01*
X006777Y008247D02*
X006777Y007447D01*
X006697Y007367D01*
X006024Y007367D01*
X006022Y007364D01*
X006022Y007561D02*
X006542Y007561D01*
X006557Y007577D01*
X006917Y007337D02*
X006757Y007177D01*
X006031Y007177D01*
X006022Y007167D01*
X006917Y007337D02*
X006917Y008117D01*
X006962Y008162D01*
X007494Y008162D01*
X007494Y008359D02*
X006889Y008359D01*
X006777Y008247D01*
X007287Y007767D02*
X007493Y007767D01*
X007494Y007768D01*
X007309Y007768D01*
X007287Y007767D02*
X007157Y007637D01*
X007157Y007607D01*
X007927Y007017D02*
X007717Y006807D01*
X007717Y005997D01*
X007807Y005907D01*
X008319Y005907D01*
X008214Y005912D01*
X008522Y005604D01*
X008532Y005447D01*
X009180Y006403D02*
X009041Y006542D01*
X009147Y006535D01*
X009180Y006403D02*
X009567Y006403D01*
X008439Y007414D02*
X008427Y007401D01*
X008292Y007017D02*
X007927Y007017D01*
X007849Y008910D02*
X007849Y009005D01*
X007767Y009087D01*
X007767Y009517D01*
X007837Y009587D01*
X008307Y009587D01*
X008407Y009487D01*
X008407Y009271D01*
X008412Y009277D01*
X008437Y008912D02*
X008439Y008910D01*
X008636Y008910D02*
X008637Y008911D01*
X008047Y008912D02*
X008046Y008910D01*
X010607Y010087D02*
X010607Y010097D01*
X010617Y010077D01*
X010024Y004014D02*
X009997Y003987D01*
X009687Y003987D01*
X010512Y003856D02*
X010555Y003914D01*
X002737Y004074D02*
X002735Y004077D01*
D23*
<<<<<<< HEAD
X000437Y006128D02*
X000437Y000977D01*
X011337Y000967D01*
X011337Y005327D01*
X010352Y005327D01*
X010410Y005269D01*
X010459Y005269D01*
X010541Y005187D01*
X010541Y005127D01*
X010616Y005127D01*
X010618Y005129D01*
X010690Y005127D01*
X010762Y005127D01*
X010764Y005125D01*
X010767Y005124D01*
X010817Y005072D01*
X010867Y005021D01*
X010867Y005018D01*
X011157Y004712D01*
X011207Y004661D01*
X011207Y004658D01*
X011210Y004656D01*
X011207Y004584D01*
X011207Y003259D01*
X011209Y003187D01*
X011207Y003185D01*
X011207Y003182D01*
X011156Y003131D01*
X010947Y002910D01*
X010947Y002814D01*
X010896Y002689D01*
X010838Y002632D01*
X010896Y002574D01*
X010947Y002449D01*
X010947Y002314D01*
X010896Y002189D01*
X010800Y002093D01*
X010713Y002057D01*
X010682Y002027D01*
X010441Y001786D01*
X010540Y001827D01*
X010675Y001827D01*
X010800Y001775D01*
X010896Y001679D01*
X010947Y001554D01*
X010947Y001419D01*
X010896Y001294D01*
X010800Y001198D01*
X010675Y001147D01*
X010540Y001147D01*
X010415Y001198D01*
X010357Y001256D01*
X010300Y001198D01*
X010175Y001147D01*
X010040Y001147D01*
X009915Y001198D01*
X009857Y001256D01*
X009800Y001198D01*
X009675Y001147D01*
X009540Y001147D01*
X009415Y001198D01*
X009357Y001256D01*
X009300Y001198D01*
X009175Y001147D01*
X009040Y001147D01*
X008915Y001198D01*
X008857Y001256D01*
X008800Y001198D01*
X008675Y001147D01*
X008540Y001147D01*
X008415Y001198D01*
X008357Y001256D01*
X008300Y001198D01*
X008175Y001147D01*
X008040Y001147D01*
X007915Y001198D01*
X007857Y001256D01*
X007800Y001198D01*
X007675Y001147D01*
X007540Y001147D01*
X007415Y001198D01*
X007357Y001256D01*
X007300Y001198D01*
X007175Y001147D01*
X007040Y001147D01*
X006915Y001198D01*
X006857Y001256D01*
X006800Y001198D01*
X006675Y001147D01*
X006540Y001147D01*
X006415Y001198D01*
X006357Y001256D01*
X006300Y001198D01*
X006175Y001147D01*
X006040Y001147D01*
X005915Y001198D01*
X005857Y001256D01*
X005800Y001198D01*
X005675Y001147D01*
X005540Y001147D01*
X005415Y001198D01*
X005357Y001256D01*
X005300Y001198D01*
X005175Y001147D01*
X005040Y001147D01*
X004915Y001198D01*
X004857Y001256D01*
X004800Y001198D01*
X004675Y001147D01*
X004540Y001147D01*
X004415Y001198D01*
X004357Y001256D01*
X004300Y001198D01*
X004175Y001147D01*
X004040Y001147D01*
X003915Y001198D01*
X003857Y001256D01*
X003800Y001198D01*
X003675Y001147D01*
X003540Y001147D01*
X003415Y001198D01*
X003357Y001256D01*
X003300Y001198D01*
X003175Y001147D01*
X003040Y001147D01*
X002915Y001198D01*
X002857Y001256D01*
X002800Y001198D01*
X002675Y001147D01*
X002540Y001147D01*
X002415Y001198D01*
X002357Y001256D01*
X002300Y001198D01*
X002175Y001147D01*
X002040Y001147D01*
X001915Y001198D01*
X001857Y001256D01*
X001800Y001198D01*
X001675Y001147D01*
X001540Y001147D01*
X001415Y001198D01*
X001357Y001256D01*
X001300Y001198D01*
X001175Y001147D01*
X001040Y001147D01*
X000915Y001198D01*
X000819Y001294D01*
X000767Y001419D01*
X000767Y001554D01*
X000819Y001679D01*
X000915Y001775D01*
X000936Y001784D01*
X000813Y001907D01*
X000707Y002012D01*
X000707Y003915D01*
X000659Y003964D01*
X000617Y004063D01*
X000617Y004170D01*
X000659Y004270D01*
X000735Y004346D01*
X000834Y004387D01*
X000941Y004387D01*
X001040Y004346D01*
X001116Y004270D01*
X001157Y004170D01*
X001157Y004063D01*
X001116Y003964D01*
X001067Y003915D01*
X001067Y002161D01*
X001242Y001987D01*
X001333Y001987D01*
X001307Y002012D01*
X001307Y002115D01*
X001259Y002164D01*
X001217Y002263D01*
X001217Y002370D01*
X001259Y002470D01*
X001335Y002546D01*
X001434Y002587D01*
X001541Y002587D01*
X001640Y002546D01*
X001716Y002470D01*
X001757Y002370D01*
X001757Y002263D01*
X001722Y002177D01*
X003080Y002177D01*
X003080Y002248D01*
X003078Y002246D01*
X002935Y002187D01*
X002780Y002187D01*
X002637Y002246D01*
X002527Y002356D01*
X002467Y002499D01*
X002467Y002603D01*
X002082Y002603D01*
X002000Y002685D01*
X002000Y003077D01*
X002062Y003138D01*
X002054Y003143D01*
X002028Y003169D01*
X002010Y003201D01*
X002000Y003236D01*
X002000Y003364D01*
X002289Y003364D01*
X002289Y003421D01*
X002000Y003421D01*
X002000Y003549D01*
X002010Y003584D01*
X001067Y003584D01*
X001067Y003506D02*
X002000Y003506D01*
X002000Y003427D02*
X001067Y003427D01*
X001067Y003349D02*
X002000Y003349D01*
X002000Y003270D02*
X001067Y003270D01*
X001067Y003192D02*
X002015Y003192D01*
X002037Y003113D02*
X001067Y003113D01*
X001067Y003035D02*
X002000Y003035D01*
X002000Y002956D02*
X001067Y002956D01*
X001067Y002878D02*
X002000Y002878D01*
X002000Y002799D02*
X001067Y002799D01*
X001067Y002721D02*
X002000Y002721D01*
X002043Y002642D02*
X001067Y002642D01*
X001067Y002564D02*
X001378Y002564D01*
X001274Y002485D02*
X001067Y002485D01*
X001067Y002407D02*
X001232Y002407D01*
X001217Y002328D02*
X001067Y002328D01*
X001067Y002250D02*
X001223Y002250D01*
X001255Y002171D02*
X001067Y002171D01*
X001136Y002093D02*
X001307Y002093D01*
X001307Y002014D02*
X001215Y002014D01*
X001167Y001807D02*
X000887Y002087D01*
X000887Y004117D01*
X000897Y004127D01*
X001095Y004291D02*
X002148Y004291D01*
X002148Y004332D02*
X002148Y003822D01*
X002230Y003740D01*
X002452Y003740D01*
X002455Y003743D01*
X002466Y003740D01*
X002538Y003740D01*
X002610Y003740D01*
X002636Y003747D01*
X002642Y003746D01*
X002557Y003661D01*
X002557Y003656D01*
X002549Y003661D01*
X002513Y003670D01*
X002346Y003670D01*
X002346Y003421D01*
X002289Y003421D01*
X002289Y003670D01*
X002122Y003670D01*
X002086Y003661D01*
X002054Y003642D01*
X002028Y003616D01*
X002010Y003584D01*
X002093Y003663D02*
X001067Y003663D01*
X001067Y003741D02*
X002229Y003741D01*
X002289Y003663D02*
X002346Y003663D01*
X002317Y003697D02*
X002377Y003757D01*
X002457Y003757D01*
X002537Y003837D01*
X002537Y004076D01*
X002537Y004077D01*
X002540Y004074D01*
X002737Y004074D01*
X002735Y004077D02*
X002538Y004077D01*
X002735Y004077D01*
X002735Y004077D01*
X002735Y004414D01*
X002806Y004414D01*
X002817Y004411D01*
X002820Y004414D01*
X002947Y004414D01*
X002947Y005042D01*
X002183Y005806D01*
X001950Y005806D01*
X001950Y005790D01*
X001613Y005790D01*
X001613Y005790D01*
X001950Y005790D01*
X001950Y005718D01*
X001947Y005707D01*
X001950Y005704D01*
X001950Y004891D01*
X001947Y004888D01*
X001950Y004877D01*
X001950Y004805D01*
X001613Y004805D01*
X001613Y004805D01*
X001613Y004612D01*
X001828Y004612D01*
X001864Y004622D01*
X001896Y004640D01*
X001922Y004666D01*
X001940Y004698D01*
X001950Y004734D01*
X001950Y004805D01*
X001613Y004805D01*
X001613Y004805D01*
X001613Y004612D01*
X001397Y004612D01*
X001362Y004622D01*
X001344Y004632D01*
X001320Y004608D01*
X001221Y004567D01*
X001114Y004567D01*
X001015Y004608D01*
X000939Y004684D01*
X000897Y004783D01*
X000897Y004890D01*
X000939Y004990D01*
X000951Y005002D01*
X000929Y005024D01*
X000887Y005123D01*
X000887Y005230D01*
X000889Y005233D01*
X000876Y005233D01*
X000876Y005482D01*
X000819Y005482D01*
X000819Y005233D01*
X000652Y005233D01*
X000616Y005243D01*
X000584Y005261D01*
X000558Y005287D01*
X000540Y005319D01*
X000530Y005355D01*
X000530Y005482D01*
X000819Y005482D01*
X000819Y005540D01*
X000530Y005540D01*
X000530Y005667D01*
X000540Y005703D01*
X000558Y005735D01*
X000584Y005761D01*
X000592Y005765D01*
X000530Y005827D01*
X000530Y006080D01*
X000525Y006080D01*
X000490Y006089D01*
X000458Y006107D01*
X000437Y006128D01*
X000437Y006096D02*
X000477Y006096D01*
X000437Y006018D02*
X000530Y006018D01*
X000530Y005939D02*
X000437Y005939D01*
X000437Y005861D02*
X000530Y005861D01*
X000575Y005782D02*
X000437Y005782D01*
X000437Y005704D02*
X000540Y005704D01*
X000530Y005625D02*
X000437Y005625D01*
X000437Y005547D02*
X000530Y005547D01*
X000547Y005557D02*
X000547Y006263D01*
X000682Y006397D01*
X000710Y006426D02*
X000653Y006426D01*
X000653Y006714D01*
X000525Y006714D01*
X000490Y006704D01*
X000458Y006686D01*
X000437Y006666D01*
X000437Y007112D01*
X000612Y006937D01*
X000612Y006874D01*
X000653Y006777D01*
X000716Y006714D01*
X000710Y006714D01*
X000710Y006426D01*
X000710Y006489D02*
X000653Y006489D01*
X000653Y006567D02*
X000710Y006567D01*
X000710Y006646D02*
X000653Y006646D01*
X000705Y006724D02*
X000437Y006724D01*
X000437Y006803D02*
X000642Y006803D01*
X000612Y006881D02*
X000437Y006881D01*
X000437Y006960D02*
X000590Y006960D01*
X000511Y007038D02*
X000437Y007038D01*
X000607Y007197D02*
X000877Y006927D01*
X000607Y007197D02*
X000607Y010227D01*
X000837Y010457D01*
X009877Y010457D01*
X010267Y009747D02*
X010607Y010087D01*
X010267Y009747D02*
X006237Y009747D01*
X005917Y009427D01*
X005917Y008467D01*
X005708Y008294D02*
X005487Y008294D01*
X005487Y008252D02*
X005532Y008207D01*
X005840Y008207D01*
X005765Y008238D01*
X005689Y008314D01*
X005647Y008413D01*
X005647Y008520D01*
X005689Y008620D01*
X005737Y008669D01*
X005737Y009501D01*
X006000Y009763D01*
X005915Y009798D01*
X005857Y009856D01*
X005800Y009798D01*
X005675Y009747D01*
X005540Y009747D01*
X005415Y009798D01*
X005357Y009856D01*
X005300Y009798D01*
X005175Y009747D01*
X005040Y009747D01*
X004915Y009798D01*
X004857Y009856D01*
X004800Y009798D01*
X004675Y009747D01*
X004540Y009747D01*
X004415Y009798D01*
X004357Y009856D01*
X004300Y009798D01*
X004175Y009747D01*
X004040Y009747D01*
X003915Y009798D01*
X003857Y009856D01*
X003800Y009798D01*
X003675Y009747D01*
X003540Y009747D01*
X003415Y009798D01*
X003357Y009856D01*
X003300Y009798D01*
X003183Y009750D01*
X003265Y009668D01*
X003265Y009584D01*
X003383Y009584D01*
X003383Y009296D01*
X003440Y009296D01*
X003440Y009584D01*
X003568Y009584D01*
X003603Y009574D01*
X003635Y009556D01*
X003661Y009530D01*
X003666Y009522D01*
X003728Y009584D01*
X004119Y009584D01*
X004201Y009502D01*
X004201Y009032D01*
X004119Y008950D01*
X004055Y008950D01*
X003929Y008823D01*
X004474Y008823D01*
X004474Y008988D01*
X004564Y008988D01*
X004560Y008989D01*
X004528Y009007D01*
X004502Y009034D01*
X004495Y009046D01*
X004474Y009046D01*
X004474Y009145D01*
X004474Y009268D01*
X004495Y009268D01*
X004502Y009280D01*
X004528Y009306D01*
X004560Y009324D01*
X004564Y009326D01*
X004474Y009326D01*
X004474Y009492D01*
X004483Y009528D01*
X004502Y009560D01*
X004528Y009586D01*
X004560Y009604D01*
X004595Y009614D01*
X004723Y009614D01*
X004723Y009326D01*
X004780Y009326D01*
X004780Y009614D01*
X004908Y009614D01*
X004943Y009604D01*
X004975Y009586D01*
X005001Y009560D01*
X005006Y009552D01*
X005068Y009614D01*
X005459Y009614D01*
X005541Y009532D01*
X005541Y008782D01*
X005487Y008727D01*
X005487Y008252D01*
X005523Y008216D02*
X005818Y008216D01*
X005717Y008177D02*
X005557Y008337D01*
X005557Y009477D01*
X005447Y009587D01*
X004737Y009587D01*
X003497Y009587D01*
X003407Y009497D01*
X003407Y009271D01*
X003412Y009267D01*
X003407Y009263D01*
X003407Y009067D01*
X003302Y008961D01*
X002947Y008961D01*
X003128Y008730D01*
X003128Y008486D01*
X003325Y008486D02*
X003327Y008489D01*
X003327Y008757D01*
X003407Y008837D01*
X003687Y008837D01*
X003923Y009073D01*
X003923Y009267D01*
X004201Y009236D02*
X004474Y009236D01*
X004474Y009158D02*
X004201Y009158D01*
X004201Y009079D02*
X004474Y009079D01*
X004540Y009001D02*
X004170Y009001D01*
X004028Y008922D02*
X004474Y008922D01*
X004474Y008844D02*
X003949Y008844D01*
X004201Y009315D02*
X004543Y009315D01*
X004474Y009393D02*
X004201Y009393D01*
X004201Y009472D02*
X004474Y009472D01*
X004496Y009550D02*
X004153Y009550D01*
X004269Y009786D02*
X004446Y009786D01*
X004769Y009786D02*
X004946Y009786D01*
X004780Y009550D02*
X004723Y009550D01*
X004723Y009472D02*
X004780Y009472D01*
X004780Y009393D02*
X004723Y009393D01*
X004752Y009297D02*
X004752Y009017D01*
X004747Y009063D01*
X004747Y008857D01*
X004909Y008695D01*
X004909Y008495D01*
X004900Y008486D02*
X004900Y008150D01*
X004900Y008486D01*
X004900Y008486D01*
X004900Y008451D02*
X004900Y008451D01*
X004900Y008373D02*
X004900Y008373D01*
X004900Y008294D02*
X004900Y008294D01*
X004900Y008216D02*
X004900Y008216D01*
X004900Y008150D02*
X004937Y008150D01*
X004937Y007961D01*
X004883Y007907D01*
X003652Y007907D01*
X003506Y008053D01*
X003506Y008150D01*
X004814Y008150D01*
X004817Y008153D01*
X004829Y008150D01*
X004900Y008150D01*
X004937Y008137D02*
X003506Y008137D01*
X003506Y008059D02*
X004937Y008059D01*
X004937Y007980D02*
X003578Y007980D01*
X003326Y007978D02*
X003326Y008177D01*
X002247Y008177D01*
X002187Y008237D01*
X002187Y008897D01*
X001787Y009297D01*
X001767Y009027D02*
X002017Y008777D01*
X002017Y007897D01*
X001877Y007757D01*
X001614Y007757D01*
X001613Y007758D01*
X001613Y007561D02*
X001283Y007561D01*
X001157Y007687D01*
X001157Y008227D01*
X001357Y008427D01*
X001357Y009027D02*
X001767Y009027D01*
X002341Y008794D02*
X002341Y008486D01*
X002341Y008794D02*
X002507Y008961D01*
X003265Y009629D02*
X005865Y009629D01*
X005943Y009707D02*
X003226Y009707D01*
X003269Y009786D02*
X003446Y009786D01*
X003440Y009550D02*
X003383Y009550D01*
X003383Y009472D02*
X003440Y009472D01*
X003440Y009393D02*
X003383Y009393D01*
X003383Y009315D02*
X003440Y009315D01*
X003440Y009238D02*
X003383Y009238D01*
X003383Y009017D01*
X003440Y009017D01*
X003440Y009238D01*
X003440Y009236D02*
X003383Y009236D01*
X003383Y009158D02*
X003440Y009158D01*
X003440Y009079D02*
X003383Y009079D01*
X003641Y009550D02*
X003694Y009550D01*
X003769Y009786D02*
X003946Y009786D01*
X004723Y009268D02*
X004723Y009046D01*
X004780Y009046D01*
X004780Y009268D01*
X004723Y009268D01*
X004723Y009236D02*
X004780Y009236D01*
X004780Y009158D02*
X004723Y009158D01*
X004723Y009079D02*
X004780Y009079D01*
X004780Y008988D02*
X004780Y008980D01*
X004780Y008823D01*
X004723Y008823D01*
X004723Y008988D01*
X004780Y008988D01*
X004780Y008922D02*
X004723Y008922D01*
X004723Y008844D02*
X004780Y008844D01*
X005106Y008695D02*
X005106Y008495D01*
X005097Y008486D02*
X005117Y008466D01*
X005117Y007887D01*
X004957Y007727D01*
X004947Y007727D01*
X005197Y007477D01*
X005197Y007107D01*
X005247Y006817D02*
X002617Y006817D01*
X001987Y006187D01*
X001616Y006187D01*
X001403Y006187D01*
X001193Y006397D01*
X000847Y006023D02*
X000884Y005986D01*
X001613Y005986D01*
X002258Y005986D01*
X003127Y005117D01*
X003127Y005707D01*
X003877Y006457D01*
X004807Y006457D01*
X004807Y005937D01*
X005197Y005547D01*
X005197Y004637D01*
X005017Y004457D01*
X004197Y004457D01*
X004113Y004372D01*
X004113Y004077D01*
X003916Y004077D02*
X003916Y003818D01*
X004027Y003707D01*
X004647Y003707D01*
X004747Y003607D01*
X004747Y003328D01*
X004741Y003322D01*
X004766Y003297D01*
X005047Y003297D01*
X005257Y003087D01*
X005257Y002843D01*
X005437Y003120D02*
X005437Y003161D01*
X005332Y003267D01*
X005227Y003371D01*
X005156Y003442D01*
X005156Y003616D01*
X005074Y003698D01*
X004911Y003698D01*
X004869Y003740D01*
X005337Y003740D01*
X005337Y003602D01*
X005717Y003222D01*
X005717Y002391D01*
X005575Y002248D01*
X005575Y002302D01*
X005286Y002302D01*
X005286Y002360D01*
X005575Y002360D01*
X005575Y002487D01*
X005565Y002523D01*
X005547Y002555D01*
X005521Y002581D01*
X005513Y002585D01*
X005575Y002647D01*
X005575Y003038D01*
X005493Y003120D01*
X005437Y003120D01*
X005500Y003113D02*
X005717Y003113D01*
X005657Y003157D02*
X005237Y003577D01*
X005367Y003447D01*
X005434Y003506D02*
X005156Y003506D01*
X005156Y003584D02*
X005355Y003584D01*
X005337Y003663D02*
X005110Y003663D01*
X005172Y003427D02*
X005512Y003427D01*
X005591Y003349D02*
X005250Y003349D01*
X005329Y003270D02*
X005669Y003270D01*
X005717Y003192D02*
X005407Y003192D01*
X005575Y003035D02*
X005717Y003035D01*
X005717Y002956D02*
X005575Y002956D01*
X005575Y002878D02*
X005717Y002878D01*
X005717Y002799D02*
X005575Y002799D01*
X005575Y002721D02*
X005717Y002721D01*
X005717Y002642D02*
X005570Y002642D01*
X005537Y002564D02*
X005717Y002564D01*
X005717Y002485D02*
X005575Y002485D01*
X005575Y002407D02*
X005717Y002407D01*
X005657Y002357D02*
X005657Y003157D01*
X005897Y003297D02*
X005517Y003677D01*
X005517Y005607D01*
X005207Y005917D01*
X004864Y005625D02*
X003307Y005625D01*
X003307Y005632D02*
X003952Y006277D01*
X004627Y006277D01*
X004627Y005862D01*
X004733Y005757D01*
X005017Y005472D01*
X005017Y004711D01*
X004943Y004637D01*
X004123Y004637D01*
X004017Y004531D01*
X003933Y004446D01*
X003933Y004414D01*
X003608Y004414D01*
X003605Y004411D01*
X003594Y004414D01*
X003522Y004414D01*
X003451Y004414D01*
X003439Y004411D01*
X003436Y004414D01*
X003307Y004414D01*
X003307Y005632D01*
X003307Y005547D02*
X004943Y005547D01*
X005017Y005468D02*
X003307Y005468D01*
X003307Y005390D02*
X005017Y005390D01*
X005017Y005311D02*
X003307Y005311D01*
X003307Y005233D02*
X005017Y005233D01*
X005017Y005154D02*
X003307Y005154D01*
X003307Y005076D02*
X005017Y005076D01*
X005017Y004997D02*
X003307Y004997D01*
X003307Y004919D02*
X005017Y004919D01*
X005017Y004840D02*
X003307Y004840D01*
X003307Y004762D02*
X005017Y004762D01*
X004989Y004683D02*
X003307Y004683D01*
X003307Y004605D02*
X004091Y004605D01*
X004012Y004526D02*
X003307Y004526D01*
X003307Y004448D02*
X003934Y004448D01*
X003522Y004414D02*
X003522Y004077D01*
X003522Y004414D01*
X003522Y004369D02*
X003522Y004369D01*
X003522Y004291D02*
X003522Y004291D01*
X003522Y004212D02*
X003522Y004212D01*
X003522Y004134D02*
X003522Y004134D01*
X003517Y004082D02*
X003517Y005147D01*
X003997Y005627D01*
X004737Y005627D01*
X004777Y005587D01*
X004786Y005704D02*
X003379Y005704D01*
X003458Y005782D02*
X004707Y005782D01*
X004629Y005861D02*
X003536Y005861D01*
X003615Y005939D02*
X004627Y005939D01*
X004627Y006018D02*
X003693Y006018D01*
X003772Y006096D02*
X004627Y006096D01*
X004627Y006175D02*
X003850Y006175D01*
X003929Y006253D02*
X004627Y006253D01*
X004807Y006457D02*
X005177Y006457D01*
X005197Y006477D01*
X005197Y006287D01*
X005695Y005790D01*
X006022Y005790D01*
X006319Y005790D01*
X006567Y005541D01*
X006863Y005541D01*
X007177Y005227D01*
X007177Y004827D01*
X007217Y004787D01*
X007357Y004427D02*
X006777Y004427D01*
X006467Y004737D01*
X006467Y005197D01*
X006268Y005396D01*
X006022Y005396D01*
X006022Y005199D02*
X006265Y005199D01*
X006327Y005137D01*
X006327Y004577D01*
X006687Y004217D01*
X006947Y004217D01*
X007147Y004017D01*
X007147Y003117D01*
X006577Y002647D02*
X006787Y002437D01*
X007137Y002437D01*
X007147Y002427D01*
X006717Y001987D02*
X007707Y001987D01*
X007867Y002147D01*
X007867Y002417D01*
X008220Y002250D02*
X008522Y002250D01*
X008512Y002273D02*
X008542Y002202D01*
X008585Y002138D01*
X008639Y002084D01*
X008703Y002041D01*
X008774Y002012D01*
X008847Y001997D01*
X008847Y002347D01*
X008498Y002347D01*
X008512Y002273D01*
X008501Y002328D02*
X008253Y002328D01*
X008257Y002339D02*
X008257Y002494D01*
X008198Y002638D01*
X008088Y002747D01*
X008030Y002772D01*
X008088Y002796D01*
X008198Y002906D01*
X008257Y003049D01*
X008257Y003204D01*
X008198Y003348D01*
X008088Y003457D01*
X008047Y003474D01*
X008047Y003578D01*
X008066Y003559D01*
X008600Y003559D01*
X008629Y003531D01*
X008629Y003067D01*
X008711Y002985D01*
X008727Y002985D01*
X008727Y002982D01*
X008935Y002775D01*
X008927Y002776D01*
X008927Y002427D01*
X008847Y002427D01*
X008847Y002347D01*
X008927Y002347D01*
X008927Y001997D01*
X009001Y002012D01*
X009072Y002041D01*
X009136Y002084D01*
X009190Y002138D01*
X009233Y002202D01*
X009262Y002273D01*
X009277Y002347D01*
X008927Y002347D01*
X008927Y002427D01*
X009277Y002427D01*
X009276Y002434D01*
X009513Y002197D01*
X010316Y002197D01*
X010319Y002189D01*
X010327Y002181D01*
X010033Y001887D01*
X009927Y001781D01*
X009927Y001780D01*
X009915Y001775D01*
X009857Y001717D01*
X009800Y001775D01*
X009675Y001827D01*
X009540Y001827D01*
X009415Y001775D01*
X009357Y001717D01*
X009300Y001775D01*
X009175Y001827D01*
X009040Y001827D01*
X008915Y001775D01*
X008857Y001717D01*
X008800Y001775D01*
X008675Y001827D01*
X008540Y001827D01*
X008415Y001775D01*
X008357Y001717D01*
X008300Y001775D01*
X008175Y001827D01*
X008040Y001827D01*
X007915Y001775D01*
X007857Y001717D01*
X007800Y001775D01*
X007723Y001807D01*
X007782Y001807D01*
X007942Y001967D01*
X008042Y002067D01*
X008088Y002086D01*
X008198Y002196D01*
X008257Y002339D01*
X008257Y002407D02*
X008847Y002407D01*
X008847Y002427D02*
X008498Y002427D01*
X008512Y002500D01*
X008542Y002571D01*
X008585Y002635D01*
X008639Y002690D01*
X008703Y002732D01*
X008774Y002762D01*
X008847Y002776D01*
X008847Y002427D01*
X008887Y002387D02*
X009147Y002127D01*
X010127Y002127D01*
X010239Y002093D02*
X009145Y002093D01*
X009213Y002171D02*
X010317Y002171D01*
X010160Y002014D02*
X009007Y002014D01*
X008927Y002014D02*
X008847Y002014D01*
X008847Y002093D02*
X008927Y002093D01*
X008927Y002171D02*
X008847Y002171D01*
X008847Y002250D02*
X008927Y002250D01*
X008927Y002328D02*
X008847Y002328D01*
X008887Y002387D02*
X008557Y002717D01*
X008557Y003357D01*
X008629Y003349D02*
X008197Y003349D01*
X008230Y003270D02*
X008629Y003270D01*
X008629Y003192D02*
X008257Y003192D01*
X008257Y003113D02*
X008629Y003113D01*
X008661Y003035D02*
X008251Y003035D01*
X008219Y002956D02*
X008753Y002956D01*
X008832Y002878D02*
X008170Y002878D01*
X008092Y002799D02*
X008910Y002799D01*
X008927Y002721D02*
X008847Y002721D01*
X008847Y002642D02*
X008927Y002642D01*
X008927Y002564D02*
X008847Y002564D01*
X008847Y002485D02*
X008927Y002485D01*
X008977Y002497D02*
X008887Y002387D01*
X008927Y002407D02*
X009303Y002407D01*
X009273Y002328D02*
X009381Y002328D01*
X009460Y002250D02*
X009253Y002250D01*
X009587Y002377D02*
X008907Y003057D01*
X008907Y003303D01*
X008907Y003302D01*
X008907Y003303D02*
X008907Y003507D01*
X009359Y003958D01*
X009359Y004559D01*
X009752Y004952D01*
X009474Y004928D02*
X009474Y005067D01*
X009432Y005067D01*
X009337Y004972D01*
X009337Y004903D01*
X009296Y004804D01*
X009220Y004728D01*
X009121Y004687D01*
X009014Y004687D01*
X008915Y004728D01*
X008839Y004804D01*
X008797Y004903D01*
X008797Y005010D01*
X008839Y005110D01*
X008865Y005136D01*
X008852Y005139D01*
X008820Y005157D01*
X008794Y005184D01*
X008789Y005191D01*
X008727Y005130D01*
X008716Y005130D01*
X008756Y005090D01*
X008797Y004990D01*
X008797Y004883D01*
X008756Y004784D01*
X008680Y004708D01*
X008674Y004705D01*
X008737Y004643D01*
X008737Y004409D01*
X008726Y004398D01*
X008737Y004387D01*
X008737Y004194D01*
X008815Y004194D01*
X008822Y004187D01*
X008891Y004187D01*
X008990Y004146D01*
X009066Y004070D01*
X009107Y003970D01*
X009107Y003961D01*
X009179Y004033D01*
X009179Y004634D01*
X009284Y004739D01*
X009284Y004739D01*
X009474Y004928D01*
X009464Y004919D02*
X009337Y004919D01*
X009363Y004997D02*
X009474Y004997D01*
X009386Y004840D02*
X009311Y004840D01*
X009307Y004762D02*
X009254Y004762D01*
X009229Y004683D02*
X008697Y004683D01*
X008734Y004762D02*
X008881Y004762D01*
X008823Y004840D02*
X008780Y004840D01*
X008787Y004807D02*
X008787Y005157D01*
X008807Y005177D01*
X008987Y005177D01*
X008987Y005187D01*
X009027Y005227D01*
X009027Y005441D01*
X009043Y005447D01*
X009457Y005447D01*
X009567Y005557D01*
X009567Y005891D01*
X009862Y005891D01*
X009957Y005987D01*
X009957Y006581D01*
X009627Y006911D01*
X009487Y007051D01*
X009377Y007051D01*
X009372Y007057D01*
X009127Y007057D01*
X009087Y007097D01*
X009087Y007317D01*
X008447Y007957D01*
X008827Y008337D01*
X008967Y008337D01*
X008990Y008359D01*
X009109Y008359D01*
X009237Y008487D01*
X009237Y008787D01*
X009347Y008897D01*
X009347Y009137D01*
X009397Y009187D01*
X010497Y009187D01*
X010507Y009177D01*
X010507Y008991D01*
X010522Y008977D01*
X010687Y008647D02*
X010337Y008647D01*
X010133Y008851D01*
X010133Y008887D01*
X010007Y008443D02*
X009622Y008828D01*
X009622Y008887D01*
X009357Y009136D02*
X009357Y009197D01*
X009419Y009197D01*
X009357Y009136D01*
X009357Y009158D02*
X009380Y009158D01*
X009177Y009307D02*
X009247Y009377D01*
X010657Y009377D01*
X011033Y008977D02*
X011033Y008833D01*
X010767Y008567D01*
X010767Y008287D01*
X010857Y008277D01*
X010767Y008567D02*
X010687Y008647D01*
X010007Y007963D02*
X009547Y008423D01*
X009492Y008367D01*
X009347Y008367D01*
X009142Y008162D01*
X008990Y008162D01*
X008992Y008357D02*
X008990Y008359D01*
X008802Y008359D02*
X008802Y008359D01*
X008802Y008359D01*
X008723Y008359D01*
X008723Y008375D01*
X008579Y008375D01*
X008579Y008202D01*
X008282Y008202D01*
X008282Y008122D01*
X008282Y007825D01*
X008458Y007825D01*
X008493Y007834D01*
X008525Y007853D01*
X008551Y007879D01*
X008570Y007911D01*
X008579Y007946D01*
X008579Y008122D01*
X008282Y008122D01*
X008202Y008122D01*
X008202Y007825D01*
X008134Y007825D01*
X008227Y007731D01*
X008227Y007682D01*
X008242Y007682D01*
X008242Y007602D01*
X008242Y007602D01*
X008242Y007602D01*
X008242Y007682D01*
X008320Y007682D01*
X008322Y007681D01*
X008322Y007682D01*
X008723Y007682D01*
X008723Y008279D01*
X008723Y008279D01*
X008723Y008281D01*
X008723Y008359D01*
X008802Y008359D01*
X008723Y008373D02*
X008579Y008373D01*
X008579Y008294D02*
X008723Y008294D01*
X008723Y008216D02*
X008579Y008216D01*
X008579Y008059D02*
X008723Y008059D01*
X008723Y008137D02*
X008282Y008137D01*
X008247Y008117D02*
X008242Y008162D01*
X008447Y007957D01*
X008565Y007902D02*
X008723Y007902D01*
X008723Y007980D02*
X008579Y007980D01*
X008723Y007823D02*
X008135Y007823D01*
X008202Y007902D02*
X008282Y007902D01*
X008247Y007897D02*
X008247Y007417D01*
X008242Y007414D01*
X008427Y007401D02*
X008427Y007152D01*
X008292Y007017D01*
X008636Y007184D02*
X008636Y007414D01*
X008835Y007431D02*
X008919Y007431D01*
X008963Y007387D02*
X008857Y007492D01*
X008835Y007514D01*
X008835Y007334D01*
X008999Y007334D01*
X009077Y007256D01*
X009088Y007275D01*
X009114Y007301D01*
X009122Y007305D01*
X009060Y007367D01*
X009060Y007387D01*
X008963Y007387D01*
X009075Y007352D02*
X008835Y007352D01*
X008835Y007509D02*
X008840Y007509D01*
X008990Y007614D02*
X009037Y007567D01*
X009373Y007567D01*
X009377Y007563D01*
X009487Y007563D01*
X009627Y007423D01*
X009959Y007091D01*
X010057Y007071D01*
X009945Y006793D02*
X010187Y006793D01*
X010187Y005427D01*
X009283Y005427D01*
X009274Y005418D01*
X009072Y005418D01*
X009072Y005227D01*
X009014Y005227D01*
X009014Y005418D01*
X009072Y005418D01*
X009072Y005476D01*
X009321Y005476D01*
X009321Y005535D01*
X009374Y005535D01*
X009452Y005613D01*
X009539Y005613D01*
X009539Y005862D01*
X009596Y005862D01*
X009596Y005613D01*
X009763Y005613D01*
X009799Y005623D01*
X009831Y005641D01*
X009857Y005667D01*
X009875Y005699D01*
X009885Y005735D01*
X009885Y005862D01*
X009596Y005862D01*
X009596Y005920D01*
X009885Y005920D01*
X009885Y006047D01*
X009875Y006083D01*
X009857Y006115D01*
X009831Y006141D01*
X009823Y006145D01*
X009885Y006207D01*
X009885Y006598D01*
X009844Y006639D01*
X009859Y006643D01*
X009891Y006661D01*
X009917Y006687D01*
X009935Y006719D01*
X009945Y006755D01*
X009945Y006793D01*
X009936Y006724D02*
X010187Y006724D01*
X010187Y006646D02*
X009864Y006646D01*
X009885Y006567D02*
X010187Y006567D01*
X010187Y006489D02*
X009885Y006489D01*
X009885Y006410D02*
X010187Y006410D01*
X010187Y006332D02*
X009885Y006332D01*
X009885Y006253D02*
X010187Y006253D01*
X010187Y006175D02*
X009853Y006175D01*
X009867Y006096D02*
X010187Y006096D01*
X010187Y006018D02*
X009885Y006018D01*
X009885Y005939D02*
X010187Y005939D01*
X010187Y005861D02*
X009885Y005861D01*
X009885Y005782D02*
X010187Y005782D01*
X010187Y005704D02*
X009876Y005704D01*
X009803Y005625D02*
X010187Y005625D01*
X010187Y005547D02*
X009386Y005547D01*
X009539Y005625D02*
X009596Y005625D01*
X009596Y005704D02*
X009539Y005704D01*
X009539Y005782D02*
X009596Y005782D01*
X009596Y005861D02*
X009539Y005861D01*
X009072Y005468D02*
X010187Y005468D01*
X010177Y005247D02*
X010267Y005157D01*
X010267Y004956D01*
X010263Y004952D01*
X010268Y004947D01*
X010687Y004947D01*
X011027Y004587D01*
X011027Y003257D01*
X010672Y002882D01*
X010607Y002882D01*
X010438Y003051D01*
X010438Y003452D01*
X010187Y003127D02*
X009847Y002787D01*
X009847Y002607D01*
X009587Y002377D02*
X010602Y002377D01*
X010607Y002382D01*
X010607Y002207D01*
X010107Y001707D01*
X010107Y001487D01*
X009884Y001229D02*
X009831Y001229D01*
X009685Y001151D02*
X010030Y001151D01*
X010185Y001151D02*
X010530Y001151D01*
X010685Y001151D02*
X011337Y001151D01*
X011337Y001229D02*
X010831Y001229D01*
X010901Y001308D02*
X011337Y001308D01*
X011337Y001386D02*
X010934Y001386D01*
X010947Y001465D02*
X011337Y001465D01*
X011337Y001543D02*
X010947Y001543D01*
X010920Y001622D02*
X011337Y001622D01*
X011337Y001700D02*
X010875Y001700D01*
X010791Y001779D02*
X011337Y001779D01*
X011337Y001857D02*
X010513Y001857D01*
X010591Y001936D02*
X011337Y001936D01*
X011337Y002014D02*
X010670Y002014D01*
X010798Y002093D02*
X011337Y002093D01*
X011337Y002171D02*
X010878Y002171D01*
X010921Y002250D02*
X011337Y002250D01*
X011337Y002328D02*
X010947Y002328D01*
X010947Y002407D02*
X011337Y002407D01*
X011337Y002485D02*
X010933Y002485D01*
X010900Y002564D02*
X011337Y002564D01*
X011337Y002642D02*
X010849Y002642D01*
X010909Y002721D02*
X011337Y002721D01*
X011337Y002799D02*
X010941Y002799D01*
X010947Y002878D02*
X011337Y002878D01*
X011337Y002956D02*
X010991Y002956D01*
X011065Y003035D02*
X011337Y003035D01*
X011337Y003113D02*
X011139Y003113D01*
X011209Y003192D02*
X011337Y003192D01*
X011337Y003270D02*
X011207Y003270D01*
X011207Y003349D02*
X011337Y003349D01*
X011337Y003427D02*
X011207Y003427D01*
X011207Y003506D02*
X011337Y003506D01*
X011337Y003584D02*
X011207Y003584D01*
X011207Y003663D02*
X011337Y003663D01*
X011337Y003741D02*
X011207Y003741D01*
X011207Y003820D02*
X011337Y003820D01*
X011337Y003898D02*
X011207Y003898D01*
X011207Y003977D02*
X011337Y003977D01*
X011337Y004055D02*
X011207Y004055D01*
X011207Y004134D02*
X011337Y004134D01*
X011337Y004212D02*
X011207Y004212D01*
X011207Y004291D02*
X011337Y004291D01*
X011337Y004369D02*
X011207Y004369D01*
X011207Y004448D02*
X011337Y004448D01*
X011337Y004526D02*
X011207Y004526D01*
X011208Y004605D02*
X011337Y004605D01*
X011337Y004683D02*
X011185Y004683D01*
X011110Y004762D02*
X011337Y004762D01*
X011337Y004840D02*
X011036Y004840D01*
X010961Y004919D02*
X011337Y004919D01*
X011337Y004997D02*
X010887Y004997D01*
X010813Y005076D02*
X011337Y005076D01*
X011337Y005154D02*
X010541Y005154D01*
X010495Y005233D02*
X011337Y005233D01*
X011337Y005311D02*
X010367Y005311D01*
X010177Y005247D02*
X009357Y005247D01*
X009067Y004957D01*
X008825Y005076D02*
X008762Y005076D01*
X008752Y005154D02*
X008825Y005154D01*
X008787Y005157D02*
X008767Y005177D01*
X008357Y005177D01*
X008157Y005377D01*
X008072Y005377D01*
X007417Y006031D01*
X007197Y006031D01*
X006977Y005811D01*
X006736Y006053D01*
X006567Y006053D01*
X006501Y005986D01*
X006022Y005986D01*
X006015Y005797D02*
X006022Y005790D01*
X006019Y005787D01*
X006022Y006183D02*
X005581Y006183D01*
X005427Y006337D01*
X005427Y006637D01*
X005247Y006817D01*
X006022Y006577D02*
X006678Y006577D01*
X007017Y006917D01*
X007617Y006917D01*
X007847Y007147D01*
X007847Y007412D01*
X007849Y007414D01*
X008046Y007414D02*
X008047Y007415D01*
X008047Y007657D01*
X007827Y007877D01*
X007827Y008437D01*
X007946Y008555D01*
X008990Y008555D01*
X009037Y008602D01*
X009037Y008837D01*
X009177Y008977D01*
X009177Y009307D01*
X008927Y009263D02*
X008927Y009027D01*
X008810Y008910D01*
X008636Y008910D01*
X008439Y008910D02*
X008439Y009239D01*
X008412Y009277D01*
X008440Y009306D02*
X008440Y009567D01*
X008383Y009567D01*
X008383Y009306D01*
X008440Y009306D01*
X008440Y009315D02*
X008383Y009315D01*
X008383Y009248D02*
X008440Y009248D01*
X008440Y009178D01*
X008439Y009178D01*
X008383Y009178D01*
X008383Y009248D01*
X008383Y009236D02*
X008440Y009236D01*
X008439Y009178D02*
X008439Y009098D01*
X008439Y009098D01*
X008439Y009098D01*
X008439Y009178D01*
X008439Y009158D02*
X008439Y009158D01*
X008440Y009393D02*
X008383Y009393D01*
X008383Y009472D02*
X008440Y009472D01*
X008440Y009550D02*
X008383Y009550D01*
X008023Y009277D02*
X008046Y009244D01*
X008046Y008910D01*
X008237Y008905D02*
X008237Y008647D01*
X008329Y008555D01*
X008990Y008555D01*
X009027Y008557D01*
X008990Y007965D02*
X009493Y007965D01*
X009547Y007911D01*
X009772Y007687D01*
X009827Y007687D01*
X009912Y007603D01*
X010057Y007583D01*
X010007Y007931D02*
X010007Y007963D01*
X009088Y007274D02*
X009059Y007274D01*
X009081Y007080D02*
X009081Y007022D01*
X009310Y007022D01*
X009310Y007067D01*
X009314Y007080D01*
X009081Y007080D01*
X009081Y007038D02*
X009310Y007038D01*
X008803Y007017D02*
X008803Y006779D01*
X009041Y006542D01*
X008803Y007017D02*
X008636Y007184D01*
X008990Y007614D02*
X008990Y007768D01*
X008723Y007745D02*
X008214Y007745D01*
X008242Y007666D02*
X008242Y007666D01*
X008247Y007897D02*
X008247Y008117D01*
X008282Y008059D02*
X008202Y008059D01*
X008202Y007980D02*
X008282Y007980D01*
X007527Y007457D02*
X007287Y007217D01*
X007067Y007217D01*
X006757Y006907D01*
X006437Y006907D01*
X006977Y006457D02*
X007067Y006547D01*
X007413Y006547D01*
X007417Y006543D01*
X006977Y006457D02*
X006977Y006323D01*
X006972Y006317D01*
X006377Y006317D01*
X006244Y006183D01*
X006022Y006183D01*
X006973Y005807D02*
X006977Y005811D01*
X007377Y005647D02*
X007507Y005647D01*
X007917Y005237D01*
X008087Y005237D01*
X008337Y004987D01*
X008477Y004987D01*
X008527Y004937D01*
X008327Y004807D02*
X008327Y004559D01*
X008361Y004526D01*
X008361Y004270D02*
X008074Y004270D01*
X007937Y004407D01*
X007937Y004847D01*
X007947Y004857D01*
X008057Y005077D02*
X007777Y005077D01*
X007647Y005157D01*
X008057Y005077D02*
X008327Y004807D01*
X008737Y004605D02*
X009179Y004605D01*
X009179Y004526D02*
X008737Y004526D01*
X008737Y004448D02*
X009179Y004448D01*
X009179Y004369D02*
X008737Y004369D01*
X008737Y004291D02*
X009179Y004291D01*
X009179Y004212D02*
X008737Y004212D01*
X008740Y004014D02*
X008361Y004014D01*
X008361Y003758D02*
X008656Y003758D01*
X008907Y003507D01*
X008629Y003506D02*
X008047Y003506D01*
X008118Y003427D02*
X008629Y003427D01*
X008837Y003917D02*
X008740Y004014D01*
X009002Y004134D02*
X009179Y004134D01*
X009179Y004055D02*
X009072Y004055D01*
X009105Y003977D02*
X009123Y003977D01*
X008997Y004247D02*
X008997Y004597D01*
X008787Y004807D01*
X008797Y004919D02*
X008797Y004919D01*
X008795Y004997D02*
X008797Y004997D01*
X009014Y005233D02*
X009072Y005233D01*
X009072Y005311D02*
X009014Y005311D01*
X009014Y005390D02*
X009072Y005390D01*
X010025Y004527D02*
X010024Y004526D01*
X010025Y004527D02*
X010037Y004527D01*
X010257Y004747D01*
X010257Y004946D01*
X010263Y004952D01*
X010508Y004368D02*
X010497Y004357D01*
X010727Y004357D01*
X010737Y004368D01*
X010512Y004368D02*
X010415Y004270D01*
X010024Y004270D01*
X010024Y004014D02*
X010354Y004014D01*
X010512Y003856D01*
X010737Y003856D01*
X010512Y004368D02*
X010508Y004368D01*
X010024Y003758D02*
X010024Y003549D01*
X009927Y003452D01*
X009782Y003452D01*
X009627Y003297D01*
X009423Y003297D01*
X009418Y003302D01*
X008685Y002721D02*
X008115Y002721D01*
X008193Y002642D02*
X008591Y002642D01*
X008539Y002564D02*
X008229Y002564D01*
X008257Y002485D02*
X008509Y002485D01*
X008562Y002171D02*
X008173Y002171D01*
X008095Y002093D02*
X008630Y002093D01*
X008768Y002014D02*
X007990Y002014D01*
X007911Y001936D02*
X010082Y001936D01*
X010003Y001857D02*
X007833Y001857D01*
X007791Y001779D02*
X007924Y001779D01*
X008291Y001779D02*
X008424Y001779D01*
X008791Y001779D02*
X008924Y001779D01*
X009291Y001779D02*
X009424Y001779D01*
X009791Y001779D02*
X009924Y001779D01*
X010331Y001229D02*
X010384Y001229D01*
X009530Y001151D02*
X009185Y001151D01*
X009030Y001151D02*
X008685Y001151D01*
X008530Y001151D02*
X008185Y001151D01*
X008030Y001151D02*
X007685Y001151D01*
X007530Y001151D02*
X007185Y001151D01*
X007030Y001151D02*
X006685Y001151D01*
X006831Y001229D02*
X006884Y001229D01*
X006530Y001151D02*
X006185Y001151D01*
X006331Y001229D02*
X006384Y001229D01*
X006030Y001151D02*
X005685Y001151D01*
X005831Y001229D02*
X005884Y001229D01*
X005530Y001151D02*
X005185Y001151D01*
X005030Y001151D02*
X004685Y001151D01*
X004530Y001151D02*
X004185Y001151D01*
X004030Y001151D02*
X003685Y001151D01*
X003530Y001151D02*
X003185Y001151D01*
X003030Y001151D02*
X002685Y001151D01*
X002831Y001229D02*
X002884Y001229D01*
X002530Y001151D02*
X002185Y001151D01*
X002331Y001229D02*
X002384Y001229D01*
X002030Y001151D02*
X001685Y001151D01*
X001530Y001151D02*
X001185Y001151D01*
X001030Y001151D02*
X000437Y001151D01*
X000437Y001229D02*
X000884Y001229D01*
X000814Y001308D02*
X000437Y001308D01*
X000437Y001386D02*
X000781Y001386D01*
X000767Y001465D02*
X000437Y001465D01*
X000437Y001543D02*
X000767Y001543D01*
X000795Y001622D02*
X000437Y001622D01*
X000437Y001700D02*
X000840Y001700D01*
X000924Y001779D02*
X000437Y001779D01*
X000437Y001857D02*
X000862Y001857D01*
X000784Y001936D02*
X000437Y001936D01*
X000437Y002014D02*
X000707Y002014D01*
X000707Y002093D02*
X000437Y002093D01*
X000437Y002171D02*
X000707Y002171D01*
X000707Y002250D02*
X000437Y002250D01*
X000437Y002328D02*
X000707Y002328D01*
X000707Y002407D02*
X000437Y002407D01*
X000437Y002485D02*
X000707Y002485D01*
X000707Y002564D02*
X000437Y002564D01*
X000437Y002642D02*
X000707Y002642D01*
X000707Y002721D02*
X000437Y002721D01*
X000437Y002799D02*
X000707Y002799D01*
X000707Y002878D02*
X000437Y002878D01*
X000437Y002956D02*
X000707Y002956D01*
X000707Y003035D02*
X000437Y003035D01*
X000437Y003113D02*
X000707Y003113D01*
X000707Y003192D02*
X000437Y003192D01*
X000437Y003270D02*
X000707Y003270D01*
X000707Y003349D02*
X000437Y003349D01*
X000437Y003427D02*
X000707Y003427D01*
X000707Y003506D02*
X000437Y003506D01*
X000437Y003584D02*
X000707Y003584D01*
X000707Y003663D02*
X000437Y003663D01*
X000437Y003741D02*
X000707Y003741D01*
X000707Y003820D02*
X000437Y003820D01*
X000437Y003898D02*
X000707Y003898D01*
X000653Y003977D02*
X000437Y003977D01*
X000437Y004055D02*
X000621Y004055D01*
X000617Y004134D02*
X000437Y004134D01*
X000437Y004212D02*
X000635Y004212D01*
X000680Y004291D02*
X000437Y004291D01*
X000437Y004369D02*
X000792Y004369D01*
X000983Y004369D02*
X002185Y004369D01*
X002148Y004332D02*
X002230Y004414D01*
X002452Y004414D01*
X002455Y004411D01*
X002466Y004414D01*
X002538Y004414D01*
X002538Y004077D01*
X002538Y004077D01*
X002538Y004077D01*
X002542Y004077D01*
X002735Y004077D01*
X002735Y004414D01*
X002663Y004414D01*
X002636Y004407D01*
X002610Y004414D01*
X002538Y004414D01*
X002538Y004077D01*
X002537Y004076D01*
X002538Y004077D02*
X002538Y004077D01*
X002538Y004616D01*
X002349Y004805D01*
X001613Y004805D01*
X002096Y004805D01*
X002097Y004807D01*
X002097Y005607D01*
X001907Y005797D01*
X001620Y005797D01*
X001613Y005790D01*
X001126Y005790D01*
X000847Y005511D01*
X000593Y005511D01*
X000547Y005557D01*
X000530Y005468D02*
X000437Y005468D01*
X000437Y005390D02*
X000530Y005390D01*
X000544Y005311D02*
X000437Y005311D01*
X000437Y005233D02*
X000888Y005233D01*
X000887Y005154D02*
X000437Y005154D01*
X000437Y005076D02*
X000907Y005076D01*
X000946Y004997D02*
X000437Y004997D01*
X000437Y004919D02*
X000909Y004919D01*
X000897Y004840D02*
X000437Y004840D01*
X000437Y004762D02*
X000906Y004762D01*
X000939Y004683D02*
X000437Y004683D01*
X000437Y004605D02*
X001022Y004605D01*
X001167Y004837D02*
X001333Y005002D01*
X001613Y005002D01*
X001613Y005199D02*
X001180Y005199D01*
X001157Y005177D01*
X001368Y005396D02*
X001227Y005517D01*
X001368Y005396D02*
X001613Y005396D01*
X001950Y005390D02*
X002600Y005390D01*
X002521Y005468D02*
X001950Y005468D01*
X001950Y005547D02*
X002443Y005547D01*
X002364Y005625D02*
X001950Y005625D01*
X001950Y005704D02*
X002286Y005704D01*
X002207Y005782D02*
X001950Y005782D01*
X001613Y005790D02*
X001610Y005787D01*
X001613Y005790D02*
X001276Y005790D01*
X001613Y005790D01*
X001613Y005790D01*
X001276Y005790D02*
X001276Y005787D01*
X001174Y005787D01*
X001111Y005761D01*
X001111Y005761D01*
X001103Y005765D01*
X001144Y005806D01*
X001276Y005806D01*
X001276Y005790D01*
X001163Y005782D02*
X001120Y005782D01*
X000876Y005468D02*
X000819Y005468D01*
X000819Y005390D02*
X000876Y005390D01*
X000876Y005311D02*
X000819Y005311D01*
X001313Y004605D02*
X002947Y004605D01*
X002947Y004683D02*
X001931Y004683D01*
X001950Y004762D02*
X002947Y004762D01*
X002947Y004840D02*
X001950Y004840D01*
X001950Y004919D02*
X002947Y004919D01*
X002947Y004997D02*
X001950Y004997D01*
X001950Y005076D02*
X002914Y005076D01*
X002835Y005154D02*
X001950Y005154D01*
X001950Y005233D02*
X002757Y005233D01*
X002678Y005311D02*
X001950Y005311D01*
X001613Y004762D02*
X001613Y004762D01*
X001613Y004683D02*
X001613Y004683D01*
X001140Y004212D02*
X002148Y004212D01*
X002148Y004134D02*
X001157Y004134D01*
X001154Y004055D02*
X002148Y004055D01*
X002148Y003977D02*
X001122Y003977D01*
X001067Y003898D02*
X002148Y003898D01*
X002150Y003820D02*
X001067Y003820D01*
X000437Y004448D02*
X002947Y004448D01*
X002947Y004526D02*
X000437Y004526D01*
X001837Y003577D02*
X001837Y002537D01*
X002157Y002217D01*
X003657Y002217D01*
X005517Y002217D01*
X005657Y002357D01*
X005654Y002328D02*
X005286Y002328D01*
X005257Y002331D02*
X005243Y002317D01*
X005197Y002317D01*
X005107Y002227D01*
X003667Y002227D01*
X003657Y002217D01*
X003667Y002227D02*
X003567Y002227D01*
X003473Y002321D01*
X003397Y002321D01*
X003426Y002328D02*
X003568Y002328D01*
X003580Y002315D02*
X003546Y002350D01*
X003426Y002350D01*
X003426Y002292D01*
X003715Y002292D01*
X003715Y002177D01*
X004940Y002177D01*
X004940Y002302D01*
X005229Y002302D01*
X005229Y002360D01*
X005119Y002360D01*
X005074Y002315D01*
X004407Y002315D01*
X004327Y002395D01*
X004248Y002315D01*
X003580Y002315D01*
X003715Y002250D02*
X004940Y002250D01*
X005087Y002328D02*
X005229Y002328D01*
X005575Y002250D02*
X005576Y002250D01*
X005577Y001997D02*
X005897Y002317D01*
X005897Y003297D01*
X006067Y003497D02*
X005787Y003777D01*
X005847Y003717D01*
X006067Y003497D02*
X006067Y002247D01*
X005627Y001807D01*
X001167Y001807D01*
X001487Y002087D02*
X001577Y001997D01*
X005577Y001997D01*
X006367Y002337D02*
X006717Y001987D01*
X006367Y002337D02*
X006367Y003687D01*
X005697Y004357D01*
X005697Y004927D01*
X005773Y005002D01*
X006022Y005002D01*
X006022Y004805D02*
X006022Y004322D01*
X006577Y003767D01*
X006577Y002647D01*
X007867Y003127D02*
X007867Y003917D01*
X007357Y004427D01*
X004395Y002328D02*
X004260Y002328D01*
X003914Y002692D02*
X003773Y002833D01*
X003397Y002833D01*
X003517Y002953D01*
X003517Y003627D01*
X003719Y003828D01*
X003719Y004077D01*
X003522Y004077D02*
X003522Y004077D01*
X003517Y004082D01*
X003325Y004077D02*
X003325Y003409D01*
X003253Y003337D01*
X003247Y003331D01*
X003247Y003127D01*
X002857Y002737D01*
X002857Y002577D01*
X002652Y002881D02*
X002737Y002967D01*
X002737Y003333D01*
X002742Y003337D01*
X002737Y003341D01*
X002737Y003587D01*
X002797Y003647D01*
X003077Y003647D01*
X003128Y003698D01*
X003128Y004077D01*
X003127Y004078D01*
X003127Y005117D01*
X002735Y004369D02*
X002735Y004369D01*
X002735Y004291D02*
X002735Y004291D01*
X002735Y004212D02*
X002735Y004212D01*
X002735Y004134D02*
X002735Y004134D01*
X002735Y004077D02*
X002735Y004077D01*
X002538Y004077D02*
X002538Y003740D01*
X002538Y004077D01*
X002538Y004055D02*
X002538Y004055D01*
X002538Y003977D02*
X002538Y003977D01*
X002538Y003898D02*
X002538Y003898D01*
X002538Y003820D02*
X002538Y003820D01*
X002538Y003741D02*
X002538Y003741D01*
X002614Y003741D02*
X002637Y003741D01*
X002559Y003663D02*
X002542Y003663D01*
X002462Y003741D02*
X002453Y003741D01*
X002377Y003757D02*
X002017Y003757D01*
X001837Y003577D01*
X002289Y003584D02*
X002346Y003584D01*
X002346Y003506D02*
X002289Y003506D01*
X002289Y003427D02*
X002346Y003427D01*
X002317Y003393D02*
X002317Y003697D01*
X002538Y004134D02*
X002538Y004134D01*
X002538Y004212D02*
X002538Y004212D01*
X002538Y004291D02*
X002538Y004291D01*
X002538Y004369D02*
X002538Y004369D01*
X002652Y002881D02*
X002317Y002881D01*
X002467Y002564D02*
X001597Y002564D01*
X001701Y002485D02*
X002473Y002485D01*
X002506Y002407D02*
X001742Y002407D01*
X001757Y002328D02*
X002554Y002328D01*
X002633Y002250D02*
X001752Y002250D01*
X001487Y002317D02*
X001487Y002087D01*
X001384Y001229D02*
X001331Y001229D01*
X001831Y001229D02*
X001884Y001229D01*
X003331Y001229D02*
X003384Y001229D01*
X003831Y001229D02*
X003884Y001229D01*
X004331Y001229D02*
X004384Y001229D01*
X004831Y001229D02*
X004884Y001229D01*
X005331Y001229D02*
X005384Y001229D01*
X003914Y002692D02*
X003891Y002715D01*
X007331Y001229D02*
X007384Y001229D01*
X007831Y001229D02*
X007884Y001229D01*
X008331Y001229D02*
X008384Y001229D01*
X008831Y001229D02*
X008884Y001229D01*
X009331Y001229D02*
X009384Y001229D01*
X011337Y001072D02*
X000437Y001072D01*
X000437Y000994D02*
X011337Y000994D01*
X004947Y007727D02*
X003577Y007727D01*
X003326Y007978D01*
X003326Y008177D02*
X003326Y008487D01*
X005106Y008695D02*
X005267Y008857D01*
X005267Y009063D01*
X005263Y009017D01*
X005263Y009297D01*
X005541Y009315D02*
X005737Y009315D01*
X005737Y009393D02*
X005541Y009393D01*
X005541Y009472D02*
X005737Y009472D01*
X005786Y009550D02*
X005523Y009550D01*
X005446Y009786D02*
X005269Y009786D01*
X005769Y009786D02*
X005946Y009786D01*
X006217Y009472D02*
X007234Y009472D01*
X007234Y009306D01*
X007483Y009306D01*
X007483Y009248D01*
X007540Y009248D01*
X007540Y008960D01*
X007650Y008960D01*
X007650Y008910D01*
X007847Y008910D01*
X007847Y008910D01*
X007650Y008910D01*
X007650Y008763D01*
X007652Y008754D01*
X007308Y008754D01*
X007291Y008737D01*
X006703Y008737D01*
X006597Y008631D01*
X006173Y008207D01*
X005995Y008207D01*
X006070Y008238D01*
X006146Y008314D01*
X006187Y008413D01*
X006187Y008520D01*
X006146Y008620D01*
X006097Y008669D01*
X006097Y009352D01*
X006312Y009567D01*
X007289Y009567D01*
X007288Y009566D01*
X007262Y009540D01*
X007243Y009508D01*
X007234Y009472D01*
X007234Y009393D02*
X006139Y009393D01*
X006097Y009315D02*
X007234Y009315D01*
X007234Y009248D02*
X007234Y009081D01*
X007243Y009045D01*
X007262Y009014D01*
X007288Y008987D01*
X007320Y008969D01*
X007355Y008960D01*
X007483Y008960D01*
X007483Y009248D01*
X007234Y009248D01*
X007234Y009236D02*
X006097Y009236D01*
X006097Y009158D02*
X007234Y009158D01*
X007234Y009079D02*
X006097Y009079D01*
X006097Y009001D02*
X007275Y009001D01*
X007483Y009001D02*
X007540Y009001D01*
X007540Y009079D02*
X007483Y009079D01*
X007483Y009158D02*
X007540Y009158D01*
X007540Y009236D02*
X007483Y009236D01*
X007512Y009277D02*
X007512Y008923D01*
X007557Y008877D01*
X007827Y008877D01*
X007849Y008910D01*
X007650Y008922D02*
X006097Y008922D01*
X006097Y008844D02*
X007650Y008844D01*
X007650Y008765D02*
X006097Y008765D01*
X006097Y008687D02*
X006653Y008687D01*
X006574Y008608D02*
X006151Y008608D01*
X006184Y008530D02*
X006496Y008530D01*
X006417Y008451D02*
X006187Y008451D01*
X006171Y008373D02*
X006339Y008373D01*
X006272Y008442D02*
X006707Y008877D01*
X007557Y008877D01*
X007493Y008557D02*
X007494Y008555D01*
X007493Y008557D02*
X006777Y008557D01*
X006247Y008027D01*
X005457Y008027D01*
X005294Y008190D01*
X005294Y008486D01*
X005487Y008451D02*
X005647Y008451D01*
X005651Y008530D02*
X005487Y008530D01*
X005487Y008608D02*
X005684Y008608D01*
X005737Y008687D02*
X005487Y008687D01*
X005525Y008765D02*
X005737Y008765D01*
X005737Y008844D02*
X005541Y008844D01*
X005541Y008922D02*
X005737Y008922D01*
X005737Y009001D02*
X005541Y009001D01*
X005541Y009079D02*
X005737Y009079D01*
X005737Y009158D02*
X005541Y009158D01*
X005541Y009236D02*
X005737Y009236D01*
X006296Y009550D02*
X007272Y009550D01*
X008237Y008905D02*
X008242Y008910D01*
X008927Y009263D02*
X008923Y009277D01*
X007494Y007965D02*
X007176Y007965D01*
X007147Y007937D01*
X006260Y008294D02*
X006127Y008294D01*
X006182Y008216D02*
X006017Y008216D01*
X006007Y008177D02*
X005717Y008177D01*
X005664Y008373D02*
X005487Y008373D01*
X006007Y008177D02*
X006272Y008442D01*
X001616Y006187D02*
X001613Y006183D01*
=======
X007188Y006243D03*
X007188Y005731D03*
X002718Y008961D03*
X002718Y009473D03*
>>>>>>> parent of c675796... Revert "fixed analog input connection"
D24*
X001227Y005517D03*
X001157Y005177D03*
X001167Y004837D03*
X000887Y004117D03*
X001487Y002317D03*
X004777Y005587D03*
X005207Y005917D03*
X005197Y006477D03*
X005197Y007107D03*
X006437Y006907D03*
X006557Y007577D03*
X006547Y007967D03*
X006272Y008442D03*
X005917Y008467D03*
X007147Y007937D03*
X007157Y007607D03*
X007527Y007457D03*
X008247Y007897D03*
X007377Y005647D03*
X007647Y005157D03*
X007947Y004857D03*
X008527Y004937D03*
X009067Y004957D03*
X008997Y004247D03*
X008837Y003917D03*
X008557Y003357D03*
X009687Y003987D03*
X010187Y003127D03*
X009847Y002607D03*
X010127Y002127D03*
X007217Y004787D03*
X005787Y003777D03*
X005237Y003577D03*
X001787Y009297D03*
X009877Y010457D03*
X010657Y009377D03*
D25*
<<<<<<< HEAD
X000877Y006927D03*
=======
X002998Y003695D02*
X002999Y003697D01*
X002999Y003795D01*
X002948Y003847D01*
X002948Y004074D01*
X002945Y004077D01*
X003339Y004077D02*
X003339Y003715D01*
X003357Y003697D01*
X003196Y003697D01*
X003536Y003719D02*
X003558Y003697D01*
X003536Y003719D02*
X003536Y004077D01*
X001358Y005758D02*
X001128Y005758D01*
X003339Y008486D02*
X003339Y008487D01*
X003536Y008487D02*
X003536Y008486D01*
X005111Y008486D02*
X005119Y008495D01*
X005307Y008486D02*
X005316Y008495D01*
X005119Y008927D02*
X005119Y009107D01*
X006233Y007758D02*
X006549Y007758D01*
X006758Y007967D01*
X006988Y008247D02*
X006988Y007447D01*
X006908Y007367D01*
X006235Y007367D01*
X006233Y007364D01*
X006233Y007561D02*
X006752Y007561D01*
X006768Y007577D01*
X007128Y007337D02*
X006968Y007177D01*
X006242Y007177D01*
X006233Y007167D01*
X006808Y006447D02*
X006918Y006447D01*
X007138Y006677D01*
X007788Y006677D01*
X008188Y007077D01*
X008468Y007077D01*
X008488Y007097D01*
X008658Y007257D02*
X008698Y007217D01*
X009048Y007217D01*
X009157Y007107D01*
X009157Y006957D01*
X009067Y006867D01*
X008198Y006867D01*
X008088Y006757D01*
X008088Y005977D01*
X008163Y005902D01*
X008534Y005902D01*
X008538Y005898D01*
X008538Y005575D01*
X008948Y005557D02*
X008948Y006417D01*
X009058Y006527D01*
X009356Y006527D01*
X009361Y006532D01*
X009358Y006535D01*
X009358Y006957D01*
X009358Y006957D01*
X009358Y007086D01*
X009031Y007414D01*
X008847Y007414D01*
X008658Y007405D02*
X008658Y007257D01*
X008637Y007401D02*
X008650Y007414D01*
X008658Y007405D01*
X009458Y007785D02*
X009458Y007908D01*
X008848Y008911D02*
X008847Y008910D01*
X008848Y008911D02*
X008848Y009187D01*
X008738Y009297D01*
X008698Y009297D01*
X008497Y009297D02*
X008497Y009177D01*
X008650Y009025D01*
X008650Y008910D01*
X008648Y008912D01*
X008258Y008912D02*
X008256Y008910D01*
X008258Y008912D02*
X008258Y009138D01*
X007705Y008359D02*
X007100Y008359D01*
X006988Y008247D01*
X007128Y008117D02*
X007128Y007337D01*
X007368Y007607D02*
X007368Y007637D01*
X007498Y007767D01*
X007704Y007767D01*
X007705Y007768D01*
X007519Y007768D01*
X007705Y008162D02*
X007173Y008162D01*
X007128Y008117D01*
X006808Y006447D02*
X006731Y006380D01*
X006233Y006380D01*
X008948Y005557D02*
X009009Y005495D01*
X009278Y005495D01*
X010424Y004170D02*
X010765Y004170D01*
X010778Y004157D01*
X010793Y004142D01*
X010795Y004140D01*
X010988Y004140D01*
X010988Y003943D02*
X010795Y003943D01*
X010793Y003941D01*
X010766Y003914D01*
X010424Y003914D01*
X010045Y003914D01*
X010068Y003907D01*
X009972Y003422D02*
X009852Y003302D01*
X009763Y003302D01*
X010173Y003422D02*
X010278Y003422D01*
X010398Y003302D01*
X010778Y004157D02*
X010778Y004187D01*
X010828Y010077D02*
X010818Y010097D01*
X010818Y010087D01*
D26*
X010828Y010077D02*
X010828Y009737D01*
X010608Y009517D01*
X006368Y009517D01*
X006128Y009277D01*
X006128Y008467D01*
X005918Y008294D02*
X005697Y008294D01*
X005697Y008252D02*
X005742Y008207D01*
X006050Y008207D01*
X005975Y008238D01*
X005899Y008314D01*
X005858Y008413D01*
X005858Y008520D01*
X005899Y008620D01*
X005948Y008669D01*
X005948Y009351D01*
X006173Y009577D01*
X003272Y009577D01*
X003272Y009404D01*
X003270Y009401D01*
X003272Y009390D01*
X003272Y009316D01*
X003048Y009316D01*
X003048Y009121D01*
X003151Y009121D01*
X003158Y009123D01*
X003150Y009094D01*
X003150Y009007D01*
X003339Y009007D01*
X003339Y009007D01*
X003339Y009216D01*
X003272Y009216D01*
X003265Y009214D01*
X003272Y009243D01*
X003272Y009316D01*
X003048Y009316D01*
X003048Y009316D01*
X003048Y009316D01*
X003048Y009121D01*
X003035Y009121D01*
X003035Y008823D01*
X003209Y008823D01*
X003204Y008826D01*
X003178Y008852D01*
X003160Y008884D01*
X003150Y008919D01*
X003150Y009007D01*
X003339Y009007D01*
X003339Y009007D01*
X003339Y009216D01*
X003407Y009216D01*
X003424Y009211D01*
X003429Y009216D01*
X003643Y009216D01*
X003725Y009134D01*
X003725Y008880D01*
X003716Y008870D01*
X003716Y008823D01*
X004935Y008823D01*
X004930Y008839D01*
X004930Y008927D01*
X004983Y008927D01*
X004983Y008927D01*
X004930Y008927D01*
X004930Y009014D01*
X004931Y009017D01*
X004930Y009019D01*
X004930Y009107D01*
X004983Y009107D01*
X004930Y009107D01*
X004930Y009194D01*
X004940Y009230D01*
X004958Y009262D01*
X004984Y009288D01*
X005016Y009306D01*
X005052Y009316D01*
X005119Y009316D01*
X005119Y009107D01*
X005119Y009107D01*
X005119Y009316D01*
X005187Y009316D01*
X005204Y009311D01*
X005209Y009316D01*
X005423Y009316D01*
X005505Y009234D01*
X005505Y008823D01*
X005615Y008823D01*
X005697Y008741D01*
X005697Y008252D01*
X005733Y008216D02*
X006028Y008216D01*
X005978Y008177D02*
X005798Y008357D01*
X005798Y009417D01*
X005648Y009567D01*
X005038Y009567D01*
X004958Y009487D01*
X004958Y009231D01*
X005119Y009107D01*
X004862Y009327D01*
X003448Y009327D01*
X003338Y009217D01*
X003338Y009008D01*
X003339Y009007D01*
X003329Y008997D01*
X003128Y008997D01*
X003048Y009077D01*
X003048Y009316D01*
X003048Y009315D02*
X003048Y009315D01*
X003048Y009236D02*
X003048Y009236D01*
X003048Y009158D02*
X003048Y009158D01*
X003035Y009079D02*
X003150Y009079D01*
X003150Y009001D02*
X003035Y009001D01*
X003035Y008922D02*
X003150Y008922D01*
X003186Y008844D02*
X003035Y008844D01*
X002718Y008961D02*
X002551Y008794D01*
X002551Y008486D01*
X002398Y008237D02*
X002458Y008177D01*
X003536Y008177D01*
X003536Y007978D01*
X003788Y007727D01*
X005158Y007727D01*
X005408Y007477D01*
X005408Y007107D01*
X005458Y006817D02*
X002828Y006817D01*
X002198Y006187D01*
X001827Y006187D01*
X001823Y006183D01*
X001224Y006183D01*
X001128Y006087D01*
X001128Y005955D01*
X001128Y005758D02*
X001316Y005758D01*
X001315Y005758D01*
X001128Y005758D01*
X001128Y005569D01*
X001168Y005569D01*
X001168Y005534D01*
X001098Y005534D01*
X001098Y005569D01*
X001128Y005569D01*
X001128Y005758D01*
X001128Y005758D01*
X001128Y005758D01*
X001128Y005704D02*
X001128Y005704D01*
X001128Y005625D02*
X001128Y005625D01*
X001098Y005547D02*
X001168Y005547D01*
X001108Y005345D02*
X000979Y005345D01*
X000918Y005407D01*
X000918Y006757D01*
X001088Y006927D01*
X001088Y009477D01*
X001368Y009757D01*
X010068Y009757D01*
X010078Y009757D01*
X010318Y009997D01*
X010318Y010077D01*
X010648Y009207D02*
X009768Y009207D01*
X009238Y008677D01*
X009238Y008557D01*
X009201Y008555D01*
X008157Y008555D01*
X008038Y008437D01*
X008038Y007877D01*
X008258Y007657D01*
X008258Y007415D01*
X008256Y007414D01*
X008453Y007414D02*
X008458Y007417D01*
X008458Y007897D01*
X008598Y007757D01*
X008868Y007757D01*
X009376Y007248D01*
X009376Y007238D01*
X009468Y007238D01*
X009468Y007238D01*
X009658Y007238D01*
X009658Y007238D01*
X009867Y007238D01*
X009867Y007171D01*
X009857Y007135D01*
X009839Y007103D01*
X009813Y007077D01*
X009781Y007059D01*
X009745Y007049D01*
X009658Y007049D01*
X009658Y007119D01*
X009658Y007119D01*
X009658Y007049D01*
X009571Y007049D01*
X009563Y007051D01*
X009555Y007049D01*
X009553Y007049D01*
X009553Y006908D01*
X009695Y006908D01*
X009777Y006826D01*
X009777Y006237D01*
X009756Y006217D01*
X009777Y006196D01*
X009777Y005607D01*
X009695Y005525D01*
X009487Y005525D01*
X009487Y005388D01*
X009482Y005383D01*
X009487Y005366D01*
X009487Y005298D01*
X009366Y005298D01*
X009366Y005298D01*
X009487Y005298D01*
X009487Y005231D01*
X009486Y005227D01*
X009593Y005227D01*
X009742Y005227D01*
X009832Y005137D01*
X009938Y005031D01*
X009938Y004802D01*
X009987Y004802D01*
X010164Y004625D01*
X010719Y004625D01*
X010737Y004607D01*
X011122Y004607D01*
X011178Y004551D01*
X011178Y005197D01*
X009958Y005197D01*
X009958Y007942D01*
X009933Y007918D01*
X009719Y007918D01*
X009718Y007919D01*
X009717Y007918D01*
X009667Y007918D01*
X009667Y007678D01*
X009666Y007677D01*
X009667Y007676D01*
X009667Y007624D01*
X009785Y007624D01*
X009867Y007542D01*
X009867Y007328D01*
X009862Y007323D01*
X009867Y007306D01*
X009867Y007238D01*
X009658Y007238D01*
X009658Y007238D01*
X009468Y007238D01*
X009468Y007435D02*
X009658Y007435D01*
X009468Y007435D02*
X009456Y007447D01*
X009456Y007567D01*
X009458Y007568D01*
X009456Y007567D02*
X009248Y007567D01*
X009201Y007614D01*
X009201Y007768D01*
X009201Y007965D02*
X009401Y007965D01*
X009458Y007908D01*
X009667Y007902D02*
X009958Y007902D01*
X009958Y007823D02*
X009667Y007823D01*
X009667Y007745D02*
X009958Y007745D01*
X009958Y007666D02*
X009667Y007666D01*
X009821Y007588D02*
X009958Y007588D01*
X009958Y007509D02*
X009867Y007509D01*
X009867Y007431D02*
X009958Y007431D01*
X009958Y007352D02*
X009867Y007352D01*
X009867Y007274D02*
X009958Y007274D01*
X009958Y007195D02*
X009867Y007195D01*
X009847Y007117D02*
X009958Y007117D01*
X009958Y007038D02*
X009553Y007038D01*
X009553Y006960D02*
X009958Y006960D01*
X009958Y006881D02*
X009721Y006881D01*
X009777Y006803D02*
X009958Y006803D01*
X009958Y006724D02*
X009777Y006724D01*
X009777Y006646D02*
X009958Y006646D01*
X009958Y006567D02*
X009777Y006567D01*
X009777Y006489D02*
X009958Y006489D01*
X009958Y006410D02*
X009777Y006410D01*
X009777Y006332D02*
X009958Y006332D01*
X009958Y006253D02*
X009777Y006253D01*
X009777Y006175D02*
X009958Y006175D01*
X009958Y006096D02*
X009777Y006096D01*
X009777Y006018D02*
X009958Y006018D01*
X009958Y005939D02*
X009777Y005939D01*
X009777Y005861D02*
X009958Y005861D01*
X009958Y005782D02*
X009777Y005782D01*
X009777Y005704D02*
X009958Y005704D01*
X009958Y005625D02*
X009777Y005625D01*
X009716Y005547D02*
X009958Y005547D01*
X009958Y005468D02*
X009487Y005468D01*
X009487Y005390D02*
X009958Y005390D01*
X009958Y005311D02*
X009487Y005311D01*
X009487Y005233D02*
X009958Y005233D01*
X009815Y005154D02*
X011178Y005154D01*
X011178Y005076D02*
X009893Y005076D01*
X009938Y004997D02*
X011178Y004997D01*
X011178Y004919D02*
X009938Y004919D01*
X009938Y004840D02*
X011178Y004840D01*
X011178Y004762D02*
X010027Y004762D01*
X010106Y004683D02*
X011178Y004683D01*
X011178Y004605D02*
X011124Y004605D01*
X011048Y004427D02*
X011178Y004297D01*
X011178Y003242D01*
X010818Y002882D01*
X010398Y003302D01*
X010424Y003658D02*
X009869Y003658D01*
X009758Y003547D01*
X009758Y003307D01*
X009763Y003302D01*
X009569Y003309D02*
X009562Y003302D01*
X009557Y003297D01*
X009358Y003297D01*
X008996Y003658D01*
X008761Y003658D01*
X008761Y003914D02*
X008764Y003917D01*
X009048Y003917D01*
X009137Y004172D02*
X009137Y004287D01*
X009126Y004298D01*
X009137Y004309D01*
X009137Y004543D01*
X009055Y004625D01*
X008816Y004625D01*
X008788Y004654D01*
X008788Y004792D01*
X008851Y004818D01*
X008927Y004894D01*
X008968Y004993D01*
X008968Y005100D01*
X008927Y005200D01*
X008851Y005276D01*
X008752Y005317D01*
X008747Y005317D01*
X008747Y005378D01*
X008538Y005378D01*
X008538Y005378D01*
X008747Y005378D01*
X008747Y005446D01*
X008742Y005463D01*
X008747Y005468D01*
X008747Y005525D01*
X008778Y005525D01*
X008778Y005486D01*
X008877Y005387D01*
X008939Y005325D01*
X009069Y005325D01*
X009069Y005298D01*
X009069Y005231D01*
X009069Y005230D01*
X009039Y005200D01*
X008998Y005100D01*
X008998Y004993D01*
X009039Y004894D01*
X009115Y004818D01*
X009214Y004777D01*
X009322Y004777D01*
X009421Y004818D01*
X009470Y004867D01*
X009578Y004867D01*
X009578Y004831D01*
X009462Y004831D01*
X009380Y004749D01*
X009380Y004495D01*
X009389Y004486D01*
X009389Y003520D01*
X009211Y003698D01*
X009277Y003764D01*
X009318Y003863D01*
X009318Y003970D01*
X009277Y004070D01*
X009201Y004146D01*
X009137Y004172D01*
X009137Y004212D02*
X009389Y004212D01*
X009389Y004134D02*
X009213Y004134D01*
X009283Y004055D02*
X009389Y004055D01*
X009389Y003977D02*
X009315Y003977D01*
X009318Y003898D02*
X009389Y003898D01*
X009389Y003820D02*
X009300Y003820D01*
X009254Y003741D02*
X009389Y003741D01*
X009389Y003663D02*
X009246Y003663D01*
X009325Y003584D02*
X009389Y003584D01*
X009569Y003309D02*
X009569Y004622D01*
X009380Y004605D02*
X009075Y004605D01*
X009137Y004526D02*
X009380Y004526D01*
X009389Y004448D02*
X009137Y004448D01*
X009137Y004369D02*
X009389Y004369D01*
X009389Y004291D02*
X009134Y004291D01*
X009208Y004247D02*
X009208Y004597D01*
X008998Y004807D01*
X008998Y005297D01*
X008999Y005298D01*
X009278Y005298D01*
X009276Y005297D01*
X008998Y005297D01*
X008928Y005297D01*
X008846Y005378D01*
X008538Y005378D01*
X008536Y005377D01*
X008308Y005377D01*
X007736Y005948D01*
X007518Y005948D01*
X007518Y005948D01*
X007727Y005948D01*
X007727Y005881D01*
X007741Y005876D01*
X007790Y005827D01*
X007792Y005827D01*
X008202Y005417D01*
X008329Y005417D01*
X008329Y005446D01*
X008334Y005463D01*
X008329Y005468D01*
X008329Y005525D01*
X008201Y005525D01*
X008119Y005607D01*
X008119Y005732D01*
X008092Y005732D01*
X007993Y005831D01*
X007918Y005906D01*
X007918Y006566D01*
X007858Y006507D01*
X007437Y006507D01*
X007505Y006438D01*
X007505Y006334D01*
X007645Y006334D01*
X007727Y006252D01*
X007727Y006038D01*
X007722Y006033D01*
X007727Y006016D01*
X007727Y005948D01*
X007518Y005948D01*
X007405Y005948D01*
X007188Y005731D01*
X007184Y005807D01*
X006878Y005807D01*
X006699Y005985D01*
X006628Y005985D01*
X006628Y005985D01*
X006837Y005985D01*
X006837Y005917D01*
X006832Y005900D01*
X006837Y005895D01*
X006837Y005681D01*
X006808Y005652D01*
X006808Y005631D01*
X006852Y005587D01*
X006871Y005587D01*
X006871Y005702D01*
X007159Y005702D01*
X007159Y005760D01*
X007159Y005965D01*
X007217Y005965D01*
X007217Y005760D01*
X007159Y005760D01*
X006871Y005760D01*
X006871Y005887D01*
X006880Y005923D01*
X006899Y005955D01*
X006925Y005981D01*
X006932Y005985D01*
X006872Y006046D01*
X006837Y006011D01*
X006837Y005985D01*
X006628Y005985D01*
X006617Y005986D01*
X006233Y005986D01*
X005896Y005986D01*
X005896Y005977D01*
X005842Y005977D01*
X005816Y006003D01*
X005896Y006003D01*
X005896Y005986D01*
X006233Y005986D01*
X006233Y005986D01*
X006225Y005797D02*
X006233Y005790D01*
X006230Y005787D01*
X006233Y005790D02*
X006617Y005790D01*
X006628Y005788D01*
X006628Y005557D01*
X006778Y005407D01*
X007208Y005407D01*
X007388Y005227D01*
X007388Y004827D01*
X007428Y004787D01*
X007568Y004427D02*
X008078Y003917D01*
X008078Y003127D01*
X008240Y002772D02*
X008299Y002796D01*
X008408Y002906D01*
X008468Y003049D01*
X008468Y003204D01*
X008408Y003348D01*
X008299Y003457D01*
X008258Y003474D01*
X008258Y003987D01*
X008385Y003987D01*
X008385Y003797D01*
X008396Y003786D01*
X008385Y003775D01*
X008385Y003541D01*
X008467Y003459D01*
X008941Y003459D01*
X009178Y003222D01*
X009283Y003117D01*
X009382Y003117D01*
X009382Y002829D01*
X009363Y002842D01*
X009292Y002872D01*
X009218Y002886D01*
X009218Y002537D01*
X009138Y002537D01*
X009138Y002886D01*
X009064Y002872D01*
X008993Y002842D01*
X008929Y002800D01*
X008875Y002745D01*
X008832Y002681D01*
X008803Y002610D01*
X008788Y002537D01*
X009138Y002537D01*
X009138Y002457D01*
X008788Y002457D01*
X008803Y002383D01*
X008832Y002312D01*
X008875Y002248D01*
X008929Y002194D01*
X008993Y002151D01*
X009064Y002122D01*
X009138Y002107D01*
X009138Y002457D01*
X009218Y002457D01*
X009218Y002107D01*
X009292Y002122D01*
X009363Y002151D01*
X009426Y002194D01*
X009481Y002248D01*
X009523Y002312D01*
X009539Y002351D01*
X009588Y002302D01*
X009693Y002197D01*
X010526Y002197D01*
X010530Y002189D01*
X010538Y002181D01*
X010243Y001887D01*
X010138Y001781D01*
X010138Y001780D01*
X010125Y001775D01*
X010068Y001717D01*
X010010Y001775D01*
X009885Y001827D01*
X009750Y001827D01*
X009625Y001775D01*
X009568Y001717D01*
X009510Y001775D01*
X009385Y001827D01*
X009250Y001827D01*
X009125Y001775D01*
X009068Y001717D01*
X009010Y001775D01*
X008885Y001827D01*
X008750Y001827D01*
X008625Y001775D01*
X008568Y001717D01*
X008510Y001775D01*
X008385Y001827D01*
X008250Y001827D01*
X008125Y001775D01*
X008068Y001717D01*
X008010Y001775D01*
X007934Y001807D01*
X007992Y001807D01*
X008152Y001967D01*
X008253Y002067D01*
X008299Y002086D01*
X008408Y002196D01*
X008468Y002339D01*
X008468Y002494D01*
X008408Y002638D01*
X008299Y002747D01*
X008240Y002772D01*
X008302Y002799D02*
X008929Y002799D01*
X008858Y002721D02*
X008325Y002721D01*
X008404Y002642D02*
X008816Y002642D01*
X008794Y002564D02*
X008439Y002564D01*
X008468Y002485D02*
X009138Y002485D01*
X009178Y002497D02*
X009188Y002497D01*
X009218Y002564D02*
X009138Y002564D01*
X009138Y002642D02*
X009218Y002642D01*
X009218Y002721D02*
X009138Y002721D01*
X009138Y002799D02*
X009218Y002799D01*
X009218Y002878D02*
X009138Y002878D01*
X009094Y002878D02*
X008380Y002878D01*
X008429Y002956D02*
X009382Y002956D01*
X009382Y002878D02*
X009261Y002878D01*
X009382Y003035D02*
X008462Y003035D01*
X008468Y003113D02*
X009382Y003113D01*
X009208Y003192D02*
X008468Y003192D01*
X008441Y003270D02*
X009130Y003270D01*
X009051Y003349D02*
X008407Y003349D01*
X008329Y003427D02*
X008973Y003427D01*
X008768Y003287D02*
X008768Y002917D01*
X008798Y002407D02*
X008468Y002407D01*
X008463Y002328D02*
X008826Y002328D01*
X008874Y002250D02*
X008431Y002250D01*
X008384Y002171D02*
X008963Y002171D01*
X009138Y002171D02*
X009218Y002171D01*
X009218Y002250D02*
X009138Y002250D01*
X009138Y002328D02*
X009218Y002328D01*
X009218Y002407D02*
X009138Y002407D01*
X009393Y002171D02*
X010528Y002171D01*
X010449Y002093D02*
X008305Y002093D01*
X008200Y002014D02*
X010371Y002014D01*
X010292Y001936D02*
X008121Y001936D01*
X008043Y001857D02*
X010214Y001857D01*
X010134Y001779D02*
X010001Y001779D01*
X010318Y001707D02*
X010318Y001487D01*
X010318Y001707D02*
X010818Y002207D01*
X010818Y002382D01*
X010813Y002377D01*
X009768Y002377D01*
X009562Y002582D01*
X009562Y003302D01*
X010068Y003077D02*
X010058Y002607D01*
X009640Y002250D02*
X009482Y002250D01*
X009530Y002328D02*
X009562Y002328D01*
X009588Y002302D02*
X009588Y002302D01*
X009558Y002127D02*
X010338Y002127D01*
X009634Y001779D02*
X009501Y001779D01*
X009134Y001779D02*
X009001Y001779D01*
X008634Y001779D02*
X008501Y001779D01*
X008134Y001779D02*
X008001Y001779D01*
X007918Y001987D02*
X008078Y002147D01*
X008078Y002417D01*
X007918Y001987D02*
X006928Y001987D01*
X006578Y002337D01*
X006578Y003687D01*
X005908Y004357D01*
X005908Y004927D01*
X005983Y005002D01*
X006233Y005002D01*
X006233Y004805D02*
X006233Y004322D01*
X006788Y003767D01*
X006788Y002647D01*
X006998Y002437D01*
X007348Y002437D01*
X007358Y002427D01*
X007358Y003117D02*
X007358Y004017D01*
X007158Y004217D01*
X006898Y004217D01*
X006588Y004527D01*
X006588Y005097D01*
X006486Y005199D01*
X006233Y005199D01*
X006233Y005396D02*
X006529Y005396D01*
X006778Y005147D01*
X006778Y004637D01*
X006988Y004427D01*
X007568Y004427D01*
X008158Y004337D02*
X008328Y004167D01*
X008758Y004167D01*
X008761Y004170D01*
X008761Y004426D02*
X008608Y004579D01*
X008608Y004727D01*
X008258Y005077D01*
X007988Y005077D01*
X007858Y005157D01*
X008128Y005237D02*
X008318Y005237D01*
X008508Y005047D01*
X008698Y005047D01*
X008894Y005233D02*
X009069Y005233D01*
X009069Y005298D02*
X009170Y005298D01*
X009170Y005298D01*
X009069Y005298D01*
X009069Y005311D02*
X008765Y005311D01*
X008747Y005390D02*
X008874Y005390D01*
X008796Y005468D02*
X008747Y005468D01*
X008946Y005154D02*
X009020Y005154D01*
X008998Y005076D02*
X008968Y005076D01*
X008968Y004997D02*
X008998Y004997D01*
X009029Y004919D02*
X008937Y004919D01*
X008873Y004840D02*
X009092Y004840D01*
X009268Y005047D02*
X009668Y005047D01*
X009758Y004957D01*
X009758Y004630D01*
X009766Y004622D01*
X009913Y004622D01*
X010108Y004427D01*
X010424Y004427D01*
X011048Y004427D01*
X010424Y004427D02*
X010424Y004426D01*
X009578Y004840D02*
X009443Y004840D01*
X009393Y004762D02*
X008788Y004762D01*
X008788Y004683D02*
X009380Y004683D01*
X009279Y005297D02*
X009278Y005298D01*
X009279Y005297D02*
X009648Y005297D01*
X009788Y005437D01*
X008329Y005468D02*
X008151Y005468D01*
X008180Y005547D02*
X008072Y005547D01*
X008119Y005625D02*
X007994Y005625D01*
X007915Y005704D02*
X008119Y005704D01*
X008042Y005782D02*
X007837Y005782D01*
X007756Y005861D02*
X007963Y005861D01*
X007918Y005939D02*
X007727Y005939D01*
X007726Y006018D02*
X007918Y006018D01*
X007918Y006096D02*
X007727Y006096D01*
X007727Y006175D02*
X007918Y006175D01*
X007918Y006253D02*
X007726Y006253D01*
X007647Y006332D02*
X007918Y006332D01*
X007918Y006410D02*
X007505Y006410D01*
X007455Y006489D02*
X007918Y006489D01*
X007518Y006145D02*
X007365Y006145D01*
X007188Y006243D01*
X007182Y006317D01*
X006888Y006317D01*
X006754Y006183D01*
X006233Y006183D01*
X005791Y006183D01*
X005638Y006337D01*
X005638Y006637D01*
X005458Y006817D01*
X005408Y006477D02*
X005408Y006157D01*
X005248Y005997D01*
X005248Y005577D01*
X005408Y005417D01*
X005408Y004637D01*
X005228Y004457D01*
X004408Y004457D01*
X004323Y004372D01*
X004323Y004077D01*
X004126Y004077D02*
X004126Y003818D01*
X004238Y003707D01*
X004858Y003707D01*
X004958Y003607D01*
X004958Y003328D01*
X004951Y003322D01*
X004976Y003297D01*
X005258Y003297D01*
X005408Y003147D01*
X005408Y002725D01*
X005438Y002537D02*
X005408Y002528D01*
X005408Y002339D01*
X005495Y002339D01*
X005531Y002349D01*
X005563Y002367D01*
X005589Y002393D01*
X005607Y002425D01*
X005617Y002461D01*
X005617Y002528D01*
X005408Y002528D01*
X005408Y002528D01*
X005408Y002528D01*
X005408Y002339D01*
X005321Y002339D01*
X005311Y002342D01*
X005285Y002315D01*
X004618Y002315D01*
X004538Y002395D01*
X004458Y002315D01*
X003791Y002315D01*
X003777Y002329D01*
X003775Y002329D01*
X003688Y002329D01*
X003688Y002518D01*
X003688Y002518D01*
X003688Y002329D01*
X003601Y002329D01*
X003565Y002339D01*
X003533Y002357D01*
X003507Y002383D01*
X003488Y002415D01*
X003479Y002451D01*
X003479Y002518D01*
X003688Y002518D01*
X003688Y002317D01*
X003778Y002227D01*
X005318Y002227D01*
X005408Y002317D01*
X005408Y002528D01*
X005617Y002528D01*
X005617Y002596D01*
X005612Y002613D01*
X005617Y002618D01*
X005617Y002832D01*
X005588Y002861D01*
X005588Y003221D01*
X005438Y003371D01*
X005367Y003442D01*
X005367Y003616D01*
X005285Y003698D01*
X005121Y003698D01*
X005079Y003740D01*
X005548Y003740D01*
X005548Y003602D01*
X005628Y003522D01*
X005628Y002311D01*
X005493Y002177D01*
X001932Y002177D01*
X001968Y002263D01*
X001968Y002370D01*
X001927Y002470D01*
X001851Y002546D01*
X001752Y002587D01*
X001644Y002587D01*
X001545Y002546D01*
X001469Y002470D01*
X001428Y002370D01*
X001428Y002263D01*
X001469Y002164D01*
X001518Y002115D01*
X001518Y002012D01*
X001543Y001987D01*
X001452Y001987D01*
X001278Y002161D01*
X001278Y003915D01*
X001327Y003964D01*
X001368Y004063D01*
X001368Y004170D01*
X001327Y004270D01*
X001288Y004309D01*
X001288Y004582D01*
X001324Y004567D01*
X001432Y004567D01*
X001531Y004608D01*
X001555Y004632D01*
X001572Y004622D01*
X001608Y004612D01*
X001823Y004612D01*
X001823Y004805D01*
X001823Y004805D01*
X001823Y004612D01*
X002038Y004612D01*
X002074Y004622D01*
X002106Y004640D01*
X002132Y004666D01*
X002150Y004698D01*
X002160Y004734D01*
X002160Y004805D01*
X001823Y004805D01*
X001823Y004805D01*
X002306Y004805D01*
X002308Y004807D01*
X002308Y005607D01*
X002118Y005797D01*
X001830Y005797D01*
X001823Y005790D01*
X002160Y005790D01*
X002160Y005806D01*
X002984Y005806D01*
X003158Y005632D01*
X003158Y004414D01*
X003031Y004414D01*
X003028Y004411D01*
X003017Y004414D01*
X002945Y004414D01*
X002874Y004414D01*
X002847Y004407D01*
X002820Y004414D01*
X002748Y004414D01*
X002677Y004414D01*
X002666Y004411D01*
X002663Y004414D01*
X002440Y004414D01*
X002358Y004332D01*
X002358Y003822D01*
X002440Y003740D01*
X002663Y003740D01*
X002666Y003743D01*
X002677Y003740D01*
X002748Y003740D01*
X002748Y004077D01*
X002748Y004414D01*
X002748Y004077D01*
X002748Y004077D01*
X002748Y004077D01*
X002748Y004076D01*
X002748Y003697D01*
X002518Y003467D01*
X002518Y002657D01*
X002678Y002497D01*
X003666Y002497D01*
X003688Y002518D01*
X003688Y002518D01*
X003479Y002518D01*
X003479Y002586D01*
X003484Y002603D01*
X003479Y002608D01*
X003479Y002822D01*
X003498Y002841D01*
X003498Y003061D01*
X003558Y003121D01*
X003558Y003327D01*
X003182Y003327D01*
X003128Y003272D01*
X003128Y003250D01*
X003159Y003237D01*
X003268Y003128D01*
X003328Y002984D01*
X003328Y002829D01*
X003268Y002686D01*
X003159Y002576D01*
X003015Y002517D01*
X002860Y002517D01*
X002717Y002576D01*
X002607Y002686D01*
X002548Y002829D01*
X002548Y002984D01*
X002607Y003128D01*
X002717Y003237D01*
X002768Y003258D01*
X002768Y003421D01*
X002863Y003517D01*
X002838Y003542D01*
X002820Y003574D01*
X002810Y003609D01*
X002810Y003697D01*
X002999Y003697D01*
X002999Y003697D01*
X002810Y003697D01*
X002810Y003740D01*
X002748Y003740D01*
X002748Y004077D01*
X002945Y004077D01*
X002945Y004077D01*
X002748Y004077D01*
X002748Y004616D01*
X002559Y004805D01*
X001823Y004805D01*
X002160Y004805D01*
X002160Y004877D01*
X002157Y004888D01*
X002160Y004891D01*
X002160Y005704D01*
X002157Y005707D01*
X002160Y005718D01*
X002160Y005790D01*
X001823Y005790D01*
X001823Y005790D01*
X001820Y005787D01*
X001386Y005787D01*
X001358Y005758D01*
X001358Y005955D02*
X001389Y005986D01*
X001823Y005986D01*
X003058Y005986D01*
X003338Y005707D01*
X004088Y006457D01*
X005388Y006457D01*
X005408Y006477D01*
X005226Y006277D02*
X005228Y006275D01*
X005228Y006231D01*
X005068Y006071D01*
X005068Y005502D01*
X005173Y005397D01*
X005228Y005342D01*
X005228Y004711D01*
X005153Y004637D01*
X004333Y004637D01*
X004228Y004531D01*
X004143Y004446D01*
X004143Y004414D01*
X003818Y004414D01*
X003815Y004411D01*
X003804Y004414D01*
X003733Y004414D01*
X003733Y004077D01*
X003733Y004077D01*
X003728Y004082D01*
X003728Y005147D01*
X004208Y005627D01*
X005008Y005627D01*
X005018Y005637D01*
X005068Y005625D02*
X003518Y005625D01*
X003518Y005632D02*
X004162Y006277D01*
X005226Y006277D01*
X005228Y006253D02*
X004139Y006253D01*
X004060Y006175D02*
X005171Y006175D01*
X005093Y006096D02*
X003982Y006096D01*
X003903Y006018D02*
X005068Y006018D01*
X005068Y005939D02*
X003825Y005939D01*
X003746Y005861D02*
X005068Y005861D01*
X005068Y005782D02*
X003668Y005782D01*
X003589Y005704D02*
X005068Y005704D01*
X005068Y005547D02*
X003518Y005547D01*
X003518Y005468D02*
X005102Y005468D01*
X005180Y005390D02*
X003518Y005390D01*
X003518Y005311D02*
X005228Y005311D01*
X005228Y005233D02*
X003518Y005233D01*
X003518Y005154D02*
X005228Y005154D01*
X005228Y005076D02*
X003518Y005076D01*
X003518Y004997D02*
X005228Y004997D01*
X005228Y004919D02*
X003518Y004919D01*
X003518Y004840D02*
X005228Y004840D01*
X005228Y004762D02*
X003518Y004762D01*
X003518Y004683D02*
X005200Y004683D01*
X005728Y005477D02*
X005468Y005737D01*
X005768Y005797D02*
X006225Y005797D01*
X005768Y005797D02*
X005408Y006157D01*
X005728Y005477D02*
X005728Y003677D01*
X005808Y003597D01*
X005808Y002237D01*
X005568Y001997D01*
X001788Y001997D01*
X001698Y002087D01*
X001698Y002317D01*
X001968Y002328D02*
X003778Y002328D01*
X003688Y002407D02*
X003688Y002407D01*
X003688Y002485D02*
X003688Y002485D01*
X003479Y002485D02*
X001911Y002485D01*
X001953Y002407D02*
X003493Y002407D01*
X003479Y002564D02*
X003129Y002564D01*
X003225Y002642D02*
X003479Y002642D01*
X003479Y002721D02*
X003283Y002721D01*
X003315Y002799D02*
X003479Y002799D01*
X003498Y002878D02*
X003328Y002878D01*
X003328Y002956D02*
X003498Y002956D01*
X003498Y003035D02*
X003307Y003035D01*
X003274Y003113D02*
X003550Y003113D01*
X003558Y003192D02*
X003204Y003192D01*
X003128Y003270D02*
X003558Y003270D01*
X003498Y003507D02*
X003108Y003507D01*
X002948Y003347D01*
X002948Y002917D01*
X002938Y002907D01*
X002651Y002642D02*
X001278Y002642D01*
X001278Y002564D02*
X001589Y002564D01*
X001485Y002485D02*
X001278Y002485D01*
X001278Y002407D02*
X001443Y002407D01*
X001428Y002328D02*
X001278Y002328D01*
X001278Y002250D02*
X001433Y002250D01*
X001466Y002171D02*
X001278Y002171D01*
X001346Y002093D02*
X001518Y002093D01*
X001518Y002014D02*
X001425Y002014D01*
X001378Y001807D02*
X001098Y002087D01*
X001098Y004117D01*
X001108Y004127D01*
X001108Y005148D01*
X001368Y005177D02*
X001390Y005199D01*
X001823Y005199D01*
X001823Y005396D02*
X001579Y005396D01*
X001438Y005517D01*
X001543Y005002D02*
X001378Y004837D01*
X001543Y005002D02*
X001823Y005002D01*
X001823Y004762D02*
X001823Y004762D01*
X001823Y004683D02*
X001823Y004683D01*
X001523Y004605D02*
X003158Y004605D01*
X003158Y004683D02*
X002142Y004683D01*
X002160Y004762D02*
X003158Y004762D01*
X003158Y004840D02*
X002160Y004840D01*
X002160Y004919D02*
X003158Y004919D01*
X003158Y004997D02*
X002160Y004997D01*
X002160Y005076D02*
X003158Y005076D01*
X003158Y005154D02*
X002160Y005154D01*
X002160Y005233D02*
X003158Y005233D01*
X003158Y005311D02*
X002160Y005311D01*
X002160Y005390D02*
X003158Y005390D01*
X003158Y005468D02*
X002160Y005468D01*
X002160Y005547D02*
X003158Y005547D01*
X003158Y005625D02*
X002160Y005625D01*
X002160Y005704D02*
X003086Y005704D01*
X003008Y005782D02*
X002160Y005782D01*
X003338Y005707D02*
X003338Y004078D01*
X003339Y004077D01*
X003518Y004414D02*
X003518Y005632D01*
X003518Y004605D02*
X004301Y004605D01*
X004223Y004526D02*
X003518Y004526D01*
X003518Y004448D02*
X004144Y004448D01*
X003733Y004414D02*
X003733Y004077D01*
X003733Y004134D02*
X003733Y004134D01*
X003733Y004212D02*
X003733Y004212D01*
X003733Y004291D02*
X003733Y004291D01*
X003733Y004369D02*
X003733Y004369D01*
X003733Y004414D02*
X003661Y004414D01*
X003650Y004411D01*
X003647Y004414D01*
X003518Y004414D01*
X003158Y004448D02*
X001288Y004448D01*
X001288Y004526D02*
X003158Y004526D01*
X002945Y004414D02*
X002945Y004077D01*
X002945Y004414D01*
X002945Y004369D02*
X002945Y004369D01*
X002945Y004291D02*
X002945Y004291D01*
X002945Y004212D02*
X002945Y004212D01*
X002945Y004134D02*
X002945Y004134D01*
X002945Y004077D02*
X002945Y004077D01*
X002752Y004077D01*
X002748Y004077D01*
X002748Y004077D01*
X002748Y004055D02*
X002748Y004055D01*
X002748Y003977D02*
X002748Y003977D01*
X002748Y003898D02*
X002748Y003898D01*
X002748Y003820D02*
X002748Y003820D01*
X002748Y003741D02*
X002748Y003741D01*
X002673Y003741D02*
X002664Y003741D01*
X002810Y003663D02*
X001278Y003663D01*
X001278Y003741D02*
X002439Y003741D01*
X002361Y003820D02*
X001278Y003820D01*
X001278Y003898D02*
X002358Y003898D01*
X002358Y003977D02*
X001332Y003977D01*
X001365Y004055D02*
X002358Y004055D01*
X002358Y004134D02*
X001368Y004134D01*
X001351Y004212D02*
X002358Y004212D01*
X002358Y004291D02*
X001306Y004291D01*
X001288Y004369D02*
X002396Y004369D01*
X002748Y004369D02*
X002748Y004369D01*
X002748Y004291D02*
X002748Y004291D01*
X002748Y004212D02*
X002748Y004212D01*
X002748Y004134D02*
X002748Y004134D01*
X002817Y003584D02*
X001278Y003584D01*
X001278Y003506D02*
X002852Y003506D01*
X002774Y003427D02*
X001278Y003427D01*
X001278Y003349D02*
X002768Y003349D01*
X002768Y003270D02*
X001278Y003270D01*
X001278Y003192D02*
X002671Y003192D01*
X002601Y003113D02*
X001278Y003113D01*
X001278Y003035D02*
X002569Y003035D01*
X002548Y002956D02*
X001278Y002956D01*
X001278Y002878D02*
X002548Y002878D01*
X002560Y002799D02*
X001278Y002799D01*
X001278Y002721D02*
X002593Y002721D01*
X002747Y002564D02*
X001807Y002564D01*
X001962Y002250D02*
X005566Y002250D01*
X005628Y002328D02*
X005297Y002328D01*
X005408Y002407D02*
X005408Y002407D01*
X005408Y002485D02*
X005408Y002485D01*
X005438Y002537D02*
X005498Y002537D01*
X005578Y002617D01*
X005578Y003447D01*
X005448Y003577D01*
X005367Y003584D02*
X005566Y003584D01*
X005548Y003663D02*
X005320Y003663D01*
X005367Y003506D02*
X005628Y003506D01*
X005628Y003427D02*
X005382Y003427D01*
X005460Y003349D02*
X005628Y003349D01*
X005628Y003270D02*
X005539Y003270D01*
X005588Y003192D02*
X005628Y003192D01*
X005628Y003113D02*
X005588Y003113D01*
X005588Y003035D02*
X005628Y003035D01*
X005628Y002956D02*
X005588Y002956D01*
X005588Y002878D02*
X005628Y002878D01*
X005617Y002799D02*
X005628Y002799D01*
X005617Y002721D02*
X005628Y002721D01*
X005617Y002642D02*
X005628Y002642D01*
X005617Y002564D02*
X005628Y002564D01*
X005617Y002485D02*
X005628Y002485D01*
X005628Y002407D02*
X005597Y002407D01*
X006058Y002027D02*
X006058Y003717D01*
X005998Y003777D01*
X004605Y002328D02*
X004471Y002328D01*
X004124Y002692D02*
X004101Y002715D01*
X003688Y002715D01*
X003678Y002725D01*
X003678Y002987D01*
X003738Y003047D01*
X003738Y003637D01*
X003929Y003828D01*
X003929Y004077D01*
X003536Y003719D02*
X003536Y003545D01*
X003498Y003507D01*
X001378Y001807D02*
X005838Y001807D01*
X006058Y002027D01*
X008258Y003506D02*
X008420Y003506D01*
X008385Y003584D02*
X008258Y003584D01*
X008258Y003663D02*
X008385Y003663D01*
X008385Y003741D02*
X008258Y003741D01*
X008258Y003820D02*
X008385Y003820D01*
X008385Y003898D02*
X008258Y003898D01*
X008258Y003977D02*
X008385Y003977D01*
X008158Y004337D02*
X008158Y004857D01*
X008128Y005237D02*
X007718Y005647D01*
X007588Y005647D01*
X007217Y005782D02*
X007159Y005782D01*
X007159Y005704D02*
X006837Y005704D01*
X006837Y005782D02*
X006871Y005782D01*
X006871Y005861D02*
X006837Y005861D01*
X006837Y005939D02*
X006890Y005939D01*
X006900Y006018D02*
X006843Y006018D01*
X007159Y005939D02*
X007217Y005939D01*
X007217Y005861D02*
X007159Y005861D01*
X006871Y005625D02*
X006814Y005625D01*
X006838Y006577D02*
X006233Y006577D01*
X006233Y006577D01*
X006648Y006947D02*
X006978Y006947D01*
X007278Y007217D01*
X007568Y007217D01*
X007828Y006917D02*
X007178Y006917D01*
X006838Y006577D01*
X007828Y006917D02*
X008058Y007147D01*
X008058Y007412D01*
X008059Y007414D01*
X008453Y007602D02*
X008453Y007682D01*
X008453Y007602D01*
X008453Y007602D01*
X008453Y007602D01*
X008453Y007666D02*
X008453Y007666D01*
X008453Y007682D02*
X008438Y007682D01*
X008438Y007731D01*
X008344Y007825D01*
X008413Y007825D01*
X008413Y008122D01*
X008493Y008122D01*
X008493Y008202D01*
X008790Y008202D01*
X008790Y008375D01*
X008933Y008375D01*
X008933Y008359D01*
X009013Y008359D01*
X009013Y008359D01*
X009013Y008359D01*
X008933Y008359D01*
X008933Y008281D01*
X008933Y008279D01*
X008933Y007682D01*
X008533Y007682D01*
X008532Y007681D01*
X008530Y007682D01*
X008453Y007682D01*
X008424Y007745D02*
X008933Y007745D01*
X008933Y007823D02*
X008346Y007823D01*
X008413Y007902D02*
X008493Y007902D01*
X008458Y007897D02*
X008458Y008117D01*
X008453Y008162D01*
X008458Y008157D01*
X008838Y008157D01*
X008848Y008167D01*
X008848Y008347D01*
X008858Y008357D01*
X009018Y008357D01*
X009038Y008337D01*
X009178Y008337D01*
X009201Y008359D01*
X009203Y008357D01*
X009398Y008357D01*
X009449Y008408D01*
X009449Y008497D01*
X009646Y008497D02*
X009819Y008497D01*
X009828Y008505D01*
X010689Y008505D01*
X010738Y008457D01*
X010738Y008207D01*
X009828Y008128D02*
X009826Y008127D01*
X009828Y008128D02*
X009828Y008308D01*
X009610Y008127D02*
X009460Y008127D01*
X009458Y008125D01*
X009421Y008162D01*
X009201Y008162D01*
X008933Y008137D02*
X008493Y008137D01*
X008493Y008122D02*
X008790Y008122D01*
X008790Y007946D01*
X008780Y007911D01*
X008762Y007879D01*
X008736Y007853D01*
X008704Y007834D01*
X008668Y007825D01*
X008493Y007825D01*
X008493Y008122D01*
X008493Y008059D02*
X008413Y008059D01*
X008413Y007980D02*
X008493Y007980D01*
X008775Y007902D02*
X008933Y007902D01*
X008933Y007980D02*
X008790Y007980D01*
X008790Y008059D02*
X008933Y008059D01*
X008933Y008216D02*
X008790Y008216D01*
X008790Y008294D02*
X008933Y008294D01*
X008933Y008279D02*
X008933Y008279D01*
X008933Y008373D02*
X008790Y008373D01*
X008539Y008555D02*
X008448Y008647D01*
X008448Y008905D01*
X008453Y008910D01*
X008539Y008555D02*
X009201Y008555D01*
X008497Y009297D02*
X008459Y009335D01*
X008258Y009335D01*
X008116Y009335D01*
X008068Y009287D01*
X008068Y008918D01*
X008059Y008910D01*
X008038Y008877D01*
X006918Y008877D01*
X006483Y008442D01*
X006218Y008177D01*
X005978Y008177D01*
X005875Y008373D02*
X005697Y008373D01*
X005697Y008451D02*
X005858Y008451D01*
X005862Y008530D02*
X005697Y008530D01*
X005697Y008608D02*
X005894Y008608D01*
X005948Y008687D02*
X005697Y008687D01*
X005673Y008765D02*
X005948Y008765D01*
X005948Y008844D02*
X005505Y008844D01*
X005505Y008922D02*
X005948Y008922D01*
X005948Y009001D02*
X005505Y009001D01*
X005505Y009079D02*
X005948Y009079D01*
X005948Y009158D02*
X005505Y009158D01*
X005503Y009236D02*
X005948Y009236D01*
X005948Y009315D02*
X005424Y009315D01*
X005208Y009315D02*
X005190Y009315D01*
X005119Y009315D02*
X005119Y009315D01*
X005049Y009315D02*
X003272Y009315D01*
X003272Y009393D02*
X005990Y009393D01*
X006068Y009472D02*
X003272Y009472D01*
X003272Y009550D02*
X006147Y009550D01*
X006420Y009315D02*
X008049Y009315D01*
X008049Y009335D02*
X008049Y009267D01*
X008054Y009250D01*
X008049Y009245D01*
X008049Y009178D01*
X007982Y009178D01*
X007946Y009168D01*
X007914Y009150D01*
X007888Y009124D01*
X007870Y009092D01*
X007860Y009056D01*
X007860Y008910D01*
X008057Y008910D01*
X008057Y008910D01*
X007860Y008910D01*
X007860Y008763D01*
X007862Y008754D01*
X007519Y008754D01*
X007501Y008737D01*
X006913Y008737D01*
X006808Y008631D01*
X006383Y008207D01*
X006206Y008207D01*
X006281Y008238D01*
X006357Y008314D01*
X006398Y008413D01*
X006398Y008520D01*
X006357Y008620D01*
X006308Y008669D01*
X006308Y009202D01*
X006442Y009337D01*
X008049Y009337D01*
X008049Y009335D01*
X008258Y009335D01*
X008258Y009335D01*
X008049Y009335D01*
X008049Y009236D02*
X006342Y009236D01*
X006308Y009158D02*
X007928Y009158D01*
X007866Y009079D02*
X006308Y009079D01*
X006308Y009001D02*
X007860Y009001D01*
X007860Y008922D02*
X006308Y008922D01*
X006308Y008844D02*
X007860Y008844D01*
X007860Y008765D02*
X006308Y008765D01*
X006308Y008687D02*
X006863Y008687D01*
X006785Y008608D02*
X006361Y008608D01*
X006394Y008530D02*
X006706Y008530D01*
X006628Y008451D02*
X006398Y008451D01*
X006381Y008373D02*
X006549Y008373D01*
X006471Y008294D02*
X006337Y008294D01*
X006392Y008216D02*
X006227Y008216D01*
X006458Y008027D02*
X006988Y008557D01*
X007704Y008557D01*
X007705Y008555D01*
X007705Y007965D02*
X007386Y007965D01*
X007358Y007937D01*
X006458Y008027D02*
X005668Y008027D01*
X005504Y008190D01*
X005504Y008486D01*
X005328Y008466D02*
X005307Y008486D01*
X005316Y008495D02*
X005316Y008927D01*
X005316Y009107D01*
X005119Y009107D02*
X005119Y008927D01*
X005119Y009107D01*
X005119Y009107D01*
X005119Y009079D02*
X005119Y009079D01*
X005119Y009001D02*
X005119Y009001D01*
X005119Y008927D02*
X005119Y008927D01*
X005119Y008495D01*
X005111Y008486D02*
X005111Y008150D01*
X005148Y008150D01*
X005148Y007961D01*
X005093Y007907D01*
X003862Y007907D01*
X003716Y008053D01*
X003716Y008150D01*
X005025Y008150D01*
X005028Y008153D01*
X005039Y008150D01*
X005111Y008150D01*
X005111Y008486D01*
X005111Y008486D01*
X005111Y008451D02*
X005111Y008451D01*
X005111Y008373D02*
X005111Y008373D01*
X005111Y008294D02*
X005111Y008294D01*
X005111Y008216D02*
X005111Y008216D01*
X005148Y008137D02*
X003716Y008137D01*
X003716Y008059D02*
X005148Y008059D01*
X005148Y007980D02*
X003789Y007980D01*
X003536Y008177D02*
X003536Y008487D01*
X003536Y008486D02*
X003536Y009007D01*
X003536Y009007D01*
X003339Y009007D02*
X003339Y008760D01*
X003339Y008760D01*
X003339Y008486D01*
X003339Y008798D01*
X003339Y008798D01*
X003339Y008486D01*
X003339Y008486D01*
X003339Y008530D02*
X003339Y008530D01*
X003339Y008608D02*
X003339Y008608D01*
X003339Y008687D02*
X003339Y008687D01*
X003339Y008765D02*
X003339Y008765D01*
X003339Y009079D02*
X003339Y009079D01*
X003339Y009158D02*
X003339Y009158D01*
X003271Y009236D02*
X004944Y009236D01*
X004930Y009158D02*
X003701Y009158D01*
X003725Y009079D02*
X004930Y009079D01*
X004983Y009107D02*
X004983Y009107D01*
X004930Y009001D02*
X003725Y009001D01*
X003725Y008922D02*
X004930Y008922D01*
X004930Y008844D02*
X003716Y008844D01*
X003048Y009517D02*
X002762Y009517D01*
X002718Y009473D01*
X002398Y008897D02*
X001998Y009297D01*
X001978Y009027D02*
X002228Y008777D01*
X002228Y007897D01*
X002088Y007757D01*
X001824Y007757D01*
X001823Y007758D01*
X001823Y007561D02*
X001493Y007561D01*
X001368Y007687D01*
X001368Y008227D01*
X001568Y008427D01*
X001568Y009027D02*
X001978Y009027D01*
X002398Y008897D02*
X002398Y008237D01*
X005158Y007727D02*
X005168Y007727D01*
X005328Y007887D01*
X005328Y008466D01*
X005119Y009158D02*
X005119Y009158D01*
X005119Y009236D02*
X005119Y009236D01*
X009658Y007117D02*
X009658Y007117D01*
D27*
X008488Y007097D03*
X008458Y007897D03*
X007568Y007217D03*
X007368Y007607D03*
X007358Y007937D03*
X006768Y007577D03*
X006758Y007967D03*
X006483Y008442D03*
X006128Y008467D03*
X005408Y007107D03*
X005408Y006477D03*
X005468Y005737D03*
X005018Y005637D03*
X006648Y006947D03*
X007588Y005647D03*
X007858Y005157D03*
X008158Y004857D03*
X008698Y005047D03*
X009268Y005047D03*
X009208Y004247D03*
X009048Y003917D03*
X008768Y003287D03*
X010068Y003077D03*
X010058Y002607D03*
X010338Y002127D03*
X010068Y003907D03*
X010778Y004187D03*
X007428Y004787D03*
X005998Y003777D03*
X005448Y003577D03*
X001698Y002317D03*
X001098Y004117D03*
X001378Y004837D03*
X001368Y005177D03*
X001438Y005517D03*
X001998Y009297D03*
X010068Y009757D03*
X010648Y009207D03*
D28*
X001088Y006927D03*
>>>>>>> parent of c675796... Revert "fixed analog input connection"
M02*
