G75*
%MOIN*%
%OFA0B0*%
%FSLAX24Y24*%
%IPPOS*%
%LPD*%
%AMOC8*
5,1,8,0,0,1.08239X$1,22.5*
%
%ADD10C,0.0000*%
%ADD11C,0.0050*%
%ADD12C,0.0039*%
%ADD13C,0.0040*%
%ADD14C,0.0060*%
%ADD15C,0.0020*%
%ADD16C,0.0030*%
%ADD17C,0.0080*%
%ADD18C,0.0010*%
D10*
X000297Y000837D02*
X000297Y010737D01*
X011477Y010727D01*
X011477Y000827D01*
X000297Y000837D01*
D11*
X000795Y001299D02*
X000795Y001674D01*
X000920Y001799D01*
X001232Y001799D01*
X001357Y001674D01*
X001482Y001799D01*
X001732Y001799D01*
X001857Y001674D01*
X001982Y001799D01*
X002232Y001799D01*
X002357Y001674D01*
X002482Y001799D01*
X002732Y001799D01*
X002857Y001674D01*
X002982Y001799D01*
X003232Y001799D01*
X003357Y001674D01*
X003482Y001799D01*
X003732Y001799D01*
X003857Y001674D01*
X003982Y001799D01*
X004232Y001799D01*
X004357Y001674D01*
X004482Y001799D01*
X004732Y001799D01*
X004857Y001674D01*
X004982Y001799D01*
X005232Y001799D01*
X005357Y001674D01*
X005482Y001799D01*
X005732Y001799D01*
X005857Y001674D01*
X005982Y001799D01*
X006232Y001799D01*
X006357Y001674D01*
X006482Y001799D01*
X006732Y001799D01*
X006857Y001674D01*
X006982Y001799D01*
X007232Y001799D01*
X007357Y001674D01*
X007482Y001799D01*
X007732Y001799D01*
X007857Y001674D01*
X007982Y001799D01*
X008232Y001799D01*
X008357Y001674D01*
X008482Y001799D01*
X008732Y001799D01*
X008857Y001674D01*
X008982Y001799D01*
X009232Y001799D01*
X009357Y001674D01*
X009482Y001799D01*
X009732Y001799D01*
X009857Y001674D01*
X009982Y001799D01*
X010232Y001799D01*
X010357Y001674D01*
X010482Y001799D01*
X010732Y001799D01*
X010920Y001612D01*
X010920Y001299D01*
X010795Y001174D01*
X010482Y001174D01*
X010357Y001299D01*
X010232Y001174D01*
X009982Y001174D01*
X009857Y001299D01*
X009732Y001174D01*
X009482Y001174D01*
X009357Y001299D01*
X009232Y001174D01*
X008982Y001174D01*
X008857Y001299D01*
X008732Y001174D01*
X008482Y001174D01*
X008357Y001299D01*
X008232Y001174D01*
X007982Y001174D01*
X007857Y001299D01*
X007732Y001174D01*
X007482Y001174D01*
X007357Y001299D01*
X007232Y001174D01*
X006982Y001174D01*
X006857Y001299D01*
X006732Y001174D01*
X006482Y001174D01*
X006357Y001299D01*
X006232Y001174D01*
X005982Y001174D01*
X005857Y001299D01*
X005732Y001174D01*
X005482Y001174D01*
X005357Y001299D01*
X005232Y001174D01*
X004982Y001174D01*
X004857Y001299D01*
X004732Y001174D01*
X004482Y001174D01*
X004357Y001299D01*
X004232Y001174D01*
X003982Y001174D01*
X003857Y001299D01*
X003732Y001174D01*
X003482Y001174D01*
X003357Y001299D01*
X003232Y001174D01*
X002982Y001174D01*
X002857Y001299D01*
X002732Y001174D01*
X002482Y001174D01*
X002357Y001299D01*
X002232Y001174D01*
X001982Y001174D01*
X001857Y001299D01*
X001732Y001174D01*
X001482Y001174D01*
X001357Y001299D01*
X001232Y001174D01*
X000920Y001174D01*
X000795Y001299D01*
X002783Y003002D02*
X002783Y003452D01*
X002933Y003452D02*
X002632Y003452D01*
X003093Y003452D02*
X003093Y003002D01*
X003093Y003152D02*
X003318Y003152D01*
X003393Y003227D01*
X003393Y003377D01*
X003318Y003452D01*
X003093Y003452D01*
X003553Y003452D02*
X003853Y003452D01*
X003853Y003377D01*
X003553Y003077D01*
X003553Y003002D01*
X006922Y003302D02*
X007223Y003302D01*
X007073Y003302D02*
X007073Y002852D01*
X007383Y002852D02*
X007383Y003302D01*
X007608Y003302D01*
X007683Y003227D01*
X007683Y003077D01*
X007608Y003002D01*
X007383Y003002D01*
X007642Y003292D02*
X007943Y003292D01*
X007993Y003227D02*
X007843Y003077D01*
X008068Y003077D01*
X008143Y003002D01*
X008143Y002927D01*
X008068Y002852D01*
X007918Y002852D01*
X007843Y002927D01*
X007843Y003077D01*
X007993Y003227D02*
X008143Y003302D01*
X008103Y003292D02*
X008328Y003292D01*
X008403Y003217D01*
X008403Y003067D01*
X008328Y002992D01*
X008103Y002992D01*
X008103Y002842D02*
X008103Y003292D01*
X008068Y003542D02*
X008068Y003992D01*
X007843Y003767D01*
X008143Y003767D01*
X008103Y003702D02*
X008328Y003702D01*
X008403Y003777D01*
X008403Y003927D01*
X008328Y004002D01*
X008103Y004002D01*
X008103Y003552D01*
X007793Y003552D02*
X007793Y004002D01*
X007683Y003917D02*
X007683Y003767D01*
X007608Y003692D01*
X007383Y003692D01*
X007383Y003542D02*
X007383Y003992D01*
X007608Y003992D01*
X007683Y003917D01*
X007642Y004002D02*
X007943Y004002D01*
X008563Y003927D02*
X008638Y004002D01*
X008788Y004002D01*
X008863Y003927D01*
X008863Y003852D01*
X008788Y003777D01*
X008863Y003702D01*
X008863Y003627D01*
X008788Y003552D01*
X008638Y003552D01*
X008563Y003627D01*
X008713Y003777D02*
X008788Y003777D01*
X008863Y003292D02*
X008563Y003292D01*
X008563Y003067D01*
X008713Y003142D01*
X008788Y003142D01*
X008863Y003067D01*
X008863Y002917D01*
X008788Y002842D01*
X008638Y002842D01*
X008563Y002917D01*
X008813Y002812D02*
X008813Y003262D01*
X008963Y003262D02*
X008662Y003262D01*
X009123Y003262D02*
X009123Y002812D01*
X009123Y002962D02*
X009348Y002962D01*
X009423Y003037D01*
X009423Y003187D01*
X009348Y003262D01*
X009123Y003262D01*
X009583Y003187D02*
X009583Y003112D01*
X009658Y003037D01*
X009883Y003037D01*
X009883Y003187D02*
X009808Y003262D01*
X009658Y003262D01*
X009583Y003187D01*
X009883Y003187D02*
X009883Y002887D01*
X009808Y002812D01*
X009658Y002812D01*
X009583Y002887D01*
X010295Y003007D02*
X010295Y002757D01*
X010420Y002632D01*
X010295Y002507D01*
X010295Y002307D01*
X010295Y002257D01*
X010295Y002244D01*
X010470Y002069D01*
X010745Y002069D01*
X010920Y002244D01*
X010920Y002257D02*
X010920Y002507D01*
X010795Y002632D01*
X010920Y002757D01*
X010920Y003007D01*
X010732Y003194D01*
X010482Y003194D01*
X010295Y003007D01*
X011352Y002626D02*
X011802Y002626D01*
X011802Y002476D02*
X011802Y002777D01*
X011502Y002476D02*
X011352Y002626D01*
X011427Y002316D02*
X011352Y002241D01*
X011352Y002016D01*
X011802Y002016D01*
X011652Y002016D02*
X011652Y002241D01*
X011577Y002316D01*
X011427Y002316D01*
X011352Y001856D02*
X011352Y001706D01*
X011352Y001781D02*
X011727Y001781D01*
X011802Y001706D01*
X011802Y001631D01*
X011727Y001555D01*
X010927Y000742D02*
X010777Y000742D01*
X010702Y000667D01*
X010542Y000667D02*
X010542Y000517D01*
X010467Y000442D01*
X010242Y000442D01*
X010242Y000292D02*
X010242Y000742D01*
X010467Y000742D01*
X010542Y000667D01*
X010927Y000742D02*
X011002Y000667D01*
X011002Y000592D01*
X010702Y000292D01*
X011002Y000292D01*
X010082Y000742D02*
X009931Y000742D01*
X010006Y000742D02*
X010006Y000367D01*
X009931Y000292D01*
X009856Y000292D01*
X009781Y000367D01*
X007793Y002842D02*
X007793Y003292D01*
X007073Y003542D02*
X007073Y003992D01*
X007223Y003992D02*
X006922Y003992D01*
X007103Y005652D02*
X007103Y006102D01*
X007253Y006102D02*
X006952Y006102D01*
X007413Y006102D02*
X007413Y005652D01*
X007413Y005802D02*
X007638Y005802D01*
X007713Y005877D01*
X007713Y006027D01*
X007638Y006102D01*
X007413Y006102D01*
X007873Y006027D02*
X007873Y005952D01*
X007948Y005877D01*
X008098Y005877D01*
X008173Y005802D01*
X008173Y005727D01*
X008098Y005652D01*
X007948Y005652D01*
X007873Y005727D01*
X007873Y005802D01*
X007948Y005877D01*
X008098Y005877D02*
X008173Y005952D01*
X008173Y006027D01*
X008098Y006102D01*
X007948Y006102D01*
X007873Y006027D01*
X009856Y008892D02*
X009931Y008892D01*
X010006Y008967D01*
X010006Y009342D01*
X009931Y009342D02*
X010082Y009342D01*
X010242Y009342D02*
X010467Y009342D01*
X010542Y009267D01*
X010542Y009117D01*
X010467Y009042D01*
X010242Y009042D01*
X010242Y008892D02*
X010242Y009342D01*
X010232Y009774D02*
X009982Y009774D01*
X009857Y009899D01*
X009732Y009774D01*
X009482Y009774D01*
X009357Y009899D01*
X009232Y009774D01*
X008982Y009774D01*
X008857Y009899D01*
X008732Y009774D01*
X008482Y009774D01*
X008357Y009899D01*
X008232Y009774D01*
X007982Y009774D01*
X007857Y009899D01*
X007732Y009774D01*
X007482Y009774D01*
X007357Y009899D01*
X007232Y009774D01*
X006982Y009774D01*
X006857Y009899D01*
X006732Y009774D01*
X006482Y009774D01*
X006357Y009899D01*
X006232Y009774D01*
X005982Y009774D01*
X005857Y009899D01*
X005732Y009774D01*
X005482Y009774D01*
X005357Y009899D01*
X005232Y009774D01*
X004982Y009774D01*
X004857Y009899D01*
X004732Y009774D01*
X004482Y009774D01*
X004357Y009899D01*
X004232Y009774D01*
X003982Y009774D01*
X003857Y009899D01*
X003732Y009774D01*
X003482Y009774D01*
X003357Y009899D01*
X003232Y009774D01*
X002982Y009774D01*
X002857Y009899D01*
X002732Y009774D01*
X002482Y009774D01*
X002357Y009899D01*
X002232Y009774D01*
X001982Y009774D01*
X001857Y009899D01*
X001732Y009774D01*
X001482Y009774D01*
X001357Y009899D01*
X001232Y009774D01*
X000920Y009774D01*
X000795Y009899D01*
X000795Y010274D01*
X000920Y010399D01*
X001232Y010399D01*
X001357Y010274D01*
X001482Y010399D01*
X001732Y010399D01*
X001857Y010274D01*
X001982Y010399D01*
X002232Y010399D01*
X002357Y010274D01*
X002482Y010399D01*
X002732Y010399D01*
X002857Y010274D01*
X002982Y010399D01*
X003232Y010399D01*
X003357Y010274D01*
X003482Y010399D01*
X003732Y010399D01*
X003857Y010274D01*
X003982Y010399D01*
X004232Y010399D01*
X004357Y010274D01*
X004482Y010399D01*
X004732Y010399D01*
X004857Y010274D01*
X004982Y010399D01*
X005232Y010399D01*
X005357Y010274D01*
X005482Y010399D01*
X005732Y010399D01*
X005857Y010274D01*
X005982Y010399D01*
X006232Y010399D01*
X006357Y010274D01*
X006482Y010399D01*
X006732Y010399D01*
X006857Y010274D01*
X006982Y010399D01*
X007232Y010399D01*
X007357Y010274D01*
X007482Y010399D01*
X007732Y010399D01*
X007857Y010274D01*
X007982Y010399D01*
X008232Y010399D01*
X008357Y010274D01*
X008482Y010399D01*
X008732Y010399D01*
X008857Y010274D01*
X008982Y010399D01*
X009232Y010399D01*
X009357Y010274D01*
X009482Y010399D01*
X009732Y010399D01*
X009857Y010274D01*
X009982Y010399D01*
X010232Y010399D01*
X010357Y010274D01*
X010482Y010399D01*
X010732Y010399D01*
X010920Y010212D01*
X010920Y009899D01*
X010795Y009774D01*
X010482Y009774D01*
X010357Y009899D01*
X010232Y009774D01*
X010702Y009267D02*
X010777Y009342D01*
X010927Y009342D01*
X011002Y009267D01*
X011002Y009192D01*
X010927Y009117D01*
X011002Y009042D01*
X011002Y008967D01*
X010927Y008892D01*
X010777Y008892D01*
X010702Y008967D01*
X010852Y009117D02*
X010927Y009117D01*
X009856Y008892D02*
X009781Y008967D01*
X002353Y008852D02*
X002053Y008852D01*
X001893Y009077D02*
X001818Y009002D01*
X001593Y009002D01*
X001593Y008852D02*
X001593Y009302D01*
X001818Y009302D01*
X001893Y009227D01*
X001893Y009077D01*
X002053Y009152D02*
X002203Y009302D01*
X002203Y008852D01*
X002053Y009452D02*
X002353Y009752D01*
X002353Y009827D01*
X002278Y009902D01*
X002128Y009902D01*
X002053Y009827D01*
X001893Y009827D02*
X001893Y009677D01*
X001818Y009602D01*
X001593Y009602D01*
X001593Y009452D02*
X001593Y009902D01*
X001818Y009902D01*
X001893Y009827D01*
X002053Y009452D02*
X002353Y009452D01*
X001433Y009302D02*
X001132Y009302D01*
X001283Y009302D02*
X001283Y008852D01*
X001283Y009452D02*
X001283Y009902D01*
X001433Y009902D02*
X001132Y009902D01*
D12*
X002006Y008250D02*
X005589Y008250D01*
X005786Y008053D01*
X005786Y004510D01*
X005589Y004313D01*
X002006Y004313D01*
X001849Y004471D01*
X001849Y008093D01*
X002006Y008250D01*
X005211Y007817D02*
X005213Y007840D01*
X005219Y007863D01*
X005228Y007885D01*
X005241Y007904D01*
X005257Y007921D01*
X005275Y007936D01*
X005296Y007947D01*
X005318Y007955D01*
X005341Y007959D01*
X005365Y007959D01*
X005388Y007955D01*
X005410Y007947D01*
X005431Y007936D01*
X005449Y007921D01*
X005465Y007904D01*
X005478Y007885D01*
X005487Y007863D01*
X005493Y007840D01*
X005495Y007817D01*
X005493Y007794D01*
X005487Y007771D01*
X005478Y007749D01*
X005465Y007730D01*
X005449Y007713D01*
X005431Y007698D01*
X005410Y007687D01*
X005388Y007679D01*
X005365Y007675D01*
X005341Y007675D01*
X005318Y007679D01*
X005296Y007687D01*
X005275Y007698D01*
X005257Y007713D01*
X005241Y007730D01*
X005228Y007749D01*
X005219Y007771D01*
X005213Y007794D01*
X005211Y007817D01*
D13*
X005047Y008287D02*
X004894Y008287D01*
X004817Y008363D01*
X004664Y008363D02*
X004587Y008287D01*
X004433Y008287D01*
X004357Y008363D01*
X004357Y008670D01*
X004433Y008747D01*
X004587Y008747D01*
X004664Y008670D01*
X004664Y008567D02*
X004357Y008567D01*
X004510Y008567D02*
X004510Y009027D01*
X004357Y008874D01*
X004203Y008950D02*
X004126Y009027D01*
X003973Y009027D01*
X003896Y008950D01*
X003896Y008643D01*
X003973Y008567D01*
X004126Y008567D01*
X004203Y008643D01*
X003784Y008767D02*
X003477Y008767D01*
X003707Y008997D01*
X003707Y008537D01*
X003324Y008537D02*
X003017Y008537D01*
X002863Y008613D02*
X002786Y008537D01*
X002633Y008537D01*
X002556Y008613D01*
X002556Y008920D01*
X002633Y008997D01*
X002786Y008997D01*
X002863Y008920D01*
X003017Y008844D02*
X003170Y008997D01*
X003170Y008537D01*
X002677Y008987D02*
X002217Y008987D01*
X002217Y009217D01*
X002294Y009294D01*
X002447Y009294D01*
X002524Y009217D01*
X002524Y008987D01*
X002524Y009140D02*
X002677Y009294D01*
X002601Y009447D02*
X002677Y009524D01*
X002677Y009677D01*
X002601Y009754D01*
X002524Y009754D01*
X002447Y009677D01*
X002447Y009601D01*
X002447Y009677D02*
X002371Y009754D01*
X002294Y009754D01*
X002217Y009677D01*
X002217Y009524D01*
X002294Y009447D01*
X002237Y009447D02*
X002237Y009754D01*
X002237Y009907D02*
X002237Y010138D01*
X002161Y010214D01*
X001854Y010214D01*
X001777Y010138D01*
X001777Y009907D01*
X002237Y009907D01*
X002007Y009601D02*
X002007Y009447D01*
X001777Y009447D02*
X001777Y009754D01*
X001777Y009447D02*
X002237Y009447D01*
X002237Y009294D02*
X002237Y008987D01*
X001777Y008987D01*
X001931Y010368D02*
X001777Y010521D01*
X002237Y010521D01*
X002237Y010368D02*
X002237Y010675D01*
X004817Y008950D02*
X004817Y008643D01*
X005124Y008950D01*
X005124Y008643D01*
X005047Y008567D01*
X004894Y008567D01*
X004817Y008643D01*
X004817Y008747D02*
X004817Y008517D01*
X004971Y008594D01*
X005047Y008594D01*
X005124Y008517D01*
X005124Y008363D01*
X005047Y008287D01*
X005124Y008747D02*
X004817Y008747D01*
X004817Y008950D02*
X004894Y009027D01*
X005047Y009027D01*
X005124Y008950D01*
X004339Y007369D02*
X004416Y007292D01*
X004416Y007138D01*
X004339Y007062D01*
X004339Y006908D02*
X004416Y006832D01*
X004416Y006678D01*
X004339Y006601D01*
X004032Y006601D01*
X003955Y006678D01*
X003955Y006832D01*
X004032Y006908D01*
X004032Y007062D02*
X003955Y007138D01*
X003955Y007292D01*
X004032Y007369D01*
X004109Y007369D01*
X004185Y007292D01*
X004262Y007369D01*
X004339Y007369D01*
X004185Y007292D02*
X004185Y007215D01*
X003955Y006448D02*
X003955Y006294D01*
X003955Y006371D02*
X004416Y006371D01*
X004416Y006294D02*
X004416Y006448D01*
X005837Y006564D02*
X005914Y006487D01*
X005837Y006564D02*
X005837Y006718D01*
X005914Y006794D01*
X005991Y006794D01*
X006297Y006487D01*
X006297Y006794D01*
X006297Y006334D02*
X006297Y006027D01*
X006221Y005874D02*
X006297Y005797D01*
X006297Y005643D01*
X006221Y005567D01*
X005914Y005567D01*
X005837Y005643D01*
X005837Y005797D01*
X005914Y005874D01*
X005991Y006027D02*
X005837Y006181D01*
X006297Y006181D01*
X007247Y006030D02*
X007707Y006030D01*
X007764Y005943D02*
X007687Y005866D01*
X007687Y005713D01*
X007764Y005636D01*
X008071Y005636D01*
X008147Y005713D01*
X008147Y005866D01*
X008071Y005943D01*
X008071Y006096D02*
X007917Y006096D01*
X007917Y006326D01*
X007994Y006403D01*
X008071Y006403D01*
X008147Y006326D01*
X008147Y006173D01*
X008071Y006096D01*
X007917Y006096D02*
X007764Y006250D01*
X007687Y006403D01*
X007666Y006440D02*
X007436Y006440D01*
X007436Y006287D02*
X007436Y006747D01*
X007666Y006747D01*
X007743Y006670D01*
X007743Y006517D01*
X007666Y006440D01*
X007590Y006440D02*
X007743Y006287D01*
X007707Y006183D02*
X007707Y005876D01*
X007707Y005723D02*
X007707Y005416D01*
X007707Y005569D02*
X007247Y005569D01*
X007401Y005416D01*
X007324Y005262D02*
X007247Y005186D01*
X007247Y005032D01*
X007324Y004955D01*
X007631Y004955D01*
X007707Y005032D01*
X007707Y005186D01*
X007631Y005262D01*
X007401Y005876D02*
X007247Y006030D01*
X007897Y006287D02*
X008204Y006287D01*
X008050Y006287D02*
X008050Y006747D01*
X007897Y006594D01*
X007856Y006995D02*
X007856Y007225D01*
X008009Y007378D01*
X008009Y007455D01*
X008163Y007378D02*
X008240Y007455D01*
X008393Y007455D01*
X008470Y007378D01*
X008470Y007302D01*
X008163Y006995D01*
X008470Y006995D01*
X008434Y006747D02*
X008587Y006747D01*
X008664Y006670D01*
X008357Y006363D01*
X008434Y006287D01*
X008587Y006287D01*
X008664Y006363D01*
X008664Y006670D01*
X008434Y006747D02*
X008357Y006670D01*
X008357Y006363D01*
X008557Y006100D02*
X008557Y005793D01*
X008634Y005717D01*
X008788Y005717D01*
X008864Y005793D01*
X009018Y005717D02*
X009325Y006024D01*
X009325Y006100D01*
X009248Y006177D01*
X009095Y006177D01*
X009018Y006100D01*
X008864Y006100D02*
X008788Y006177D01*
X008634Y006177D01*
X008557Y006100D01*
X009018Y005717D02*
X009325Y005717D01*
X009478Y005793D02*
X009785Y006100D01*
X009785Y005793D01*
X009708Y005717D01*
X009555Y005717D01*
X009478Y005793D01*
X009478Y006100D01*
X009555Y006177D01*
X009708Y006177D01*
X009785Y006100D01*
X009837Y006110D02*
X010297Y006110D01*
X010281Y006055D02*
X010357Y006132D01*
X010357Y006286D01*
X010281Y006362D01*
X010297Y006263D02*
X010297Y005956D01*
X010281Y006055D02*
X009974Y006055D01*
X009897Y006132D01*
X009897Y006286D01*
X009974Y006362D01*
X010107Y006426D02*
X010031Y006502D01*
X009974Y006516D02*
X009897Y006593D01*
X009897Y006746D01*
X009974Y006823D01*
X010051Y006823D01*
X010357Y006516D01*
X010357Y006823D01*
X010327Y006676D02*
X010787Y006676D01*
X010787Y006983D01*
X010557Y007136D02*
X010557Y007443D01*
X010327Y007366D02*
X010557Y007136D01*
X010357Y007283D02*
X010357Y006976D01*
X010051Y007283D01*
X009974Y007283D01*
X009897Y007206D01*
X009897Y007053D01*
X009974Y006976D01*
X010107Y006963D02*
X010107Y006656D01*
X009801Y006963D01*
X009724Y006963D01*
X009647Y006886D01*
X009647Y006733D01*
X009724Y006656D01*
X009724Y006502D02*
X009647Y006426D01*
X009647Y006272D01*
X009724Y006195D01*
X010031Y006195D01*
X010107Y006272D01*
X010107Y006426D01*
X009837Y006110D02*
X009991Y005956D01*
X009991Y005803D02*
X009914Y005803D01*
X009837Y005726D01*
X009837Y005573D01*
X009914Y005496D01*
X009914Y005342D02*
X009837Y005266D01*
X009837Y005112D01*
X009914Y005035D01*
X010221Y005035D01*
X010297Y005112D01*
X010297Y005266D01*
X010221Y005342D01*
X010297Y005496D02*
X009991Y005803D01*
X010297Y005803D02*
X010297Y005496D01*
X009877Y007116D02*
X009877Y007423D01*
X009647Y007346D02*
X009877Y007116D01*
X010107Y007346D02*
X009647Y007346D01*
X009737Y007957D02*
X009277Y007957D01*
X009277Y007937D02*
X009277Y008244D01*
X009227Y008157D02*
X009534Y008464D01*
X009534Y008540D01*
X009457Y008617D01*
X009303Y008617D01*
X009227Y008540D01*
X009277Y008494D02*
X009277Y008647D01*
X009354Y008724D01*
X009431Y008724D01*
X009507Y008647D01*
X009584Y008724D01*
X009661Y008724D01*
X009737Y008647D01*
X009737Y008494D01*
X009661Y008417D01*
X009687Y008387D02*
X009917Y008387D01*
X009994Y008310D01*
X009994Y008233D01*
X009917Y008157D01*
X009764Y008157D01*
X009687Y008233D01*
X009687Y008387D01*
X009841Y008540D01*
X009994Y008617D01*
X009973Y008630D02*
X009896Y008707D01*
X009743Y008707D01*
X009666Y008630D01*
X009666Y008323D01*
X009743Y008247D01*
X009896Y008247D01*
X009973Y008323D01*
X010127Y008247D02*
X010434Y008554D01*
X010434Y008630D01*
X010357Y008707D01*
X010203Y008707D01*
X010127Y008630D01*
X009737Y008264D02*
X009737Y007957D01*
X009534Y008157D02*
X009227Y008157D01*
X009073Y008233D02*
X008996Y008157D01*
X008843Y008157D01*
X008766Y008233D01*
X008766Y008540D01*
X008843Y008617D01*
X008996Y008617D01*
X009073Y008540D01*
X008971Y008704D02*
X008894Y008704D01*
X008817Y008627D01*
X008817Y008474D01*
X008894Y008397D01*
X008971Y008704D02*
X009277Y008397D01*
X009277Y008704D01*
X009277Y008494D02*
X009354Y008417D01*
X009507Y008571D02*
X009507Y008647D01*
X010127Y008247D02*
X010434Y008247D01*
X010587Y008247D02*
X010587Y008323D01*
X010894Y008630D01*
X010894Y008707D01*
X010587Y008707D01*
X010787Y007366D02*
X010327Y007366D01*
X009277Y007937D02*
X008817Y007937D01*
X007856Y007225D02*
X007703Y007378D01*
X007703Y007455D01*
X007614Y009547D02*
X007768Y009547D01*
X007844Y009623D01*
X007998Y009547D02*
X008305Y009547D01*
X008437Y009547D02*
X008437Y010007D01*
X008668Y010007D01*
X008744Y009930D01*
X008744Y009777D01*
X008668Y009700D01*
X008437Y009700D01*
X008458Y009623D02*
X008535Y009547D01*
X008688Y009547D01*
X008765Y009623D01*
X008765Y009930D01*
X008688Y010007D01*
X008535Y010007D01*
X008458Y009930D01*
X008458Y009854D01*
X008535Y009777D01*
X008765Y009777D01*
X008898Y009854D02*
X008898Y009930D01*
X008975Y010007D01*
X009128Y010007D01*
X009205Y009930D01*
X009205Y009623D01*
X009128Y009547D01*
X008975Y009547D01*
X008898Y009623D01*
X008744Y009547D02*
X008591Y009700D01*
X008898Y009854D02*
X008975Y009777D01*
X009205Y009777D01*
X008151Y010007D02*
X008151Y009547D01*
X007998Y009854D02*
X008151Y010007D01*
X007844Y009930D02*
X007768Y010007D01*
X007614Y010007D01*
X007537Y009930D01*
X007537Y009623D01*
X007614Y009547D01*
X004016Y004235D02*
X004016Y003775D01*
X003863Y003775D02*
X004170Y003775D01*
X003863Y004082D02*
X004016Y004235D01*
X003709Y004235D02*
X003709Y004158D01*
X003556Y004005D01*
X003556Y003775D01*
X003535Y003914D02*
X003535Y003990D01*
X003458Y004067D01*
X003305Y004067D01*
X003228Y003990D01*
X003074Y003990D02*
X003074Y003837D01*
X002998Y003760D01*
X002767Y003760D01*
X002767Y003607D02*
X002767Y004067D01*
X002998Y004067D01*
X003074Y003990D01*
X002921Y003760D02*
X003074Y003607D01*
X003228Y003607D02*
X003535Y003914D01*
X003556Y004005D02*
X003403Y004158D01*
X003403Y004235D01*
X003535Y003607D02*
X003228Y003607D01*
X003744Y002693D02*
X003667Y002616D01*
X003667Y002463D01*
X003744Y002386D01*
X003744Y002233D02*
X003667Y002156D01*
X003667Y002003D01*
X003744Y001926D01*
X004051Y001926D01*
X004127Y002003D01*
X004127Y002156D01*
X004051Y002233D01*
X004127Y002386D02*
X003821Y002693D01*
X003744Y002693D01*
X004127Y002693D02*
X004127Y002386D01*
X005527Y002550D02*
X005987Y002550D01*
X005987Y002703D02*
X005987Y002396D01*
X005911Y002243D02*
X005987Y002166D01*
X005987Y002013D01*
X005911Y001936D01*
X005604Y001936D01*
X005527Y002013D01*
X005527Y002166D01*
X005604Y002243D01*
X005681Y002396D02*
X005527Y002550D01*
X002047Y002983D02*
X001971Y002907D01*
X001664Y002907D01*
X001587Y002983D01*
X001587Y003137D01*
X001664Y003214D01*
X001664Y003367D02*
X001741Y003367D01*
X001817Y003444D01*
X001817Y003597D01*
X001894Y003674D01*
X001971Y003674D01*
X002047Y003597D01*
X002047Y003444D01*
X001971Y003367D01*
X001894Y003367D01*
X001817Y003444D01*
X001817Y003597D02*
X001741Y003674D01*
X001664Y003674D01*
X001587Y003597D01*
X001587Y003444D01*
X001664Y003367D01*
X001971Y003214D02*
X002047Y003137D01*
X002047Y002983D01*
X001501Y004655D02*
X001194Y004655D01*
X001117Y004732D01*
X001117Y004886D01*
X001194Y004962D01*
X001271Y005116D02*
X001117Y005269D01*
X001577Y005269D01*
X001577Y005116D02*
X001577Y005423D01*
X001501Y005576D02*
X001577Y005653D01*
X001577Y005806D01*
X001501Y005883D01*
X001424Y005883D01*
X001347Y005806D01*
X001347Y005730D01*
X001347Y005806D02*
X001271Y005883D01*
X001194Y005883D01*
X001117Y005806D01*
X001117Y005653D01*
X001194Y005576D01*
X001054Y005743D02*
X000977Y005667D01*
X000824Y005667D01*
X000747Y005743D01*
X000824Y005897D02*
X001054Y005897D01*
X001054Y006050D02*
X001054Y005743D01*
X000824Y005897D02*
X000747Y005974D01*
X000747Y006050D01*
X000824Y006127D01*
X000977Y006127D01*
X001054Y006050D01*
X000594Y006050D02*
X000517Y006127D01*
X000363Y006127D01*
X000287Y006050D01*
X000287Y005743D01*
X000363Y005667D01*
X000517Y005667D01*
X000594Y005743D01*
X001501Y004962D02*
X001577Y004886D01*
X001577Y004732D01*
X001501Y004655D01*
D14*
X008552Y004670D02*
X008552Y004616D01*
X008552Y004654D02*
X008554Y004674D01*
X008558Y004694D01*
X008566Y004712D01*
X008576Y004729D01*
X008589Y004745D01*
X008605Y004758D01*
X008622Y004768D01*
X008640Y004776D01*
X008660Y004780D01*
X008680Y004782D01*
X009704Y004782D01*
X009724Y004780D01*
X009744Y004776D01*
X009762Y004768D01*
X009779Y004758D01*
X009795Y004745D01*
X009808Y004729D01*
X009818Y004712D01*
X009826Y004694D01*
X009830Y004674D01*
X009832Y004654D01*
X009832Y004616D01*
X009832Y004436D02*
X009832Y004360D01*
X009832Y004180D02*
X009832Y004104D01*
X009832Y003924D02*
X009832Y003848D01*
X009832Y003668D02*
X009832Y003630D01*
X009830Y003610D01*
X009826Y003590D01*
X009818Y003572D01*
X009808Y003555D01*
X009795Y003539D01*
X009779Y003526D01*
X009762Y003516D01*
X009744Y003508D01*
X009724Y003504D01*
X009704Y003502D01*
X008680Y003502D01*
X008660Y003504D01*
X008640Y003508D01*
X008622Y003516D01*
X008605Y003526D01*
X008589Y003539D01*
X008576Y003555D01*
X008566Y003572D01*
X008558Y003590D01*
X008554Y003610D01*
X008552Y003630D01*
X008552Y003668D01*
X008552Y003848D02*
X008552Y003924D01*
X008552Y004104D02*
X008552Y004180D01*
X008552Y004360D02*
X008552Y004436D01*
D15*
X008684Y004514D02*
X008686Y004541D01*
X008692Y004568D01*
X008701Y004594D01*
X008714Y004618D01*
X008730Y004641D01*
X008749Y004660D01*
X008771Y004677D01*
X008795Y004691D01*
X008820Y004701D01*
X008847Y004708D01*
X008874Y004711D01*
X008902Y004710D01*
X008929Y004705D01*
X008955Y004697D01*
X008979Y004685D01*
X009002Y004669D01*
X009023Y004651D01*
X009040Y004630D01*
X009055Y004606D01*
X009066Y004581D01*
X009074Y004555D01*
X009078Y004528D01*
X009078Y004500D01*
X009074Y004473D01*
X009066Y004447D01*
X009055Y004422D01*
X009040Y004398D01*
X009023Y004377D01*
X009002Y004359D01*
X008980Y004343D01*
X008955Y004331D01*
X008929Y004323D01*
X008902Y004318D01*
X008874Y004317D01*
X008847Y004320D01*
X008820Y004327D01*
X008795Y004337D01*
X008771Y004351D01*
X008749Y004368D01*
X008730Y004387D01*
X008714Y004410D01*
X008701Y004434D01*
X008692Y004460D01*
X008686Y004487D01*
X008684Y004514D01*
D16*
X008706Y004167D02*
X008706Y003877D01*
X008754Y003877D02*
X008657Y003877D01*
X008854Y003925D02*
X008854Y004119D01*
X008902Y004167D01*
X008999Y004167D01*
X009047Y004119D01*
X009149Y004022D02*
X009294Y004022D01*
X009342Y003973D01*
X009342Y003925D01*
X009294Y003877D01*
X009197Y003877D01*
X009149Y003925D01*
X009149Y004022D01*
X009245Y004119D01*
X009342Y004167D01*
X009583Y004037D02*
X009729Y004037D01*
X009777Y003989D01*
X009777Y003892D01*
X009729Y003843D01*
X009583Y003843D01*
X009583Y003747D02*
X009583Y004037D01*
X009680Y003843D02*
X009777Y003747D01*
X009878Y003747D02*
X010072Y003747D01*
X009975Y003747D02*
X009975Y004037D01*
X009878Y003940D01*
X010173Y003892D02*
X010270Y003940D01*
X010318Y003940D01*
X010366Y003892D01*
X010366Y003795D01*
X010318Y003747D01*
X010221Y003747D01*
X010173Y003795D01*
X010173Y003892D02*
X010173Y004037D01*
X010366Y004037D01*
X010397Y004387D02*
X010300Y004387D01*
X010252Y004435D01*
X010252Y004532D02*
X010349Y004580D01*
X010397Y004580D01*
X010445Y004532D01*
X010445Y004435D01*
X010397Y004387D01*
X010252Y004532D02*
X010252Y004677D01*
X010445Y004677D01*
X010151Y004629D02*
X010102Y004677D01*
X010005Y004677D01*
X009957Y004629D01*
X009856Y004629D02*
X009808Y004677D01*
X009711Y004677D01*
X009662Y004629D01*
X009662Y004435D01*
X009711Y004387D01*
X009808Y004387D01*
X009856Y004435D01*
X009957Y004387D02*
X010151Y004580D01*
X010151Y004629D01*
X010151Y004387D02*
X009957Y004387D01*
X010506Y003616D02*
X010457Y003567D01*
X010457Y003470D01*
X010506Y003422D01*
X010506Y003616D02*
X010554Y003616D01*
X010747Y003422D01*
X010747Y003616D01*
X010842Y003577D02*
X010891Y003626D01*
X010939Y003626D01*
X010987Y003577D01*
X010987Y003480D01*
X010939Y003432D01*
X010891Y003432D01*
X010842Y003480D01*
X010842Y003577D01*
X010987Y003577D02*
X011036Y003626D01*
X011084Y003626D01*
X011132Y003577D01*
X011132Y003480D01*
X011084Y003432D01*
X011036Y003432D01*
X010987Y003480D01*
X010939Y003331D02*
X010891Y003331D01*
X010842Y003282D01*
X010842Y003186D01*
X010891Y003137D01*
X010891Y003036D02*
X010842Y002988D01*
X010842Y002891D01*
X010891Y002843D01*
X011084Y002843D01*
X011132Y002891D01*
X011132Y002988D01*
X011084Y003036D01*
X011132Y003137D02*
X010939Y003331D01*
X010747Y003321D02*
X010747Y003127D01*
X010747Y003224D02*
X010457Y003224D01*
X010554Y003127D01*
X010602Y003026D02*
X010651Y002978D01*
X010651Y002833D01*
X010747Y002833D02*
X010457Y002833D01*
X010457Y002978D01*
X010506Y003026D01*
X010602Y003026D01*
X010651Y002929D02*
X010747Y003026D01*
X011132Y003137D02*
X011132Y003331D01*
X009917Y003301D02*
X009917Y003107D01*
X009917Y003204D02*
X009627Y003204D01*
X009724Y003107D01*
X009772Y003006D02*
X009821Y002958D01*
X009821Y002813D01*
X009917Y002813D02*
X009627Y002813D01*
X009627Y002958D01*
X009676Y003006D01*
X009772Y003006D01*
X009821Y002909D02*
X009917Y003006D01*
X009869Y003402D02*
X009917Y003450D01*
X009917Y003547D01*
X009869Y003596D01*
X009821Y003596D01*
X009772Y003547D01*
X009772Y003499D01*
X009772Y003547D02*
X009724Y003596D01*
X009676Y003596D01*
X009627Y003547D01*
X009627Y003450D01*
X009676Y003402D01*
X009047Y003925D02*
X008999Y003877D01*
X008902Y003877D01*
X008854Y003925D01*
X008754Y004167D02*
X008657Y004167D01*
D17*
X010407Y006027D02*
X010407Y007927D01*
X011307Y007927D02*
X011307Y006027D01*
X011007Y006277D02*
X010857Y006127D01*
X010707Y006277D01*
X010857Y006127D02*
X010857Y006477D01*
X007652Y008949D02*
X007455Y008752D01*
D18*
X007747Y008667D02*
X007797Y008667D01*
X007772Y008667D02*
X007772Y008517D01*
X007747Y008517D02*
X007797Y008517D01*
X007846Y008542D02*
X007871Y008517D01*
X007921Y008517D01*
X007946Y008542D01*
X007993Y008542D02*
X008018Y008517D01*
X008068Y008517D01*
X008093Y008542D01*
X008093Y008592D01*
X008068Y008617D01*
X008043Y008617D01*
X007993Y008592D01*
X007993Y008667D01*
X008093Y008667D01*
X007946Y008642D02*
X007921Y008667D01*
X007871Y008667D01*
X007846Y008642D01*
X007846Y008542D01*
X010987Y007737D02*
X011187Y007737D01*
X011162Y007712D02*
X011162Y007762D01*
X011137Y007787D01*
X011112Y007787D01*
X011087Y007762D01*
X011087Y007712D01*
X011062Y007687D01*
X011037Y007687D01*
X011012Y007712D01*
X011012Y007762D01*
X011037Y007787D01*
X011062Y007834D02*
X011012Y007884D01*
X011162Y007884D01*
X011162Y007834D02*
X011162Y007934D01*
X011162Y007712D02*
X011137Y007687D01*
X011137Y007640D02*
X011012Y007640D01*
X011012Y007540D02*
X011137Y007540D01*
X011162Y007565D01*
X011162Y007615D01*
X011137Y007640D01*
M02*
