%
M48
M72
T01C0.0100
T02C0.0200
%
T01
X2675Y4675
X2350Y5850
X8250Y5800
X8275Y4375
T02
X600Y750
X1100Y750
X1600Y750
X2100Y750
X2600Y750
X3100Y750
X3600Y750
X4100Y750
X4600Y750
X5100Y750
X5600Y750
X6100Y750
X6600Y750
X7100Y750
X7600Y750
X8100Y750
X8600Y750
X9100Y750
X9600Y750
X10100Y750
X10100Y9350
X9600Y9350
X9100Y9350
X8600Y9350
X8100Y9350
X7600Y9350
X7100Y9350
X6600Y9350
X6100Y9350
X5600Y9350
X5100Y9350
X4600Y9350
X4100Y9350
X3600Y9350
X3100Y9350
X2600Y9350
X2100Y9350
X1600Y9350
X1100Y9350
X600Y9350
M30
