G75*
%MOIN*%
%OFA0B0*%
%FSLAX24Y24*%
%IPPOS*%
%LPD*%
%AMOC8*
5,1,8,0,0,1.08239X$1,22.5*
%
%ADD10C,0.0000*%
%ADD11C,0.0030*%
%ADD12R,0.0340X0.1020*%
%ADD13C,0.0050*%
D10*
X000100Y000100D02*
X000100Y010000D01*
X010600Y010000D01*
X010600Y000100D01*
X000100Y000100D01*
D11*
X000920Y001190D02*
X000920Y001335D01*
X000968Y001383D01*
X001065Y001383D01*
X001113Y001335D01*
X001113Y001190D01*
X001113Y001287D02*
X001210Y001383D01*
X001210Y001485D02*
X001210Y001678D01*
X001210Y001779D02*
X000920Y001779D01*
X000920Y001973D01*
X001065Y001876D02*
X001065Y001779D01*
X000920Y001678D02*
X000920Y001485D01*
X001210Y001485D01*
X001065Y001485D02*
X001065Y001581D01*
X001210Y001190D02*
X000920Y001190D01*
X001495Y002565D02*
X001495Y002710D01*
X001543Y002758D01*
X001640Y002758D01*
X001688Y002710D01*
X001688Y002565D01*
X001688Y002662D02*
X001785Y002758D01*
X001785Y002860D02*
X001785Y003053D01*
X001785Y002956D02*
X001495Y002956D01*
X001592Y002860D01*
X001640Y003154D02*
X001640Y003299D01*
X001688Y003348D01*
X001737Y003348D01*
X001785Y003299D01*
X001785Y003203D01*
X001737Y003154D01*
X001640Y003154D01*
X001543Y003251D01*
X001495Y003348D01*
X001995Y003348D02*
X001995Y003154D01*
X002140Y003154D01*
X002092Y003251D01*
X002092Y003299D01*
X002140Y003348D01*
X002237Y003348D01*
X002285Y003299D01*
X002285Y003203D01*
X002237Y003154D01*
X002285Y003053D02*
X002285Y002860D01*
X002285Y002956D02*
X001995Y002956D01*
X002092Y002860D01*
X002140Y002758D02*
X002188Y002710D01*
X002188Y002565D01*
X002188Y002662D02*
X002285Y002758D01*
X002140Y002758D02*
X002043Y002758D01*
X001995Y002710D01*
X001995Y002565D01*
X002285Y002565D01*
X002495Y002565D02*
X002495Y002710D01*
X002543Y002758D01*
X002640Y002758D01*
X002688Y002710D01*
X002688Y002565D01*
X002688Y002662D02*
X002785Y002758D01*
X002785Y002860D02*
X002785Y003053D01*
X002785Y002956D02*
X002495Y002956D01*
X002592Y002860D01*
X002640Y003154D02*
X002640Y003348D01*
X002785Y003299D02*
X002495Y003299D01*
X002640Y003154D01*
X002995Y003203D02*
X002995Y003299D01*
X003043Y003348D01*
X003092Y003348D01*
X003140Y003299D01*
X003188Y003348D01*
X003237Y003348D01*
X003285Y003299D01*
X003285Y003203D01*
X003237Y003154D01*
X003285Y003053D02*
X003285Y002860D01*
X003285Y002956D02*
X002995Y002956D01*
X003092Y002860D01*
X003140Y002758D02*
X003043Y002758D01*
X002995Y002710D01*
X002995Y002565D01*
X003285Y002565D01*
X003188Y002565D02*
X003188Y002710D01*
X003140Y002758D01*
X003188Y002662D02*
X003285Y002758D01*
X003495Y002710D02*
X003495Y002565D01*
X003785Y002565D01*
X003688Y002565D02*
X003688Y002710D01*
X003640Y002758D01*
X003543Y002758D01*
X003495Y002710D01*
X003592Y002860D02*
X003495Y002956D01*
X003785Y002956D01*
X003785Y002860D02*
X003785Y003053D01*
X003785Y003154D02*
X003592Y003348D01*
X003543Y003348D01*
X003495Y003299D01*
X003495Y003203D01*
X003543Y003154D01*
X003785Y003154D02*
X003785Y003348D01*
X003995Y003251D02*
X004285Y003251D01*
X004285Y003154D02*
X004285Y003348D01*
X004495Y003299D02*
X004495Y003203D01*
X004543Y003154D01*
X004737Y003154D01*
X004543Y003348D01*
X004737Y003348D01*
X004785Y003299D01*
X004785Y003203D01*
X004737Y003154D01*
X004785Y003053D02*
X004785Y002860D01*
X004785Y002956D02*
X004495Y002956D01*
X004592Y002860D01*
X004640Y002758D02*
X004543Y002758D01*
X004495Y002710D01*
X004495Y002565D01*
X004785Y002565D01*
X004688Y002565D02*
X004688Y002710D01*
X004640Y002758D01*
X004688Y002662D02*
X004785Y002758D01*
X004995Y002710D02*
X004995Y002565D01*
X005285Y002565D01*
X005188Y002565D02*
X005188Y002710D01*
X005140Y002758D01*
X005043Y002758D01*
X004995Y002710D01*
X005043Y002860D02*
X004995Y002908D01*
X004995Y003005D01*
X005043Y003053D01*
X005237Y003053D01*
X005285Y003005D01*
X005285Y002908D01*
X005237Y002860D01*
X005140Y002908D02*
X005140Y003053D01*
X005140Y002908D02*
X005092Y002860D01*
X005043Y002860D01*
X005188Y002662D02*
X005285Y002758D01*
X005495Y002710D02*
X005495Y002565D01*
X005785Y002565D01*
X005688Y002565D02*
X005688Y002710D01*
X005640Y002758D01*
X005543Y002758D01*
X005495Y002710D01*
X005543Y002860D02*
X005592Y002860D01*
X005640Y002908D01*
X005640Y003005D01*
X005688Y003053D01*
X005737Y003053D01*
X005785Y003005D01*
X005785Y002908D01*
X005737Y002860D01*
X005688Y002860D01*
X005640Y002908D01*
X005640Y003005D02*
X005592Y003053D01*
X005543Y003053D01*
X005495Y003005D01*
X005495Y002908D01*
X005543Y002860D01*
X005688Y002662D02*
X005785Y002758D01*
X005995Y002710D02*
X005995Y002565D01*
X006285Y002565D01*
X006188Y002565D02*
X006188Y002710D01*
X006140Y002758D01*
X006043Y002758D01*
X005995Y002710D01*
X006188Y002662D02*
X006285Y002758D01*
X006285Y002860D02*
X006237Y002860D01*
X006043Y003053D01*
X005995Y003053D01*
X005995Y002860D01*
X006495Y002710D02*
X006495Y002565D01*
X006785Y002565D01*
X006688Y002565D02*
X006688Y002710D01*
X006640Y002758D01*
X006543Y002758D01*
X006495Y002710D01*
X006688Y002662D02*
X006785Y002758D01*
X006737Y002860D02*
X006785Y002908D01*
X006785Y003005D01*
X006737Y003053D01*
X006688Y003053D01*
X006640Y003005D01*
X006640Y002860D01*
X006737Y002860D01*
X006640Y002860D02*
X006543Y002956D01*
X006495Y003053D01*
X006995Y003053D02*
X006995Y002860D01*
X007140Y002860D01*
X007092Y002956D01*
X007092Y003005D01*
X007140Y003053D01*
X007237Y003053D01*
X007285Y003005D01*
X007285Y002908D01*
X007237Y002860D01*
X007285Y002758D02*
X007188Y002662D01*
X007188Y002710D02*
X007188Y002565D01*
X007285Y002565D02*
X006995Y002565D01*
X006995Y002710D01*
X007043Y002758D01*
X007140Y002758D01*
X007188Y002710D01*
X007495Y002710D02*
X007495Y002565D01*
X007785Y002565D01*
X007688Y002565D02*
X007688Y002710D01*
X007640Y002758D01*
X007543Y002758D01*
X007495Y002710D01*
X007688Y002662D02*
X007785Y002758D01*
X007640Y002860D02*
X007640Y003053D01*
X007785Y003005D02*
X007495Y003005D01*
X007640Y002860D01*
X007995Y002908D02*
X007995Y003005D01*
X008043Y003053D01*
X008092Y003053D01*
X008140Y003005D01*
X008188Y003053D01*
X008237Y003053D01*
X008285Y003005D01*
X008285Y002908D01*
X008237Y002860D01*
X008285Y002758D02*
X008188Y002662D01*
X008188Y002710D02*
X008188Y002565D01*
X008285Y002565D02*
X007995Y002565D01*
X007995Y002710D01*
X008043Y002758D01*
X008140Y002758D01*
X008188Y002710D01*
X008043Y002860D02*
X007995Y002908D01*
X008140Y002956D02*
X008140Y003005D01*
X008495Y003005D02*
X008495Y002908D01*
X008543Y002860D01*
X008543Y002758D02*
X008640Y002758D01*
X008688Y002710D01*
X008688Y002565D01*
X008688Y002662D02*
X008785Y002758D01*
X008785Y002860D02*
X008592Y003053D01*
X008543Y003053D01*
X008495Y003005D01*
X008543Y002758D02*
X008495Y002710D01*
X008495Y002565D01*
X008785Y002565D01*
X008995Y002565D02*
X008995Y002710D01*
X009043Y002758D01*
X009140Y002758D01*
X009188Y002710D01*
X009188Y002565D01*
X009188Y002662D02*
X009285Y002758D01*
X009285Y002860D02*
X009285Y003053D01*
X009285Y002956D02*
X008995Y002956D01*
X009092Y002860D01*
X008785Y002860D02*
X008785Y003053D01*
X008995Y002565D02*
X009285Y002565D01*
X009468Y002023D02*
X009420Y001974D01*
X009420Y001829D01*
X009710Y001829D01*
X009710Y001974D01*
X009662Y002023D01*
X009468Y002023D01*
X009420Y001728D02*
X009710Y001728D01*
X009420Y001535D01*
X009710Y001535D01*
X009662Y001433D02*
X009565Y001433D01*
X009565Y001337D01*
X009662Y001433D02*
X009710Y001385D01*
X009710Y001288D01*
X009662Y001240D01*
X009468Y001240D01*
X009420Y001288D01*
X009420Y001385D01*
X009468Y001433D01*
X004543Y003348D02*
X004495Y003299D01*
X004285Y003053D02*
X004285Y002860D01*
X004285Y002956D02*
X003995Y002956D01*
X004092Y002860D01*
X004140Y002758D02*
X004043Y002758D01*
X003995Y002710D01*
X003995Y002565D01*
X004285Y002565D01*
X004188Y002565D02*
X004188Y002710D01*
X004140Y002758D01*
X004188Y002662D02*
X004285Y002758D01*
X004092Y003154D02*
X003995Y003251D01*
X003785Y002758D02*
X003688Y002662D01*
X003140Y003251D02*
X003140Y003299D01*
X002995Y003203D02*
X003043Y003154D01*
X002785Y002565D02*
X002495Y002565D01*
X001785Y002565D02*
X001495Y002565D01*
X001415Y006731D02*
X001415Y006876D01*
X001463Y006925D01*
X001560Y006925D01*
X001608Y006876D01*
X001608Y006731D01*
X001608Y006828D02*
X001705Y006925D01*
X001657Y007026D02*
X001705Y007074D01*
X001705Y007171D01*
X001657Y007219D01*
X001608Y007219D01*
X001560Y007171D01*
X001560Y007122D01*
X001560Y007171D02*
X001512Y007219D01*
X001463Y007219D01*
X001415Y007171D01*
X001415Y007074D01*
X001463Y007026D01*
X001463Y007320D02*
X001415Y007369D01*
X001415Y007465D01*
X001463Y007514D01*
X001512Y007514D01*
X001705Y007320D01*
X001705Y007514D01*
X001915Y007417D02*
X002205Y007417D01*
X002205Y007320D02*
X002205Y007514D01*
X002415Y007465D02*
X002415Y007369D01*
X002463Y007320D01*
X002657Y007320D01*
X002463Y007514D01*
X002657Y007514D01*
X002705Y007465D01*
X002705Y007369D01*
X002657Y007320D01*
X002657Y007219D02*
X002705Y007171D01*
X002705Y007074D01*
X002657Y007026D01*
X002705Y006925D02*
X002608Y006828D01*
X002608Y006876D02*
X002608Y006731D01*
X002705Y006731D02*
X002415Y006731D01*
X002415Y006876D01*
X002463Y006925D01*
X002560Y006925D01*
X002608Y006876D01*
X002463Y007026D02*
X002415Y007074D01*
X002415Y007171D01*
X002463Y007219D01*
X002512Y007219D01*
X002560Y007171D01*
X002608Y007219D01*
X002657Y007219D01*
X002560Y007171D02*
X002560Y007122D01*
X002205Y007074D02*
X002157Y007026D01*
X002205Y007074D02*
X002205Y007171D01*
X002157Y007219D01*
X002108Y007219D01*
X002060Y007171D01*
X002060Y007122D01*
X002060Y007171D02*
X002012Y007219D01*
X001963Y007219D01*
X001915Y007171D01*
X001915Y007074D01*
X001963Y007026D01*
X001963Y006925D02*
X002060Y006925D01*
X002108Y006876D01*
X002108Y006731D01*
X002108Y006828D02*
X002205Y006925D01*
X002205Y006731D02*
X001915Y006731D01*
X001915Y006876D01*
X001963Y006925D01*
X001705Y006731D02*
X001415Y006731D01*
X002012Y007320D02*
X001915Y007417D01*
X002415Y007465D02*
X002463Y007514D01*
X002915Y007465D02*
X002915Y007369D01*
X002963Y007320D01*
X003012Y007320D01*
X003060Y007369D01*
X003060Y007514D01*
X003157Y007514D02*
X003205Y007465D01*
X003205Y007369D01*
X003157Y007320D01*
X003205Y007219D02*
X003205Y007026D01*
X003012Y007219D01*
X002963Y007219D01*
X002915Y007171D01*
X002915Y007074D01*
X002963Y007026D01*
X002963Y006925D02*
X003060Y006925D01*
X003108Y006876D01*
X003108Y006731D01*
X003108Y006828D02*
X003205Y006925D01*
X003205Y006731D02*
X002915Y006731D01*
X002915Y006876D01*
X002963Y006925D01*
X003415Y006876D02*
X003415Y006731D01*
X003705Y006731D01*
X003608Y006731D02*
X003608Y006876D01*
X003560Y006925D01*
X003463Y006925D01*
X003415Y006876D01*
X003463Y007026D02*
X003415Y007074D01*
X003415Y007171D01*
X003463Y007219D01*
X003512Y007219D01*
X003705Y007026D01*
X003705Y007219D01*
X003657Y007320D02*
X003608Y007320D01*
X003560Y007369D01*
X003560Y007465D01*
X003608Y007514D01*
X003657Y007514D01*
X003705Y007465D01*
X003705Y007369D01*
X003657Y007320D01*
X003560Y007369D02*
X003512Y007320D01*
X003463Y007320D01*
X003415Y007369D01*
X003415Y007465D01*
X003463Y007514D01*
X003512Y007514D01*
X003560Y007465D01*
X003915Y007514D02*
X003915Y007320D01*
X003963Y007219D02*
X003915Y007171D01*
X003915Y007074D01*
X003963Y007026D01*
X003963Y006925D02*
X004060Y006925D01*
X004108Y006876D01*
X004108Y006731D01*
X004108Y006828D02*
X004205Y006925D01*
X004205Y007026D02*
X004012Y007219D01*
X003963Y007219D01*
X004157Y007320D02*
X004205Y007320D01*
X004157Y007320D02*
X003963Y007514D01*
X003915Y007514D01*
X004205Y007219D02*
X004205Y007026D01*
X004415Y007074D02*
X004463Y007026D01*
X004415Y007074D02*
X004415Y007171D01*
X004463Y007219D01*
X004512Y007219D01*
X004705Y007026D01*
X004705Y007219D01*
X004657Y007320D02*
X004560Y007320D01*
X004560Y007465D01*
X004608Y007514D01*
X004657Y007514D01*
X004705Y007465D01*
X004705Y007369D01*
X004657Y007320D01*
X004560Y007320D02*
X004463Y007417D01*
X004415Y007514D01*
X004915Y007514D02*
X004915Y007320D01*
X005060Y007320D01*
X005012Y007417D01*
X005012Y007465D01*
X005060Y007514D01*
X005157Y007514D01*
X005205Y007465D01*
X005205Y007369D01*
X005157Y007320D01*
X005205Y007219D02*
X005205Y007026D01*
X005012Y007219D01*
X004963Y007219D01*
X004915Y007171D01*
X004915Y007074D01*
X004963Y007026D01*
X004963Y006925D02*
X005060Y006925D01*
X005108Y006876D01*
X005108Y006731D01*
X005108Y006828D02*
X005205Y006925D01*
X005205Y006731D02*
X004915Y006731D01*
X004915Y006876D01*
X004963Y006925D01*
X004705Y006925D02*
X004608Y006828D01*
X004608Y006876D02*
X004608Y006731D01*
X004705Y006731D02*
X004415Y006731D01*
X004415Y006876D01*
X004463Y006925D01*
X004560Y006925D01*
X004608Y006876D01*
X004205Y006731D02*
X003915Y006731D01*
X003915Y006876D01*
X003963Y006925D01*
X003705Y006925D02*
X003608Y006828D01*
X002963Y007514D02*
X002915Y007465D01*
X002963Y007514D02*
X003157Y007514D01*
X001255Y008154D02*
X001255Y008251D01*
X001207Y008300D01*
X001110Y008300D01*
X001110Y008203D01*
X001013Y008300D02*
X000965Y008251D01*
X000965Y008154D01*
X001013Y008106D01*
X001207Y008106D01*
X001255Y008154D01*
X001255Y008401D02*
X000965Y008401D01*
X001255Y008594D01*
X000965Y008594D01*
X000965Y008695D02*
X000965Y008840D01*
X001013Y008889D01*
X001207Y008889D01*
X001255Y008840D01*
X001255Y008695D01*
X000965Y008695D01*
X005415Y007465D02*
X005560Y007320D01*
X005560Y007514D01*
X005705Y007465D02*
X005415Y007465D01*
X005463Y007219D02*
X005415Y007171D01*
X005415Y007074D01*
X005463Y007026D01*
X005463Y006925D02*
X005560Y006925D01*
X005608Y006876D01*
X005608Y006731D01*
X005608Y006828D02*
X005705Y006925D01*
X005705Y007026D02*
X005512Y007219D01*
X005463Y007219D01*
X005705Y007219D02*
X005705Y007026D01*
X005915Y007074D02*
X005963Y007026D01*
X005915Y007074D02*
X005915Y007171D01*
X005963Y007219D01*
X006012Y007219D01*
X006205Y007026D01*
X006205Y007219D01*
X006157Y007320D02*
X006205Y007369D01*
X006205Y007465D01*
X006157Y007514D01*
X006108Y007514D01*
X006060Y007465D01*
X006060Y007417D01*
X006060Y007465D02*
X006012Y007514D01*
X005963Y007514D01*
X005915Y007465D01*
X005915Y007369D01*
X005963Y007320D01*
X005963Y006925D02*
X006060Y006925D01*
X006108Y006876D01*
X006108Y006731D01*
X006108Y006828D02*
X006205Y006925D01*
X006205Y006731D02*
X005915Y006731D01*
X005915Y006876D01*
X005963Y006925D01*
X005705Y006731D02*
X005415Y006731D01*
X005415Y006876D01*
X005463Y006925D01*
X006415Y006876D02*
X006415Y006731D01*
X006705Y006731D01*
X006608Y006731D02*
X006608Y006876D01*
X006560Y006925D01*
X006463Y006925D01*
X006415Y006876D01*
X006463Y007026D02*
X006415Y007074D01*
X006415Y007171D01*
X006463Y007219D01*
X006512Y007219D01*
X006705Y007026D01*
X006705Y007219D01*
X006705Y007320D02*
X006512Y007514D01*
X006463Y007514D01*
X006415Y007465D01*
X006415Y007369D01*
X006463Y007320D01*
X006705Y007320D02*
X006705Y007514D01*
X006915Y007417D02*
X007205Y007417D01*
X007205Y007320D02*
X007205Y007514D01*
X007415Y007465D02*
X007415Y007369D01*
X007463Y007320D01*
X007657Y007320D01*
X007463Y007514D01*
X007657Y007514D01*
X007705Y007465D01*
X007705Y007369D01*
X007657Y007320D01*
X007705Y007219D02*
X007705Y007026D01*
X007512Y007219D01*
X007463Y007219D01*
X007415Y007171D01*
X007415Y007074D01*
X007463Y007026D01*
X007463Y006925D02*
X007560Y006925D01*
X007608Y006876D01*
X007608Y006731D01*
X007608Y006828D02*
X007705Y006925D01*
X007915Y006876D02*
X007963Y006925D01*
X008060Y006925D01*
X008108Y006876D01*
X008108Y006731D01*
X008108Y006828D02*
X008205Y006925D01*
X008205Y007026D02*
X008205Y007219D01*
X008205Y007122D02*
X007915Y007122D01*
X008012Y007026D01*
X007915Y006876D02*
X007915Y006731D01*
X008205Y006731D01*
X008415Y006731D02*
X008415Y006876D01*
X008463Y006925D01*
X008560Y006925D01*
X008608Y006876D01*
X008608Y006731D01*
X008608Y006828D02*
X008705Y006925D01*
X008705Y007026D02*
X008705Y007219D01*
X008705Y007122D02*
X008415Y007122D01*
X008512Y007026D01*
X008512Y007320D02*
X008463Y007320D01*
X008415Y007369D01*
X008415Y007465D01*
X008463Y007514D01*
X008512Y007514D01*
X008560Y007465D01*
X008560Y007369D01*
X008608Y007320D01*
X008657Y007320D01*
X008705Y007369D01*
X008705Y007465D01*
X008657Y007514D01*
X008608Y007514D01*
X008560Y007465D01*
X008560Y007369D02*
X008512Y007320D01*
X008205Y007369D02*
X008205Y007465D01*
X008157Y007514D01*
X007963Y007514D01*
X007915Y007465D01*
X007915Y007369D01*
X007963Y007320D01*
X008012Y007320D01*
X008060Y007369D01*
X008060Y007514D01*
X008205Y007369D02*
X008157Y007320D01*
X008415Y006731D02*
X008705Y006731D01*
X008915Y006731D02*
X008915Y006876D01*
X008963Y006925D01*
X009060Y006925D01*
X009108Y006876D01*
X009108Y006731D01*
X009108Y006828D02*
X009205Y006925D01*
X009205Y007026D02*
X009205Y007219D01*
X009205Y007122D02*
X008915Y007122D01*
X009012Y007026D01*
X008915Y007320D02*
X008915Y007514D01*
X008963Y007514D01*
X009157Y007320D01*
X009205Y007320D01*
X009205Y006731D02*
X008915Y006731D01*
X007705Y006731D02*
X007415Y006731D01*
X007415Y006876D01*
X007463Y006925D01*
X007205Y006925D02*
X007108Y006828D01*
X007108Y006876D02*
X007108Y006731D01*
X007205Y006731D02*
X006915Y006731D01*
X006915Y006876D01*
X006963Y006925D01*
X007060Y006925D01*
X007108Y006876D01*
X007205Y007026D02*
X007012Y007219D01*
X006963Y007219D01*
X006915Y007171D01*
X006915Y007074D01*
X006963Y007026D01*
X007205Y007026D02*
X007205Y007219D01*
X007012Y007320D02*
X006915Y007417D01*
X007415Y007465D02*
X007463Y007514D01*
X006705Y006925D02*
X006608Y006828D01*
X009490Y008056D02*
X009490Y008201D01*
X009538Y008250D01*
X009635Y008250D01*
X009683Y008201D01*
X009683Y008056D01*
X009683Y008153D02*
X009780Y008250D01*
X009780Y008351D02*
X009780Y008544D01*
X009780Y008645D02*
X009490Y008645D01*
X009490Y008839D01*
X009635Y008742D02*
X009635Y008645D01*
X009490Y008544D02*
X009490Y008351D01*
X009780Y008351D01*
X009635Y008351D02*
X009635Y008447D01*
X009780Y008056D02*
X009490Y008056D01*
D12*
X010075Y001700D03*
D13*
X009975Y001063D02*
X010225Y001063D01*
X010413Y000875D01*
X010413Y000563D01*
X010288Y000438D01*
X009975Y000438D01*
X009850Y000563D01*
X009725Y000438D01*
X009475Y000438D01*
X009350Y000563D01*
X009225Y000438D01*
X008975Y000438D01*
X008850Y000563D01*
X008725Y000438D01*
X008475Y000438D01*
X008350Y000563D01*
X008225Y000438D01*
X007975Y000438D01*
X007850Y000563D01*
X007725Y000438D01*
X007475Y000438D01*
X007350Y000563D01*
X007225Y000438D01*
X006975Y000438D01*
X006850Y000563D01*
X006725Y000438D01*
X006475Y000438D01*
X006350Y000563D01*
X006225Y000438D01*
X005975Y000438D01*
X005850Y000563D01*
X005725Y000438D01*
X005475Y000438D01*
X005350Y000563D01*
X005225Y000438D01*
X004975Y000438D01*
X004850Y000563D01*
X004725Y000438D01*
X004475Y000438D01*
X004350Y000563D01*
X004225Y000438D01*
X003975Y000438D01*
X003850Y000563D01*
X003725Y000438D01*
X003475Y000438D01*
X003350Y000563D01*
X003225Y000438D01*
X002975Y000438D01*
X002850Y000563D01*
X002725Y000438D01*
X002475Y000438D01*
X002350Y000563D01*
X002225Y000438D01*
X001975Y000438D01*
X001850Y000563D01*
X001725Y000438D01*
X001475Y000438D01*
X001350Y000563D01*
X001225Y000438D01*
X000975Y000438D01*
X000850Y000563D01*
X000725Y000438D01*
X000413Y000438D01*
X000288Y000563D01*
X000288Y000938D01*
X000413Y001063D01*
X000725Y001063D01*
X000850Y000938D01*
X000975Y001063D01*
X001225Y001063D01*
X001350Y000938D01*
X001475Y001063D01*
X001725Y001063D01*
X001850Y000938D01*
X001975Y001063D01*
X002225Y001063D01*
X002350Y000938D01*
X002475Y001063D01*
X002725Y001063D01*
X002850Y000938D01*
X002975Y001063D01*
X003225Y001063D01*
X003350Y000938D01*
X003475Y001063D01*
X003725Y001063D01*
X003850Y000938D01*
X003975Y001063D01*
X004225Y001063D01*
X004350Y000938D01*
X004475Y001063D01*
X004725Y001063D01*
X004850Y000938D01*
X004975Y001063D01*
X005225Y001063D01*
X005350Y000938D01*
X005475Y001063D01*
X005725Y001063D01*
X005850Y000938D01*
X005975Y001063D01*
X006225Y001063D01*
X006350Y000938D01*
X006475Y001063D01*
X006725Y001063D01*
X006850Y000938D01*
X006975Y001063D01*
X007225Y001063D01*
X007350Y000938D01*
X007475Y001063D01*
X007725Y001063D01*
X007850Y000938D01*
X007975Y001063D01*
X008225Y001063D01*
X008350Y000938D01*
X008475Y001063D01*
X008725Y001063D01*
X008850Y000938D01*
X008975Y001063D01*
X009225Y001063D01*
X009350Y000938D01*
X009475Y001063D01*
X009725Y001063D01*
X009850Y000938D01*
X009975Y001063D01*
X009975Y009038D02*
X009850Y009163D01*
X009725Y009038D01*
X009475Y009038D01*
X009350Y009163D01*
X009225Y009038D01*
X008975Y009038D01*
X008850Y009163D01*
X008725Y009038D01*
X008475Y009038D01*
X008350Y009163D01*
X008225Y009038D01*
X007975Y009038D01*
X007850Y009163D01*
X007725Y009038D01*
X007475Y009038D01*
X007350Y009163D01*
X007225Y009038D01*
X006975Y009038D01*
X006850Y009163D01*
X006725Y009038D01*
X006475Y009038D01*
X006350Y009163D01*
X006225Y009038D01*
X005975Y009038D01*
X005850Y009163D01*
X005725Y009038D01*
X005475Y009038D01*
X005350Y009163D01*
X005225Y009038D01*
X004975Y009038D01*
X004850Y009163D01*
X004725Y009038D01*
X004475Y009038D01*
X004350Y009163D01*
X004225Y009038D01*
X003975Y009038D01*
X003850Y009163D01*
X003725Y009038D01*
X003475Y009038D01*
X003350Y009163D01*
X003225Y009038D01*
X002975Y009038D01*
X002850Y009163D01*
X002725Y009038D01*
X002475Y009038D01*
X002350Y009163D01*
X002225Y009038D01*
X001975Y009038D01*
X001850Y009163D01*
X001725Y009038D01*
X001475Y009038D01*
X001350Y009163D01*
X001225Y009038D01*
X000975Y009038D01*
X000850Y009163D01*
X000725Y009038D01*
X000413Y009038D01*
X000288Y009163D01*
X000288Y009538D01*
X000413Y009663D01*
X000725Y009663D01*
X000850Y009538D01*
X000975Y009663D01*
X001225Y009663D01*
X001350Y009538D01*
X001475Y009663D01*
X001725Y009663D01*
X001850Y009538D01*
X001975Y009663D01*
X002225Y009663D01*
X002350Y009538D01*
X002475Y009663D01*
X002725Y009663D01*
X002850Y009538D01*
X002975Y009663D01*
X003225Y009663D01*
X003350Y009538D01*
X003475Y009663D01*
X003725Y009663D01*
X003850Y009538D01*
X003975Y009663D01*
X004225Y009663D01*
X004350Y009538D01*
X004475Y009663D01*
X004725Y009663D01*
X004850Y009538D01*
X004975Y009663D01*
X005225Y009663D01*
X005350Y009538D01*
X005475Y009663D01*
X005725Y009663D01*
X005850Y009538D01*
X005975Y009663D01*
X006225Y009663D01*
X006350Y009538D01*
X006475Y009663D01*
X006725Y009663D01*
X006850Y009538D01*
X006975Y009663D01*
X007225Y009663D01*
X007350Y009538D01*
X007475Y009663D01*
X007725Y009663D01*
X007850Y009538D01*
X007975Y009663D01*
X008225Y009663D01*
X008350Y009538D01*
X008475Y009663D01*
X008725Y009663D01*
X008850Y009538D01*
X008975Y009663D01*
X009225Y009663D01*
X009350Y009538D01*
X009475Y009663D01*
X009725Y009663D01*
X009850Y009538D01*
X009975Y009663D01*
X010225Y009663D01*
X010413Y009475D01*
X010413Y009163D01*
X010288Y009038D01*
X009975Y009038D01*
M02*
